<?xml version="1.0" ?><svg enable-background="new 0 0 792 792" id="Layer_1" version="1.1" viewBox="0 0 792 792" xml:space="preserve" xmlns="http://www.w3.org/2000/svg" xmlns:xlink="http://www.w3.org/1999/xlink"><g><g><path d="M346.5,756.8c-2.4,0-4.7-0.1-6.9-0.1c-5.2,0-10.6,0-16-0.5l-21.8-1.4c-7.2-0.5-14.3-1-21.2-1.4l-10.3-0.7    c-2.4-0.2-4.8-0.5-7.1-0.7l-3-0.3l-38.8-4.8c-5.2-0.6-10.1-1.2-14.8-1.9c-4.4-0.9-8.4-1.6-12.2-2.3l-2.7-0.5l-22.6-4.5l0.4-5.1    l-0.9,5c-0.3-0.1-2.6-0.6-3.2-0.7c-1.9-0.3-3.4-1.7-3.9-3.5l-0.5-1.5c-1.9-5.6-3.9-12-6.4-20.1c-3.3-11.4-6.3-22.6-9-33.6    l-1.7-7.2c-0.8-3.4-1.6-6.9-2.4-10.4c-4.4-20.7-7.8-39.4-10.5-57.4c0-0.2-0.1-0.5-0.1-0.7l-0.2-1.5c-1.5-9.6-2.9-19.5-4.1-29.1    c-1.4-10.6-2.6-21.7-3.6-31.5c-0.6-5.7-1.2-11.5-1.7-17.4l-0.2-1.6c-0.1-1.2-0.2-2.4-0.3-3.6c-1.2-13.4-2.4-27.5-3.4-41.8    c-1.3-18.7-2.5-38.9-3.6-60l-0.2-4.4c-0.4-7.2-0.6-14.3-0.9-21.3c-0.1-3.5-1.6-48.2-1.6-48.2c-0.1-1.6-0.2-3.5-0.2-5.3    c-0.1-1.2-0.1-2.1-0.1-3.1l0.3-43.4c0-3.4,0.1-6.7,0.1-10c0-3.3,0-6.7,0.1-9.9c0-1.7,0.1-3.5,0.2-5.2c0-0.5,0-1.4,0-2.2    c0.3-5.8,0.6-11.5,0.9-17l0.4-8.2c0.3-5.4,0.6-10.5,0.9-15.5c0.4-6.8,0.7-13.3,1.1-19.6l0.4-5.5l0.4-3.8l3.7-33.9    c0-0.2,0.1-0.4,0.1-0.7c0-0.2,0.1-0.5,0.1-0.8c0.4-1.7,1.7-3.1,3.3-3.6c0.5-0.2,0.9-0.3,1.4-0.5c5.1-1.8,10.3-3.7,16-5.5    c9.6-3.5,20.6-6.3,32.3-9.2l20.4-5.2c1.4-0.4,2.8-0.7,4.2-1l6.1-1.1c8-1.4,16.2-2.8,24.7-4.2c0,0,8.4-1.4,10.1-1.7    c1.6-7.3,3.8-14.6,6.4-21.5c3.9-10.2,8.7-19.7,14.2-28.1c6.7-9.7,13.5-17.3,20.9-23.4c8.7-6.9,17.9-11.7,27.5-14.3    c4.9-1.5,10.3-2.2,16-2.2c4.6,0,9.4,0.5,14.2,1.5c1.1,0.3,1.7,0.4,2.4,0.6c1.6,0.3,3.3,0.7,5.1,1.5l6,2.3c1.8,0.8,3.3,1.7,4.8,2.5    l4.4,2.5c0.2,0.1,0.3,0.2,0.5,0.3l2.6,1.9c7.8,5.1,14.1,12.2,18.6,17.4c8.8,11,15.6,23.5,21,38.2c0.2-0.7,0.5-1.3,0.7-2    c3.9-10.2,8.7-19.7,14.2-28.1c6.6-9.6,13.4-17.2,20.9-23.4c8.7-6.9,18-11.7,27.6-14.3c4.9-1.5,10.3-2.2,15.9-2.2    c4.6,0,9.3,0.5,14.2,1.5c1,0.3,1.7,0.4,2.4,0.6c1.6,0.3,3.4,0.7,5.2,1.5c0,0,4.8,1.8,6,2.3c1.8,0.8,3.3,1.6,4.8,2.5l4.4,2.5    c0.2,0.1,0.3,0.2,0.5,0.3l2.6,1.9c7.5,4.9,13.3,11.3,18.6,17.5c8.9,11.1,15.9,24.1,21.1,38.7c1.6,4.8,2.9,9.5,4.1,14    c1.8,0.2,3.6,0.4,5.4,0.5c5.6,0.6,11,1.3,16.2,2c3,0.4,5.9,0.8,8.8,1.1c5.9,0.8,11.6,1.7,17.1,2.6l6.3,1    c16.2,2.8,32.5,6.3,48.5,10.5c0,0,1.9,0.5,2.3,0.6c1.9,0.6,3.3,2.2,3.6,4.2l0.6,5.3c2.1,18.7,4.8,42,5.6,69.8l0.5,11.4    c0.6,13.4,1.3,27.2,1.8,41.8c0.2,19,0.8,66.4,0.8,66.4c0.1,8.1,0.2,16.3,0.1,24.5l-0.6,64.7l-2.2,33.2l-0.4,5.5    c-0.2,3.7-0.5,7.5-0.9,11.2c-0.4,3.1-3.2,23.5-3.7,27c-1,7.3-2,14.8-3.2,22.1c0,0-7,35.4-7.3,37.2c-0.7,3.4-1.3,6.9-2.1,10.3    c-1.3,5.1-2.6,10.1-3.8,15.1l-7.4,29.5l-3.1,10.7c-1.7,5.9-3.4,11.8-5,17.5c-4.3,15.6-9,30-13.5,44l-2.3,7    c-3.4,11.1-7.1,21.5-10.5,31.3c-0.1,0.3-0.6,1.9-0.6,1.9c-0.6,1.7-2,3-3.7,3.3c-1.1,0.3-6.5,1.4-6.5,1.4c-4.2,1-8.7,2-13.6,3.1    c0,0-11.6,2.5-14.7,3.1c-4.1,0.8-8.3,1.4-12.7,2.1l-3.9,0.6l-40.6,6.2c-2.1,0.3-4.3,0.6-6.4,0.9c-3.5,0.4-6.9,0.7-10.4,1    c-6.9,0.7-13.9,1.4-21.1,2.1c-7.2,0.7-14.5,1.4-21.9,2.1c-5.5,0.7-11.2,0.9-16.7,1.2c-2,0.1-4,0.2-6.1,0.3    c-15.2,0.7-30.6,1.4-45.9,2.1c-0.1,0-0.2,0-0.2,0C392.5,757.2,346.5,756.8,346.5,756.8z"/><g><path d="M480.9,171.5c1.9,4.4,3,8.5,3.7,11.7c0.7,3.2,1.1,5.8,1.3,7.5c0.2,1.8,0.4,2.7,0.4,2.7s-0.2,1-0.4,2.7     c-0.2,1.7-0.7,4.3-1.4,7.5c-1.5,6.2-4.2,15.5-11.2,23.7c-3.5,3.9-8.1,7.7-13.9,8.8c-5.7,1.3-11.9-0.6-16.9-4.7     c-2.5-2.1-4.6-4.7-6.5-7.5c-1.9-2.9-3.4-6-4.6-9.3c-2.5-6.6-3.6-13.9-3.7-21.1c0-5.5,0.7-10.9,2-16.1c4-0.3,8.1-0.6,12.1-1     c5.9-0.5,11.8-1,17.5-1.8c5.8-0.8,11.5-1.5,17.1-2.2C477.9,172,479.4,171.7,480.9,171.5z"/><path d="M412.8,223.9c-3.4-9.2-5.9-18.9-7.6-28.7c0,0,0-0.1,0-0.1c-0.3-1.9-0.6-3.9-0.9-5.9     c-0.5-3.6-0.9-7.1-1.1-10.7c0.9,0,1.7,0,2.5,0c0.1,0,0.1,0,0.1,0c0.3,0,0.5,0,0.7,0c5.9-0.2,11.8-0.4,17.7-0.7     c-1.3,5.1-1.9,10.5-1.9,15.7c0.1,7.8,1.3,15.7,4,23c1.4,3.6,3.2,7.1,5.3,10.3c2.2,3.2,4.7,6.1,7.7,8.6c5.9,4.8,14,7.2,21.1,5.4     c7.1-1.5,12.5-6.1,16.2-10.7c7.3-9.6,9-19.5,9.7-26.1c0.3-3.3,0.3-6,0.1-7.8c-0.1-1.7-0.2-2.7-0.2-2.7s0-0.9,0.2-2.7     c0.1-1.8,0.1-4.4-0.2-7.8c-0.4-3.3-1-7.4-2.5-12c8.6-1.5,16.8-2.8,24.7-4.7c5-1.2,10-2.3,14.7-3.4c4.7-1.2,9.2-2.6,13.6-3.8     c4.3-1.3,8.5-2.4,12.4-3.7c3.9-1.4,7.5-2.7,11-3.9c1.5-0.6,2.9-1.1,4.3-1.6c0.4,3.1,0.6,5.8,0.7,8c0.3,4.7,0.5,7.3,0.5,7.3     s-0.2,2.5-0.6,7.3c-0.2,4.7-1.1,11.7-2.5,20.5c-1.6,8.8-4.3,19.2-8.6,30.8c-4.5,11.5-10.9,24-20.5,35.5     c-5,5.5-10.4,11.3-17.1,15.7l-2.4,1.7l-2.7,1.5c-1.8,0.9-3.5,2-5.4,2.8c-1.9,0.8-3.8,1.5-5.8,2.2c-1.9,0.9-4,1-6.1,1.6     c-8.2,1.6-17.1,1.8-25.6-0.8c-8.5-2.5-16.6-6.8-23.8-12.6c-7.1-5.9-13.3-13.2-18.7-21.2C420.7,242,416.4,233.1,412.8,223.9z" fill="#FFFFFF"/><path d="M406.7,173.1c-0.2,0.1-0.4,0.1-0.5,0.1c-0.1,0-0.3,0-0.4,0c-1,0-1.9,0-2.9,0c-0.2-2.7-0.3-5.4-0.3-8.1     c0-7.8,0.6-15.6,1.6-23.3c0,0,0,0,0,0c0.2-1.8,0.5-3.6,0.8-5.3c0.7-4.2,1.5-8.4,2.5-12.5c0.4-1.8,0.9-3.6,1.4-5.4     c1.1-4.2,2.4-8.3,3.9-12.4c3.5-9.2,7.8-18.1,13.1-26.1c5.4-8,11.6-15.3,18.7-21.3c7.2-5.8,15.3-10.2,23.9-12.7     c8.5-2.6,17.4-2.4,25.7-0.8c2,0.6,4.2,0.7,6.1,1.5c1.9,0.8,3.9,1.5,5.8,2.2c1.9,0.8,3.6,1.9,5.5,2.8l2.6,1.5l2.5,1.7     c6.8,4.4,12.2,10.1,17.2,15.7c9.6,11.6,16,24.1,20.4,35.6c2,5.6,3.7,10.8,5.1,15.8c0.5,1.6,0.9,3.1,1.2,4.6     c0.9,3.7,1.6,7.1,2.2,10.4c0.6,3.7,1.1,7,1.5,10c-1.6,0.5-3.3,1-5,1.5c-3.5,1.1-7.2,2.2-11.1,3.4c-3.9,1.2-8.2,2.1-12.4,3.3     c-4.4,1.1-8.9,2.3-13.6,3.5c-4.7,1-9.6,2.1-14.6,3.1c-8.1,1.9-16.7,3.2-25.5,4.6c-1.1,0.2-2.2,0.4-3.3,0.6c-1,0.2-2,0.3-3,0.5     c-5.6,0.7-11.2,1.3-16.9,2c-5.7,0.8-11.5,1.2-17.4,1.6c-3.3,0.3-6.6,0.6-10,0.8c-1.8,0.2-3.7,0.3-5.6,0.4     C419.5,172.7,413.1,172.9,406.7,173.1z" fill="#BCBEC0"/><path d="M397.8,178.5c0.6,8.6,1.8,17.1,3.7,25.5c-1.6,6.4-3.7,13.5-6.5,21c-4.5,11.5-10.9,24-20.4,35.5     c-5,5.5-10.4,11.3-17.1,15.7L355,278l-2.7,1.5c-1.8,0.9-3.5,2-5.4,2.8c-1.9,0.8-3.9,1.5-5.8,2.2c-1.9,0.8-4,1-6.1,1.6     c-8.2,1.6-17.1,1.8-25.5-0.8c-8.5-2.4-16.6-6.8-23.8-12.6c-7.1-5.9-13.3-13.2-18.7-21.2c-5.3-8.1-9.5-16.9-13.1-26.1     c-6.8-18.6-10-38.7-10.2-58.8c0-4.6,0.2-9.2,0.6-13.8c8.6,2.3,19,5,30.7,7.9c8.7,2.2,18.3,4.3,28.4,6.5c6,1.3,12.2,2.5,18.6,3.7     c-2.7,7.2-3.9,14.9-4,22.6c0.1,7.8,1.3,15.7,4,23c1.4,3.6,3.2,7.1,5.3,10.3c2.2,3.2,4.7,6.1,7.7,8.6c5.9,4.8,14,7.2,21.1,5.4     c7.1-1.5,12.5-6.1,16.2-10.7c7.3-9.6,9-19.5,9.7-26.1c0.3-3.3,0.3-6,0.1-7.8c-0.1-1.7-0.2-2.7-0.2-2.7s0-0.9,0.2-2.7     c0.1-1.8,0.1-4.4-0.2-7.8c-0.2-1.4-0.4-3-0.7-4.7l6.8,0.1C391.1,178.4,394.5,178.5,397.8,178.5z" fill="#FFFFFF"/><path d="M397.3,165.1c0,2.7,0.1,5.4,0.2,8.1c-3.2,0-6.4-0.2-9.5-0.2l-8.3-0.2h-0.6c-0.8-0.1-1.5-0.1-2.3-0.2     c-2.2-0.2-4.3-0.3-6.5-0.5c-5.8-0.6-11.6-0.8-17.3-1.6c-5.7-0.8-11.3-1.6-16.9-2.3c-2.3-0.4-4.7-0.8-7-1.1     c-1.7-0.3-3.4-0.6-5.1-0.9c-6.8-1.1-13.3-2.4-19.7-3.7c-10-2.1-19.6-4.2-28.4-6c-11.9-2.5-22.5-4.7-31.4-6.4     c0.5-5.3,1.2-10.5,2.1-15.6c0.3-1.7,0.6-3.3,1-5c1.6-7.4,3.6-14.7,6.2-21.8c3.5-9.2,7.8-18.1,13.1-26.1     c5.4-8,11.6-15.3,18.7-21.3c7.2-5.8,15.3-10.3,23.9-12.7c8.5-2.6,17.4-2.4,25.7-0.8c2,0.6,4.2,0.7,6.1,1.5     c1.9,0.8,3.9,1.5,5.8,2.2c1.9,0.8,3.6,1.9,5.5,2.8l2.7,1.5l2.4,1.7c6.8,4.4,12.2,10.1,17.2,15.7c9.6,11.6,16,24.1,20.5,35.6     c1.4,3.9,2.6,7.6,3.8,11.2c0.6,1.8,1,3.5,1.5,5.3c0.3,1.1,0.6,2.2,0.8,3.3C398.7,139.8,397.4,152.5,397.3,165.1z" fill="#BCBEC0"/><path d="M381.3,190.7c0.2,1.8,0.4,2.7,0.4,2.7s-0.2,1-0.4,2.7c-0.2,1.7-0.7,4.3-1.4,7.5c-1.5,6.2-4.2,15.5-11.2,23.7     c-3.5,3.9-8.1,7.7-13.9,8.8c-5.7,1.3-11.9-0.6-16.9-4.7c-2.5-2.1-4.6-4.7-6.5-7.5c-1.9-2.9-3.4-6-4.6-9.3     c-2.5-6.6-3.6-13.9-3.7-21.1c0-7.2,1.2-14.5,3.6-21.2c0.1-0.2,0.1-0.3,0.2-0.5c2.7,0.5,5.5,1,8.3,1.4c5.6,0.8,11.3,1.6,17.1,2.5     c5.8,0.8,11.6,1.1,17.5,1.7c3,0.3,5.9,0.5,8.9,0.8c0.6,1.8,1,3.5,1.3,5C380.8,186.4,381.2,189,381.3,190.7z"/><path d="M490.9,431.5c7-0.7,13.8-2.1,20.4-3.3c6.6-1.2,13.2-2.4,19.5-3.5c12.6-2.7,24.4-5.8,35.4-8.4     c10-3,19.2-5.9,27.3-8.6c0,0.1,0,0.1,0,0.1c-6.2,12.2-18.3,27.8-36,43.2c-0.8,0.7-1.6,1.4-2.4,2c-1.1,0.3-2.2,0.6-3.3,1     c-1.8,0.5-3.7,1.1-5.7,1.6c-1.9,0.6-3.9,0.9-5.9,1.4c-3.9,0.9-8,1.8-12,2.8c-4,0.8-8.1,1.6-12.1,2.4c-2,0.4-3.9,0.8-5.9,1.1     c-2,0.3-3.9,0.6-5.8,0.9c-3.8,0.6-7.5,1.3-11.1,1.7c-3.5,0.4-6.8,0.7-9.9,1.2c-6.1,1-11.3,1.4-14.9,2.2c-3.6,0.7-5.7,1.2-5.7,1.2     s2.1,0.3,5.8,0.6c3.6,0.2,8.9,0.7,15.1,0.3c3.2-0.1,6.5-0.5,10.1-0.7c3.6-0.2,7.3-0.9,11.2-1.3c1.9-0.2,3.9-0.5,5.9-0.8     c2-0.2,4-0.7,6.1-1c4-0.8,8.2-1.5,12.2-2.3c4.1-1,8.2-2,12.1-3.1c1.3-0.4,2.5-0.7,3.8-1c-5.6,4.3-11.5,8.7-17.8,13     c-5.6,3.8-11.6,7.1-17.5,10.8c-3.2,1.5-6.4,3-9.6,4.5l-4.8,2.2c-1.7,0.7-3.4,1.3-5.1,1.9c-3.4,1.3-6.9,2.5-10.4,3.8     c-3.5,1.1-7.1,2-10.8,3.1c-7.2,2.2-14.8,3.4-22.2,5c-15.2,2.5-30.7,4.5-46.4,5.4c-7.8,0.6-15.6,0.9-23.4,1.1     c-7.8-0.3-15.5-0.3-23.1-1.4c-7.6-0.6-15-2.5-22.3-3.9c-7.2-2-14.3-3.9-21.1-6.8c-3.4-1.2-6.8-2.5-9.9-4.2     c-3.2-1.6-6.5-3-9.6-4.6c-6-3.6-12.1-6.8-17.5-10.8c-4.8-3.2-9.4-6.6-13.7-10.1c2.5,0.7,5,1.3,7.4,1.9c2.1,0.6,4.3,0.8,6.5,1.1     c2.1,0.3,4.2,0.6,6.3,0.8c4.2,0.5,8.2,1.2,12,1.3c3.8,0.2,7.4,0.3,10.8,0.5c6.7,0.3,12.2-0.4,16.1-0.7c1.9-0.2,3.4-0.4,4.5-0.5     c1-0.1,1.6-0.2,1.6-0.2s-0.6-0.1-1.6-0.3c-1-0.2-2.5-0.4-4.5-0.7c-3.8-0.6-9.4-0.8-15.9-1.5c-3.3-0.3-6.8-0.7-10.6-1     c-3.8-0.2-7.6-1-11.7-1.6c-2-0.4-4.1-0.7-6.2-1c-2.1-0.4-4.2-0.6-6.2-1.3c-4.1-1.1-8.3-2.2-12.5-3.4c-2.1-0.5-4.1-1.3-6.1-2l0,0     c-1.9-1.7-3.7-3.4-5.5-5c-15.7-15.1-27.6-29.4-35.8-40.1c0.4,0.2,0.7,0.4,1,0.5c8.5,3.5,18.3,7.1,29.3,9.8     c10.9,2.9,23,5,35.8,6.8c12.7,1.8,26.4,3,40.4,3.8c7,0.5,14.1,0.8,21.4,1c7.2,0.2,14.5,0.5,21.9,0.6c14.8,0.1,29.8,0.6,44.7-0.1     c7.5-0.2,15-0.5,22.5-0.7c7.4-0.6,14.8-1.1,22.2-1.7c7.3-0.5,14.6-1,21.8-2C476.8,433.2,483.9,432.4,490.9,431.5z" fill="#FFFFFF"/><path d="M180,669.6c1.4,1.1,2.3,2.7,3,3.9c0.3,0.6,0.5,1.1,0.7,1.4c0.2,0.4,0.3,0.6,0.3,0.6s-0.4,0.8-1.1,2     c-0.7,1.1-1.7,2.7-3.1,3.7c-0.7,0.6-1.4,0.9-2.1,1c-0.7,0.1-1.4-0.2-2-0.7c-0.4-0.2-0.7-0.7-1-1c-0.3-0.5-0.6-0.9-0.8-1.5     c-0.3-0.6-0.5-1.4-0.6-2.1c0,0,0.1,0,0.2,0c1.5-0.2,2.4-0.5,2.4-0.5s-0.7-0.5-2.1-1.2c-0.2-0.1-0.4-0.2-0.6-0.3     c0-1,0.1-2,0.5-2.9c0.2-0.6,0.5-1,0.8-1.5c0.3-0.4,0.6-0.8,1-1.1c0.7-0.6,1.4-0.9,2.2-0.8C178.6,668.6,179.3,669.1,180,669.6z"/><path d="M160.6,600.6c0-0.9,0.2-1.8,0.5-2.5c0.2-0.6,0.5-1,0.8-1.5c0.3-0.4,0.6-0.8,1-1.1c0.7-0.6,1.4-0.9,2.2-0.8     c0.8,0.1,1.5,0.5,2.2,1c1.4,1.1,2.3,2.7,3,3.9c0.3,0.6,0.5,1.1,0.7,1.4c0.2,0.4,0.3,0.6,0.3,0.6s-0.4,0.8-1.1,2     c-0.7,1.1-1.7,2.7-3.1,3.7c-0.7,0.6-1.4,0.9-2.1,1c-0.7,0.1-1.4-0.2-2-0.7c-0.4-0.2-0.7-0.7-1-1c-0.3-0.5-0.6-0.9-0.8-1.5     c0-0.2-0.1-0.3-0.1-0.5c1.3-0.4,2.3-1.1,3-1.6c0.8-0.7,1.1-1.2,1.1-1.2s-0.7-0.3-1.6-0.6C162.8,601,161.8,600.8,160.6,600.6z"/><path d="M153.1,523.6c-0.3-0.5-0.6-0.9-0.8-1.5c-0.1-0.3-0.3-0.7-0.4-1.1c0.8-0.2,1.5-0.4,2.1-0.6c1.4-0.5,2.1-1,2.1-1     s-0.8-0.4-2.2-0.8c-0.7-0.2-1.4-0.5-2.3-0.6c0-1,0.1-2,0.5-2.9c0.2-0.6,0.5-1,0.8-1.5c0.3-0.4,0.6-0.8,1-1.1     c0.7-0.6,1.4-0.9,2.2-0.8c0.8,0.1,1.5,0.5,2.2,1c1.4,1.1,2.3,2.7,3,3.9c0.3,0.6,0.5,1.1,0.7,1.4c0.2,0.4,0.3,0.6,0.3,0.6     s-0.4,0.8-1.1,2c-0.7,1.1-1.7,2.7-3.1,3.7c-0.7,0.6-1.4,0.9-2.1,1c-0.7,0.1-1.4-0.2-2-0.7C153.7,524.4,153.4,524,153.1,523.6z"/><path d="M144.6,422.7c-0.3-0.7-0.5-1.4-0.6-2.2c0.6-0.1,1.1-0.3,1.6-0.4c1-0.3,1.7-0.7,1.7-0.7s-0.6-0.5-1.5-1.1     c-0.5-0.3-1.1-0.6-1.7-0.9c0-0.6,0.2-1.2,0.4-1.7c0.2-0.6,0.5-1,0.8-1.5c0.3-0.4,0.6-0.8,1-1.1c0.7-0.6,1.4-0.9,2.2-0.8     c0.8,0.1,1.5,0.5,2.2,1c1.4,1.1,2.3,2.7,3,3.9c0.3,0.6,0.5,1.1,0.7,1.4c0.2,0.4,0.3,0.6,0.3,0.6s-0.4,0.8-1.1,2     c-0.7,1.1-1.7,2.7-3.1,3.7c-0.7,0.6-1.4,0.9-2.1,1c-0.7,0.1-1.4-0.2-2-0.7c-0.4-0.2-0.7-0.7-1-1     C145.2,423.7,144.8,423.3,144.6,422.7z"/><path d="M143.5,268.6c-0.3-0.5-0.6-0.9-0.8-1.5c-0.4-0.9-0.6-2-0.6-3.1c0.1,0,0.3-0.1,0.4-0.2c1.1-0.7,1.7-1.2,1.7-1.2     s-0.7-0.3-1.9-0.6c0-0.7,0.2-1.3,0.5-1.9c0.2-0.6,0.5-1,0.7-1.5c0.3-0.4,0.6-0.8,1-1.1c0.7-0.6,1.4-0.9,2.2-0.8     c0.8,0.1,1.5,0.5,2.2,1c1.3,1.1,2.3,2.7,3,3.9c0.4,0.6,0.5,1.1,0.7,1.4c0.2,0.4,0.3,0.6,0.3,0.6s-0.4,0.8-1.1,2     c-0.7,1.1-1.7,2.7-3.1,3.7c-0.6,0.6-1.4,0.9-2,1c-0.7,0.1-1.4-0.2-2.1-0.7C144.1,269.4,143.8,269,143.5,268.6z"/><path d="M142.7,343.7c-0.2-0.5-0.4-1.1-0.5-1.6c0.4-0.1,0.7-0.2,0.9-0.3c1.4-0.4,2.2-0.8,2.2-0.8s-0.8-0.5-2.1-1     c-0.4-0.1-0.8-0.3-1.2-0.4c0.1-1,0.2-2,0.6-2.9c0.2-0.6,0.5-1,0.7-1.5c0.3-0.4,0.6-0.8,1-1.1c0.7-0.6,1.4-0.9,2.2-0.8     c0.8,0.1,1.5,0.5,2.2,1c1.3,1.1,2.3,2.7,3,3.9c0.4,0.6,0.5,1.1,0.7,1.4c0.2,0.4,0.3,0.6,0.3,0.6s-0.4,0.8-1.1,2     c-0.7,1.1-1.7,2.7-3.1,3.7c-0.6,0.6-1.4,0.9-2,1c-0.7,0.1-1.4-0.2-2.1-0.7c-0.4-0.2-0.6-0.7-1-1     C143.2,344.7,142.9,344.3,142.7,343.7z"/><path d="M142.8,196.9c0.8-0.4,1.4-0.7,1.9-1.1c1.3-0.8,2-1.5,2-1.5s-1-0.2-2.5-0.3c-0.4,0-0.8,0-1.3,0c0.1-0.6,0.2-1.1,0.4-1.5     c0.2-0.6,0.5-1,0.8-1.5c0.3-0.4,0.6-0.8,1-1.1c0.7-0.6,1.4-0.9,2.2-0.8c0.8,0.1,1.5,0.5,2.2,1c1.4,1.1,2.3,2.7,3,3.9     c0.3,0.6,0.5,1.1,0.7,1.4c0.2,0.4,0.3,0.6,0.3,0.6s-0.4,0.8-1.1,2c-0.7,1.1-1.7,2.7-3.1,3.7c-0.7,0.6-1.4,0.9-2.1,1     c-0.7,0.1-1.4-0.2-2-0.7c-0.4-0.2-0.7-0.7-1-1c-0.3-0.5-0.6-0.9-0.8-1.5C143,198.8,142.9,197.9,142.8,196.9z"/><path d="M492,498c1.7-0.7,3.5-1.3,5.2-2l5-2.4c3.3-1.6,6.6-3.2,9.8-4.7c6.1-3.8,12.3-7.3,17.8-11.2     c9.4-6.4,18-13.1,25.7-19.8c1.5-1.3,3-2.6,4.4-3.9c1.3-1.1,2.5-2.2,3.7-3.4c15.7-14.9,26.1-30.1,31.2-42c0.2-0.5,0.4-1,0.6-1.4     h0.1c8.6-3,16-5.8,21.9-8.7c6-2.6,10.7-4.7,13.9-6.1c2.8-1.3,4.4-2,4.8-2.1c-0.4,0.1-2.1,0.7-5,1.7c-3.3,1.2-8.2,2.9-14.3,5     c-5.6,2.2-12.3,4.5-20.1,6.8c-0.5,0.2-1,0.3-1.5,0.5c-8.9,2.6-19,5.4-30,8.5c-11,2.4-22.7,5.3-35.2,7.8     c-6.3,1.1-12.8,2.1-19.4,3.3c-6.6,1-13.4,2.4-20.3,3c-6.9,0.8-14,1.6-21.2,2.4c-7.1,1-14.4,1.4-21.7,1.9     c-7.3,0.5-14.7,1-22.1,1.5c-7.4,0.2-14.9,0.4-22.3,0.7c-14.9,0.7-29.8,0.2-44.5,0.2c-7.3,0-14.7-0.3-21.8-0.5     c-7.2-0.2-14.3-0.5-21.3-0.9c-13.9-0.8-27.4-1.7-40-3.4c-12.7-1.6-24.6-3.6-35.4-6.2c-10.9-2.3-20.5-5.6-29-8.6     c-2.1-0.9-4.2-1.8-6.1-2.6c-0.9-0.4-1.7-0.7-2.5-1.1c-1-0.5-2-0.9-2.9-1.4c-3.4-1.9-6.7-3.4-9.5-5.1c-2.7-1.8-5.1-3.4-7.2-4.8     c-2.1-1.4-3.6-3-5-4c-2-1.7-3.4-2.9-3.9-3.3c0.5,0.5,1.7,1.7,3.6,3.7c1.3,1.2,2.6,2.9,4.6,4.5c2,1.6,4.3,3.4,6.9,5.4     c2.7,1.9,5.9,3.7,9.3,5.8c2.2,1.2,4.5,2.3,7,3.6c0.1,0.1,0.2,0.3,0.3,0.4c7.1,10.9,17.9,25.7,33.1,41.5c1,1,2,2,3,3.1     c2.6,2.5,5.3,5,8.1,7.6c6.4,5.8,13.5,11.7,21.4,17c5.5,4.1,11.7,7.5,17.9,11.2c3.2,1.7,6.5,3.2,9.7,4.9c3.3,1.7,6.7,3.1,10.2,4.4     c6.9,3,14.2,5,21.6,7.1c7.5,1.5,15.1,3.5,23,4.1c7.8,1.2,15.7,1.3,23.7,1.5c7.9-0.2,15.9-0.6,23.8-1.1c15.8-0.9,31.5-3,46.9-5.7     c7.6-1.7,15.3-3,22.6-5.3c3.7-1.1,7.4-2,11-3.2C484.9,500.6,488.5,499.2,492,498z M440.8,557.1c5.7-0.8,11.1-2.3,16.3-3.3     c5.1-1.5,10-2.6,14.3-4.3c8.7-3.2,15.6-6.9,20-9.8c2.1-1.6,3.9-2.9,5-3.7c1.1-0.9,1.7-1.4,1.7-1.4s-0.7,0.4-2,1     c-1.3,0.6-3.2,1.5-5.6,2.7c-4.8,2.2-11.8,5-20.5,7.6c-4.3,1.4-9.1,2.4-14.1,3.8c-5.1,0.8-10.4,2.2-16.1,2.8     c-2.8,0.4-5.6,0.7-8.5,1.1c-2.9,0.3-5.8,0.5-8.8,0.8c-5.9,0.6-12,0.6-18,0.8c-6-0.1-12.1,0.1-18-0.3c-3-0.2-5.9-0.3-8.8-0.4     c-2.9-0.3-5.8-0.5-8.6-0.8c-5.7-0.4-11-1.4-16.2-2c-5.1-1-9.9-1.7-14.4-2.7c-8.9-1.8-16.2-3.7-21.3-5.2c-4.4-1.4-7.3-2.1-7.9-2.3     c0.6,0.4,3.1,1.8,7.2,4c4.8,2.3,12,5.2,21,7.6c4.4,1.3,9.4,2.1,14.5,3.3c5.2,0.7,10.7,1.8,16.4,2.3c2.9,0.3,5.8,0.6,8.8,0.9     c2.9,0.1,5.9,0.4,8.9,0.5c6.1,0.5,12.2,0.3,18.4,0.4c6.1-0.4,12.3-0.3,18.3-1.1c3-0.3,6-0.6,8.9-0.9     C435,558,437.9,557.6,440.8,557.1z M398,226.2c2-6,3.6-11.7,4.7-17c1.4,5.7,3.1,11.2,5.1,16.7c3.7,9.5,8.2,18.7,13.7,27.1     c5.7,8.3,12.2,16,19.8,22.3c7.8,6.1,16.5,10.9,25.8,13.4c9.2,2.8,18.9,2.5,27.8,0.7c2.2-0.6,4.5-0.8,6.6-1.7     c2.1-0.8,4.2-1.6,6.2-2.5c2-0.9,3.9-2,5.8-3.1l2.8-1.6l2.6-1.9c7.2-4.7,12.7-10.8,17.8-16.7c9.8-12.2,16-25.3,20.1-37.1     c4-11.9,6.3-22.7,7.3-31.6c1.1-8.9,1.5-16,1.4-20.8c0-4.8,0-7.3,0-7.3s0-2.5,0-7.3c0-2.3,0-5-0.2-8.3c0-0.8-0.1-1.6-0.2-2.5     c-0.2-3-0.6-6.3-1-9.9c-0.4-3.1-0.9-6.5-1.6-10c2.6,0.2,5.1,0.4,7.7,0.7c8.5,0.8,16.8,1.9,24.8,2.8c8,1,15.7,2.2,23.1,3.3     c18.5,3,34.9,6.2,48.8,9.3c1.3,18.6,3.4,43.4,3.9,72.7c0.5,16.4,1.1,34.2,1.8,53.1c0.1,18.8,0.2,38.7,0.4,59.3     c0,10.3,0.2,20.8,0,31.4c-0.1,10.6-0.3,21.3-0.4,32c-0.1,10.8-0.3,21.7-0.4,32.6c-0.7,10.9-1.4,21.8-2.1,32.6     c-0.4,5.5-0.6,10.9-1.1,16.4c-0.7,5.4-1.5,10.8-2.2,16.2c-1.5,10.8-2.7,21.6-4.4,32.2c-2,10.6-4,21.1-6,31.4     c-1.1,5.2-1.9,10.4-3.1,15.5c-1.2,5-2.4,10.1-3.6,15.1c-2.4,9.9-4.7,19.8-7.1,29.4c-2.7,9.5-5.2,18.9-7.8,27.9     c-4.9,18.2-10.4,35.2-15.2,50.9c-3.5,11.8-7.1,22.7-10.3,32.9c-5.3,0.9-11.2,1.9-17.7,3c-4.6,0.8-9.5,1.7-14.7,2.7     c-5.1,0.8-10.7,1.4-16.4,2.2c-11.4,1.6-23.8,3.3-36.8,5.1c-3.3,0.4-6.6,0.9-9.9,1.3c-3.4,0.3-6.7,0.6-10.2,0.9     c-6.9,0.6-13.9,1.2-21.1,1.9c-7.1,0.6-14.4,1.3-21.8,1.9c-7.3,0.8-14.8,0.9-22.3,1.3c-15.1,0.6-30.4,1.2-45.7,1.8     c-15.4-0.1-30.7-0.2-45.8-0.4c-7.5-0.1-15,0.2-22.4-0.5c-7.4-0.5-14.7-0.9-21.9-1.3c-7.1-0.4-14.2-0.8-21.1-1.2     c-3.5-0.2-6.9-0.4-10.2-0.6c-3.4-0.2-6.7-0.7-10-1c-13.1-1.4-25.5-2.8-36.9-4c-5.7-0.6-11.2-1.2-16.4-1.7     c-5.2-0.8-10.1-1.5-14.7-2.2c-9.1-1.3-17.1-2.4-23.7-3.4c-2.1-6.8-4.3-14-6.4-21.5c-2.8-10.1-5.6-20.9-8.2-32.2     c0.7,0,1.5,0,2.2,0c0.8,0,1.6,0,2.3,0c1.5,0,3,0,4.4,0c1.4,0,2.7,0.2,3.9,0.1c0.2,0,0.4,0,0.6,0c0.1,1.3,0.4,2.6,1,3.9     c0.3,0.9,0.9,1.7,1.4,2.5c0.7,0.8,1.3,1.5,2.2,2c1.6,1.2,3.9,1.7,5.9,1.2c1.9-0.4,3.4-1.5,4.3-2.7c1.8-2.4,1.9-4.8,1.7-6.3     c-0.3-1.5-0.7-2.3-0.7-2.3s0.1-0.2,0.2-0.6c0.1-0.4,0.3-1,0.4-1.7c0.2-1.5,0-3.8-1.8-6.2c-0.8-1.2-2.3-2.2-4.2-2.7     c-1.9-0.5-4.1,0-5.7,1.2c-0.9,0.5-1.5,1.2-2.2,2c-0.6,0.8-1.2,1.6-1.5,2.4c-0.5,1-0.8,2-1,3.1c0,0-0.1-0.1-0.2-0.1     c-1.2-0.3-2.6-0.4-4.1-0.6c-1.5-0.2-3-0.3-4.5-0.4c-0.8,0-1.6-0.1-2.4-0.2c-0.8,0-1.6,0-2.4,0c-0.4,0-0.8,0-1.1-0.1     c-1-4.3-1.9-8.7-2.9-13.2c-3.5-17.3-6.9-35.5-9.7-54.5c0,0,0,0,0.1,0c0.8,0.2,1.7,0.4,2.6,0.5l1.4,0.3l1.4,0.2     c1,0.1,1.9,0.2,3,0.4c1,0.1,2,0.1,3,0.1l1.5,0.1c0.5,0,1-0.1,1.4-0.1c0.1,0,0.3,0,0.4-0.1c0.1,0.6,0.3,1.2,0.6,1.8     c0.3,0.9,0.9,1.7,1.4,2.5c0.7,0.8,1.3,1.5,2.2,2c1.6,1.2,3.9,1.7,5.9,1.2c1.9-0.4,3.4-1.5,4.3-2.7c1.8-2.5,1.9-4.8,1.7-6.3     c-0.3-1.5-0.7-2.3-0.7-2.3s0.1-0.2,0.2-0.6c0.1-0.4,0.3-1,0.4-1.7c0.2-1.5,0-3.8-1.8-6.2c-0.8-1.2-2.3-2.2-4.2-2.7     c-1.9-0.5-4.1,0-5.7,1.2c-0.9,0.5-1.5,1.2-2.2,2c-0.6,0.8-1.2,1.6-1.5,2.4c-0.7,1.3-1,2.8-1.1,4.3c-0.5,0-0.8,0-1.3-0.1l-1.4-0.1     l-2.9-0.2c-1-0.1-1.9-0.1-2.9-0.1l-1.4-0.1l-1.4,0c-0.9,0-1.8,0-2.7,0c-0.4,0-0.8,0-1.2,0c-1.4-9.5-2.7-19.2-3.8-29.1     c-1.4-10.3-2.4-20.8-3.5-31.4c-0.6-5.5-1.1-11.1-1.6-16.6c1.4,0,2.8-0.1,4.1-0.1c0.8,0,1.6,0,2.3-0.1c0.8,0,1.5,0,2.3-0.1     c1.5-0.1,2.9-0.2,4.3-0.3c0.8-0.1,1.5-0.1,2.2-0.2c0.1,0.8,0.4,1.6,0.8,2.3c0.3,0.9,0.9,1.7,1.4,2.5c0.7,0.8,1.3,1.5,2.2,2     c1.6,1.2,3.9,1.7,5.9,1.2c1.9-0.4,3.4-1.5,4.3-2.7c1.8-2.5,1.9-4.8,1.7-6.3c-0.3-1.5-0.7-2.3-0.7-2.3s0.1-0.2,0.2-0.6     c0.1-0.4,0.3-1,0.4-1.7c0.2-1.5,0-3.8-1.8-6.2c-0.8-1.2-2.3-2.2-4.2-2.7c-1.9-0.5-4.1,0-5.7,1.2c-0.9,0.5-1.5,1.2-2.2,2     c-0.6,0.8-1.2,1.6-1.5,2.4c-0.7,1.3-1,2.8-1.1,4.3c-0.7,0-1.3-0.1-2-0.1c-1.3,0-2.8,0-4.3-0.1c-0.8,0-1.5,0-2.3,0     c-0.8,0-1.5,0-2.3,0c-1.5,0-3,0-4.5,0c-1.3-14-2.3-28.1-3.3-42.2c-1.3-19.1-2.4-38.4-3.5-57.4l0.9,0.3c1.1,0.4,2.2,0.7,3.4,1.1     c1.2,0.2,2.3,0.5,3.5,0.7l1.7,0.3l1.7,0.3c1.1,0.1,2.1,0.4,3.2,0.4c0.1,0,0.2,0,0.3,0c0.1,1.4,0.4,2.8,1,4.1     c0.3,0.9,0.9,1.7,1.4,2.5c0.7,0.8,1.3,1.5,2.2,2c1.6,1.2,3.9,1.7,5.9,1.2c1.9-0.4,3.4-1.5,4.3-2.7c1.8-2.5,1.9-4.8,1.7-6.3     c-0.3-1.5-0.7-2.3-0.7-2.3s0.1-0.2,0.2-0.6c0.1-0.4,0.3-1,0.4-1.7c0.2-1.5,0-3.8-1.8-6.2c-0.8-1.2-2.3-2.2-4.2-2.7     c-1.9-0.5-4.1,0-5.7,1.2c-0.9,0.5-1.5,1.2-2.2,2c-0.6,0.8-1.2,1.6-1.5,2.4c-0.4,0.7-0.6,1.5-0.8,2.2c-0.9-0.2-1.8-0.4-2.8-0.7     l-1.6-0.4l-1.6-0.4c-1.1-0.2-2.2-0.4-3.3-0.7c-1.1-0.3-2.2-0.6-3.3-0.8l-1.6-0.4c-0.3,0-0.6-0.1-1-0.2c-0.1-0.6-0.1-1.1-0.1-1.7     c-0.6-10.6-0.9-21.2-1.3-31.5c-0.4-10.4-0.8-20.7-1.2-30.8c-0.1-2.1-0.1-4.1-0.3-6.2c1.2,0,2.3,0.2,3.5,0.2c0.8,0,1.5,0,2.3,0.1     c0.8,0,1.5,0,2.3,0c1.5,0,3,0.1,4.3,0.1c1.2,0.1,2.4,0.1,3.5,0c0.2,1.1,0.4,2.1,0.9,3.1c0.3,0.9,0.9,1.7,1.4,2.5     c0.7,0.8,1.3,1.5,2.2,2c1.7,1.2,4,1.7,5.9,1.2c1.9-0.4,3.5-1.5,4.3-2.7c1.8-2.5,1.9-4.8,1.7-6.3c-0.3-1.5-0.7-2.3-0.7-2.3     s0.1-0.2,0.2-0.6c0.1-0.4,0.4-1,0.4-1.7c0.1-1.5,0-3.8-1.8-6.2c-0.9-1.2-2.3-2.2-4.2-2.7c-1.9-0.5-4.1,0-5.8,1.2     c-0.9,0.5-1.5,1.2-2.2,2c-0.5,0.8-1.1,1.6-1.5,2.4c-0.6,1.2-0.9,2.4-1,3.7c-1-0.1-2.1-0.3-3.2-0.4c-1.4-0.1-2.8-0.3-4.3-0.5     c-0.8,0-1.5-0.1-2.2-0.2c-0.8-0.1-1.6-0.2-2.3-0.2c-1.3-0.1-2.6-0.1-4-0.3c0-1.2-0.1-2.3-0.1-3.5c0-4.9,0-9.9,0-14.7     c0-9.7,0-19.3,0-28.5c0-7,0-13.9,0-20.6c1-0.1,1.9-0.3,2.9-0.5c1.3-0.2,2.6-0.5,3.9-0.7l1.9-0.4c0.6-0.2,1.2-0.3,1.8-0.4     c1.2-0.3,2.4-0.6,3.5-0.8c0.8-0.2,1.5-0.4,2.2-0.6c0.2,1,0.5,2.1,0.9,3.1c0.3,0.9,0.9,1.7,1.4,2.5c0.7,0.8,1.3,1.5,2.2,2     c1.7,1.2,4,1.7,5.9,1.2c1.9-0.4,3.5-1.5,4.3-2.7c1.8-2.5,1.9-4.8,1.7-6.3c-0.3-1.5-0.7-2.3-0.7-2.3s0.1-0.2,0.2-0.6     c0.1-0.4,0.4-1,0.4-1.7c0.1-1.5,0-3.8-1.8-6.2c-0.9-1.2-2.3-2.2-4.2-2.7c-1.9-0.5-4.1,0-5.8,1.2c-0.9,0.5-1.5,1.2-2.2,2     c-0.5,0.8-1.1,1.6-1.5,2.4c-0.6,1.1-0.9,2.4-1,3.6c-0.9,0-1.9,0.2-2.9,0.3c-1.2,0.1-2.3,0.4-3.6,0.5c-0.6,0.1-1.3,0.2-1.9,0.3     l-1.9,0.4c-1.3,0.2-2.6,0.5-4,0.7c-0.6,0.1-1.1,0.3-1.7,0.4c-0.1-0.4,0-0.8,0-1.1c0.3-8.7,0.7-17.1,1-25.2     c0.5-12.7,0.7-24.7,1.2-35.6c0.8-0.2,1.7-0.3,2.5-0.4c0.8-0.2,1.6-0.3,2.4-0.5c0.8-0.2,1.6-0.3,2.5-0.5c1.6-0.3,3.1-0.5,4.5-1     c0.9-0.3,1.8-0.6,2.7-0.9c0.1,0.9,0.4,1.7,0.8,2.6c0.3,0.9,0.9,1.7,1.4,2.5c0.7,0.8,1.3,1.5,2.2,2c1.6,1.2,3.9,1.7,5.9,1.2     c1.9-0.4,3.4-1.5,4.3-2.7c1.8-2.4,1.9-4.8,1.7-6.3c-0.3-1.5-0.7-2.3-0.7-2.3s0.1-0.2,0.2-0.6c0.1-0.4,0.3-1,0.4-1.7     c0.2-1.5,0-3.8-1.8-6.2c-0.8-1.2-2.3-2.2-4.2-2.7c-1.9-0.5-4.1,0-5.7,1.2c-0.9,0.5-1.5,1.2-2.2,2c-0.6,0.8-1.2,1.6-1.5,2.4     c-0.7,1.3-1,2.7-1.1,4.1c-1.1,0.2-2.2,0.4-3.4,0.7c-1.4,0.4-3,0.4-4.5,0.6c-0.8,0.1-1.6,0.2-2.4,0.3c-0.8,0.1-1.6,0.3-2.4,0.4     c-0.5,0.1-0.9,0.2-1.4,0.2c0-1,0.1-2,0.2-3.1c0.9-12.6,1.6-23.6,2.2-32.8c5.2-1.6,10.8-3.4,16.8-5.2c11.5-3.8,24.9-6.4,39.5-9.9     c3.6-0.8,7.3-1.7,11.1-2.6c1.9-0.4,3.8-0.9,5.8-1.3c1.9-0.3,3.9-0.6,5.9-1c8-1.3,16.2-2.6,24.6-4c3.9-0.7,7.9-1.3,11.9-1.9     c-0.8,4.6-1.5,9.3-1.9,14c-0.1,0.8-0.2,1.5-0.3,2.3c-0.4,5-0.7,10-0.7,15.1c0.2,20.7,3.5,41.5,10.6,60.7     c3.7,9.5,8.2,18.7,13.7,27.1c5.7,8.3,12.2,16,19.9,22.3c7.7,6.1,16.5,10.9,25.8,13.4c9.2,2.8,18.9,2.5,27.8,0.7     c2.2-0.6,4.5-0.8,6.6-1.7c2.1-0.8,4.2-1.6,6.2-2.5c2-0.9,3.9-2,5.8-3.1l2.8-1.6l2.6-1.9c7.1-4.7,12.7-10.8,17.8-16.7     C387.6,251,393.8,238,398,226.2z" fill="#EAEAEA"/><path d="M386.7,554.8c5.9,0.4,12,0.2,18,0.3c6-0.3,12.1-0.2,18-0.8c3-0.2,5.9-0.5,8.8-0.8c2.9-0.4,5.7-0.7,8.5-1.1     c5.7-0.6,11-2,16.1-2.8c4.9-1.4,9.8-2.3,14.1-3.8c8.6-2.6,15.6-5.4,20.5-7.6c2.3-1.2,4.2-2.1,5.6-2.7c1.3-0.6,2-1,2-1     s-0.6,0.5-1.7,1.4c-1.2,0.8-2.9,2.1-5,3.7c-4.5,3-11.3,6.7-20,9.8c-4.3,1.7-9.2,2.8-14.3,4.3c-5.2,1-10.6,2.5-16.3,3.3     c-2.9,0.5-5.8,0.9-8.7,1.3c-2.9,0.3-5.9,0.6-8.9,0.9c-6,0.8-12.2,0.7-18.3,1.1c-6.1-0.1-12.3,0.1-18.4-0.4c-3-0.2-6-0.4-8.9-0.5     c-3-0.3-5.9-0.6-8.8-0.9c-5.7-0.5-11.2-1.6-16.4-2.3c-5.1-1.2-10.1-1.9-14.5-3.3c-8.9-2.4-16.1-5.3-21-7.6     c-4.1-2.1-6.6-3.6-7.2-4c0.6,0.2,3.5,0.9,7.9,2.3c5.1,1.4,12.4,3.3,21.3,5.2c4.4,1,9.3,1.7,14.4,2.7c5.1,0.6,10.5,1.6,16.2,2     c2.8,0.2,5.7,0.5,8.6,0.8C380.8,554.5,383.8,554.6,386.7,554.8z"/><path d="M425.5,437.8c-7.5,0.3-15,0.5-22.5,0.7c-14.9,0.7-29.9,0.3-44.7,0.1c-7.4,0-14.6-0.4-21.9-0.6c-7.2-0.3-14.3-0.6-21.4-1     c-14-0.9-27.6-2-40.4-3.8c-12.8-1.8-24.9-3.9-35.8-6.8c-11-2.7-20.8-6.3-29.3-9.8c-0.4-0.2-0.7-0.4-1-0.5     c8.2,10.8,20.1,25,35.8,40.1c1.8,1.6,3.6,3.3,5.5,5l0,0c2,0.8,3.9,1.6,6.1,2c4.2,1.1,8.4,2.2,12.5,3.4c2,0.7,4.1,0.9,6.2,1.3     c2.1,0.4,4.1,0.7,6.2,1c4,0.7,7.9,1.4,11.7,1.6c3.8,0.4,7.3,0.7,10.6,1c6.5,0.7,12.1,1,15.9,1.5c1.9,0.3,3.5,0.5,4.5,0.7     c1,0.2,1.6,0.3,1.6,0.3s-0.6,0.1-1.6,0.2c-1.1,0.1-2.6,0.3-4.5,0.5c-3.9,0.3-9.4,0.9-16.1,0.7c-3.4-0.1-6.9-0.3-10.8-0.5     c-3.9-0.1-7.9-0.8-12-1.3c-2.1-0.3-4.2-0.6-6.3-0.8c-2.1-0.3-4.3-0.5-6.5-1.1c-2.4-0.7-4.9-1.3-7.4-1.9     c4.3,3.5,8.8,6.9,13.7,10.1c5.4,4,11.5,7.2,17.5,10.8c3.1,1.6,6.4,3.1,9.6,4.6c3.2,1.6,6.5,3,9.9,4.2c6.7,2.9,13.9,4.7,21.1,6.8     c7.3,1.5,14.7,3.3,22.3,3.9c7.6,1.1,15.3,1.2,23.1,1.4c7.7-0.2,15.5-0.5,23.4-1.1c15.7-0.8,31.2-2.9,46.4-5.4     c7.4-1.7,15-2.9,22.2-5c3.6-1.1,7.2-1.9,10.8-3.1c3.5-1.3,6.9-2.5,10.4-3.8c1.7-0.6,3.5-1.2,5.1-1.9l4.8-2.2     c3.3-1.5,6.5-3.1,9.6-4.5c6-3.7,11.9-6.9,17.5-10.8c6.3-4.2,12.3-8.6,17.8-13c-1.2,0.3-2.5,0.6-3.8,1c-4,1-8.1,2-12.1,3.1     c-4.1,0.8-8.2,1.6-12.2,2.3c-2,0.4-4,0.8-6.1,1c-2,0.3-4,0.5-5.9,0.8c-3.9,0.5-7.6,1.1-11.2,1.3c-3.6,0.3-7,0.6-10.1,0.7     c-6.2,0.4-11.5,0-15.1-0.3c-3.7-0.3-5.8-0.6-5.8-0.6s2.1-0.5,5.7-1.2c3.6-0.8,8.8-1.2,14.9-2.2c3.1-0.5,6.4-0.8,9.9-1.2     c3.5-0.4,7.2-1.1,11.1-1.7c1.9-0.2,3.8-0.6,5.8-0.9c2-0.2,3.9-0.7,5.9-1.1c4-0.8,8.1-1.6,12.1-2.4c4-1,8.1-1.9,12-2.8     c2-0.5,4-0.9,5.9-1.4c1.9-0.6,3.8-1.1,5.7-1.6c1.1-0.4,2.3-0.7,3.3-1c0.8-0.7,1.6-1.4,2.4-2c17.7-15.4,29.8-31,36-43.2     c0,0,0,0,0-0.1c-8.2,2.8-17.3,5.6-27.3,8.6c-11,2.6-22.7,5.7-35.4,8.4c-6.3,1.1-12.9,2.3-19.5,3.5c-6.7,1.2-13.5,2.6-20.4,3.3     c-7,0.9-14.1,1.7-21.3,2.6c-7.2,1-14.5,1.5-21.8,2C440.4,436.7,433,437.3,425.5,437.8z M358.5,433.4c14.6,0,29.6,0.5,44.5-0.2     c7.4-0.3,14.9-0.5,22.3-0.7c7.4-0.5,14.7-1,22.1-1.5c7.3-0.5,14.6-0.9,21.7-1.9c7.2-0.8,14.2-1.6,21.2-2.4c7-0.6,13.7-2,20.3-3     c6.6-1.1,13.1-2.2,19.4-3.3c12.5-2.5,24.3-5.5,35.2-7.8c11-3.1,21.1-5.9,30-8.5c0.5-0.1,1-0.3,1.5-0.5c7.8-2.3,14.6-4.5,20.1-6.8     c6.1-2.2,11-3.9,14.3-5c2.9-1,4.6-1.6,5-1.7c-0.4,0.2-2,0.9-4.8,2.1c-3.2,1.4-8,3.5-13.9,6.1c-5.9,2.9-13.3,5.7-21.9,8.7h-0.1     c-0.1,0.5-0.4,0.9-0.6,1.4c-5.1,11.8-15.6,27-31.2,42c-1.2,1.1-2.4,2.2-3.7,3.4c-1.4,1.3-2.9,2.6-4.4,3.9     c-7.7,6.7-16.3,13.4-25.7,19.8c-5.6,3.9-11.8,7.4-17.8,11.2c-3.2,1.5-6.5,3.1-9.8,4.7l-5,2.4c-1.7,0.8-3.5,1.3-5.2,2     c-3.5,1.3-7,2.6-10.6,3.9c-3.6,1.2-7.3,2.1-11,3.2c-7.3,2.3-15,3.6-22.6,5.3c-15.4,2.6-31.2,4.7-46.9,5.7     c-7.9,0.6-15.9,0.9-23.8,1.1c-8-0.3-15.9-0.3-23.7-1.5c-7.9-0.6-15.5-2.5-23-4.1c-7.4-2.2-14.7-4.2-21.6-7.1     c-3.5-1.3-7-2.7-10.2-4.4c-3.3-1.6-6.6-3.2-9.7-4.9c-6.2-3.7-12.4-7.1-17.9-11.2c-7.9-5.4-15-11.2-21.4-17     c-2.8-2.5-5.5-5.1-8.1-7.6c-1-1-2-2-3-3.1c-15.2-15.8-26-30.6-33.1-41.5c-0.1-0.1-0.2-0.2-0.3-0.4c-2.5-1.2-4.8-2.3-7-3.6     c-3.4-2.1-6.6-3.9-9.3-5.8c-2.6-2-4.9-3.8-6.9-5.4c-2-1.6-3.4-3.3-4.6-4.5c-1.9-2-3.1-3.2-3.6-3.7c0.5,0.4,1.9,1.5,3.9,3.3     c1.4,1.1,2.9,2.7,5,4c2.1,1.4,4.5,3,7.2,4.8c2.8,1.7,6.1,3.2,9.5,5.1c0.9,0.5,1.9,0.9,2.9,1.4c0.8,0.4,1.7,0.7,2.5,1.1     c1.9,0.8,4,1.7,6.1,2.6c8.5,3,18.2,6.2,29,8.6c10.8,2.6,22.7,4.6,35.4,6.2c12.6,1.7,26.1,2.7,40,3.4c7,0.4,14.1,0.7,21.3,0.9     C343.8,433.1,351.1,433.4,358.5,433.4z"/><path d="M402.7,209.1c-1.2,5.3-2.8,11-4.7,17c-4.2,11.8-10.4,24.9-20.1,37.1c-5.1,5.9-10.7,12-17.8,16.7l-2.6,1.9l-2.8,1.6     c-1.9,1-3.8,2.2-5.8,3.1c-2,0.8-4.1,1.6-6.2,2.5c-2.1,0.9-4.4,1.1-6.6,1.7c-8.9,1.8-18.6,2.1-27.8-0.7c-9.3-2.5-18-7.3-25.8-13.4     c-7.6-6.3-14.2-14-19.9-22.3c-5.5-8.4-10-17.6-13.7-27.1c-7.1-19.2-10.5-40-10.6-60.7c0-5,0.3-10.1,0.7-15.1     c0.1-0.8,0.2-1.6,0.3-2.3c0.4-4.7,1.1-9.3,1.9-14c-4,0.6-8,1.3-11.9,1.9c-8.4,1.4-16.6,2.7-24.6,4c-1.9,0.4-3.9,0.7-5.9,1     c-1.9,0.4-3.8,0.9-5.8,1.3c-3.8,0.9-7.4,1.8-11.1,2.6c-14.5,3.5-27.9,6.2-39.5,9.9c-6,1.7-11.6,3.5-16.8,5.2     c-0.6,9.2-1.4,20.2-2.2,32.8c0,1-0.1,2-0.2,3.1c0.5,0,1-0.2,1.4-0.2c0.8-0.1,1.6-0.3,2.4-0.4c0.8-0.1,1.6-0.2,2.4-0.3     c1.5-0.3,3.1-0.3,4.5-0.6c1.2-0.3,2.4-0.5,3.4-0.7c0.1-1.4,0.5-2.8,1.1-4.1c0.3-0.9,0.9-1.7,1.5-2.4c0.7-0.8,1.3-1.5,2.2-2     c1.6-1.1,3.8-1.7,5.7-1.2c1.9,0.5,3.4,1.5,4.2,2.7c1.8,2.3,1.9,4.7,1.8,6.2c0,0.8-0.3,1.3-0.4,1.7c-0.1,0.4-0.2,0.6-0.2,0.6     s-0.1-0.2-0.3-0.6c-0.2-0.4-0.4-0.9-0.7-1.4c-0.7-1.2-1.6-2.8-3-3.9c-0.7-0.6-1.4-1-2.2-1c-0.8-0.2-1.5,0.2-2.2,0.8     c-0.4,0.3-0.7,0.7-1,1.1c-0.3,0.5-0.6,0.9-0.8,1.5c-0.2,0.5-0.3,1-0.4,1.5c0.5,0,0.9,0,1.3,0c1.5,0.1,2.5,0.3,2.5,0.3     s-0.7,0.7-2,1.5c-0.6,0.4-1.2,0.7-1.9,1.1c0.1,0.9,0.3,1.8,0.6,2.7c0.2,0.6,0.5,1,0.8,1.5c0.3,0.4,0.6,0.8,1,1     c0.7,0.5,1.3,0.8,2,0.7c0.7-0.1,1.4-0.4,2.1-1c1.3-1.1,2.3-2.6,3.1-3.7c0.7-1.2,1.1-2,1.1-2s0.4,0.8,0.7,2.3     c0.2,1.5,0.1,3.9-1.7,6.3c-0.9,1.2-2.3,2.3-4.3,2.7c-1.9,0.5-4.2-0.1-5.9-1.2c-0.9-0.5-1.5-1.3-2.2-2c-0.5-0.8-1.1-1.6-1.4-2.5     c-0.4-0.9-0.7-1.7-0.8-2.6c-0.8,0.3-1.7,0.6-2.7,0.9c-1.4,0.5-3,0.7-4.5,1c-0.8,0.2-1.6,0.3-2.5,0.5c-0.8,0.2-1.6,0.3-2.4,0.5     c-0.8,0.1-1.7,0.3-2.5,0.4c-0.5,10.9-0.7,22.8-1.2,35.6c-0.3,8.1-0.7,16.5-1,25.2c0,0.4-0.1,0.8,0,1.1c0.6-0.1,1.1-0.2,1.7-0.4     c1.3-0.2,2.7-0.5,4-0.7l1.9-0.4c0.6-0.1,1.3-0.2,1.9-0.3c1.3-0.2,2.5-0.4,3.6-0.5c1-0.1,2-0.3,2.9-0.3c0.2-1.2,0.5-2.5,1-3.6     c0.4-0.9,1-1.7,1.5-2.4c0.7-0.8,1.3-1.5,2.2-2c1.6-1.1,3.9-1.7,5.8-1.2c1.8,0.5,3.3,1.5,4.2,2.7c1.8,2.3,1.9,4.7,1.8,6.2     c0,0.8-0.3,1.3-0.4,1.7c-0.1,0.4-0.2,0.6-0.2,0.6s-0.1-0.2-0.3-0.6c-0.2-0.4-0.4-0.9-0.7-1.4c-0.6-1.2-1.6-2.8-3-3.9     c-0.7-0.6-1.5-1-2.2-1c-0.8-0.1-1.5,0.2-2.2,0.8c-0.4,0.3-0.7,0.7-1,1.1c-0.3,0.5-0.6,0.9-0.7,1.5c-0.3,0.6-0.4,1.2-0.5,1.9     c1.2,0.2,1.9,0.6,1.9,0.6s-0.6,0.6-1.7,1.2c-0.1,0-0.3,0.1-0.4,0.2c0.1,1.1,0.2,2.2,0.6,3.1c0.2,0.6,0.5,1,0.8,1.5     c0.4,0.4,0.6,0.8,1,1c0.7,0.5,1.4,0.8,2.1,0.7c0.7,0,1.4-0.4,2-1c1.4-1.1,2.4-2.6,3.1-3.7c0.7-1.2,1.1-2,1.1-2s0.5,0.8,0.7,2.3     c0.1,1.5,0,3.9-1.7,6.3c-0.9,1.2-2.4,2.3-4.3,2.7c-1.9,0.5-4.2,0-5.9-1.2c-0.9-0.5-1.5-1.3-2.2-2c-0.5-0.8-1.1-1.6-1.4-2.5     c-0.5-1-0.8-2-0.9-3.1c-0.7,0.2-1.4,0.4-2.2,0.6c-1.1,0.2-2.2,0.5-3.5,0.8c-0.6,0.1-1.2,0.2-1.8,0.4l-1.9,0.4     c-1.3,0.2-2.6,0.5-3.9,0.7c-1,0.2-1.9,0.3-2.9,0.5c-0.1,6.7,0,13.6,0,20.6c0,9.2,0,18.8,0,28.5c0,4.8,0,9.8,0,14.7     c0,1.2,0,2.3,0.1,3.5c1.3,0.1,2.7,0.2,4,0.3c0.8,0,1.6,0.1,2.3,0.2c0.8,0,1.5,0.1,2.2,0.2c1.5,0.2,2.9,0.3,4.3,0.5     c1.1,0.1,2.2,0.2,3.2,0.4c0.2-1.3,0.5-2.5,1-3.7c0.4-0.9,1-1.7,1.5-2.4c0.7-0.8,1.3-1.5,2.2-2c1.6-1.1,3.9-1.7,5.8-1.2     c1.8,0.5,3.3,1.5,4.2,2.7c1.8,2.3,1.9,4.7,1.8,6.2c0,0.8-0.3,1.3-0.4,1.7c-0.1,0.4-0.2,0.6-0.2,0.6s-0.1-0.2-0.3-0.6     c-0.2-0.4-0.4-0.9-0.7-1.4c-0.6-1.2-1.6-2.8-3-3.9c-0.7-0.6-1.5-1-2.2-1c-0.8-0.1-1.5,0.2-2.2,0.8c-0.4,0.3-0.7,0.7-1,1.1     c-0.3,0.5-0.6,0.9-0.7,1.5c-0.4,0.9-0.5,1.9-0.6,2.9c0.4,0.1,0.8,0.3,1.2,0.4c1.4,0.6,2.1,1,2.1,1s-0.8,0.4-2.2,0.8     c-0.3,0.1-0.6,0.2-0.9,0.3c0.1,0.6,0.3,1.1,0.5,1.6c0.2,0.6,0.5,1,0.8,1.5c0.4,0.4,0.6,0.8,1,1c0.7,0.5,1.4,0.8,2.1,0.7     c0.7,0,1.4-0.4,2-1c1.4-1.1,2.4-2.6,3.1-3.7c0.7-1.2,1.1-2,1.1-2s0.5,0.8,0.7,2.3c0.1,1.5,0,3.9-1.7,6.3     c-0.9,1.2-2.4,2.3-4.3,2.7c-1.9,0.5-4.2,0-5.9-1.2c-0.9-0.5-1.5-1.3-2.2-2c-0.5-0.8-1.1-1.6-1.4-2.5c-0.5-1-0.8-2-0.9-3.1     c-1.1,0.1-2.2,0.1-3.5,0c-1.4,0-2.8,0-4.3-0.1c-0.8,0-1.5,0-2.3,0c-0.8,0-1.5,0-2.3-0.1c-1.2-0.1-2.3-0.2-3.5-0.2     c0.1,2.1,0.2,4.1,0.3,6.2c0.4,10.1,0.8,20.3,1.2,30.8c0.5,10.4,0.7,20.9,1.3,31.5c0,0.6,0,1.1,0.1,1.7c0.4,0.1,0.7,0.2,1,0.2     l1.6,0.4c1.1,0.3,2.1,0.6,3.3,0.8c1.1,0.3,2.2,0.5,3.3,0.7l1.6,0.4l1.6,0.4c1,0.3,1.9,0.5,2.8,0.7c0.2-0.8,0.5-1.5,0.8-2.2     c0.3-0.9,0.9-1.7,1.5-2.4c0.7-0.8,1.3-1.5,2.2-2c1.6-1.1,3.8-1.7,5.7-1.2c1.9,0.5,3.4,1.5,4.2,2.7c1.8,2.3,1.9,4.7,1.8,6.2     c0,0.8-0.3,1.3-0.4,1.7c-0.1,0.4-0.2,0.6-0.2,0.6s-0.1-0.2-0.3-0.6c-0.2-0.4-0.4-0.9-0.7-1.4c-0.7-1.2-1.6-2.8-3-3.9     c-0.7-0.6-1.4-1-2.2-1c-0.8-0.1-1.5,0.2-2.2,0.8c-0.4,0.3-0.7,0.7-1,1.1c-0.3,0.5-0.6,0.9-0.8,1.5c-0.2,0.5-0.4,1.1-0.4,1.7     c0.7,0.3,1.3,0.6,1.7,0.9c0.9,0.6,1.5,1.1,1.5,1.1s-0.7,0.4-1.7,0.7c-0.5,0.2-1,0.3-1.6,0.4c0.1,0.8,0.3,1.5,0.6,2.2     c0.2,0.6,0.5,1,0.8,1.5c0.3,0.4,0.6,0.8,1,1c0.7,0.5,1.3,0.8,2,0.7c0.7,0,1.4-0.4,2.1-1c1.3-1.1,2.3-2.6,3.1-3.7     c0.7-1.2,1.1-2,1.1-2s0.4,0.8,0.7,2.3c0.2,1.5,0.1,3.9-1.7,6.3c-0.9,1.2-2.3,2.3-4.3,2.7c-1.9,0.5-4.2,0-5.9-1.2     c-0.9-0.5-1.5-1.3-2.2-2c-0.5-0.8-1.1-1.6-1.4-2.5c-0.7-1.3-0.9-2.8-1-4.1c-0.1,0-0.2,0-0.3,0c-1,0-2.1-0.3-3.2-0.4l-1.7-0.3     l-1.7-0.3c-1.2-0.2-2.3-0.5-3.5-0.7c-1.1-0.4-2.2-0.7-3.4-1.1l-0.9-0.3c1,19,2.1,38.2,3.5,57.4c0.9,14.1,2,28.2,3.3,42.2     c1.5,0,3,0,4.5,0c0.8,0,1.5,0,2.3,0c0.8,0,1.5,0,2.3,0c1.5,0,3,0.1,4.3,0.1c0.7,0,1.4,0.1,2,0.1c0.1-1.5,0.5-3,1.1-4.3     c0.3-0.9,0.9-1.7,1.5-2.4c0.7-0.8,1.3-1.5,2.2-2c1.6-1.1,3.8-1.7,5.7-1.2c1.9,0.5,3.4,1.5,4.2,2.7c1.8,2.3,1.9,4.7,1.8,6.2     c0,0.8-0.3,1.3-0.4,1.7c-0.1,0.4-0.2,0.6-0.2,0.6s-0.1-0.2-0.3-0.6c-0.2-0.4-0.4-0.9-0.7-1.4c-0.7-1.2-1.6-2.8-3-3.9     c-0.7-0.6-1.4-1-2.2-1c-0.8-0.1-1.5,0.2-2.2,0.8c-0.4,0.3-0.7,0.7-1,1.1c-0.3,0.5-0.6,0.9-0.8,1.5c-0.4,0.9-0.5,1.9-0.5,2.9     c0.9,0.2,1.7,0.4,2.3,0.6c1.4,0.4,2.2,0.8,2.2,0.8s-0.8,0.5-2.1,1c-0.6,0.2-1.3,0.4-2.1,0.6c0.1,0.4,0.2,0.8,0.4,1.1     c0.2,0.6,0.5,1,0.8,1.5c0.3,0.4,0.6,0.8,1,1c0.7,0.5,1.3,0.8,2,0.7c0.7,0,1.4-0.4,2.1-1c1.3-1.1,2.3-2.6,3.1-3.7     c0.7-1.2,1.1-2,1.1-2s0.4,0.8,0.7,2.3c0.2,1.5,0.1,3.9-1.7,6.3c-0.9,1.2-2.3,2.3-4.3,2.7c-1.9,0.5-4.2,0-5.9-1.2     c-0.9-0.5-1.5-1.3-2.2-2c-0.5-0.8-1.1-1.6-1.4-2.5c-0.4-0.8-0.6-1.5-0.8-2.3c-0.7,0-1.4,0.1-2.2,0.2c-1.4,0-2.8,0.2-4.3,0.3     c-0.8,0-1.5,0-2.3,0.1c-0.8,0.1-1.5,0.1-2.3,0.1c-1.4,0-2.8,0.1-4.1,0.1c0.5,5.6,1,11.1,1.6,16.6c1.1,10.6,2.1,21.1,3.5,31.4     c1.1,9.8,2.4,19.5,3.8,29.1c0.4,0,0.8,0,1.2,0c0.8,0,1.7,0,2.7,0l1.4,0l1.4,0.1c0.9,0,1.9,0,2.9,0.1l2.9,0.2l1.4,0.1     c0.5,0.1,0.8,0.1,1.3,0.1c0.1-1.5,0.5-3,1.1-4.3c0.3-0.9,0.9-1.7,1.5-2.4c0.7-0.8,1.3-1.5,2.2-2c1.6-1.1,3.8-1.7,5.7-1.2     c1.9,0.5,3.4,1.5,4.2,2.7c1.8,2.3,1.9,4.7,1.8,6.2c0,0.8-0.3,1.3-0.4,1.7c-0.1,0.4-0.2,0.6-0.2,0.6s-0.1-0.2-0.3-0.6     c-0.2-0.4-0.4-0.9-0.7-1.4c-0.7-1.2-1.6-2.8-3-3.9c-0.7-0.6-1.4-1-2.2-1c-0.8-0.1-1.5,0.2-2.2,0.8c-0.4,0.3-0.7,0.7-1,1.1     c-0.3,0.5-0.6,0.9-0.8,1.5c-0.3,0.8-0.5,1.6-0.5,2.5c1.2,0.2,2.2,0.4,3,0.6c0.9,0.2,1.6,0.6,1.6,0.6s-0.4,0.5-1.1,1.2     c-0.7,0.6-1.7,1.3-3,1.6c0,0.2,0.1,0.3,0.1,0.5c0.2,0.6,0.5,1,0.8,1.5c0.3,0.4,0.6,0.8,1,1c0.7,0.5,1.3,0.8,2,0.7     c0.7-0.1,1.4-0.4,2.1-1c1.3-1.1,2.3-2.6,3.1-3.7c0.7-1.2,1.1-2,1.1-2s0.4,0.8,0.7,2.3c0.2,1.5,0.1,3.9-1.7,6.3     c-0.9,1.2-2.3,2.3-4.3,2.7c-1.9,0.5-4.2,0-5.9-1.2c-0.9-0.5-1.5-1.3-2.2-2c-0.5-0.8-1.1-1.6-1.4-2.5c-0.3-0.6-0.5-1.2-0.6-1.8     c-0.1,0.1-0.3,0.1-0.4,0.1c-0.5,0-1,0.1-1.4,0.1l-1.5-0.1c-1,0-2-0.1-3-0.1c-1-0.1-2-0.2-3-0.4l-1.4-0.2l-1.4-0.3     c-0.9-0.1-1.8-0.4-2.6-0.5c0,0,0,0-0.1,0c2.8,19,6.2,37.2,9.7,54.5c0.9,4.5,1.9,8.9,2.9,13.2c0.4,0.1,0.8,0.1,1.1,0.1     c0.8,0,1.6,0,2.4,0c0.8,0.1,1.6,0.1,2.4,0.2c1.6,0.1,3.1,0.2,4.5,0.4c1.5,0.2,2.9,0.4,4.1,0.6c0.1,0,0.2,0.1,0.2,0.1     c0.2-1,0.5-2.1,1-3.1c0.3-0.9,0.9-1.7,1.5-2.4c0.7-0.8,1.3-1.5,2.2-2c1.6-1.1,3.8-1.7,5.7-1.2c1.9,0.5,3.4,1.5,4.2,2.7     c1.8,2.3,1.9,4.7,1.8,6.2c0,0.8-0.3,1.3-0.4,1.7c-0.1,0.4-0.2,0.6-0.2,0.6s-0.1-0.2-0.3-0.6c-0.2-0.4-0.4-0.9-0.7-1.4     c-0.7-1.2-1.6-2.8-3-3.9c-0.7-0.6-1.4-1-2.2-1c-0.8-0.1-1.5,0.2-2.2,0.8c-0.4,0.3-0.7,0.7-1,1.1c-0.3,0.5-0.6,0.9-0.8,1.5     c-0.4,0.8-0.5,1.8-0.5,2.9c0.2,0.1,0.4,0.1,0.6,0.3c1.4,0.7,2.1,1.2,2.1,1.2s-0.9,0.3-2.4,0.5c-0.1,0-0.2,0-0.2,0     c0.1,0.7,0.3,1.5,0.6,2.1c0.2,0.6,0.5,1,0.8,1.5c0.3,0.4,0.6,0.8,1,1c0.7,0.5,1.3,0.8,2,0.7c0.7,0,1.4-0.4,2.1-1     c1.3-1.1,2.3-2.6,3.1-3.7c0.7-1.2,1.1-2,1.1-2s0.4,0.8,0.7,2.3c0.2,1.5,0.1,3.9-1.7,6.3c-0.9,1.2-2.3,2.3-4.3,2.7     c-1.9,0.5-4.2,0-5.9-1.2c-0.9-0.5-1.5-1.3-2.2-2c-0.5-0.8-1.1-1.6-1.4-2.5c-0.6-1.3-0.9-2.5-1-3.9c-0.2,0-0.4,0-0.6,0     c-1.2,0-2.5-0.1-3.9-0.1c-1.4,0-2.9,0-4.4,0c-0.8,0-1.6,0-2.3,0c-0.7,0-1.5,0-2.2,0c2.7,11.3,5.4,22,8.2,32.2     c2.1,7.5,4.2,14.7,6.4,21.5c6.6,1,14.6,2,23.7,3.4c4.6,0.7,9.5,1.4,14.7,2.2c5.2,0.5,10.7,1.1,16.4,1.7c11.4,1.2,23.8,2.6,36.9,4     c3.3,0.4,6.6,0.8,10,1c3.4,0.2,6.8,0.4,10.2,0.6c6.9,0.4,14,0.8,21.1,1.2c7.2,0.4,14.5,0.8,21.9,1.3c7.3,0.6,14.9,0.4,22.4,0.5     c15.1,0.2,30.4,0.3,45.8,0.4c15.3-0.6,30.6-1.2,45.7-1.8c7.5-0.4,15-0.5,22.3-1.3c7.4-0.7,14.7-1.3,21.8-1.9     c7.2-0.7,14.2-1.3,21.1-1.9c3.5-0.3,6.8-0.6,10.2-0.9c3.4-0.4,6.7-0.9,9.9-1.3c13.1-1.8,25.4-3.5,36.8-5.1     c5.7-0.8,11.2-1.4,16.4-2.2c5.1-0.9,10-1.8,14.7-2.7c6.5-1.1,12.4-2.1,17.7-3c3.3-10.1,6.8-21.1,10.3-32.9     c4.8-15.8,10.3-32.7,15.2-50.9c2.5-9,5.1-18.4,7.8-27.9c2.3-9.6,4.7-19.4,7.1-29.4c1.2-5,2.4-10,3.6-15.1     c1.2-5.1,2-10.3,3.1-15.5c2-10.3,4-20.9,6-31.4c1.7-10.7,3-21.4,4.4-32.2c0.7-5.4,1.5-10.8,2.2-16.2c0.6-5.5,0.8-10.9,1.1-16.4     c0.7-10.9,1.4-21.8,2.1-32.6c0.1-10.9,0.3-21.8,0.4-32.6c0.1-10.8,0.2-21.5,0.4-32c0.2-10.6,0.1-21.1,0-31.4     c-0.2-20.5-0.3-40.4-0.4-59.3c-0.7-18.9-1.3-36.7-1.8-53.1c-0.5-29.3-2.6-54.1-3.9-72.7c-13.9-3.1-30.3-6.3-48.8-9.3     c-7.4-1-15.1-2.2-23.1-3.3c-8-0.9-16.3-2-24.8-2.8c-2.5-0.3-5.1-0.5-7.7-0.7c0.7,3.5,1.2,6.9,1.6,10c0.5,3.6,0.8,6.9,1,9.9     c0,0.9,0.2,1.7,0.2,2.5c0.2,3.3,0.3,6,0.2,8.3c0,4.8,0,7.3,0,7.3s-0.2-2.5-0.5-7.3c-0.1-2.2-0.3-4.9-0.7-8     c-1.4,0.5-2.8,1-4.3,1.6c-3.5,1.2-7.1,2.5-11,3.9c-3.9,1.3-8.1,2.4-12.4,3.7c-4.3,1.2-8.8,2.6-13.6,3.8     c-4.7,1.1-9.7,2.2-14.7,3.4c-7.9,1.9-16.1,3.3-24.7,4.7c1.5,4.5,2.1,8.7,2.5,12c0.3,3.4,0.3,6,0.2,7.8c-0.1,1.8-0.2,2.7-0.2,2.7     s-0.2-0.9-0.4-2.7c-0.1-1.7-0.6-4.3-1.3-7.5c-0.8-3.3-1.8-7.3-3.7-11.7c-1.5,0.3-3,0.5-4.4,0.8c-5.6,0.7-11.3,1.5-17.1,2.2     c-5.8,0.8-11.6,1.3-17.5,1.8c-4,0.4-8.1,0.7-12.1,1c-1.3,5.2-2,10.6-2,16.1c0,7.2,1.2,14.5,3.7,21.1c1.2,3.3,2.8,6.4,4.6,9.3     c1.9,2.8,4,5.4,6.5,7.5c5,4.1,11.2,6,16.9,4.7c5.8-1,10.4-4.8,13.9-8.8c7-8.2,9.7-17.4,11.2-23.7c0.7-3.2,1.2-5.8,1.4-7.5     c0.2-1.7,0.4-2.7,0.4-2.7s0,1,0.2,2.7c0.1,1.8,0.1,4.4-0.1,7.8c-0.7,6.6-2.3,16.5-9.7,26.1c-3.7,4.6-9,9.2-16.2,10.7     c-7,1.8-15.1-0.6-21.1-5.4c-3-2.5-5.5-5.4-7.7-8.6c-2.1-3.2-3.8-6.7-5.3-10.3c-2.7-7.3-4-15.2-4-23c0.1-5.3,0.7-10.6,1.9-15.7     c-5.9,0.3-11.8,0.5-17.7,0.7c-0.3,0-0.5,0-0.7,0c0,0,0,0-0.1,0c-0.8,0-1.7,0-2.5,0c0.3,3.6,0.6,7.1,1.1,10.7     c0.3,1.9,0.6,3.9,0.9,5.9c0,0,0,0.1,0,0.1c1.7,9.8,4.2,19.5,7.6,28.7c3.5,9.2,7.9,18.1,13.1,26.1c5.4,8,11.6,15.3,18.7,21.2     c7.2,5.8,15.3,10.2,23.8,12.6c8.5,2.6,17.4,2.4,25.6,0.8c2-0.6,4.2-0.7,6.1-1.6c2-0.7,3.9-1.4,5.8-2.2c1.9-0.8,3.6-1.9,5.4-2.8     l2.7-1.5l2.4-1.7c6.7-4.3,12.1-10.1,17.1-15.7c9.6-11.6,16-24.1,20.5-35.5c4.3-11.5,7-22,8.6-30.8c1.5-8.8,2.3-15.8,2.5-20.5     c0.4-4.8,0.6-7.3,0.6-7.3s0,2.5,0,7.3c0.1,4.8-0.3,11.9-1.4,20.8c-1.1,8.9-3.4,19.7-7.3,31.6c-4.2,11.8-10.4,24.9-20.1,37.1     c-5.1,5.9-10.7,12-17.8,16.7l-2.6,1.9l-2.8,1.6c-1.9,1-3.8,2.2-5.8,3.1c-2,0.8-4.1,1.6-6.2,2.5c-2,0.9-4.3,1.1-6.6,1.7     c-8.9,1.8-18.6,2.1-27.8-0.7c-9.3-2.5-18-7.3-25.8-13.4c-7.6-6.3-14.2-14-19.8-22.3c-5.5-8.4-10-17.6-13.7-27.1     C405.8,220.3,404.2,214.8,402.7,209.1z M401.5,204c-1.8-8.4-3.1-16.9-3.7-25.5c-3.4,0-6.7-0.2-10-0.2l-6.8-0.1     c0.3,1.7,0.5,3.3,0.7,4.7c0.3,3.4,0.3,6,0.2,7.8c-0.1,1.8-0.2,2.7-0.2,2.7s-0.2-0.9-0.4-2.7c-0.1-1.7-0.6-4.3-1.3-7.5     c-0.4-1.5-0.8-3.2-1.3-5c-3-0.3-5.9-0.5-8.9-0.8c-5.9-0.6-11.8-0.9-17.5-1.7c-5.8-0.9-11.5-1.7-17.1-2.5c-2.8-0.5-5.6-1-8.3-1.4     c-0.1,0.2-0.1,0.3-0.2,0.5c-2.4,6.7-3.6,13.9-3.6,21.2c0,7.2,1.2,14.5,3.7,21.1c1.2,3.3,2.8,6.4,4.6,9.3c1.9,2.8,4,5.4,6.5,7.5     c5,4.1,11.2,6,16.9,4.7c5.8-1,10.4-4.8,13.9-8.8c7-8.2,9.7-17.4,11.2-23.7c0.7-3.2,1.2-5.8,1.4-7.5c0.2-1.7,0.4-2.7,0.4-2.7     s0,1,0.2,2.7c0.1,1.8,0.1,4.4-0.1,7.8c-0.7,6.6-2.3,16.5-9.7,26.1c-3.7,4.6-9,9.2-16.2,10.7c-7,1.8-15.1-0.6-21.1-5.4     c-3-2.5-5.5-5.4-7.7-8.6c-2.1-3.2-3.8-6.7-5.3-10.3c-2.7-7.3-4-15.2-4-23c0.1-7.7,1.3-15.4,4-22.6c-6.4-1.2-12.6-2.4-18.6-3.7     c-10.1-2.2-19.6-4.3-28.4-6.5c-11.7-2.9-22.1-5.6-30.7-7.9c-0.4,4.6-0.6,9.2-0.6,13.8c0.2,20.1,3.4,40.2,10.2,58.8     c3.6,9.2,7.9,18.1,13.1,26.1c5.4,8,11.6,15.3,18.7,21.2c7.2,5.8,15.3,10.2,23.8,12.6c8.5,2.6,17.4,2.4,25.5,0.8     c2-0.6,4.2-0.8,6.1-1.6c1.9-0.7,3.9-1.4,5.8-2.2c1.9-0.8,3.6-1.9,5.4-2.8l2.7-1.5l2.5-1.7c6.7-4.3,12.1-10.1,17.1-15.7     c9.6-11.6,16-24.1,20.4-35.5C397.8,217.5,399.9,210.4,401.5,204z M397.8,106.8c1.4,4.2,2.6,8.2,3.6,12.1c0.7,0,1.3,0,2-0.1     c1.3-4.8,2.8-9.6,4.6-14.3c3.7-9.5,8.2-18.7,13.7-27.1c5.7-8.3,12.2-16,19.8-22.2c7.7-6.1,16.5-10.8,25.7-13.4     c9.2-2.8,18.9-2.4,27.7-0.7c2.2,0.6,4.5,0.8,6.5,1.7c2.1,0.8,4.2,1.6,6.2,2.4c2,0.9,3.9,2,5.8,3.1l2.8,1.6l2.6,1.9     c7.1,4.7,12.7,10.8,17.8,16.7c9.7,12.2,16,25.2,20.1,37c2,6,3.6,11.7,4.8,17c3.1,0.3,6.1,0.6,9.1,0.9c8.6,0.9,16.9,2.1,24.9,3.1     c8,1.1,15.8,2.4,23.1,3.6c18.2,3.2,34.4,6.8,48,10.4c0.7,0.2,1.4,0.4,2.1,0.6c0.1,0.8,0.2,1.7,0.3,2.5c2.1,18.5,5,43.1,5.9,72     c0.8,16.5,1.7,34.3,2.3,53.2c0.2,18.9,0.5,38.8,0.8,59.4c0.1,10.3,0.3,20.8,0.1,31.4c-0.1,10.6-0.2,21.3-0.3,32.1     c-0.1,10.8-0.2,21.7-0.3,32.6c-0.7,11-1.4,22-2.1,32.9c-0.4,5.5-0.7,11-1.2,16.5c-0.8,5.4-1.5,10.9-2.3,16.3     c-1.5,10.9-2.8,21.7-4.6,32.4c-2.1,10.7-4.2,21.2-6.2,31.6c-1.1,5.2-1.9,10.4-3.2,15.5c-1.3,5-2.5,10.1-3.8,15.1     c-2.5,10-5,19.8-7.4,29.5c-2.7,9.5-5.4,18.9-8.1,27.9c-5,18.2-10.7,35.2-15.7,50.8c-3.5,11.2-7.1,21.6-10.4,31.2     c-0.2,0.7-0.5,1.3-0.7,1.9c-1.1,0.3-2.3,0.5-3.5,0.8c-5,1.1-10.5,2.4-16.5,3.7c-4.6,1-9.5,2-14.6,3.1c-5.1,1-10.6,1.8-16.3,2.7     c-11.4,1.7-23.8,3.6-36.9,5.6c-3.3,0.5-6.6,1-9.9,1.4c-3.4,0.4-6.8,0.7-10.3,1c-6.9,0.7-14,1.4-21.2,2.1     c-7.2,0.7-14.5,1.4-21.9,2.1c-7.4,0.9-14.9,1-22.5,1.4c-15.1,0.7-30.5,1.4-45.9,2.1c-15.4-0.2-30.8-0.3-46-0.4     c-7.5-0.2-15.1,0.1-22.5-0.6c-7.4-0.5-14.7-0.9-22-1.4c-7.2-0.5-14.3-1-21.2-1.4c-3.5-0.3-6.9-0.5-10.2-0.7     c-3.4-0.3-6.7-0.7-10-1.1c-13.2-1.6-25.5-3.1-37-4.5c-5.8-0.7-11.2-1.4-16.4-2.1c-5.2-1-10.1-1.9-14.7-2.8     c-8.7-1.7-16.3-3.2-22.6-4.5c-0.4-0.1-0.8-0.1-1.2-0.3c-0.9-0.2-1.8-0.4-2.6-0.6c-0.2-0.5-0.4-1.1-0.6-1.7     c-2.1-6.3-4.2-13-6.3-19.9c-3.1-10.4-6.1-21.6-8.9-33.3c-0.4-1.8-0.9-3.6-1.3-5.4c-0.9-4-1.8-8.1-2.8-12.2     c-3.8-18.1-7.4-37.1-10.4-57c0-0.2,0-0.4-0.1-0.6c-0.1-0.5-0.2-1-0.2-1.4c-1.5-9.6-2.9-19.3-4.1-29.2     c-1.4-10.3-2.5-20.9-3.6-31.5c-0.6-5.7-1.2-11.5-1.7-17.3c-0.1-1.7-0.4-3.4-0.5-5.2c-1.3-13.9-2.4-27.9-3.4-41.9     c-1.4-20-2.5-40.1-3.6-59.9c-0.1-1.5-0.1-3-0.3-4.5v0c-0.6-10.6-0.8-21.2-1.2-31.6c-0.4-10.5-0.7-20.8-1.1-30.9     c0-2.2-0.1-4.5-0.2-6.7c-0.1-1.7-0.2-3.5-0.2-5.2c0-1.1-0.1-2.1-0.1-3.1c0.1-5,0.1-10,0.1-14.8c0-9.8,0.1-19.3,0.2-28.6     c0.1-6.8,0-13.4,0.1-19.9c0-1.6,0-3.3,0.2-4.9c0-0.8,0-1.5,0-2.2c0.4-8.8,0.9-17.2,1.3-25.3c0.8-12.5,1.2-24.2,2-35     c0.1-1.8,0.3-3.6,0.4-5.4c0.1-1.3,0.3-2.5,0.4-3.8c1.3-12.2,2.5-22.9,3.5-32c0.1-0.7,0.2-1.3,0.2-1.9c0.1-0.3,0.1-0.5,0.1-0.7     c0.6-0.2,1.2-0.4,1.8-0.7c4.8-1.7,10-3.6,15.6-5.4c11.5-4.2,24.9-7.3,39.5-11c3.6-0.9,7.3-1.9,11.2-2.9c1.9-0.5,3.8-1,5.7-1.4     c2-0.4,3.9-0.7,6-1c8-1.4,16.2-2.8,24.7-4.2c4.2-0.7,8.6-1.5,12.9-2.2c0.2,0,0.5,0,0.7,0c1.6-8.3,3.9-16.4,6.9-24.2     c3.7-9.5,8.2-18.7,13.7-27.1c5.7-8.3,12.2-16,19.8-22.2c7.8-6.1,16.5-10.8,25.7-13.4c9.2-2.8,18.9-2.4,27.8-0.7     c2.2,0.6,4.4,0.8,6.5,1.7c2.1,0.8,4.1,1.6,6.2,2.4c2,0.9,3.9,2,5.8,3.1l2.8,1.6l2.6,1.9c7.1,4.7,12.6,10.8,17.8,16.7     C387.4,82,393.6,95,397.8,106.8z M404.2,141.9c-1,7.7-1.5,15.5-1.6,23.3c0,2.7,0.1,5.4,0.3,8.1c1,0,1.9,0,2.9,0     c0.2,0,0.3,0,0.4,0c0.2,0,0.4,0,0.5-0.1c6.4-0.2,12.8-0.4,19.1-0.7c1.9-0.1,3.7-0.2,5.6-0.4c3.4-0.2,6.7-0.5,10-0.8     c5.9-0.4,11.7-0.9,17.4-1.6c5.7-0.7,11.4-1.3,16.9-2c1-0.2,2-0.4,3-0.5c1.1-0.2,2.2-0.4,3.3-0.6c8.8-1.4,17.4-2.7,25.5-4.6     c5-1,9.9-2.1,14.6-3.1c4.7-1.2,9.2-2.3,13.6-3.5c4.3-1.2,8.5-2.1,12.4-3.3c3.9-1.2,7.6-2.3,11.1-3.4c1.7-0.5,3.4-1,5-1.5     c-0.4-3-0.9-6.3-1.5-10c-0.6-3.3-1.3-6.7-2.2-10.4c-0.4-1.5-0.8-3-1.2-4.6c-1.4-5-3.1-10.2-5.1-15.8c-4.5-11.5-10.8-24-20.4-35.6     c-5-5.6-10.4-11.3-17.2-15.7l-2.5-1.7l-2.6-1.5c-1.8-0.9-3.6-2-5.5-2.8c-1.9-0.8-3.9-1.5-5.8-2.2c-1.9-0.8-4.1-1-6.1-1.5     c-8.2-1.6-17.1-1.8-25.7,0.8c-8.5,2.4-16.6,6.9-23.9,12.7c-7.1,6-13.3,13.3-18.7,21.3c-5.3,8.1-9.5,16.9-13.1,26.1     c-1.5,4.1-2.8,8.2-3.9,12.4c-0.5,1.8-1,3.6-1.4,5.4c-1,4.1-1.8,8.3-2.5,12.5C404.7,138.2,404.4,140,404.2,141.9     C404.2,141.8,404.2,141.8,404.2,141.9z M397.3,165.1c0.1-12.6,1.4-25.3,4-37.6c-0.3-1.1-0.5-2.2-0.8-3.3c-0.5-1.7-1-3.5-1.5-5.3     c-1.1-3.6-2.3-7.3-3.8-11.2c-4.5-11.5-10.8-24-20.5-35.6c-5-5.6-10.4-11.3-17.2-15.7l-2.4-1.7l-2.7-1.5c-1.8-0.9-3.6-2-5.5-2.8     c-1.9-0.8-3.9-1.5-5.8-2.2c-1.9-0.8-4.1-1-6.1-1.5c-8.2-1.6-17.1-1.8-25.7,0.8c-8.5,2.4-16.6,6.9-23.9,12.7     c-7.1,6-13.3,13.3-18.7,21.3c-5.2,8.1-9.5,16.9-13.1,26.1c-2.6,7.1-4.6,14.4-6.2,21.8c-0.4,1.7-0.7,3.3-1,5     c-1,5.2-1.7,10.4-2.1,15.6c8.8,1.7,19.4,3.9,31.4,6.4c8.8,1.8,18.4,3.9,28.4,6c6.4,1.3,12.9,2.5,19.7,3.7     c1.7,0.3,3.4,0.6,5.1,0.9c2.3,0.4,4.7,0.8,7,1.1c5.6,0.8,11.2,1.5,16.9,2.3c5.7,0.8,11.5,1,17.3,1.6c2.2,0.2,4.3,0.4,6.5,0.5     c0.8,0.1,1.5,0.2,2.3,0.2h0.6l8.3,0.2c3.2,0.1,6.4,0.2,9.5,0.2C397.4,170.5,397.3,167.8,397.3,165.1z"/></g></g><path d="M262.3,293.7c18.5,21.3,45.4,31.1,73,23.3c25.1-7.1,47.3-23.9,57.5-48.3c0.8-2,4.5-2.8,4.9,0   c5,32.5,25,57.3,59.4,59.7c24.2,1.7,46.1-7.2,60.5-27.2c8.8-12.2,15.1-25.9,19.8-40.2c-0.2,0.3-0.4,0.6-0.7,0.9   c-5.1,5.9-10.7,12-17.8,16.7l-2.6,1.9l-2.8,1.6c-1.9,1-3.8,2.2-5.8,3.1c-2,0.8-4.1,1.6-6.2,2.5c-2,0.9-4.3,1.1-6.6,1.7   c-8.9,1.8-18.6,2.1-27.8-0.7c-9.3-2.5-18-7.3-25.8-13.4c-7.6-6.3-14.2-14-19.8-22.3c-5.5-8.4-10-17.6-13.7-27.1   c-2-5.5-3.7-11-5.1-16.7c-1.2,5.3-2.8,11-4.7,17c-4.2,11.8-10.4,24.9-20.1,37.1c-5.1,5.9-10.7,12-17.8,16.7l-2.6,1.9l-2.8,1.6   c-1.9,1-3.8,2.2-5.8,3.1c-2,0.8-4.1,1.6-6.2,2.5c-2.1,0.9-4.4,1.1-6.6,1.7c-8.9,1.8-18.6,2.1-27.8-0.7c-9.3-2.5-18-7.3-25.8-13.4   c-7.6-6.3-14.2-14-19.9-22.3c-5.5-8.4-10-17.6-13.7-27.1c-3.7-10-6.4-20.5-8.1-31.2C238.3,231,239.8,267.7,262.3,293.7z" opacity="0.2"/><path d="M471.3,549.5c-4.3,1.7-9.2,2.8-14.3,4.3c-5.2,1-10.6,2.5-16.3,3.3c-2.9,0.5-5.8,0.9-8.7,1.3   c-2.9,0.3-5.9,0.6-8.9,0.9c-6,0.8-12.2,0.7-18.3,1.1c-6.1-0.1-12.3,0.1-18.4-0.4c-3-0.2-6-0.4-8.9-0.5c-3-0.3-5.9-0.6-8.8-0.9   c-5.7-0.5-11.2-1.6-16.4-2.3c-5.1-1.2-10.1-1.9-14.5-3.3c-8.2-2.2-14.8-4.8-19.6-7c18.5,31.4,63.6,40.3,97.7,33.7   c27.1-5.2,51.3-18.3,70.4-37.2C482.3,544.9,477.3,547.3,471.3,549.5z" opacity="0.2"/><path d="M637.1,559.1c-42.8,39-89,74-143.2,95.2c-58.3,22.8-120.9,35.4-182.8,44c-50.6,7-102.5,8.1-152-3.6   c1.3,5,2.6,9.8,3.9,14.5c2.1,7.5,4.2,14.7,6.4,21.5c6.6,1,14.6,2,23.7,3.4c4.6,0.7,9.5,1.4,14.7,2.2c5.2,0.5,10.7,1.1,16.4,1.7   c11.4,1.2,23.8,2.6,36.9,4c3.3,0.4,6.6,0.8,10,1c3.4,0.2,6.8,0.4,10.2,0.6c6.9,0.4,14,0.8,21.1,1.2c7.2,0.4,14.5,0.8,21.9,1.3   c7.3,0.6,14.9,0.4,22.4,0.5c15.1,0.2,30.4,0.3,45.8,0.4c15.3-0.6,30.6-1.2,45.7-1.8c7.5-0.4,15-0.5,22.3-1.3   c7.4-0.7,14.7-1.3,21.8-1.9c7.2-0.7,14.2-1.3,21.1-1.9c3.5-0.3,6.8-0.6,10.2-0.9c3.4-0.4,6.7-0.9,9.9-1.3   c13.1-1.8,25.4-3.5,36.8-5.1c5.7-0.8,11.2-1.4,16.4-2.2c5.1-0.9,10-1.8,14.7-2.7c6.5-1.1,12.4-2.1,17.7-3   c3.3-10.1,6.8-21.1,10.3-32.9c4.8-15.8,10.3-32.7,15.2-50.9c2.5-9,5.1-18.4,7.8-27.9c2.3-9.6,4.7-19.4,7.1-29.4   c1.2-5,2.4-10,3.6-15.1c1.2-5.1,2-10.3,3.1-15.5c1-5,1.9-10.1,2.9-15.2C652,545.1,644.6,552.2,637.1,559.1z" opacity="0.2"/><path d="M290.3,475c-3.3-0.2-6.6-0.7-10.1-1.1c-2.1-0.3-4.2-0.6-6.3-0.8c-2.1-0.3-4.3-0.5-6.5-1.1   c-2.4-0.7-4.9-1.3-7.4-1.9c4.3,3.5,8.8,6.9,13.7,10.1c5.4,4,11.5,7.2,17.5,10.8c2.1,1.1,4.3,2.1,6.4,3.1   C293.7,487.9,290.6,481.3,290.3,475z" opacity="0.2"/><path d="M566.2,416.4c-11,2.6-22.7,5.7-35.4,8.4c-6.3,1.1-12.9,2.3-19.5,3.5c-6.7,1.2-13.5,2.6-20.4,3.3   c-7,0.9-14.1,1.7-21.3,2.6c-7.2,1-14.5,1.5-21.8,2c-7.4,0.6-14.8,1.1-22.2,1.7c-7.5,0.3-15,0.5-22.5,0.7   c-14.9,0.7-29.9,0.3-44.7,0.1c-7.4,0-14.6-0.4-21.9-0.6c-7.2-0.3-14.3-0.6-21.4-1c-14-0.9-27.6-2-40.4-3.8   c-12.8-1.8-24.9-3.9-35.8-6.8c-11-2.7-20.8-6.3-29.3-9.8c-0.4-0.2-0.7-0.4-1-0.5c8.2,10.8,20.1,25,35.8,40.1c1.8,1.6,3.6,3.3,5.5,5   l0,0c2,0.8,3.9,1.6,6.1,2c4.2,1.1,8.4,2.2,12.5,3.4c2,0.7,4.1,0.9,6.2,1.3c2.1,0.4,4.1,0.7,6.2,1c3.3,0.5,6.6,1.1,9.7,1.4   c0.2-1.3,0.5-2.5,1.1-3.8c4.4-10.5,16-13.2,26.5-13.5c15.6-0.6,30.8,2.1,46.2,4.3c26,3.7,54.1,2.3,79.9-2.4   c11.5-2.1,72.6-26.9,65.5,7.4c-0.1,0.3-0.2,0.7-0.3,1c0.2,0,0.5-0.1,0.7-0.1c2-0.2,3.9-0.7,5.9-1.1c4-0.8,8.1-1.6,12.1-2.4   c4-1,8.1-1.9,12-2.8c2-0.5,4-0.9,5.9-1.4c1.9-0.6,3.8-1.1,5.7-1.6c1.1-0.4,2.3-0.7,3.3-1c0.8-0.7,1.6-1.4,2.4-2   c17.7-15.4,29.8-31,36-43.2c0,0,0,0,0-0.1C585.3,410.5,576.2,413.4,566.2,416.4z" opacity="0.2"/><path d="M529.4,465.1c-4.1,0.8-8.2,1.6-12.2,2.3c-2,0.4-4,0.8-6.1,1c-1.1,0.1-2.1,0.3-3.2,0.4   c-3.1,8.2-8.5,16.3-14.9,23.6c0.8-0.3,1.6-0.5,2.4-0.9l4.8-2.2c3.3-1.5,6.5-3.1,9.6-4.5c6-3.7,11.9-6.9,17.5-10.8   c6.3-4.2,12.3-8.6,17.8-13c-1.2,0.3-2.5,0.6-3.8,1C537.5,463.1,533.4,464.1,529.4,465.1z" opacity="0.2"/><path d="M535,249.5c-8.3,6.6-18,9.3-28.3,10.9c-24.4,3.8-50.3,0.6-70.2-15.2c-11.3-9-19.7-20.2-27.1-32.2   c1.1,3.7,2.2,7.3,3.5,10.9c3.5,9.2,7.9,18.1,13.1,26.1c5.4,8,11.6,15.3,18.7,21.2c7.2,5.8,15.3,10.2,23.8,12.6   c8.5,2.6,17.4,2.4,25.6,0.8c2-0.6,4.2-0.7,6.1-1.6c2-0.7,3.9-1.4,5.8-2.2c1.9-0.8,3.6-1.9,5.4-2.8l2.7-1.5l2.4-1.7   c6.7-4.3,12.1-10.1,17.1-15.7c9.6-11.6,16-24.1,20.5-35.5c0.5-1.3,0.9-2.5,1.3-3.7C549.5,230.1,544.1,242.3,535,249.5z" opacity="0.2"/><path d="M385.7,237.1c-14.8,19.4-37.6,28.5-61.9,25.3c-35.2-4.6-59.3-24.8-74.6-52.1c1.3,5.1,2.8,10.1,4.6,15   c3.6,9.2,7.9,18.1,13.1,26.1c5.4,8,11.6,15.3,18.7,21.2c7.2,5.8,15.3,10.2,23.8,12.6c8.5,2.6,17.4,2.4,25.5,0.8   c2-0.6,4.2-0.8,6.1-1.6c1.9-0.7,3.9-1.4,5.8-2.2c1.9-0.8,3.6-1.9,5.4-2.8l2.7-1.5l2.5-1.7c6.7-4.3,12.1-10.1,17.1-15.7   c9.6-11.6,16-24.1,20.4-35.5c0.3-0.8,0.5-1.6,0.8-2.4C392.6,227.6,389.2,232.5,385.7,237.1z" opacity="0.2"/><ellipse cx="468.6" cy="191.2" fill="#FFFFFF" rx="10.2" ry="15.3"/><ellipse cx="364.1" cy="194.4" fill="#FFFFFF" rx="10.2" ry="15.3"/></g></svg>