<?xml version="1.0" ?><!DOCTYPE svg  PUBLIC '-//W3C//DTD SVG 1.1//EN'  'http://www.w3.org/Graphics/SVG/1.1/DTD/svg11.dtd'><svg height="600mm" style="shape-rendering:geometricPrecision; text-rendering:geometricPrecision; image-rendering:optimizeQuality; fill-rule:evenodd; clip-rule:evenodd" version="1.1" viewBox="0 0 60000 60000" width="600mm" xml:space="preserve" xmlns="http://www.w3.org/2000/svg" xmlns:xlink="http://www.w3.org/1999/xlink" xmlns:xodm="http://www.corel.com/coreldraw/odm/2003"><defs><style type="text/css">
   <![CDATA[
    .fil0 {fill:white;fill-rule:nonzero}
   ]]>
  </style></defs><g id="Layer_x0020_1"><path class="fil0" d="M26824.24 44943.47c1730.73,0 3302.86,679.18 4464.45,1785.51 108,-12.26 215.04,-21.86 320.98,-28.72 151.5,-9.83 299.54,-14.82 443.75,-14.82 1811.02,0 3451.64,712.31 4640.11,1863.95 1190.08,1153.18 1926.17,2746.51 1926.17,4506.56 0,1760.05 -736.09,3353.38 -1926.17,4506.57 -1188.47,1151.64 -2829.09,1863.95 -4640.11,1863.95 -833.43,0 -1632.17,-151.62 -2368.34,-428.04 -54.16,-20.34 -107.96,-41.37 -161.41,-63.04 -56.58,-3.15 -111.57,-25.51 -154.63,-65 -607.93,-264.61 -1166.74,-616.16 -1659.54,-1038.32 -289.44,39.58 -584.95,60.12 -885.26,60.12 -1787.79,0 -3406.39,-724.69 -4578.03,-1896.33 -1171.64,-1171.64 -1896.33,-2790.23 -1896.33,-4578.03 0,-1787.8 724.69,-3406.39 1896.33,-4578.03 1171.64,-1171.64 2790.23,-1896.33 4578.03,-1896.33zm10633.55 10782.47l-4722.9 3163.88c1404.84,-151.79 2664.18,-767.26 3610.98,-1684.72 445.57,-431.76 822.02,-930.45 1111.92,-1479.16zm-5665.12 3195.22l6027.46 -4037.8c175.7,-519.87 278.41,-1071.72 296.55,-1644.18l-8023.53 5375c535.72,176.69 1106.14,282.84 1699.52,306.98zm-2267.65 -526.24l8580.08 -5747.83c-31.5,-443.3 -113.79,-873.06 -241.32,-1283.87l-5839.16 3911.67c-189.76,255.41 -397.81,496.43 -622.35,720.97 -826.19,826.19 -1874.65,1430.11 -3047.95,1714.41 360.4,268.69 752.81,499.01 1170.7,684.65zm3117.2 -4133.61l5047.3 -3381.2c-154.3,-374.2 -347.23,-729.39 -573.98,-1061l-3895.51 2609.61c-101.6,647.72 -299.17,1263.61 -577.81,1832.59zm646.13 -2478.2l3528.29 -2363.62c-146.61,-179.7 -303.82,-350.91 -470.77,-512.68 -126.74,-122.82 -259.16,-240.14 -396.7,-351.75l-2732.45 1830.48c53.87,336.15 81.88,680.95 81.88,1032.29 0,122.6 -3.51,244.37 -10.25,365.28zm-179.09 -1925.43l2414.92 -1617.77c-374.92,-253.46 -780.9,-466.9 -1211.3,-634.05l-1616.15 1082.66c173.14,371.9 312.02,762.96 412.53,1169.16zm-641.81 -1615.41l1245.84 -834.6c-527.44,-144.78 -1084.25,-222.23 -1659.87,-222.23 -111.32,0 -219.03,2.62 -323.1,7.76 278.73,323.4 526.01,674.69 737.13,1049.07zm4758.7 -7010.77l-3080.85 2063.87c37.23,13.51 74.4,27.2 111.49,41.08 127.31,47.65 212.71,80.99 302.46,116.02 535.91,209.16 1208.86,471.83 1749.74,482.27 529.69,10.23 949.05,-258.84 967.07,-1192.56 2.15,-137.52 115.41,-247.26 252.93,-245.11 137.52,2.15 247.26,115.41 245.11,252.93 -25.47,1319.17 -664.73,1698.38 -1472.93,1682.78 -634.26,-12.25 -1351.99,-292.39 -1923.56,-515.47 -120.61,-47.08 -235.43,-91.9 -294.64,-114.06 -381.06,-142.63 -776.4,-265.73 -1184.99,-367.8 -401.48,-100.29 -809.75,-178.75 -1223.52,-233.91 -987.88,-131.68 -1962.45,-127.77 -2904.92,-2.6 -972.62,129.17 -1911.09,387.48 -2794.69,759.1 -233.86,98.35 -442.49,134.67 -628.29,121.73 -242.36,-16.87 -441.65,-113.48 -604.8,-264.74 -135.95,-126.05 -243.43,-289.62 -327.59,-474.69 -3.17,-6.32 -6.03,-12.72 -8.62,-19.2 -5.37,-12.12 -10.64,-24.33 -15.81,-36.63 -242.53,-576.7 -274.14,-1359.89 -242.99,-1807.22 9.16,-137.52 128.1,-241.58 265.62,-232.42 137.52,9.16 241.58,128.1 232.42,265.62 -23.35,335.41 -9.19,877.71 118.82,1333.73l3269.63 -2190.33c-393.13,-43.58 -796.48,-65.98 -1209,-65.98 -983.91,0 -1936.22,130.73 -2840.54,375.71 -935.59,253.46 -1819.27,627.98 -2633.04,1105.47 -240.18,140.92 -464.63,210.87 -673.55,224.05 -279.01,17.59 -520.37,-61.84 -728.41,-208.82 -185.42,-131 -338,-314.53 -462.69,-527.03 -330.48,-563.24 -470.84,-1363.34 -500.02,-1826.14 -120.05,-1902.7 354.98,-3858.94 1203.04,-5654.58 926.92,-1962.62 2302.53,-3738.43 3833.23,-5042.61 770.16,-656.2 1605.58,-1280.13 2465.89,-1922.66 1942.29,-1450.62 4013.19,-2997.29 5500.49,-5028.49 538.83,-735.88 994.18,-1514.93 1313.25,-2341.2 315.2,-816.28 498.42,-1683.78 498.42,-2608.11 0,-1590.88 -551.14,-2856.98 -1449.19,-3737.13 -962.65,-943.46 -2331.63,-1453.49 -3855.14,-1453.49 -1523.51,0 -2892.49,510.03 -3855.14,1453.49 -898.05,880.15 -1449.19,2146.25 -1449.19,3737.13 0,331.31 29.58,660.55 85.74,984.65 58.07,335.13 145.24,668.47 258.13,996.29 8.18,23.77 16.71,44.9 28.1,73.16 228.53,566.79 1184.13,2936.8 -572.23,4788.98 -715.73,754.79 -1613.1,1338.9 -2581.78,1709.93 -1039.34,398.11 -2165.53,552.02 -3242.5,409.56 -1089.96,-144.19 -2127.3,-590.89 -2973.67,-1393.46 -589.36,-558.85 -1083.36,-1287.6 -1434.2,-2203.54 -401.97,-1049.45 -715.33,-2130.92 -926.66,-3230.31 -204.95,-1066.17 -313.53,-2145.62 -313.53,-3225.2 0,-4707.23 1653.48,-8475.7 4347.75,-11116.27 2875.76,-2818.43 6929.65,-4342.01 11416.82,-4342.01 3777.49,0 7248.48,1080.14 9967.93,3103.81 2281.82,1698.01 4031.03,4056.72 4985.91,6995.59l1047.08 -701.45c-351.56,-256.86 -710.54,-464.39 -1072.1,-611.17 -127.82,-51.77 -189.47,-197.38 -137.7,-325.2 51.77,-127.82 197.38,-189.47 325.2,-137.7 1338.38,543.35 2626.5,1829.75 3660.94,3384.68 1123.51,1688.78 1954.4,3704.73 2224.91,5426.98 90.89,578.67 148.87,1175.81 171.92,1790.54 22.73,605.96 11.98,1226.7 -34.1,1861.25 -363.63,5006.78 -2997.63,7477.9 -5579.43,9900.04 -596.09,559.22 -1189.36,1115.81 -1746.75,1697.39 -988.4,1031.3 -1873.85,2150.89 -2488.17,3531.59 -613.59,1379.08 -959.95,3025.98 -873.4,5117.7 5.39,137.52 -101.73,253.4 -239.25,258.79 -137.52,5.39 -253.4,-101.73 -258.79,-239.25 -5.69,-137.6 -9.55,-273.36 -11.67,-407.37zm-3679.49 1865.05l3682.09 -2466.64c13.37,-538.9 56.59,-1047.86 126.47,-1530.24l-5425.72 3634.7c372.3,55.76 735.72,128.3 1089.58,216.7 177.17,44.26 353.07,92.8 527.58,145.48zm3921.66 -4672.5c2.06,-1.38 4.13,-2.71 6.21,-4.02 135.05,-651.75 321.03,-1252.87 548.54,-1813.14l-5070.52 3396.76c-136.32,796.85 -677.92,1114.04 -1364.07,1192.05 -141.26,16.06 -287.81,19.84 -436.92,14.44l-2183.74 1462.89c719.24,-78.57 1455.1,-89.66 2200.05,-27.49 4.76,-3.72 9.69,-7.29 14.79,-10.71l6285.66 -4210.78zm834.52 -2604.43c30.95,-20.73 64.87,-33.6 99.4,-39.08 550.9,-1072.99 1256.47,-1989.38 2035.89,-2836.88l-7567.79 5069.68c15.46,371.88 45.28,756.68 90.62,1155.46 8.51,74.83 14.66,146.98 18.78,216.78l5323.1 -3565.96zm-10414.49 7024.07c18.37,-42.3 48.67,-79.99 89.82,-107.55l2413.44 -1616.76c-289.88,-53.65 -572.15,-122.6 -827.11,-184.89 -92.85,-22.68 -181.45,-44.33 -306.41,-73.01 -161.69,-37.11 -324.86,-70.62 -489.42,-100.41l-3804.57 2548.69c35.6,53.14 74.66,100.31 117.5,140.03 81.47,75.54 179.85,123.7 298.16,131.94 112.49,7.83 245.36,-16.91 401.73,-82.67 674.71,-283.77 1379.81,-504.36 2106.86,-655.37zm14321.88 -11687.02c19.1,-12.79 39.33,-22.59 60.13,-29.5 77.26,-72.61 154.61,-145.18 232.02,-217.8 1197.68,-1123.62 2406.72,-2258.28 3382.01,-3659.57l-12940.78 8669.07c-56.39,476.17 -86.13,976.15 -85.85,1503.05l9352.47 -6265.25zm-9167.96 4096.26l13484.99 -9033.64c342.02,-617.91 637.16,-1288.42 869.55,-2028.03l-13883.93 9300.89c-3.37,9.31 -6.78,18.6 -10.13,27.93 -194.22,541.65 -350.44,1116.71 -460.48,1732.85zm809.18 -2587.44l13749.71 -9210.97c123.86,-511.44 218.83,-1054.59 280.83,-1633.66l-12558.1 8412.71c-563.47,753.15 -1068.71,1551.1 -1472.44,2431.92zm14075.41 -11474.54c3.01,-2.01 6.05,-3.95 9.11,-5.81 32.05,-501.45 41.61,-990.11 29.66,-1465.68l-8391 5621.16c-604.01,736.22 -1242.95,1433.54 -1878.92,2127.38 -440.63,480.73 -879.76,959.83 -1305.15,1451.15l11536.3 -7728.2zm-7412.72 2920.44l7425.82 -4974.59c-28.91,-457.97 -78,-904.68 -146.35,-1339.8l-1.12 -6.94 -5913.15 3961.23c-387.78,854.93 -852.8,1632.33 -1365.2,2360.1zm1706.26 -3188.42l5471.56 -3665.41c-86.51,-396.32 -200.81,-804.82 -339.63,-1218l-4613.1 3090.33c-134.8,635.4 -310.17,1230.83 -518.83,1793.08zm645.36 -2477.7l4313.57 -2889.67c-141.99,-374.97 -302.88,-751.38 -480.36,-1123.74l-3672.66 2460.33c-27.95,542.72 -82.24,1059.71 -160.55,1553.08zm180.65 -2166.4l3428.91 -2297.03c-184.46,-356.51 -383.57,-707.09 -595.12,-1046.85l-2868.46 1921.59c24.16,390.29 36.45,786.01 36.45,1186.98 0,79.01 -0.67,157.38 -1.78,235.31zm-78.75 -1992.61l2641.9 -1769.82c-227.17,-338.15 -466.2,-662.23 -714.7,-966.74l-2100.93 1407.42c56.9,334.5 104.55,675.19 142.63,1022.02 11.19,101.98 21.56,204.36 31.1,307.12zm-273.29 -1862.3l1874.75 -1255.9c-282.15,-315.7 -574.55,-604.84 -874.01,-860.02l-1305.09 874.29c77.89,270.33 149.23,545.3 213.82,824.89 31.82,137.77 62,276.67 90.53,416.74zm-27618.91 8751.75c49.08,128.9 -15.63,273.19 -144.53,322.27 -128.9,49.08 -273.19,-15.63 -322.27,-144.53 -287.15,-749.68 -510.97,-1522.06 -661.86,-2307.03 -146.3,-761.04 -223.8,-1531.72 -223.8,-2302.68 0,-138.07 111.93,-250 250,-250 138.07,0 250,111.93 250,250 0,741.85 74.13,1481.07 214.04,2208.92 144.96,754.09 360.86,1498.42 638.42,2223.05zm5835.45 13241.48c-793.88,1680.93 -1239.14,3503.21 -1128.04,5263.96 24.19,383.58 134.97,1037.28 390.64,1473.02 69.34,118.18 147.55,215.55 234.57,277.03 64.4,45.5 137.21,70.22 219.03,65.06 89.53,-5.65 195.48,-41.36 320.43,-114.67 878.2,-515.3 1828.05,-918.44 2829.9,-1189.85 972,-263.31 1993.54,-403.83 3046.8,-403.83 441.01,0 880.27,25.25 1316.17,74.41 439.28,49.53 871.7,123.69 1295.8,221.04 69.12,15.86 189.28,45.22 315.79,76.13 546.46,133.51 1232.68,301.15 1748.98,242.45 441.34,-50.17 758.83,-331.09 666.22,-1145.64 -273.5,-2405.65 -9.56,-4345.25 585.55,-6004.98 594,-1656.62 1513.57,-3020.94 2555.96,-4286.98 571.21,-693.77 1183.91,-1362.22 1799.5,-2033.84 2544.28,-2775.82 5139.98,-5607.74 5139.98,-10886.94 0,-686.14 -35.81,-1346.28 -105.39,-1980.04 -71.12,-647.78 -177.54,-1274.08 -317.08,-1878.18 -777.31,-3364.9 -2584.16,-6021.3 -5049.17,-7855.63 -2579.8,-1919.75 -5885.39,-2944.43 -9492.93,-2944.43 -4279.45,0 -8134.83,1442.44 -10857.44,4110.77 -2545.16,2494.43 -4107.13,6068.89 -4107.13,10547.51 0,1033.03 103.17,2062.15 297.91,3075.2 201.82,1049.94 502.53,2086.53 889.16,3095.93 306.32,799.71 732.21,1430.84 1237.32,1909.8 716.56,679.48 1598.27,1058.12 2526.79,1180.96 941.53,124.55 1933.41,-12.81 2855,-365.82 860.7,-329.67 1656.06,-846.58 2288.04,-1513.05 1402.75,-1479.28 601.38,-3466.78 409.73,-3942.1 -22.09,-54.79 -38.59,-95.7 -43.74,-110.66 -125.54,-364.55 -223.23,-739.58 -289.37,-1121.29 -64.35,-371.35 -98.24,-745.62 -98.24,-1119.03 0,-1819.49 642.65,-3279.6 1689.81,-4305.89 1115.81,-1093.56 2683.28,-1684.73 4414.52,-1684.73 1731.24,0 3298.72,591.17 4414.52,1684.73 1047.16,1026.29 1689.81,2486.4 1689.81,4305.89 0,1023.86 -203.89,1987.23 -554.66,2895.61 -346.92,898.39 -836.49,1737.9 -1413.25,2525.58 -1560.07,2130.57 -3678.9,3713.04 -5666.13,5197.23 -859.03,641.57 -1693.2,1264.58 -2425.25,1888.3 -1448.8,1234.4 -2751.49,2916.61 -3630.11,4776.97zm5913.33 13621.83c-138.07,0 -250,-111.93 -250,-250 0,-138.07 111.93,-250 250,-250 1071.08,0 2040.79,434.17 2742.72,1136.09 701.92,701.93 1136.09,1671.64 1136.09,2742.72 0,138.07 -111.93,250 -250,250 -138.07,0 -250,-111.93 -250,-250 0,-933.05 -378.19,-1777.77 -989.61,-2389.2 -611.43,-611.42 -1456.15,-989.61 -2389.2,-989.61zm4012.41 -633.6c-1026.83,-1026.83 -2445.44,-1661.95 -4012.41,-1661.95 -1566.97,0 -2985.58,635.12 -4012.41,1661.95 -1026.83,1026.83 -1661.95,2445.44 -1661.95,4012.41 0,1566.97 635.12,2985.58 1661.95,4012.41 1026.83,1026.83 2445.45,1661.95 4012.41,1661.95 1566.97,0 2985.58,-635.12 4012.41,-1661.95 1026.83,-1026.83 1661.95,-2445.44 1661.95,-4012.41 0,-1566.97 -635.12,-2985.59 -1661.95,-4012.41z"/></g></svg>