<?xml version="1.0" ?><svg enable-background="new 0 0 792 792" id="Layer_1" version="1.1" viewBox="0 0 792 792" xml:space="preserve" xmlns="http://www.w3.org/2000/svg" xmlns:xlink="http://www.w3.org/1999/xlink"><g><g><path d="M643.3,754.7c-0.8,0-1.6,0-2.5,0c0,0,0,0,0,0c-3.1,0-6.1-0.6-8.7-1.1l-1.4-0.3l-2.9-0.7c-2-0.4-3.9-0.9-5.8-1.3    c-5.7-1.2-11.3-2.5-16.7-3.9c-5.1-1.3-10.3-3.1-15.5-5.4c-0.7-0.3-1.4-0.7-2.2-1.1c-0.3-0.2-0.6-0.3-0.9-0.5    c-0.2-0.1-0.5-0.2-0.7-0.4l-1.3-0.7l-0.4-0.1l0-0.1c-0.2-0.1-0.3-0.2-0.5-0.3l-0.1,0.3c-0.1,0-0.4-0.1-0.5-0.1l-14.8-4.3    c-4.6-1.3-8.8-2.5-12.5-3.6c-6-1.8-10.8-3.2-14-4.2c-3.4-1.1-5.1-1.6-5.1-1.6c-2.2-0.7-3.6-2.9-3.5-5.2c0-0.5,0.2-1.6,0.4-3    l0.3-2.3l0.9-6.3c0.6-2.7,1.1-5.4,1.7-8.5c0.3-1.5,0.7-3.1,1.1-4.8c-0.5,0.2-1,0.5-1.4,0.7c-2.9,1.5-5.8,2.8-8.7,4.1    c-4.9,2.3-9.6,4.5-13.9,6.9c0,0-9.3,4.7-9.6,4.9c-0.8,0.4-1.6,0.7-2.5,0.7c0,0-0.8,0-0.9,0c-1.1,0-2.3,0-3.5,0l-1.9,0    c-0.5,0-1.2,0-1.8-0.1c-5.7-0.1-12.8-0.6-20.9-1l-5.9-0.4l-9-0.9c-8.4-0.8-18-1.7-27.9-3.1l-43.1-5.5c-7.5-0.8-15.4-1.7-23.4-2.6    c0,0-19.1-1.4-24.3-1.7l-11.3-0.2c-4.6,0-9.2-0.1-13.9-0.2c-7.8,0.4-16.2,1.5-24.5,3.1c-6.3,1.2-12.5,2.5-18.8,3.9    c-11.1,2.4-22.5,4.9-34.2,6.4L231,711l-1.4,0.2c-0.2,0-0.5,0-0.7,0c-0.6,0-1.3-0.1-1.9-0.4c-0.3-0.1-0.6-0.3-1-0.4    c-0.2-0.1-0.7-0.3-0.9-0.4l-5.9-2.7c-2.7-1.4-5.5-2.3-8.5-3.3c-1.1-0.4-2.2-0.7-3.3-1.1c-8.4-2.6-17.3-4.5-24.9-5.9    c-6.1-1.1-25.8-4.5-25.8-4.5c-2.6-0.5-5.2-1-7.7-1.5c-1.7-0.4-3.4-0.7-5.1-1c-1.4-0.3-2.9-0.7-4.3-1.1c-0.7-0.2-9.3-2.5-9.4-2.5    c-0.8-0.2-1.5-0.5-2.1-1c-0.6-0.4-1-0.9-1.4-1.5l-6.8-11.2c-1.7-2.7-3.3-5.4-4.9-8.1l-1.4-2.4c-1.4-2.2-2.8-4.5-4.2-6.8l-2.1-3.4    c-1.2-1.7-6.4-9.4-6.4-9.4l-3.9-5.7c-3-4.4-5.9-8.6-8.8-12.8l-2-2.8c-0.2-0.3-0.9-1.2-1.3-2.6l-1.9-6.3c-0.3-1-0.6-1.9-0.8-2.8    c-0.8-2.6-1.6-5.3-2-8.1c0,0-1.4-7.6-1.7-9.6c-0.4-2.5-0.6-4.8-0.8-7.1l-0.2-2.8c-0.7-5.3-0.7-10.3-0.8-15.2l0-2.8    c-0.1-3.9,0.2-7.8,0.8-11.8l-0.7-1.5c-0.4-0.9-0.8-1.9-0.9-3.2l-0.6-4c0-0.2,0-0.4-0.1-0.6l0-2.8c0-4.3,0.7-8.4,1.3-12    c0.7-3.4,1.4-6.5,2.2-9.6c1-3.9,1.9-7.6,2.5-11.4l7.2-54.7c0.2-1.9,0.4-4,0.5-6.1c0.1-1.6,0.3-3.3,0.4-4.9c0.5-6.4,1-13,1.5-19.6    l2.1-25.8l0.9-22.8c0.2-5.4,0.4-10.9,0.6-16.5c0.4-9.7,0.8-19.8,0.8-29.7l0.5-46.4c0.2-16.7,2.7-32.7,7.6-47.6    c0.5-1.4,0.9-2.8,1.4-4.2c0.6-1.8,1.3-3.6,1.9-5.4c4.4-11.5,9.7-22.2,15.2-33l10.3-19.8c2.9-6.5,8.2-13.1,15.7-19.2    c6.3-4.9,12.7-8.7,18.9-12.4c6.1-3.6,11.8-7,16.9-11.1c5-3.9,9-8.4,11.9-13.4c2.8-4.6,5.3-10.1,8-17.1l0.5-1.2    c0.4-1.2,0.9-2.7,2.3-3.9c0.4-0.4,0.9-0.7,1.4-0.9l7.5-3.3c1.8-0.7,3.3-1.6,5-2.6c1-0.6,2.1-1.2,3.1-1.8    c4.3-2.6,9.2-5.8,15.2-10.1l2.3-1.6c9.4-6.6,19.1-13.4,29.5-18.3c9.6-4.6,20.4-7.6,34-9.5c6.5-1,12.8-1.6,18.8-2.3    c3.8-0.4,7.5-0.8,11.1-1.2c3.8-0.4,7.3-0.9,10.6-1.4l2.7-0.4l0.9-0.2c1.8-0.4,3.5-0.7,5.2-1.1L356,37l1.3-0.2    c0.3-0.1,0.6-0.1,0.9-0.1c0.6,0,1.1,0.1,1.6,0.3c1.1,0.4,3.1,1.5,3.7,4.5l1.1,3.6c1.9,7.5,5,13.8,8,19.7c4.1,6.9,9,13.1,14.8,18.7    c2.4-2.6,5-5.7,8-9.4c2.2-2.8,4.4-5.6,6.6-8.6l3.6-5c0-0.1,0.3-0.4,0.4-0.4c1-1.2,2.4-1.9,4-1.9c0.7,0,1.4,0.2,2.1,0.4    c0,0,6.3,2.3,7.5,2.8c3.7,1.4,7.3,2.8,11,4.1c2.8,1.2,5.3,2.3,7.9,3.5l3.3,1.5c5.7,2.6,11.5,5.4,17.1,8.2l4.8,2.4    c3.4,1.7,6.7,3.3,10.1,4.9c4.1,1.9,8.2,3.9,12.3,6c8.1,4.3,15.5,9.5,22.6,14.4c6.7,4.7,13.1,9.2,19.9,12.9    c0.6,0.3,1.5,0.7,2.4,1.1c2.7,1.3,5.2,2.4,7.7,3.1l4.3,1.3l1.6,0.5c0.8,0.3,1.4,0.7,2,1.2c1.2,1.3,1.8,2.9,1.6,4.9    c0,0.1-0.4,9.4-0.4,9.4c0,1-0.1,1.8-0.1,2.5l1.3,5.7c0.7,3.2,1.5,6.5,2.2,9.9c0,0,5.7,24.8,6.5,28.2l2.7,10    c0.8,2.9,2.9,10.7,2.9,10.7c0.9,3.4,1.8,7,3.2,10.4l4,11.4c0.3,0.8,0.6,1.6,0.9,2.5l1.1,3.2c0.9,0,1.8,0.1,2.6,0.1    c1.4,0.1,2.7,0.2,3.9,0.2c1.2,0.1,2.2,0.2,3.2,0.3c1.4,0.2,2.9,0.4,4.5,0.6c0.1,0,0.6,0.1,0.7,0.1c2.7,0.4,5.2,0.7,7.8,1.2    l4.2,0.9c3.1,0.7,6.1,1.3,9.2,2.1l9.9,2.8l2.1,0.5c1.7,0.4,3.4,1.8,3.9,3.5l1.1,2.3c0.1,0.2,0.2,0.4,0.2,0.6    c1.2,3.2,3.5,6.2,5.9,9.4c2.7,3.1,5.7,6.1,8.9,9l1.8,1.7c2.9,2.7,5.9,5.4,8.7,8.4l0.6,0.6c3.3,3.5,6.7,7,9.5,11.7    c2.5,4,4.1,8.9,4.9,14.8c0.1,0.7,0.2,1.3,0.3,2l0.3,2.9c0.1,1.2,0.2,2.3,0.2,3.3c0.2,2.7,0.3,5.2,0.8,7.6    c0.6,3.6,1.1,7.2,1.6,10.7c0.8,5.8,1.6,11.8,2.8,17.7c2,10.8,4.3,21.6,6.6,32.1c1.7,8.2,3.5,16.3,5.1,24.5l1.1,5.4    c0.8,4.2,1.7,8.4,2.4,12.6c0.3,1.5,0.5,3,0.7,4.6c0.3,1.9,0.5,3.9,0.7,5.9c0.3,3.4,0.5,6.8,0.6,10.1l0.2,4.2l0,4.3    c0,3.4,0,6.7-0.1,10c-0.3,11.3-1.2,22.2-2,32.8c-0.5,6.7-1,13.2-1.3,19.6c-0.4,6.3-0.5,12.7-0.1,19.2c0.1,2.2,0.2,4.3,0.4,6.3    c0.5,6.2,1.4,12.6,2.6,19.5c0.8,4.3,1.6,8.4,2.3,12.5c1.8,9.5,3.5,18.5,4.5,26.8c0.8,5.6,1.8,10.9,2.7,16l0.3,1.7    c0.2,1,0.3,1.7,0.4,2.5c0.1,0.6,0.3,1.4,0.4,2.1c0.4,1.9-0.3,3.8-1.8,5l-1.4,1.1c-0.2,0.2-0.4,0.3-0.6,0.5c0,0-0.4,0.4-0.5,0.4    c-1.9,1.6-3.8,3.2-5.8,4.8c-4.2,3.6-8.6,7.3-13.3,10.8c0.6,0.4,1.1,0.8,1.7,1.2c3.1,2.3,6.1,4.8,9.1,7.2c2.5,2.1,5.1,4.1,7.6,6.1    c2,1.5,4.1,2.9,6.2,4.3l2.2,1.5c0.6,0.4,1.2,0.8,1.9,1.2c0.9,0.6,1.8,1.2,2.8,1.8c0.5,0.4,1.1,0.8,1.7,1.3    c0.9,0.7,1.8,1.5,2.7,2.6c0.7,0.9,1.3,1.7,1.7,2.5c0.6,1,1,2.1,1.2,3l0.3,0.8c0.1,0.3,0.2,0.6,0.2,0.9l0.6,2.9    c0,0.2,0.1,0.4,0.1,0.5l0.1,1.1c0.1,1.7,0.3,3.4,0.3,5l0.3,10.6c0.1,2.5,0.1,5.1,0.1,7.6c0.1,4.5,0.1,9.1,0.4,13.4l0.1,0.9    c0.1,1.7,0.2,3.3,0.1,5.3c0,0.2,0,0.6-0.1,1.1c-0.1,2.2-0.9,4.6-2.1,6.6c-0.2,0.4-0.7,1.1-1.3,1.8c-4,4-7.8,5.2-10.9,6.1    c-0.6,0.2-1.2,0.4-1.7,0.6l-10.5,2.8c-2.3,0.6-4.6,1-6.8,1.4c-1.2,0.2-2.4,0.4-3.5,0.6c-4.4,0.7-8.7,1.6-12.9,2.6    C660,752.9,651.8,754.7,643.3,754.7L643.3,754.7z"/><g><path d="M707.4,722.2c0.2,1.9,0.3,3.8,0.2,5.4c-0.1,0-0.3,0-0.4,0c-1.4-0.3-2.9-0.5-4.4-0.8     c-1.5-0.2-2.9-0.6-4.5-0.9c-3-0.6-6-1.5-8.9-2.3c-2.9-0.9-5.9-1.9-8.7-3c-1.4-0.6-2.8-1.2-4.2-1.7c-1.4-0.6-2.6-1.3-3.9-1.9     c-2.6-1.2-4.8-2.9-7-4.3c-2-1.6-4-3.1-5.5-4.8c-0.6-0.6-1.1-1.2-1.6-1.8c0.3,0,0.5,0,0.8-0.1c1.7-0.3,3.4-0.6,5-0.8     c1.6-0.5,3.1-1.1,4.7-1.6c1.5-0.6,3.1-1,4.6-1.7c1.4-0.8,2.8-1.5,4.2-2.2c2.8-1.4,5.3-3.1,7.7-4.7c2.5-1.6,4.7-3.3,6.9-5     c2.2-1.7,4.2-3.3,6.1-4.9c2.1-1.8,4.1-3.5,5.9-5.1c0.2,0.2,0.4,0.5,0.5,0.7c1.3,2.1,1.3,5.9,1.6,9.3l0.3,10.8     C707,708,706.9,715.1,707.4,722.2z" fill="#B9B9C3"/><path d="M707.4,722.2c0.2,1.9,0.3,3.8,0.2,5.4c-0.1,0-0.3,0-0.4,0c-1.4-0.3-2.9-0.5-4.4-0.8     c-1.5-0.2-2.9-0.6-4.5-0.9c-3-0.6-6-1.5-8.9-2.3c-2.9-0.9-5.9-1.9-8.7-3c-1.4-0.6-2.8-1.2-4.2-1.7c-1.4-0.6-2.6-1.3-3.9-1.9     c-2.6-1.2-4.8-2.9-7-4.3c-2-1.6-4-3.1-5.5-4.8c-0.6-0.6-1.1-1.2-1.6-1.8c0.3,0,0.5,0,0.8-0.1c1.7-0.3,3.4-0.6,5-0.8     c1.6-0.5,3.1-1.1,4.7-1.6c1.5-0.6,3.1-1,4.6-1.7c1.4-0.8,2.8-1.5,4.2-2.2c2.8-1.4,5.3-3.1,7.7-4.7c2.5-1.6,4.7-3.3,6.9-5     c2.2-1.7,4.2-3.3,6.1-4.9c2.1-1.8,4.1-3.5,5.9-5.1c0.2,0.2,0.4,0.5,0.5,0.7c1.3,2.1,1.3,5.9,1.6,9.3l0.3,10.8     C707,708,706.9,715.1,707.4,722.2z" fill="#FFFFFF" opacity="0.6"/><path d="M663.3,429.7c1.9,0.2,3.7,0.3,5.5,0.4c1.8,0.1,3.6,0.2,5.4,0.3c1.2,0,2.4,0,3.6,0     c0.4,2.1,0.6,4.2,0.8,6.2c0.5,4.6,0.6,9.1,0.9,13.7c0,4.6,0.1,9.1,0,13.6c-0.4,18-2.1,35.5-2.8,52.2c-0.3,5.1-0.4,10.2-0.3,15.2     c-1.9-2.3-3.9-4.7-5.9-7.1c-1.7-2-3.4-4-5-6c-1.8-1.9-3.4-4.1-5-6.2c-3.3-4.3-6.6-8.6-9.9-12.9c-3.1-4.5-6.3-8.9-9.4-13.4     c-1.5-2.2-3.1-4.4-4.5-6.6c-1.5-2.2-2.9-4.4-4.3-6.6c-2.8-4.3-5.6-8.4-8.1-12.4c-2.5-4-4.9-7.8-7.1-11.3     c-1.9-2.9-3.8-5.7-5.4-8.2c1-1.7,1.8-3.5,2.6-5.3c1.9-4.1,3.2-8.4,4.2-12.7c0.6,0.2,1.1,0.3,1.6,0.5c3.1,0.9,6.4,1.7,10,2.3     c1.8,0.4,3.6,0.7,5.4,1.1c1.8,0.3,3.6,0.5,5.4,0.8c3.7,0.5,7.4,1,11.2,1.5C655.9,429.4,659.7,429.5,663.3,429.7z" fill="#585C66"/><path d="M663.8,424.6c-3.7-0.4-7.4-0.5-11.1-1.1c-3.7-0.5-7.4-1-11-1.4c-1.8-0.3-3.7-0.5-5.4-0.7     c-1.8-0.3-3.5-0.6-5.2-0.9c-3.4-0.5-6.7-1.2-9.9-1.9c-0.6-0.2-1.3-0.3-1.9-0.4c1.4-9.5,0.8-19,0.1-27.8     c-0.9-9.6-1.4-18.8-1.4-27.7c0-8.9,0.3-17.7-0.1-26.1c0.1-4.1-0.5-8.2-1-12.2l0-0.1c2.5-1,5.2-2.1,8-3.2c1.4-0.5,2.8-1.1,4.3-1.6     c1.4-0.6,2.9-1.1,4.4-1.6c2.9-1,6-1.9,9-2.8c3.1-0.8,6.1-1.6,9.2-2.1c1.4-0.3,2.9-0.6,4.3-0.8c0.4,3.7,0.5,7.6,1.1,11.4     c1.5,9.6,2.6,19.4,4.5,28.9c3.7,19.1,8.1,38,11.9,56.6c1.1,5.6,2.3,11.2,3.3,16.8c-0.9,0-1.7,0-2.6-0.1c-1.8-0.2-3.5-0.4-5.3-0.6     C667.4,425,665.6,424.9,663.8,424.6z" fill="#8D919C"/><path d="M702.1,731.7c0.8,0.1,1.7,0.2,2.5,0.3c-1.7,0.9-4,1.6-6,2.3c-3.3,0.9-6.6,1.8-9.8,2.7     c-3.3,0.9-6.6,1.3-9.9,2c-13.4,2.3-25.8,6.8-37.7,6.3c-1.5,0-2.9,0-4.3-0.4c-1.4-0.3-2.8-0.4-4.3-0.8c-2.9-0.6-5.8-1.2-8.7-1.8     c-5.7-1.2-11.2-2.2-16.4-3.6c-5.2-1.2-10-2.7-14.4-4.5c-0.9-0.4-1.7-0.8-2.5-1.2c0.2-0.3,0.4-0.5,0.6-0.8l1.3-2.1     c0.9-1.4,1.7-2.9,2.5-4.5c0.8-1.5,1.6-3,2.3-4.6c0.3-0.8,0.7-1.6,1-2.3c0.4-0.8,0.7-1.5,0.9-2.3c0.7-1.5,1.1-3,1.6-4.5     c0.3-0.8,0.5-1.7,0.7-2.5c2.6,0.5,5.3,0.9,8.1,0.9c7.1,0.2,13.8-1,20.3-1.9c3.5-0.6,6.9-0.8,10.2-1.3h0.1h0.1     c3-0.3,6-0.7,9.1-0.7c1.6-0.1,3.2-0.1,4.9-0.2h0.1c0.7,1.4,1.6,2.8,2.7,4.3c1.5,2,3.6,3.8,5.7,5.7c2.3,1.6,4.7,3.6,7.5,4.9     c1.3,0.7,2.7,1.6,4.1,2.2c1.5,0.6,2.9,1.3,4.4,1.9c3,1.2,6.1,2.2,9.2,3.2c3.1,0.8,6.3,1.7,9.4,2.2     C699,731.1,700.5,731.4,702.1,731.7z" fill="#8D919C"/><path d="M601.2,254.1c3.5-0.1,6.8-0.1,9.9-0.4c1.3-0.2,2.5-0.3,3.8-0.5l0.8,0.2l0.3,0.1c0.1,0.1,0.1,0.3,0.3,0.6     c1.7,4.5,4.6,8.5,7.5,12.3c3.1,3.6,6.5,7.1,10,10.2c3.5,3.1,6.9,6.2,10.1,9.6c3.2,3.4,6.4,6.7,8.6,10.5c2,3.1,2.9,6.8,3.5,10.6     c-1.6,0.1-3,0.4-4.6,0.6c-3.2,0.4-6.4,1.3-9.7,2c-3.2,0.9-6.4,1.8-9.4,2.9c-1.5,0.6-3,1.1-4.5,1.7c-1.5,0.6-2.9,1.2-4.4,1.8     c-2.4,1-4.7,2-6.9,3c-0.1-0.5-0.1-0.9-0.2-1.4c-0.5-1.9-1-3.8-1.5-5.7c-0.5-1.9-1-3.7-1.4-5.5c-0.6-1.8-1.2-3.5-1.8-5.2     c-1.1-3.5-2.3-6.8-3.6-10c-5-12.7-10.1-23.4-13.9-32.3c-0.8-1.7-1.5-3.4-2.1-5C595,254.3,598.2,254.2,601.2,254.1z" fill="#B9B9C3"/><path d="M601.2,254.1c3.5-0.1,6.8-0.1,9.9-0.4c1.3-0.2,2.5-0.3,3.8-0.5l0.8,0.2l0.3,0.1     c0.1,0.1,0.1,0.3,0.3,0.6c1.7,4.5,4.6,8.5,7.5,12.3c3.1,3.6,6.5,7.1,10,10.2c3.5,3.1,6.9,6.2,10.1,9.6c3.2,3.4,6.4,6.7,8.6,10.5     c2,3.1,2.9,6.8,3.5,10.6c-1.6,0.1-3,0.4-4.6,0.6c-3.2,0.4-6.4,1.3-9.7,2c-3.2,0.9-6.4,1.8-9.4,2.9c-1.5,0.6-3,1.1-4.5,1.7     c-1.5,0.6-2.9,1.2-4.4,1.8c-2.4,1-4.7,2-6.9,3c-0.1-0.5-0.1-0.9-0.2-1.4c-0.5-1.9-1-3.8-1.5-5.7c-0.5-1.9-1-3.7-1.4-5.5     c-0.6-1.8-1.2-3.5-1.8-5.2c-1.1-3.5-2.3-6.8-3.6-10c-5-12.7-10.1-23.4-13.9-32.3c-0.8-1.7-1.5-3.4-2.1-5     C595,254.3,598.2,254.2,601.2,254.1z" fill="#FFFFFF" opacity="0.6"/><path d="M688.1,602c1.3,7,2.7,13.3,4,19c0,0,0,0.1,0,0.1c-2.5-0.9-5.2-1.8-8-2.8c-4.6-1.6-9.5-3.2-14.6-5.1     c-2.5-1-5-2-7.6-3c-2.6-1-5.2-2-7.8-3.1c-5.3-2-10.6-4.1-15.9-6.2c-5.3-2.1-10.7-4.3-15.9-6.3c-2.6-1.1-5.2-2.1-7.7-3.2     c-2.5-1.1-4.9-2.2-7.3-3.4c-4.8-2.4-9.5-4.7-13.9-6.9c-4.4-2.2-8.7-4.2-12.7-5.8c-1.3-0.5-2.5-1-3.8-1.4c0.1-0.2,0.2-0.4,0.2-0.6     c2.3-9.3,2.5-18.7,2.2-27.9c-0.1-1.5-0.1-3-0.2-4.5c-0.5-11.7-1.2-23.1,1.4-33.8c0.4-2.5,1.4-5,2.5-7.5l2.9-7.5     c1.8-5.1,4.4-9.8,6.7-14.6c2.2-4.9,4.7-9.6,7.2-14.3c2.5-4.7,5-9.3,7.4-13.9c0.9-1.7,1.8-3.4,2.7-5c1.1,2.1,2.3,4.4,3.7,6.8     c2.1,3.6,4.3,7.5,6.7,11.5c2.3,4.2,5.1,8.3,7.9,12.7c1.4,2.2,2.7,4.4,4.2,6.7c1.4,2.2,3,4.4,4.6,6.7c3.1,4.4,6.3,9,9.4,13.5     c3.5,4.4,6.9,8.7,10.2,13c1.7,2.1,3.3,4.3,5.2,6.2c1.8,2,3.5,4,5.2,5.9c3.5,3.8,6.6,7.6,10,10.8c0.6,8.8,1.9,17.2,3.5,25.1     C683.1,577.6,686.3,590.5,688.1,602z" fill="#B9B9C3"/><path d="M688.1,602c1.3,7,2.7,13.3,4,19c0,0,0,0.1,0,0.1c-2.5-0.9-5.2-1.8-8-2.8     c-4.6-1.6-9.5-3.2-14.6-5.1c-2.5-1-5-2-7.6-3c-2.6-1-5.2-2-7.8-3.1c-5.3-2-10.6-4.1-15.9-6.2c-5.3-2.1-10.7-4.3-15.9-6.3     c-2.6-1.1-5.2-2.1-7.7-3.2c-2.5-1.1-4.9-2.2-7.3-3.4c-4.8-2.4-9.5-4.7-13.9-6.9c-4.4-2.2-8.7-4.2-12.7-5.8     c-1.3-0.5-2.5-1-3.8-1.4c0.1-0.2,0.2-0.4,0.2-0.6c2.3-9.3,2.5-18.7,2.2-27.9c-0.1-1.5-0.1-3-0.2-4.5c-0.5-11.7-1.2-23.1,1.4-33.8     c0.4-2.5,1.4-5,2.5-7.5l2.9-7.5c1.8-5.1,4.4-9.8,6.7-14.6c2.2-4.9,4.7-9.6,7.2-14.3c2.5-4.7,5-9.3,7.4-13.9     c0.9-1.7,1.8-3.4,2.7-5c1.1,2.1,2.3,4.4,3.7,6.8c2.1,3.6,4.3,7.5,6.7,11.5c2.3,4.2,5.1,8.3,7.9,12.7c1.4,2.2,2.7,4.4,4.2,6.7     c1.4,2.2,3,4.4,4.6,6.7c3.1,4.4,6.3,9,9.4,13.5c3.5,4.4,6.9,8.7,10.2,13c1.7,2.1,3.3,4.3,5.2,6.2c1.8,2,3.5,4,5.2,5.9     c3.5,3.8,6.6,7.6,10,10.8c0.6,8.8,1.9,17.2,3.5,25.1C683.1,577.6,686.3,590.5,688.1,602z" fill="#FFFFFF" opacity="0.6"/><path d="M564.3,656.7c4.2-2.2,9.7-2.4,15.6-3.2c5.9-0.9,11.8-2,17.9-3.5c12-2.8,24.6-6.3,37.6-7.1     c3.2-0.4,6.5-0.1,9.8,0.1c3.2,0.2,6.3,0.9,9.3,2.1c1.3,0.5,2.6,1.1,3.9,1.7c1.6,0.8,3.1,1.6,4.7,2.6c2.9,1.8,5.8,3.9,8.7,6.1     c5.5,4.2,10.9,8.9,16.7,13.3c2.9,2.2,6,4.2,9,6.1c1.5,1,3,1.9,4.3,2.8c-1.8,1.4-3.8,2.8-5.7,4.3c-2,1.5-4.1,3-6.2,4.6     c-2.1,1.6-4.4,3.2-6.8,4.7c-2.3,1.5-4.8,3.1-7.4,4.3c-1.3,0.7-2.6,1.3-4,1.9c-1.3,0.7-2.8,1-4.2,1.4c-1.4,0.5-2.8,1-4.3,1.4     c-1.5,0.2-3,0.4-4.5,0.6c-1.3,0.1-2.5,0.2-3.8,0.3c-0.8,0-1.7,0-2.5,0.1c-1.1,0-2.1,0.1-3.3,0.1c-3-0.1-6.3,0.4-9.5,0.6     c-3.5,0.4-7.2,0.6-10.6,1.2c-6.7,1-13.2,2-19.3,1.9c-2.6,0-5.2-0.4-7.9-0.8c-0.5,0-1.1-0.1-1.6-0.2c-0.5,0-1.1-0.2-1.6-0.3     c-2.6-0.4-5.1-0.9-7.7-1.3c-6.1-1.3-11.9-2.6-17.2-4.3c-5.3-1.9-10.2-3.7-13.4-6.8c-2.8-3-5.1-6.2-7-9.2c-1-1.5-1.8-2.9-2.6-4.3     c0-0.1-0.1-0.2-0.1-0.2c1.2-3.5,2.7-7,4.3-10.5C557.3,662.8,560,659,564.3,656.7z" fill="#B9B9C3"/><path d="M565.4,288.7c0.2-1.2,0.3-2.4,0.4-3.7c0.1-1.2,0.2-2.5,0.3-3.8c0.2-2.5,0.4-5.1,0.6-7.7     c0.2-2.6,0.4-5.1,0.4-7.7c0-1.3,0-2.5,0.1-3.8c0-1.2,0-2.5,0-3.7c0-2.4,0-4.7,0-6.9c0-2.2,0.2-4.2,0.3-6c0-0.2,0-0.5,0-0.7h0.3     c2.2,0.2,4.4,0.3,6.6,0.4c2.1,0.2,4.2,0.1,6.2,0.5c2.3,0.4,4.6,0.7,7,1c0.4,0.1,0.8,0.2,1.3,0.2c1.4,0.3,2.9,0.5,4.4,0.8     c2.4,0.6,4.8,1.1,7.2,1.6c-3.4-0.1-7-0.1-10.7-0.1c-0.1,0-0.2,0-0.2,0h-1.1H588c-0.4,0.1-1.1-0.2-1.1,0.5l-0.9,2.7l-1,3     c-0.6,1.8-1.2,3.7-1.8,5.6c-1.2,3.8-2.6,7.5-4.2,11.2c-1.4,3.8-2.8,7.6-4.5,11.1c-0.8,1.8-1.6,3.6-2.4,5.4l-1.2,2.6l-0.6,1.3     c-0.2,0.4-0.2,0.6-0.3,0.9l-1.7,4.7c-0.7,1-1.3,2.1-1.8,3.1c-0.7-1.6-1.4-3.2-2.2-4.8c0-0.3,0.1-0.6,0.1-0.9     C564.8,293.4,565.2,291.1,565.4,288.7z" fill="#585C66"/><path d="M563.5,244.3c-0.1,0.2-0.1,0.5-0.2,0.7c-0.4,2-0.7,4.1-0.8,6.3c-0.2,2.2-0.3,4.6-0.4,7     c0,1.2,0,2.4-0.1,3.7c-0.1,1.2-0.2,2.4-0.2,3.7c-0.2,2.5-0.3,5-0.5,7.6c-0.2,2.5-0.3,5.1-0.4,7.6c0,1.3-0.1,2.5-0.2,3.7     c0,1.3-0.1,2.4-0.2,3.7c0,0.2,0,0.4,0,0.5c-2.8-5.2-5.9-10.6-9.3-16c-2-2.8-4-5.7-6-8.7c-2-2.9-4.1-5.9-6.4-8.7     c-1.7-2.1-3.5-4.3-5.3-6.5c1.1-0.3,2.2-0.4,3.4-0.7c0.9-0.2,1.8-0.3,2.8-0.5c0.9-0.2,1.9-0.3,2.8-0.5c2-0.3,3.9-0.6,5.9-0.9     c2-0.3,4-0.6,5.9-0.8c1-0.2,2-0.3,2.9-0.4c1-0.2,1.9-0.3,2.8-0.4C561.4,244.6,562.4,244.4,563.5,244.3z" fill="#8D919C"/><path d="M579.7,729.8c-8.5-2-15.9-3.7-22-5.1c-6.1-1.3-11-2.4-14.3-3.1c-3.3-0.7-5-1.1-5-1.1     c0.2-0.7,0.6-2.5,1.2-5c0.4-1.6,0.9-3.6,1.4-6c0.7-2.3,1.5-5,2.3-8c1.4-4.9,3.3-10.6,5.4-17c0.3-1,0.7-1.9,1-2.9     c0.1,0.3,0.2,0.6,0.4,0.9c0.2,0.4,0.4,0.8,0.6,1.2c1.6,3.4,3.8,7.2,7,10.8c3.8,4.2,9.4,6.2,14.8,8.3c5.6,1.9,11.5,3.5,17.7,4.8     c2.2,0.5,4.5,1,6.9,1.3c-0.2,0.5-0.4,1.1-0.7,1.6c-0.5,1.3-1.1,2.7-1.7,4.1c-0.4,0.7-0.7,1.4-1,2.1l-1.1,2.2     c-0.8,1.4-1.5,2.9-2.3,4.4c-0.8,1.5-1.5,3-2.3,4.4c-0.4,0.8-0.8,1.5-1.1,2.2c-0.3,0.5-0.6,1-0.8,1.5     C583.9,730.8,581.7,730.4,579.7,729.8z" fill="#585C66"/><path d="M538.8,190.7c0.8-8.1,1.6-16.4,2.4-24.7c0.4-3.6,0.6-7.2,0.8-10.8c0.4,1.8,0.7,3.7,1.1,5.6     c1.1,5.8,2.3,11.9,3.7,18.4c0.7,3.3,1.3,6.6,2,10c0.8,3.4,1.7,6.9,2.5,10.4c0.9,3.5,1.8,7.1,2.7,10.8c0.9,3.7,1.9,7.4,3.2,11.1     c1.3,3.7,2.5,7.5,3.9,11.4c0.7,1.9,1.3,3.9,2,5.8l0.4,1c-1.2,0.1-2.4,0.2-3.7,0.3c-1,0-1.9,0.1-2.9,0.2c-1,0-2,0.2-3,0.3     c-2,0.2-4,0.4-6,0.6c-2,0.3-4.1,0.6-6.1,0.9c-1,0.2-2,0.4-2.9,0.6c-1,0.3-1.9,0.5-2.9,0.7c-1.6,0.4-3.1,0.7-4.6,1.2l0.2-1.1     c0.3-1.9,0.5-3.8,0.8-5.6c1.1-7.6,2.2-15.2,3.3-23.1C536.7,206.8,537.8,198.8,538.8,190.7z" fill="#585C66"/><path d="M682.7,622.4c1.9,0.6,3.8,1.2,5.6,1.7c-6.7,5.3-13.3,11.2-21,16.3c-1.3,1-2.7,1.9-4.1,2.9     c-2.2-1.2-4.5-2.3-6.9-3.1c-3.4-1.4-7.2-2.2-10.7-2.3c-3.6-0.2-7.1-0.5-10.6-0.1c-13.9,0.9-26.5,4.8-38.4,7.6     c-5.9,1.4-11.8,2.6-17.4,3.5c-5.5,0.9-11.6,1.1-17,4c-5.3,2.9-8.5,8.1-10.4,12.7c-1.2,2.9-2.3,5.6-3.2,8.3     c-0.4,1.1-0.7,2.1-1,3.2c-0.2,0.6-0.4,1.2-0.5,1.8c-0.1,0.3-0.2,0.6-0.3,0.9c-5.2,2.4-10.3,4.8-15.1,7.3     c-8,4.2-15.8,7.6-22.6,11.6c-2.7,1.6-5.3,3.1-7.8,4.6c0.3-2,0.4-4.1,0.6-6.2c0.4-3.6,0.3-7.5,0.4-11.5c0-2-0.3-4-0.4-6.1     c-0.1-2-0.3-4.1-0.8-6.2c-0.4-2.1-0.7-4.2-1.2-6.3l-2-6.2l-1.8-5.7l-0.9-2.8c-0.3-1-0.4-1.9-0.6-2.9c-0.3-1.9-0.8-3.9-0.9-5.7     c-0.1-1.9-0.2-3.9-0.3-5.7c0-3.8,0.1-7.5,0.5-11c0.3-2.7,0.6-5.4,0.9-7.9c8.9-3,17.6-6.7,26.5-9.7c10.3-3.6,21-6.9,31.3-11.8     c5.1-2.5,10.2-5.3,14.7-9.2c3.4-2.8,6.5-6.5,8.4-10.8c1.1,0.5,2.2,1,3.4,1.6c3.8,1.8,8,3.9,12.3,6.1c4.4,2.3,9,4.7,13.7,7.2     c2.4,1.2,4.9,2.4,7.5,3.6c2.6,1.2,5.2,2.3,7.8,3.3c5.3,2.1,10.6,4.3,15.9,6.4c5.3,2.1,10.7,4.2,16,6.1c2.7,1,5.3,2,7.9,2.9     c2.6,1,5.2,1.9,7.7,2.8C672.9,619.4,678,620.9,682.7,622.4z" fill="#8D919C"/><path d="M420.1,255.8c0.3,2.9,0.4,4.5,0.4,4.5s-0.2,1.6-0.5,4.5c-0.2,2.9-0.8,7.3-1.7,12.6     c-2.1,10.6-6,26.4-17.1,41.1c-2.9,3.6-6,7.2-10,10c-3.8,2.9-8.3,5.3-13.3,6.3c-4.9,1.1-10.2,1.1-15.2-0.6c-5-1.6-9.8-4.5-14-8.3     c-4.2-3.7-7.6-8.4-10.7-13.4c-3.1-5-5.4-10.6-7.5-16.2c-3.8-11.5-5.7-23.8-5.7-36.2c0-12.3,1.9-24.7,5.6-36.2     c2.1-5.7,4.3-11.3,7.5-16.3c3-5,6.5-9.8,10.7-13.5c4.2-3.8,8.9-6.7,14-8.3c5-1.7,10.4-1.7,15.3-0.6c5,1.1,9.5,3.4,13.4,6.4     c4,2.8,7.1,6.4,10,10.1c11.1,14.8,14.9,30.6,17,41.2C419.3,248.5,419.9,252.9,420.1,255.8z" fill="#FFFFFF"/><path d="M333.6,443.6c3.9-0.1,7.7-0.2,11.4-0.2c3.8,0,7.5,0.5,11.2,0.7c7.4,0.2,14.4,1.5,21.1,2.4     c3.4,0.4,6.6,1.1,9.7,1.8c3.1,0.7,6.1,1.3,9,1.9c8.7,2.2,16.5,4.2,22.5,5.9c-5.9,12.5-12,26-16.4,40.6c-0.9,3.7-2.2,7.4-2.8,11.3     l-1.1,5.8l0,0.5h0l-1.3,0.1c-7.8,0.3-15.6,0.6-23.6,0.9c-7.9,0.3-15.9,0.5-24,0.6c-8,0.2-16.1,0.2-24.2,0c-16.1,0-32.2-0.8-48-2     c-7.9-0.6-15.7-1.6-23.4-2.4c-3.9-0.6-7.7-1.2-11.4-1.8l-5.6-0.9l-1.9-0.3c0,0,0,0,0,0l-0.1-0.4c-2.9-11.6-5.8-22.9-8.6-33.8     c1-0.6,1.9-1.1,2.9-1.6c5.2-2.7,10.8-5.7,17-8.4c6.2-2.6,12.8-5.3,19.8-7.6c3.5-1.2,7-2.3,10.7-3.5c3.6-1.1,7.3-2.1,11.1-3     c7.5-1.9,15.2-3.1,22.9-4.7c3.9-0.4,7.8-0.8,11.6-1.2l5.8-0.6C329.8,443.7,331.7,443.7,333.6,443.6z" fill="#C16B6B"/><path d="M321.4,240.2c-1.1,6.7-1.7,13.4-1.7,20.2c0.1,6.7,0.6,13.4,1.6,20c-2.2,10.5-6.3,24.8-16.5,38.3     c-2.9,3.6-6,7.2-10,10c-3.8,2.9-8.3,5.3-13.3,6.3c-4.9,1.1-10.2,1.1-15.2-0.6c-5-1.6-9.7-4.5-14-8.3c-4.2-3.7-7.6-8.4-10.7-13.4     c-3.1-5-5.4-10.6-7.5-16.2c-3.8-11.5-5.7-23.8-5.7-36.2c0-12.3,1.9-24.7,5.6-36.2c2.1-5.7,4.3-11.3,7.5-16.3     c3-5,6.5-9.8,10.7-13.5c4.2-3.8,8.9-6.7,14-8.3c5-1.7,10.4-1.7,15.3-0.6c5,1.1,9.5,3.4,13.4,6.4c4,2.8,7.1,6.4,10,10.1     C315.1,215.4,319.1,229.7,321.4,240.2z" fill="#FFFFFF"/><path d="M490.1,620.5c-0.4,1.9-0.6,3.9-0.9,5.9c-0.5,3.6-0.8,7.5-0.9,11.5c0,2,0.1,4.1,0.2,6.1     c0.1,2.1,0.6,4.2,0.9,6.3c0.2,1,0.3,2.1,0.6,3.1l1,3.1l1.9,6.1l1.9,5.6c0.6,1.9,0.8,3.9,1.3,5.8c0.5,1.9,0.7,3.9,0.9,5.8     c0.2,2,0.5,3.9,0.6,5.8c0.1,3.8,0.4,7.5,0.1,11.1c-0.1,3.1-0.3,6.1-0.5,8.8c-0.1,0.1-0.3,0.1-0.5,0.2c-0.5,0-0.9,0-1.4,0     c-7.8-0.6-17.3-1.6-28.1-2.7c-10.8-1.5-23-2.8-36.3-4.9c-13.4-1.9-27.8-3.9-43.1-6c-7.7-0.9-15.5-1.8-23.6-2.8     c-8.1-0.7-16.4-1.3-24.8-2c-3.8-0.1-7.5-0.2-11.3-0.3c-0.9-0.6-1.8-1.2-2.6-1.8c-2-1.4-4.2-2.7-6.3-4.4c-2-1.6-4.1-3.2-6.1-5     c-2.1-1.6-4-3.6-6-5.4c-4.1-3.6-7.7-7.9-11.4-12c-3.4-4.4-7-8.6-9.8-13.3c-1.4-2.3-3.1-4.5-4.3-6.9c-1.3-2.3-2.6-4.6-3.9-6.9     c-1.3-2.3-2.2-4.7-3.2-6.9c-1-2.3-2.1-4.5-2.8-6.8c-1.6-4.5-3.2-8.7-4.2-12.7c-0.6-2-1.2-3.9-1.7-5.7c0.3,0,0.5,0.1,0.8,0.1     c19.2,2.8,46.3,9.2,78.9,17c16.2,3.8,34.1,7.6,53.2,10.2c19.1,2.5,39.7,3.6,60.7,0.8c5.2-0.9,10.6-1.4,15.7-2.9     c2.6-0.6,5.2-1.3,7.9-1.9C485.2,622.1,487.7,621.3,490.1,620.5z" fill="#585C66"/><path d="M231.5,620.7c2.2-1.1,4.5-2.1,6.5-3.4c8.3-4.8,15.2-10.4,21.8-15.1c0.8-0.6,1.5-1.1,2.2-1.6     c0.4,1.8,0.8,3.7,1.2,5.6c0.7,4.3,2.3,8.7,3.9,13.4c0.7,2.4,1.8,4.7,2.7,7.1c1.1,2.4,2,4.9,3.3,7.3c1.3,2.4,2.6,4.8,3.9,7.3     c1.3,2.5,2.9,4.7,4.4,7.1c2.9,4.9,6.7,9.3,10.2,13.8c3.9,4.2,7.6,8.6,11.9,12.3c2.1,1.9,4.1,3.9,6.3,5.5c2.2,1.7,4.4,3.4,6.5,5     c1,0.8,2.1,1.4,3.1,2.1c-2-0.1-4-0.1-5.9-0.1c-8.8,0.4-17.7,1.5-26.4,3.1c-17.5,3.1-34.9,7.8-52.5,10l-3.1,0.4     c0.1-2,0.1-4.1,0.1-6.1c-0.1-1.9-0.1-3.9-0.2-5.8c0-2-0.3-4-0.4-5.9c-0.2-4-0.8-8.1-1.2-12.1c-0.6-4-1.1-8.1-2-12     c-0.5-2-0.8-3.9-1.3-5.8c-0.5-1.9-1-3.8-1.5-5.7c-1-3.7-2.1-7.2-3.3-10.5c-1.3-3.3-2.3-6.5-3.8-9.2c-0.4-0.9-0.8-1.8-1.3-2.6     c2.5-0.2,5-0.7,7.4-1.2C226.8,622.6,229.2,621.7,231.5,620.7z" fill="#8D919C"/><path d="M212.9,624.7c0.5,1.3,1,2.7,1.5,4.1c1.1,2.7,2,5.8,3.1,9c1.1,3.3,1.9,6.8,2.9,10.4     c0.4,1.8,0.9,3.7,1.3,5.5c0.5,1.8,0.8,3.8,1.2,5.7c0.8,3.9,1.3,7.8,1.9,11.7c0.5,4,1,7.9,1.3,11.8c0.2,1.9,0.4,3.9,0.5,5.8     c0.2,1.9,0.3,3.8,0.4,5.7c0.1,1.7,0.2,3.4,0.3,5l-3.7-1.7c-4.1-2.1-8.5-3.3-12.8-4.8c-8.7-2.7-17.5-4.6-26.3-6.2     c-8.7-1.5-17.4-3-25.8-4.4c-4.3-0.8-8.4-1.6-12.6-2.4c-2.1-0.4-4.1-1-6.1-1.5l-4.5-1.2c0-0.8-0.1-1.5-0.1-2.3     c0-1.9-0.2-3.9-0.2-5.8c-0.1-1.9-0.2-3.9-0.3-5.9c-0.2-4-0.2-8.1-0.3-12.2c-0.2-4.1-0.3-8.1-0.4-12.2c0-2-0.1-4-0.3-6     c-0.1-2-0.2-4-0.3-5.8c-0.3-3.9-0.5-7.5-0.7-11c-0.1-3.5-0.3-6.8-0.5-9.8c0-1.2-0.1-2.4-0.1-3.5c2.8,1.5,5.6,2.7,8.5,3.8     c12,4.5,24,6.7,35.2,9.6c11.2,2.5,21.6,6.9,32.5,8.2C209.9,624.5,211.4,624.7,212.9,624.7z" fill="#585C66"/><path d="M207.2,365.8c4.8,5,10.1,10.8,16.2,16.6c6,5.9,12.7,12.2,19.4,19.2c1.7,1.7,3.4,3.5,5.1,5.2l2.6,2.7     l1.3,1.3c0.7,0.5,1.6,2.2,2.8,1.7c5.3,0,10.7,0,16.1,0c5.3,0,10.7,0,16.2-0.1c5.4,0,11,0,16.5,0c11.2-0.1,22.5-0.2,33.8-0.4     c11.3-0.3,22.5-0.5,33.7-0.7c5.6-0.2,11.1-0.3,16.5-0.4l4.1-0.1l2.1-0.1c0.6-0.2,1.5,0.3,1.9-0.4l1.2-1c2.1-1.7,4.2-3.4,6.3-5     c8.3-6.6,16.2-13,24.1-18.6c7.8-5.7,15.6-10.3,22.5-15.5c0.7-0.5,1.3-1,2-1.5c0.3,0.7,0.7,1.4,1.2,1.9c0.6,0.7,1.1,1.6,1.9,2.1     c2.8,2.4,6,3.3,9.1,4.1c0.1,0,0.3,0,0.4,0c-3.3,4.4-7.1,9.5-11.2,15.1c-2.6,4.2-5.4,8.7-8.4,13.4c-1.4,2.4-3,4.8-4.5,7.3     c-1.3,2.6-2.7,5.2-4.2,7.9c-5.5,10.3-10.9,21.5-16.6,33.4c-5.9-2.5-13.6-5.1-22.4-7.7c-2.9-0.8-5.9-1.5-9.1-2.3     c-3.1-0.8-6.4-1.6-9.8-2c-6.8-1.1-13.9-2.5-21.4-2.9c-3.8-0.3-7.6-0.7-11.4-0.8c-3.9,0-7.8,0-11.7,0.1c-2,0-4-0.1-5.9,0l-5.9,0.6     c-4,0.4-8,0.8-12,1.2c-7.9,1.6-15.8,2.8-23.5,4.9c-3.8,1-7.6,2-11.3,3.1c-3.7,1.2-7.3,2.3-10.8,3.7c-7.1,2.4-13.8,5.3-20.1,8.1     c-6.3,2.8-12,5.9-17.2,9c-0.6,0.4-1.2,0.8-1.8,1.2c-0.4-1.5-0.8-3-1.2-4.5c-3.5-13.5-6.7-26.2-9.7-37.9     c-2.8-11.7-5.5-22.5-8.3-32c-1.4-4.8-2.4-9.3-4-13.3c-1.6-4-3-7.7-4.5-10.9c-1.2-2.6-2.3-5-3.1-7.2c0.6-0.3,1.2-0.6,1.8-0.8     c2-1.1,4-2.3,5.8-3.8C203.4,361.8,205.3,363.7,207.2,365.8z" fill="#542121"/><path d="M85,555.3c7.1,11,16.7,18.8,23.8,28c2.2,2.5,4.6,5.1,6.9,7.6c2.2,2.5,5.2,4.3,7.7,6.5     c1.7,1.2,3.4,2.3,5.2,3.4c-0.3,1.7-0.4,3.6-0.5,5.5c-0.1,3.1-0.1,6.5,0,10c0.1,3.6,0.2,7.3,0.3,11.1c0.1,1.9,0.1,3.9,0.2,5.8     c0.1,1.9,0.1,3.9,0.1,5.9c0,4,0.2,8.1,0.3,12.2c0.2,4.1,0.2,8.2,0.6,12.2c0.2,2,0.3,4,0.4,6c0,0.2,0.1,0.4,0.1,0.6     c-2.7-4.4-5.4-8.7-8.1-13c-2.1-3.5-4.2-6.9-6.3-10.3c-2.3-3.2-4.5-6.5-6.8-9.6c-4.4-6.3-8.7-12.5-12.9-18.5l-1.6-2.2l-0.4-0.5     c0,0,0,0-0.1-0.2l-0.4-1.2c-0.6-1.6-1.1-3.3-1.6-4.9c-1-3.3-2.2-6.5-2.7-9.8c-0.7-3.3-1.3-6.4-1.9-9.6c-0.6-3.1-0.8-6.2-1.2-9.2     c-0.9-6-1.1-11.8-1.4-17.2C84.7,561,84.7,558.1,85,555.3z" fill="#8D919C"/><path d="M536.4,507.2c2.7-0.1,5.1-0.5,6.7-0.8c0.8-0.2,1.5-0.3,1.9-0.4c0.5-0.2,0.7-0.3,0.7-0.3s-0.2-0.1-0.6-0.3     c-0.5-0.2-1.1-0.4-1.9-0.6c-1.6-0.5-3.9-1.1-6.7-1.5c-1.4-0.2-2.9-0.3-4.5-0.5c-1.6-0.2-3.3-0.2-5-0.3c-0.9,0-1.8,0-2.7-0.1     c-0.9,0-1.8,0-2.7,0c-1.8,0-3.7-0.1-5.5-0.1c-1.9,0.1-3.7,0.1-5.5,0.2c-0.9,0-1.8,0-2.7,0.1c-0.9,0-1.8,0.1-2.6,0.2     c-1.8,0.1-3.5,0.2-5,0.3c-1.6,0-3.1,0.2-4.5,0.3c-2.7,0.3-5,0.8-6.7,1.3c-1.6,0.5-2.5,0.9-2.5,0.9s0.9,0.5,2.5,0.9     c1.6,0.5,4,0.9,6.8,1.1c1.4,0.1,2.9,0.2,4.5,0.2c1.6,0,3.3,0,5,0c0.9,0,1.8,0,2.6,0c0.9,0,1.8,0,2.7,0c1.8,0,3.7-0.1,5.5-0.2     c1.8,0,3.7-0.1,5.5-0.1c0.9,0,1.8-0.1,2.7-0.1c0.9,0,1.8-0.1,2.6-0.1c1.7-0.1,3.4-0.3,5-0.2C533.5,507.3,535,507.3,536.4,507.2z      M533.2,523.5c5.7,0.4,10.5,0.4,13.9,0.3c1.7-0.1,3-0.2,4-0.2c0.9-0.1,1.4-0.1,1.4-0.1s-0.5-0.1-1.4-0.4     c-0.9-0.2-2.2-0.5-3.8-0.9c-3.3-0.8-8-1.7-13.8-2.5c-2.9-0.4-6-0.8-9.3-1.2c-3.3-0.5-6.8-0.4-10.4-0.7c-1.8-0.1-3.7-0.2-5.5-0.3     c-1.9-0.1-3.8-0.2-5.6-0.3c-3.8-0.2-7.7-0.3-11.5-0.4c-3.9,0-7.7,0-11.5,0.1c-1.9,0-3.8,0-5.6,0c-1.8,0.1-3.7,0.1-5.5,0.2     c-3.6,0-7.1,0.2-10.4,0.3c-3.3,0.1-6.5,0.2-9.3,0.3c-5.8,0.4-10.6,0.9-13.9,1.4c-3.4,0.5-5.3,1-5.3,1s1.9,0.4,5.3,0.8     c3.4,0.5,8.2,0.9,14,1.1c2.8,0.2,6,0.2,9.3,0.2c3.3,0.1,6.8,0.1,10.4,0.1c1.8,0,3.6,0.1,5.5,0.1c1.8,0,3.7,0,5.6,0     c3.8,0,7.6-0.1,11.4-0.1c3.9,0.1,7.7,0.2,11.4,0.2c1.9,0.1,3.8,0.1,5.6,0.1c1.9,0,3.7,0.1,5.5,0.1c3.6,0.1,7.1-0.1,10.3,0.3     C527.3,523.1,530.4,523.4,533.2,523.5z M177.6,210.2c2.2,0,4.4-0.1,6.6-0.2c1.1-0.1,2.2-0.1,3.2-0.1c1.1-0.1,2.1-0.1,3.1-0.1     c2.1-0.1,4.1-0.3,6-0.2c1.9,0.1,3.7,0.1,5.4,0.1c3.3,0,6.1-0.3,8.1-0.6c1-0.2,1.8-0.3,2.3-0.4c0.6-0.1,0.8-0.2,0.8-0.2     s-0.3-0.1-0.8-0.3c-0.5-0.2-1.3-0.4-2.2-0.7c-1.9-0.6-4.7-1.2-8.1-1.7c-1.7-0.3-3.5-0.5-5.4-0.7c-1.9-0.3-4-0.2-6.1-0.3     c-1,0-2.1-0.1-3.2-0.1c-1.1,0-2.2,0-3.3,0c-2.2-0.1-4.5-0.1-6.8-0.1c-2.2,0.2-4.5,0.4-6.7,0.6c-1.1,0.1-2.2,0.3-3.3,0.4     c-1.1,0.1-2.1,0.2-3.2,0.3c-2.1,0.3-4.2,0.4-6,0.8c-1.9,0.4-3.7,0.8-5.4,1.2c-3.3,0.9-6,1.8-7.8,2.6c-1.8,0.8-2.8,1.4-2.8,1.4     s1.2,0.2,3.2,0.4c2,0.1,4.9,0.1,8.2-0.2c1.6-0.2,3.4-0.4,5.3-0.7c1.9-0.3,3.9-0.2,5.9-0.4c1.1-0.1,2.1-0.1,3.1-0.2     c1.1-0.1,2.1-0.2,3.2-0.3C173.1,210.6,175.3,210.3,177.6,210.2z M322.3,235.1c-1.7-10.2-5.4-22.9-14.3-35.5     c-2.9-3.9-6.3-7.8-10.6-11c-4.2-3.3-9.2-6-14.8-7.3c-5.6-1.3-11.8-1.4-17.6,0.4c-5.8,1.8-11.2,5-15.8,9.1     c-4.7,4.1-8.5,9.1-11.8,14.4c-3.3,5.3-5.8,11.2-8,17.2c-4.1,12.1-6,25-6.1,37.9c0.1,12.8,2,25.8,6,37.9c2.2,6,4.7,11.9,8,17.2     c3.4,5.3,7.1,10.4,11.8,14.5c4.6,4.1,10,7.4,15.9,9.1c5.8,1.9,12.1,1.8,17.7,0.5c5.7-1.3,10.8-4,14.9-7.4     c4.3-3.2,7.7-7.2,10.6-11c8.7-12.3,12.4-24.9,14.2-35c0.9,4.1,2,8.1,3.3,12c2.2,6,4.7,11.9,8,17.2c3.4,5.3,7.1,10.4,11.8,14.5     c4.6,4.1,10,7.4,15.9,9.1c5.8,1.9,12.1,1.8,17.7,0.5c5.7-1.3,10.8-4,14.9-7.4c4.3-3.2,7.7-7.2,10.6-11     c11.3-16.1,14.2-32.5,15.4-43.4c0.5-5.5,0.7-9.9,0.5-12.8c-0.1-3-0.1-4.6-0.1-4.6s0-1.6,0-4.5c0.2-3,0-7.4-0.6-12.9     c-1.3-10.9-4.2-27.2-15.5-43.3c-2.9-3.9-6.3-7.8-10.6-11c-4.2-3.3-9.2-6-14.8-7.3c-5.6-1.3-11.8-1.4-17.6,0.4     c-5.8,1.8-11.2,5-15.8,9.1c-4.7,4.1-8.5,9.1-11.8,14.4c-3.3,5.3-5.8,11.2-8,17.2C324.4,226.6,323.3,230.8,322.3,235.1z      M254.8,133.1c-2.1,0.6-4.3,1.3-6.6,2.3c-2.3,0.9-4.6,2.2-7,3.5c-1.2,0.7-2.3,1.4-3.5,2.2c-1.2,0.7-2.4,1.5-3.5,2.4     c-2.3,1.7-4.5,3.7-6.6,5.6c-2,2.1-4,4.2-5.7,6.4c-0.9,1.1-1.8,2.2-2.5,3.4c-0.8,1.2-1.6,2.3-2.3,3.5c-1.4,2.3-2.8,4.5-3.9,6.8     c-1.1,2.2-2.1,4.3-2.8,6.3c-1.6,4-2.4,7.5-2.8,10c-0.4,2.4-0.4,3.9-0.4,3.9s0.9-1.2,2.1-3.4c1.3-2.1,2.9-5.2,4.9-8.8     c1-1.8,2-3.8,3.2-5.8c1.1-2,2.5-4.1,3.9-6.2c0.8-1,1.5-2,2.3-3.1c0.7-1.1,1.6-2.1,2.4-3.1c1.6-2.1,3.5-4,5.3-6     c1.9-1.9,3.9-3.7,6-5.4c1-0.9,2-1.7,3.1-2.4c1.1-0.7,2.1-1.5,3.1-2.2c2.2-1.3,4.3-2.6,6.3-3.6c2.1-1.1,4.2-1.9,6-2.7     c3.8-1.5,7-2.7,9.3-3.5c1.2-0.5,2.1-0.8,2.7-1c0.7-0.3,1-0.4,1-0.4s-0.4,0-1-0.1c-0.7,0-1.7,0-2.9,0     C262.5,131.5,259,131.9,254.8,133.1z M223.6,620.4c-2.7,0.6-5.5,0.9-8.3,1c-1.2,0.1-2.5,0-3.8-0.1c-0.9,0-1.8-0.2-2.7-0.4     c-10.2-1.3-20.6-5.8-31.9-8.5c-11.3-3-23.2-5.3-34.7-9.8c-3.5-1.3-6.9-2.9-10.1-4.8c-1-0.5-1.9-1.1-2.8-1.7     c-6.3-4.1-12.1-9.3-17-15.5c-4.2-5.4-9-10.2-13.5-15.3c-4.5-5-9.1-10.2-12-16l-0.7-1.5l-0.3-0.7c-0.2-0.5-0.3-0.6-0.4-0.9     l-0.2-1.2l-0.3-2.2v-0.2v-2.5c0-3.3,0.5-6.7,1.2-10.1c1.4-6.8,3.7-13.8,4.8-21.1c2-14.4,4-29.1,6-44c0.5-3.7,1-7.4,1.5-11.2     c0.4-3.7,0.7-7.5,1-11.3c0.6-7.6,1.3-15.1,1.9-22.8c0.7-7.6,1.3-15.2,1.9-23c0.4-7.7,0.7-15.4,1-23.1c0.5-15.4,1.5-30.9,1.6-46.5     c0.2-15.5,0.3-31,0.5-46.5c0.2-15.2,2.4-30.2,7.1-44.5c0.7-2.2,1.4-4.4,2.2-6.5c1.1-0.1,2.1-0.2,3.1-0.4c1.8-0.2,3.7-0.4,5.5-0.7     c1.9-0.2,3.8-0.5,5.6-0.7c3.8-0.5,7.6-1,11.5-1.5c3.9-0.4,7.7-0.8,11.5-1.1c1.9-0.2,3.8-0.4,5.6-0.5c1.9-0.2,3.7-0.4,5.5-0.6     c3.7-0.4,7.1-0.9,10.5-1c3.3-0.2,6.5-0.4,9.3-0.6c5.8-0.4,10.7-1,14-1.5c1.7-0.3,3-0.5,4-0.7c0.9-0.2,1.4-0.3,1.4-0.3     s-0.5-0.1-1.4-0.2c-0.9-0.1-2.3-0.3-4-0.5c-3.4-0.3-8.3-0.6-14.2-0.7c-2.9,0-6.1,0-9.4,0c-3.4-0.1-6.9,0.4-10.5,0.5     c-1.8,0.2-3.7,0.3-5.6,0.4c-1.9,0.2-3.8,0.3-5.7,0.4c-3.8,0.3-7.7,0.6-11.6,0.9c-3.9,0.5-7.7,1.1-11.5,1.5     c-1.9,0.3-3.8,0.6-5.6,0.8c-1.9,0.3-3.7,0.5-5.5,0.8c-0.2,0-0.3,0.1-0.4,0.1c4-10.1,8.7-19.8,13.6-29.3     c3.5-6.7,6.9-13.3,10.3-19.8c2.9-6.5,7.7-11.6,13-16.1c11-8.7,24.5-14.5,35.6-23.6c5.6-4.5,10.6-10,14.2-16.1     c3.6-6.1,6.3-12.4,8.6-18.7l0.5-1.3l1.4-0.6l4.7-2.1c3.1-1.3,5.8-3.2,8.7-4.8c5.6-3.4,10.9-7.1,16-10.7     C254.3,74.1,264,67,274.3,62c10.2-5.1,20.9-7.6,31.3-9.1c10.4-1.7,20.4-2.7,29.8-4.1c4.7-0.6,9.2-1.5,13.6-2.3     c2.2-0.5,4.3-1,6.4-1.5l0.8-0.2l0.4-0.1c0.1,0.1,0.1,0.2,0.1,0.3l0.7,2.2c2.3,7.9,5.8,14.7,9.2,20.7c7.2,11.3,15,18.6,20.7,23     c-0.6,0.6-1.2,1.2-1.8,1.8c-1.2,1.1-2.4,2.1-3.7,3.2c-1.2,1-2.6,1.6-3.7,2.3c-1.4,0.3-2.8,0.6-4.2,0.9c-1.5,0.1-3,0.1-4.5,0.2     c-12.2-0.4-23.9-3.9-34.8-1.6c-0.1,0-0.2,0.1-0.3,0.1c-1.9,0.4-3.8,0.9-5.5,1.4c-7.7,2.2-14.1,5.2-19.3,8.2     c-6.6,3.6-11,7.5-14,10.1c-2,2.2-3.4,3.7-3.9,4.3c0.6-0.5,2-1.9,4.3-3.9c3.1-2.3,7.8-5.8,14.5-8.9c4.7-2.3,10.4-4.6,17-6.4     c-0.2,0.4-0.3,0.8-0.5,1.1c-0.4,0.8-0.7,1.7-1.1,2.5c-0.4,0.9-0.7,1.7-1.1,2.6c-0.7,1.8-1.5,3.6-2.2,5.3     c-0.7,1.8-1.3,3.7-1.9,5.5c-0.4,0.9-0.7,1.8-0.9,2.7c-0.3,0.9-0.5,1.8-0.7,2.7c-0.5,1.8-1,3.5-1.2,5.2c-0.3,1.7-0.6,3.3-0.7,4.7     c-0.4,2.9,0.2,5.5,0.4,7.2c0.2,0.9,0.3,1.5,0.4,2c0.2,0.5,0.2,0.7,0.2,0.7s0.1-0.3,0.3-0.7c0.2-0.5,0.4-1.1,0.7-1.9     c0.6-1.6,0.9-4,1.8-6.7c0.4-1.3,0.8-2.8,1.1-4.4c0.3-1.6,1-3.1,1.5-4.8c0.3-0.8,0.6-1.7,0.9-2.5c0.3-0.9,0.6-1.7,1-2.5     c0.7-1.7,1.4-3.5,2.1-5.2c0.7-1.8,1.4-3.6,2.1-5.3c0.4-0.9,0.7-1.7,1.1-2.6c0.3-0.9,0.7-1.7,1-2.6c0.6-1.5,1.2-2.9,1.6-4.4     c0.7-0.2,1.4-0.3,2.2-0.4c9.7-1.8,21,2,34,2.7c1.6,0,3.4-0.1,5-0.1c1.8-0.3,3.5-0.7,5.4-1c1.7-1.1,3.4-1.8,4.8-3     c1.3-1.1,2.7-2.2,4-3.4c0.8-0.8,1.6-1.5,2.3-2.3c0.1-0.1,0.2-0.2,0.3-0.3c4.1-4.2,8-8.7,11.8-13.4c2.3-2.8,4.6-5.7,6.9-8.7     l1.6-2.2c0-0.1,0-0.2,0.2-0.1l4.4,1.7c3.5,1.4,7.1,2.7,10.7,4.1c3.5,1.5,7,3.3,10.6,4.9c7.1,3.2,14.3,7,21.6,10.6     c7.2,3.7,14.9,7.1,22.2,10.9c14.2,7.6,27.1,18.9,42.4,27.2c4,1.8,7.8,3.9,12.1,5l0.8,0.3l0.8,0.2l0.4,0.2c0,0,0,0.1,0,0.4v0.7     v0.1l-0.2,5.5c-0.5,8.3-0.3,16.7-1.2,24.9c-0.8,8.2-1.5,16.5-2.2,24.5c-1,8.1-2,16-2.9,23.9c-1,7.8-2.1,15.5-3.1,23.1     c-0.3,1.9-0.5,3.8-0.8,5.6l-0.5,3.3v0.1c-0.4,0.9,0.5,1.5,1,2.2l1,1.2c0.1,0.1,0.2,0.3,0.3,0.4c2.2,2.7,4.4,5.4,6.6,8.1     c2.4,2.7,4.5,5.6,6.4,8.5c2,2.8,4,5.6,6,8.4c3.6,5.7,6.9,11.3,10,16.8c0.7,1.5,1.4,2.9,2.1,4.4c1.1,2.2,2.1,4.3,3.1,6.4     c0.4,0.8,0.8,1.6,1.1,2.4l-1.2,2c0,2,0,3.7-0.1,5.4c-0.4,5.9-1.2,10.9-1.8,14.3c-0.4,1.7-0.7,3.1-0.8,4.1c-0.2,1-0.3,1.5-0.3,1.5     s0.2-0.5,0.7-1.3c0.4-0.9,1.1-2.1,1.9-3.7c1.5-3.3,3.1-8.3,4.1-14.5c0-0.4,0-0.8,0.1-1.2c0.1-1,0.2-2,0.3-3.2l0-0.2v0.2     c0.1-0.2,0.3-0.4,0.4-0.5c0.1-0.2,0.2-0.2,0.3-0.3c0.3-0.5,0.5-0.9,0.7-1.3c1.7-3.2,3.4-6.4,5.1-9.5l1-1.9l0.6-1.3l1.3-2.6     c0.8-1.8,1.7-3.6,2.6-5.4c1.8-3.6,3.2-7.4,4.8-11.2c1.5-3.8,3-7.6,4.2-11.5c0.6-1.9,1.2-3.8,1.8-5.7l0.5-1.6     c0.6,1.5,1.1,3,1.7,4.6c3.4,9.2,8.1,20.1,12.6,32.8c1.2,3.1,2.3,6.4,3.3,9.9c0.5,1.7,1.1,3.5,1.6,5.2c0.4,1.8,0.8,3.6,1.3,5.4     c0.4,1.8,0.9,3.7,1.3,5.5c0.1,0.8,0.2,1.5,0.3,2.3c0.1,1.2,0.2,2.3,0.4,3.5c0,0.4,0.1,0.9,0.2,1.3c0.4,3.5,0.8,7,0.7,10.7     c0.2,8.3-0.3,17-0.3,26c0,9.1,0.4,18.5,1.2,28.1c0.7,8.7,1.2,17.7-0.1,26.5c-0.1,0.8-0.2,1.5-0.4,2.3c-0.1,0.7-0.2,1.3-0.4,2     c-1,5-2.9,9.8-5.2,14.5c-0.5,1-1,1.9-1.5,2.9c-1.4,2.7-2.9,5.4-4.4,8.1c-2.5,4.6-5,9.2-7.5,13.9c-2.5,4.7-5,9.4-7.3,14.4     c-2.3,4.9-4.9,9.7-6.8,14.9l-3.1,7.7c-1.1,2.5-2.1,5.1-2.6,8c-2.7,11.5-2.2,23.1-1.7,34.3c-1.8-0.2-3.7-0.4-5.5-0.7     c-2.3-0.3-4.7-0.6-7.1-0.9c-2.4-0.3-4.8-0.6-7.3-0.9c-4.9-0.6-9.9-1.1-14.8-1.7c-5-0.2-10-0.5-14.9-0.7c-2.4-0.1-4.9-0.2-7.3-0.3     c-2.4-0.1-4.8-0.2-7.2-0.3c-4.7-0.1-9.2-0.5-13.5-0.3c-4.3,0.1-8.3,0.2-12.1,0.3c-7.5,0.3-13.7,0.9-18,1.4     c-4.4,0.5-6.9,0.9-6.9,0.9s2.5,0.4,6.9,0.9c4.4,0.4,10.6,0.9,18,1.1c3.7,0.2,7.7,0.2,12,0.2c4.3-0.1,8.8,0.5,13.4,0.7     c2.3,0.2,4.7,0.3,7.1,0.4c2.4,0.1,4.8,0.3,7.2,0.4c4.9,0.3,9.9,0.5,14.8,0.8c4.9,0.5,9.8,1,14.7,1.5c2.4,0.3,4.8,0.5,7.2,0.7     c2.4,0.2,4.7,0.5,7.1,0.7c2.1,0.3,4.2,0.4,6.2,0.6c0.3,9.3,0.3,18.4-2,27.3c0,0.1,0,0.1,0,0.2c-0.3,1.1-0.6,2.2-1.1,3.2     c-1.5,3.4-4,6.4-7.1,9c-4,3.4-8.7,6-13.5,8.4c-9.8,4.7-20.3,8-30.7,11.7c-8.3,2.9-16.2,6.2-24.1,9c-1.4,0.5-2.8,1-4.2,1.4     c-0.8,0.3-1.5,0.5-2.2,0.7c-2.5,0.8-5,1.7-7.6,2.4c-2.5,0.6-5.1,1.3-7.7,1.9c-5,1.5-10.2,2-15.3,2.9c-20.4,2.8-40.6,2-59.5-0.4     c-18.9-2.4-36.6-6.1-52.9-9.6c-32.6-7.3-60-12.9-79.5-14.9c-0.2,0-0.4,0-0.5,0c-0.3,0-0.5,0-0.8-0.1c-0.9,0-1.8-0.2-2.6-0.3     c-0.3,0.2-0.6,0.4-1,0.7c-0.3,0.1-0.5,0.4-0.8,0.6c-0.8,0.5-1.6,1-2.4,1.6c-6.8,4.6-13.9,9.9-21.9,14.5c-2,1.2-4.2,2-6.3,3.1     C228.1,618.9,225.9,619.7,223.6,620.4z M202.7,396.6c2.4,9.4,4.7,20.4,7.3,32.2c2.6,11.9,5.9,24.6,9.2,38.1c0.5,2,1,4.1,1.5,6.1     c0.3,1.3,0.6,2.6,0.9,3.9c2.6,10.5,5.2,21.3,8,32.4l0.6,2.3l0.4,1.4c0.4,0.1,0.9,0.2,1.3,0.3l3.8,0.6l5.7,0.9     c3.9,0.7,7.7,1.3,11.6,1.9c7.8,0.8,15.7,1.9,23.7,2.5c15.9,1.3,32.2,2,48.4,2c8.1,0,16.2,0,24.3-0.2c8.1-0.1,16.1-0.4,24.1-0.7     c8-0.4,15.8-0.7,23.7-1l4.5-0.3h0.7c0.1-0.2,0.1-0.5,0.1-0.7l0.3-1.4l0.4-2.4l1-5.6c0.5-3.7,1.8-7.3,2.6-10.9     c4.1-14.4,10.1-27.7,15.8-40.3c0.1-0.1,0.1-0.3,0.2-0.4c0.3-0.5,0.5-1,0.7-1.5c5.5-11.9,10.8-23.2,16-33.4     c1.3-2.7,2.6-5.3,3.9-7.9c1.3-2.5,2.8-4.9,4.2-7.3c2.7-4.8,5.4-9.3,7.8-13.5c4.1-6,7.7-11.5,10.9-16.3c2.3,0.5,4.6,0.7,6.8,0.8     c1.5,0,3,0.2,4.5,0.2c1.5-0.1,2.9-0.1,4.3-0.1c2.8-0.1,5.6-0.3,8.1-0.5c2.6-0.2,5-0.4,7.3-0.7c4.4-0.5,8.1-1.3,10.7-1.8     c1.3-0.3,2.3-0.5,3-0.7c0.7-0.2,1.1-0.3,1.1-0.3s-0.4,0-1.1-0.2c-0.7-0.2-1.8-0.3-3.1-0.4c-2.6-0.3-6.4-0.5-10.8-0.4     c-2.2,0.1-4.6,0.1-7.2,0.2c-2.5,0-5.2,0-8-0.1c-1.4,0-2.7-0.1-4.2-0.2c-1.4,0-2.8-0.2-4.3-0.3c-1.3-0.2-2.6-0.3-3.9-0.5     c-0.6-0.1-1.2-0.2-1.7-0.3c-0.9-0.2-1.8-0.3-2.7-0.5c-2.6-0.8-5.3-1.6-7-3c-0.8-0.7-1.5-1.5-1.8-2.3c-0.1-0.3-0.2-0.6-0.3-0.9     c-0.2-0.7-0.2-1.6-0.3-2.4c0-0.6,0-1.1,0.1-1.7c0-2,0.3-4,0.5-5.9c0.4-2.4,0.9-4.8,1.3-7c0.8-4.3,1.4-8,1.7-10.6     c0.3-2.6,0.2-4.2,0.2-4.2s-0.7,1.4-1.9,3.7c-1.2,2.3-2.7,5.8-4.1,10.2c-0.7,2.1-1.3,4.5-1.8,7.1c-0.5,2.6-1,5.4-1,8.4     c0,0.6,0.1,1.2,0.1,1.8c-1.1,0.8-2.1,1.5-3.2,2.3c-6.8,4.8-14.9,9.4-22.9,15c-8,5.6-16.2,11.9-24.5,18.4     c-2.1,1.6-4.2,3.3-6.3,4.9l-0.4,0.3c0,0,0,0,0,0h-1.9l-4.1,0.1c-5.4,0.1-11,0.2-16.6,0.2c-11.1,0.2-22.4,0.3-33.7,0.5     c-11.3,0.2-22.6,0.3-33.7,0.4c-5.5,0-11.1,0.1-16.5,0.2c-5.4,0.1-10.8,0.2-16.1,0.2c-5.1,0.1-10.2,0.1-15.1,0.2     c-0.2-0.1,0.1,0.1-0.2-0.2l-1.4-1.4l-2.7-2.6c-1.8-1.8-3.5-3.5-5.2-5.2c-6.9-7-13.6-13.2-19.9-18.9c-6.3-5.7-11.8-11.1-16.9-15.8     c-2-1.9-4.1-3.7-5.8-5.4c1.3-1.3,2.5-2.7,3.5-4.4c0.7-1.1,1.1-2.3,1.6-3.5c0.4-1.2,0.7-2.5,0.9-3.7c0.3-2.4,0.4-4.6,0.4-6.7     c-0.1-2.1-0.2-4-0.6-5.8c-0.6-3.6-1.6-6.3-2.4-8.3c-0.9-1.9-1.6-2.9-1.6-2.9s-0.2,1.3-0.2,3.3c-0.1,2-0.1,4.9-0.1,8.3     c0,1.7,0,3.5,0,5.4c-0.1,1.9-0.3,3.8-0.6,5.7c-0.3,0.9-0.6,1.8-0.8,2.7c-0.5,0.8-0.7,1.8-1.3,2.6c-0.7,1.2-1.6,2.3-2.6,3.3     c-0.4,0.4-0.9,0.8-1.3,1.2c-0.1,0-0.2,0.2-0.3,0.3c-1.5,1.2-3.2,2.3-4.9,3.4c-0.4,0.2-0.9,0.5-1.3,0.7c-0.3,0.2-0.5,0.3-0.8,0.4     c-0.3,0.2-0.6,0.3-0.8,0.5c-1,0.5-1.9,0.9-2.9,1.3c-1.9,0.9-3.9,1.6-5.7,2.3c-1.8,0.7-3.6,1.4-5.2,2c-3.3,1.3-5.8,2.7-7.6,3.8     c-0.9,0.6-1.5,1.1-2,1.4c-0.5,0.4-0.7,0.6-0.7,0.6s0.3,0,0.9-0.1c0.5-0.1,1.3-0.2,2.3-0.4c2-0.3,4.9-0.9,8.2-1.7     c1.7-0.4,3.5-1,5.4-1.5c1.9-0.6,3.9-1.2,6-2c1-0.4,2.1-0.8,3.1-1.3c0.1-0.1,0.2-0.1,0.3-0.2c0.8,2.2,1.6,4.7,2.6,7.3     c1.3,3.3,2.5,7,3.9,11C200.7,387.3,201.5,391.8,202.7,396.6z M460.7,194.3c0-0.9,0-1.8,0-2.8c0-2.1-0.1-4.4-0.7-6.9     c-0.3-1.2-0.5-2.5-0.9-3.8c-0.5-1.3-1-2.6-1.4-4c-1-2.7-2.6-5.4-4.1-8.2c-0.9-1.3-1.8-2.6-2.7-4c-0.9-1.4-2.1-2.5-3.1-3.9     c-2-2.6-4.6-4.8-7-7.2c-2.6-2.1-5.1-4.3-7.9-6c-1.4-0.9-2.7-1.9-4.1-2.6c-1.4-0.8-2.8-1.6-4.1-2.3c-2.8-1.4-5.5-2.7-8.2-3.8     c-2.6-1.1-5.1-2.1-7.6-2.7c-2.3-0.7-4.6-1.2-6.6-1.5c-2-0.3-3.7-0.6-5.2-0.6c-2.9-0.1-4.5,0-4.5,0s1.5,0.7,4.2,1.7     c1.3,0.4,2.9,1.1,4.7,1.8c1.8,0.7,3.9,1.5,6,2.4c2.2,0.8,4.6,1.9,7.1,3c2.5,1.1,5,2.5,7.6,3.9c1.3,0.8,2.5,1.6,3.8,2.3     c1.4,0.8,2.6,1.7,3.9,2.5c2.6,1.7,5,3.8,7.4,5.7c2.3,2.1,4.7,4.2,6.7,6.6c1,1.2,2.1,2.2,2.9,3.5c0.9,1.2,1.8,2.4,2.6,3.6     c1.5,2.4,3.1,4.8,4.1,7.3c0.5,1.2,1,2.4,1.5,3.6c0.5,1.2,0.7,2.3,1.1,3.5c0.8,2.2,1.2,4.3,1.6,6.1c0.3,1,0.5,1.9,0.7,2.7     c0.1,0.8,0.1,1.6,0.3,2.3c0.2,1.4,0.4,2.5,0.5,3.3c0.2,0.8,0.2,1.2,0.2,1.2s0.1-0.4,0.3-1.1c0.1-0.8,0.4-1.9,0.6-3.3     C460.4,195.9,460.6,195.1,460.7,194.3z M369.3,550.2c0.8-0.3,1.3-0.4,1.3-0.4s-0.5,0-1.4-0.1c-0.9,0-2.2,0-3.9,0     c-3.4-0.2-8,0.4-13.6,0.2c-2.8,0.1-5.9,0.1-9.1,0.1c-3.2,0.2-6.6-0.2-10.1-0.4c-1.7-0.1-3.5-0.2-5.3-0.3     c-1.8-0.1-3.6-0.2-5.5-0.4c-3.7-0.3-7.4-0.7-11.1-1c-3.7-0.4-7.5-0.8-11.1-1.2c-1.9-0.2-3.7-0.5-5.5-0.7     c-1.8-0.2-3.6-0.4-5.3-0.6c-3.5-0.4-6.9-0.8-10.2-1.2c-3.2-0.4-6.2-0.7-9.1-1c-5.6-0.5-10.4-0.5-13.8-0.5     c-3.4,0.1-5.2,0.3-5.2,0.3s1.8,0.6,5,1.5c3.2,0.9,7.9,1.9,13.4,2.9c2.8,0.6,5.8,1,9,1.5c3.2,0.5,6.6,1,10.1,1.5     c1.7,0.3,3.5,0.6,5.3,0.8c1.8,0.3,3.7,0.5,5.5,0.7c3.7,0.4,7.5,0.9,11.3,1.3c3.8,0.3,7.6,0.5,11.3,0.8c1.9,0.2,3.7,0.3,5.5,0.3     c1.9,0.1,3.7,0.1,5.5,0.1c3.6,0,7,0.2,10.3-0.1c3.3-0.3,6.4-0.5,9.2-0.6c5.7-0.4,10.4-1.8,13.6-2.5     C367.1,550.7,368.4,550.4,369.3,550.2z" fill="#B9B9C3"/><path d="M536.6,503.4c2.8,0.4,5.1,1,6.7,1.5c0.8,0.3,1.4,0.5,1.9,0.6c0.4,0.2,0.6,0.3,0.6,0.3s-0.2,0.1-0.7,0.3     c-0.5,0.1-1.1,0.3-1.9,0.4c-1.6,0.4-4,0.7-6.7,0.8c-1.4,0-2.9,0-4.5,0c-1.6,0-3.2,0.1-5,0.2c-0.9,0-1.7,0.1-2.6,0.1     c-0.9,0-1.8,0.1-2.7,0.1c-1.8,0-3.7,0.1-5.5,0.1c-1.8,0.1-3.7,0.1-5.5,0.2c-0.9,0-1.8,0-2.7,0c-0.9,0-1.8,0-2.6,0     c-1.7,0-3.4,0-5,0c-1.6,0-3.1,0-4.5-0.2c-2.8-0.2-5.1-0.7-6.8-1.1c-1.6-0.4-2.5-0.9-2.5-0.9s0.9-0.4,2.5-0.9     c1.6-0.5,3.9-1,6.7-1.3c1.4-0.2,2.9-0.3,4.5-0.3c1.6-0.1,3.2-0.2,5-0.3c0.9-0.1,1.7-0.1,2.6-0.2c0.9-0.1,1.8-0.1,2.7-0.1     c1.8-0.1,3.7-0.1,5.5-0.2c1.9,0,3.7,0.1,5.5,0.1c1,0,1.9,0,2.7,0c0.9,0.1,1.8,0.1,2.7,0.1c1.7,0.1,3.4,0.1,5,0.3     C533.6,503.1,535.2,503.2,536.6,503.4z"/><path d="M449,522c-5.8-0.2-10.6-0.6-14-1.1c-3.4-0.4-5.3-0.8-5.3-0.8s1.9-0.5,5.3-1c3.4-0.5,8.1-1,13.9-1.4     c2.8-0.2,6-0.3,9.3-0.3c3.3-0.1,6.8-0.2,10.4-0.3c1.8-0.1,3.7-0.1,5.5-0.2c1.9,0,3.8,0,5.6,0c3.8-0.1,7.6-0.1,11.5-0.1     c3.9,0.1,7.7,0.3,11.5,0.4c1.9,0.1,3.8,0.2,5.6,0.3c1.8,0,3.7,0.2,5.5,0.3c3.6,0.3,7.1,0.2,10.4,0.7c3.3,0.4,6.4,0.8,9.3,1.2     c5.7,0.8,10.5,1.7,13.8,2.5c1.6,0.4,2.9,0.7,3.8,0.9c0.9,0.3,1.4,0.4,1.4,0.4s-0.5,0-1.4,0.1c-0.9,0-2.3,0.1-4,0.2     c-3.4,0-8.2,0-13.9-0.3c-2.8-0.2-5.9-0.4-9.2-0.6c-3.2-0.4-6.8-0.2-10.3-0.3c-1.8,0-3.6-0.1-5.5-0.1c-1.8,0-3.7,0-5.6-0.1     c-3.8,0-7.6-0.1-11.4-0.2c-3.8,0-7.6,0.1-11.4,0.1c-1.9,0-3.8,0-5.6,0c-1.9,0-3.7-0.1-5.5-0.1c-3.6,0-7.1,0-10.4-0.1     C455,522.2,451.9,522.2,449,522z"/><path d="M414.6,143.2c-2.5-1.1-4.8-2.2-7.1-3c-2.2-1-4.2-1.8-6-2.4c-1.8-0.7-3.4-1.4-4.7-1.8c-2.6-1-4.2-1.7-4.2-1.7     s1.6-0.2,4.5,0c1.5,0,3.2,0.3,5.2,0.6c2,0.3,4.3,0.8,6.6,1.5c2.4,0.6,4.9,1.6,7.6,2.7c2.7,1,5.3,2.4,8.2,3.8     c1.3,0.8,2.7,1.5,4.1,2.3c1.4,0.8,2.7,1.7,4.1,2.6c2.8,1.7,5.3,3.9,7.9,6c2.4,2.3,4.9,4.5,7,7.2c1,1.3,2.2,2.5,3.1,3.9     c0.9,1.3,1.8,2.6,2.7,4c1.5,2.8,3.1,5.4,4.1,8.2c0.5,1.3,1,2.6,1.4,4c0.5,1.3,0.7,2.6,0.9,3.8c0.6,2.5,0.7,4.8,0.7,6.9     c0,1,0,1.9,0,2.8c-0.1,0.9-0.3,1.7-0.4,2.4c-0.3,1.4-0.5,2.5-0.6,3.3c-0.2,0.7-0.3,1.1-0.3,1.1s0-0.4-0.2-1.2     c-0.1-0.8-0.3-1.9-0.5-3.3c-0.1-0.7-0.2-1.5-0.3-2.3c-0.2-0.8-0.4-1.7-0.7-2.7c-0.4-1.9-0.8-4-1.6-6.1c-0.4-1.1-0.7-2.3-1.1-3.5     c-0.5-1.2-1-2.4-1.5-3.6c-1-2.4-2.6-4.8-4.1-7.3c-0.9-1.2-1.7-2.4-2.6-3.6c-0.8-1.3-2-2.3-2.9-3.5c-2-2.4-4.4-4.4-6.7-6.6     c-2.4-1.9-4.8-4-7.4-5.7c-1.3-0.9-2.5-1.8-3.9-2.5c-1.3-0.8-2.5-1.6-3.8-2.3C419.5,145.7,417.1,144.3,414.6,143.2z"/><path d="M268.8,547.4c-5.5-1-10.2-2-13.4-2.9c-3.2-0.9-5-1.5-5-1.5s1.9-0.2,5.2-0.3c3.4,0,8.1,0,13.8,0.5c2.8,0.3,5.9,0.6,9.1,1     c3.2,0.4,6.7,0.8,10.2,1.2c1.7,0.2,3.5,0.4,5.3,0.6c1.8,0.2,3.6,0.5,5.5,0.7c3.7,0.4,7.4,0.8,11.1,1.2c3.8,0.4,7.5,0.7,11.1,1     c1.9,0.2,3.7,0.4,5.5,0.4c1.8,0.1,3.6,0.2,5.3,0.3c3.5,0.2,6.9,0.5,10.1,0.4c3.2,0,6.2,0,9.1-0.1c5.6,0.2,10.3-0.4,13.6-0.2     c1.6,0,2.9,0,3.9,0c0.9,0.1,1.4,0.1,1.4,0.1s-0.5,0.2-1.3,0.4c-0.9,0.2-2.2,0.6-3.8,1c-3.2,0.7-7.9,2.1-13.6,2.5     c-2.8,0.2-5.9,0.4-9.2,0.6c-3.2,0.3-6.7,0.1-10.3,0.1c-1.8,0-3.6,0-5.5-0.1c-1.8,0.1-3.7-0.1-5.5-0.3c-3.8-0.3-7.5-0.5-11.3-0.8     c-3.8-0.5-7.6-0.9-11.3-1.3c-1.8-0.3-3.7-0.5-5.5-0.7c-1.8-0.3-3.6-0.5-5.3-0.8c-3.5-0.5-6.9-1-10.1-1.5     C274.7,548.4,271.6,547.9,268.8,547.4z"/><path d="M229.3,222.4c2.2-5.9,4.7-11.8,8-17.2c3.4-5.3,7.1-10.4,11.8-14.4c4.6-4.1,10-7.4,15.8-9.1c5.8-1.8,12-1.7,17.6-0.4     c5.6,1.3,10.7,4,14.8,7.3c4.3,3.2,7.6,7.2,10.6,11c8.9,12.6,12.6,25.3,14.3,35.5c0.9-4.3,2.1-8.5,3.5-12.7     c2.2-5.9,4.7-11.8,8-17.2c3.4-5.3,7.1-10.4,11.8-14.4c4.6-4.1,10-7.4,15.8-9.1c5.8-1.8,12-1.7,17.6-0.4c5.6,1.3,10.7,4,14.8,7.3     c4.3,3.2,7.6,7.2,10.6,11c11.3,16,14.2,32.4,15.5,43.3c0.5,5.5,0.7,9.9,0.6,12.9c0,2.9,0,4.5,0,4.5s-0.2-1.6-0.4-4.5     c-0.2-2.9-0.8-7.3-1.6-12.6c-2.1-10.7-5.9-26.4-17-41.2c-2.9-3.6-6-7.2-10-10.1c-3.9-3-8.4-5.3-13.4-6.4     c-4.9-1.1-10.3-1.1-15.3,0.6c-5.1,1.6-9.8,4.5-14,8.3c-4.2,3.7-7.7,8.5-10.7,13.5c-3.1,5-5.4,10.6-7.5,16.3     c-3.8,11.5-5.6,23.9-5.6,36.2c0,12.3,2,24.7,5.7,36.2c2.1,5.7,4.3,11.3,7.5,16.2c3.1,5,6.5,9.8,10.7,13.4c4.2,3.8,8.9,6.7,14,8.3     c5,1.7,10.3,1.6,15.2,0.6c4.9-1.1,9.4-3.4,13.3-6.3c4-2.8,7.1-6.4,10-10c11.1-14.8,14.9-30.5,17.1-41.1c0.9-5.4,1.5-9.7,1.7-12.6     c0.3-2.9,0.5-4.5,0.5-4.5s0,1.6,0.1,4.6c0.1,2.9,0,7.3-0.5,12.8c-1.2,10.9-4.1,27.3-15.4,43.4c-2.9,3.9-6.3,7.8-10.6,11     c-4.2,3.4-9.2,6.1-14.9,7.4c-5.6,1.3-11.8,1.4-17.7-0.5c-5.9-1.8-11.3-5.1-15.9-9.1c-4.8-4.1-8.5-9.2-11.8-14.5     c-3.4-5.3-5.8-11.2-8-17.2c-1.3-3.9-2.4-8-3.3-12c-1.8,10.1-5.5,22.6-14.2,35c-2.9,3.9-6.3,7.8-10.6,11     c-4.2,3.4-9.2,6.1-14.9,7.4c-5.6,1.3-11.8,1.4-17.7-0.5c-5.9-1.8-11.3-5.1-15.9-9.1c-4.8-4.1-8.5-9.2-11.8-14.5     c-3.4-5.3-5.8-11.2-8-17.2c-4.1-12.1-6-25-6-37.9C223.3,247.4,225.2,234.5,229.3,222.4z M228.5,260.3c0,12.3,2,24.7,5.7,36.2     c2.1,5.7,4.3,11.3,7.5,16.2c3.1,5,6.5,9.8,10.7,13.4c4.2,3.8,8.9,6.7,14,8.3c5,1.7,10.3,1.6,15.2,0.6c4.9-1.1,9.4-3.4,13.3-6.3     c4-2.8,7.1-6.4,10-10c10.2-13.5,14.2-27.9,16.5-38.3c-1.1-6.6-1.6-13.3-1.6-20c0.1-6.8,0.6-13.5,1.7-20.2     c-2.2-10.5-6.3-24.7-16.4-38.2c-2.9-3.6-6-7.2-10-10.1c-3.9-3-8.4-5.3-13.4-6.4c-4.9-1.1-10.3-1.1-15.3,0.6     c-5.1,1.6-9.8,4.5-14,8.3c-4.2,3.7-7.7,8.5-10.7,13.5c-3.1,5-5.4,10.6-7.5,16.3C230.4,235.6,228.5,248,228.5,260.3z"/><path d="M210.4,175.4c0.7-2,1.7-4.1,2.8-6.3c1.1-2.2,2.5-4.5,3.9-6.8c0.7-1.1,1.5-2.3,2.3-3.5c0.7-1.2,1.7-2.2,2.5-3.4     c1.7-2.3,3.7-4.3,5.7-6.4c2.1-2,4.3-4,6.6-5.6c1.1-0.9,2.2-1.7,3.5-2.4c1.2-0.8,2.3-1.5,3.5-2.2c2.4-1.3,4.7-2.5,7-3.5     c2.3-1,4.5-1.7,6.6-2.3c4.2-1.1,7.7-1.6,10.3-1.5c1.2,0,2.2,0,2.9,0c0.7,0.1,1,0.1,1,0.1s-0.3,0.2-1,0.4c-0.6,0.2-1.5,0.6-2.7,1     c-2.3,0.8-5.5,2-9.3,3.5c-1.9,0.8-4,1.6-6,2.7c-2.1,0.9-4.2,2.2-6.3,3.6c-1.1,0.7-2.1,1.5-3.1,2.2c-1.1,0.7-2.1,1.5-3.1,2.4     c-2.1,1.7-4.1,3.5-6,5.4c-1.8,2-3.7,3.9-5.3,6c-0.8,1.1-1.7,2-2.4,3.1c-0.8,1.1-1.5,2.1-2.3,3.1c-1.4,2.2-2.8,4.2-3.9,6.2     c-1.2,2-2.2,4-3.2,5.8c-2,3.6-3.7,6.7-4.9,8.8c-1.2,2.2-2.1,3.4-2.1,3.4s0-1.5,0.4-3.9C208,182.8,208.8,179.3,210.4,175.4z"/><path d="M226,474.4c2.7,10.9,5.6,22.1,8.6,33.8l0.1,0.4c0,0,0,0,0,0l1.9,0.3l5.6,0.9c3.8,0.6,7.6,1.2,11.4,1.8     c7.7,0.8,15.5,1.8,23.4,2.4c15.8,1.2,31.9,1.9,48,2c8.1,0.1,16.1,0.1,24.2,0c8-0.1,16-0.4,24-0.6c8-0.3,15.8-0.6,23.6-0.9     l1.3-0.1h0l0-0.5l1.1-5.8c0.6-3.9,1.9-7.6,2.8-11.3c4.4-14.7,10.5-28.1,16.4-40.6c-6-1.8-13.8-3.8-22.5-5.9     c-2.9-0.6-5.9-1.3-9-1.9c-3.1-0.7-6.3-1.4-9.7-1.8c-6.7-0.9-13.7-2.2-21.1-2.4c-3.7-0.2-7.4-0.6-11.2-0.7     c-3.8,0-7.6,0.2-11.4,0.2c-1.9,0-3.9,0-5.8,0.2l-5.8,0.6c-3.9,0.4-7.7,0.8-11.6,1.2c-7.7,1.6-15.4,2.8-22.9,4.7     c-3.8,1-7.5,2-11.1,3c-3.7,1.1-7.2,2.2-10.7,3.5c-7,2.3-13.6,5-19.8,7.6c-6.2,2.7-11.8,5.6-17,8.4     C227.9,473.3,226.9,473.9,226,474.4z M223.4,382.4c-6.1-5.8-11.4-11.6-16.2-16.6c-1.9-2.1-3.8-4-5.5-5.9     c-1.8,1.5-3.9,2.7-5.8,3.8c-0.6,0.3-1.2,0.6-1.8,0.8c0.9,2.1,1.9,4.5,3.1,7.2c1.5,3.1,2.9,6.9,4.5,10.9c1.5,4,2.5,8.5,4,13.3     c2.8,9.5,5.5,20.3,8.3,32c3,11.7,6.2,24.5,9.7,37.9c0.4,1.5,0.8,3,1.2,4.5c0.6-0.4,1.2-0.8,1.8-1.2c5.2-3.1,10.9-6.1,17.2-9     c6.2-2.8,12.9-5.7,20.1-8.1c3.5-1.3,7.1-2.5,10.8-3.7c3.7-1.1,7.5-2.2,11.3-3.1c7.6-2,15.6-3.2,23.5-4.9c4-0.4,8-0.8,12-1.2     l5.9-0.6c2-0.1,4,0,5.9,0c4-0.1,7.9-0.1,11.7-0.1c3.9,0.1,7.7,0.6,11.4,0.8c7.5,0.4,14.6,1.8,21.4,2.9c3.4,0.5,6.7,1.2,9.8,2     c3.1,0.8,6.1,1.5,9.1,2.3c8.9,2.6,16.6,5.2,22.4,7.7c5.7-11.9,11.1-23.2,16.6-33.4c1.4-2.7,2.8-5.3,4.2-7.9     c1.4-2.5,3-4.9,4.5-7.3c2.9-4.7,5.7-9.1,8.4-13.4c4.1-5.6,7.8-10.7,11.2-15.1c-0.1,0-0.3,0-0.4,0c-3.1-0.9-6.3-1.7-9.1-4.1     c-0.8-0.5-1.3-1.4-1.9-2.1c-0.5-0.5-0.9-1.2-1.2-1.9c-0.7,0.5-1.3,1-2,1.5c-6.9,5.2-14.7,9.8-22.5,15.5     c-7.8,5.6-15.8,12-24.1,18.6c-2.1,1.6-4.2,3.3-6.3,5l-1.2,1c-0.4,0.6-1.3,0.2-1.9,0.4l-2.1,0.1l-4.1,0.1     c-5.4,0.1-10.9,0.2-16.5,0.4c-11.1,0.2-22.4,0.4-33.7,0.7c-11.3,0.2-22.6,0.3-33.8,0.4c-5.5,0-11.1,0-16.5,0     c-5.5,0.1-10.9,0.1-16.2,0.1c-5.4,0-10.8,0-16.1,0c-1.2,0.5-2.1-1.3-2.8-1.7l-1.3-1.3l-2.6-2.7c-1.7-1.8-3.5-3.5-5.1-5.2     C236.2,394.6,229.4,388.3,223.4,382.4z M219.2,466.9c-3.3-13.5-6.6-26.2-9.2-38.1c-2.6-11.9-4.9-22.8-7.3-32.2     c-1.2-4.8-2-9.3-3.3-13.4c-1.3-4-2.5-7.7-3.9-11c-1-2.6-1.9-5.1-2.6-7.3c-0.1,0.1-0.2,0.1-0.3,0.2c-1.1,0.5-2.1,0.9-3.1,1.3     c-2.1,0.8-4.1,1.4-6,2c-1.9,0.6-3.8,1.1-5.4,1.5c-3.4,0.8-6.2,1.4-8.2,1.7c-1,0.2-1.8,0.3-2.3,0.4c-0.6,0.1-0.9,0.1-0.9,0.1     s0.2-0.2,0.7-0.6c0.5-0.3,1.1-0.8,2-1.4c1.8-1.1,4.4-2.5,7.6-3.8c1.6-0.6,3.3-1.3,5.2-2c1.8-0.7,3.8-1.5,5.7-2.3     c1-0.4,1.9-0.9,2.9-1.3c0.3-0.2,0.6-0.3,0.8-0.5c0.3-0.1,0.5-0.3,0.8-0.4c0.4-0.2,0.9-0.5,1.3-0.7c1.7-1,3.5-2.1,4.9-3.4     c0.1-0.1,0.2-0.2,0.3-0.3c0.5-0.4,0.9-0.8,1.3-1.2c1-1,1.9-2.1,2.6-3.3c0.6-0.8,0.9-1.8,1.3-2.6c0.3-0.9,0.6-1.8,0.8-2.7     c0.4-1.9,0.5-3.9,0.6-5.7c0-1.9,0-3.8,0-5.4c0-3.3,0-6.2,0.1-8.3c0-2,0.2-3.3,0.2-3.3s0.7,1,1.6,2.9c0.8,1.9,1.8,4.7,2.4,8.3     c0.4,1.8,0.4,3.7,0.6,5.8c0.1,2.1,0,4.3-0.4,6.7c-0.3,1.2-0.6,2.4-0.9,3.7c-0.6,1.1-0.9,2.4-1.6,3.5c-0.9,1.7-2.1,3.1-3.5,4.4     c1.7,1.7,3.8,3.5,5.8,5.4c5.1,4.7,10.6,10.1,16.9,15.8c6.2,5.8,13,11.9,19.9,18.9c1.7,1.7,3.5,3.5,5.2,5.2l2.7,2.6l1.4,1.4     c0.3,0.3,0,0.1,0.2,0.2c5-0.1,10-0.2,15.1-0.2c5.3,0,10.7-0.2,16.1-0.2c5.4,0,11-0.1,16.5-0.2c11.1-0.2,22.4-0.3,33.7-0.4     c11.3-0.2,22.6-0.3,33.7-0.5c5.6-0.1,11.1-0.1,16.6-0.2l4.1-0.1h1.9c0,0,0,0,0,0l0.4-0.3c2.1-1.7,4.2-3.3,6.3-4.9     c8.4-6.4,16.5-12.7,24.5-18.4c8-5.6,16.1-10.3,22.9-15c1.1-0.8,2.2-1.5,3.2-2.3c0-0.6-0.1-1.2-0.1-1.8c0.1-3,0.5-5.8,1-8.4     c0.5-2.6,1.1-5,1.8-7.1c1.4-4.4,2.9-7.8,4.1-10.2c1.2-2.3,1.9-3.7,1.9-3.7s0.1,1.6-0.2,4.2c-0.3,2.6-0.9,6.3-1.7,10.6     c-0.4,2.2-0.9,4.5-1.3,7c-0.3,1.9-0.5,3.9-0.5,5.9c-0.1,0.6-0.1,1.1-0.1,1.7c0.1,0.8,0.1,1.7,0.3,2.4c0.1,0.4,0.2,0.7,0.3,0.9     c0.3,0.8,1.1,1.6,1.8,2.3c1.7,1.5,4.4,2.3,7,3c0.9,0.2,1.8,0.4,2.7,0.5c0.6,0.1,1.2,0.2,1.7,0.3c1.3,0.2,2.6,0.3,3.9,0.5     c1.5,0,2.8,0.3,4.3,0.3c1.4,0,2.8,0.1,4.2,0.2c2.7,0.1,5.4,0.1,8,0.1c2.5-0.1,4.9-0.1,7.2-0.2c4.4,0,8.2,0.1,10.8,0.4     c1.3,0.1,2.4,0.3,3.1,0.4c0.7,0.2,1.1,0.2,1.1,0.2s-0.4,0.1-1.1,0.3c-0.7,0.2-1.7,0.4-3,0.7c-2.6,0.6-6.2,1.3-10.7,1.8     c-2.2,0.3-4.7,0.5-7.3,0.7c-2.5,0.2-5.3,0.4-8.1,0.5c-1.4,0-2.8,0-4.3,0.1c-1.5,0-2.9-0.1-4.5-0.2c-2.2-0.1-4.5-0.4-6.8-0.8     c-3.2,4.8-6.9,10.3-10.9,16.3c-2.4,4.2-5.1,8.7-7.8,13.5c-1.4,2.4-2.9,4.8-4.2,7.3c-1.3,2.6-2.6,5.2-3.9,7.9     c-5.2,10.2-10.5,21.5-16,33.4c-0.2,0.5-0.5,1-0.7,1.5c0,0.1-0.1,0.3-0.2,0.4c-5.8,12.6-11.7,25.9-15.8,40.3     c-0.9,3.6-2.1,7.2-2.6,10.9l-1,5.6l-0.4,2.4l-0.3,1.4c0,0.2,0,0.5-0.1,0.7h-0.7l-4.5,0.3c-7.8,0.3-15.7,0.7-23.7,1     c-8,0.3-16,0.6-24.1,0.7c-8.1,0.2-16.2,0.2-24.3,0.2c-16.2-0.1-32.5-0.8-48.4-2c-8-0.6-15.9-1.7-23.7-2.5     c-3.9-0.7-7.7-1.3-11.6-1.9l-5.7-0.9l-3.8-0.6c-0.4-0.1-0.9-0.2-1.3-0.3l-0.4-1.4l-0.6-2.3c-2.7-11.1-5.4-21.9-8-32.4     c-0.3-1.3-0.6-2.6-0.9-3.9C220.2,471,219.7,469,219.2,466.9z"/><path d="M210.2,207.7c0.9,0.3,1.7,0.5,2.2,0.7c0.5,0.2,0.8,0.3,0.8,0.3s-0.3,0.1-0.8,0.2c-0.6,0.1-1.3,0.2-2.3,0.4     c-2,0.3-4.8,0.6-8.1,0.6c-1.7,0-3.5,0-5.4-0.1c-1.9-0.1-3.9,0.1-6,0.2c-1,0-2.1,0-3.1,0.1c-1.1,0-2.1,0-3.2,0.1     c-2.1,0-4.4,0.1-6.6,0.2c-2.2,0.2-4.4,0.4-6.6,0.5c-1.1,0.1-2.2,0.2-3.2,0.3c-1.1,0.1-2.1,0.1-3.1,0.2c-2,0.2-4.1,0.2-5.9,0.4     c-1.9,0.3-3.7,0.6-5.3,0.7c-3.3,0.3-6.1,0.3-8.2,0.2c-2-0.2-3.2-0.4-3.2-0.4s1-0.6,2.8-1.4c1.8-0.8,4.5-1.7,7.8-2.6     c1.7-0.5,3.5-0.8,5.4-1.2c1.9-0.4,3.9-0.5,6-0.8c1.1-0.1,2.1-0.2,3.2-0.3c1.1-0.1,2.2-0.3,3.3-0.4c2.2-0.2,4.5-0.4,6.7-0.6     c2.3,0,4.5,0,6.8,0.1c1.1,0,2.2,0,3.3,0c1.1,0,2.2,0.1,3.2,0.1c2.1,0.2,4.2,0,6.1,0.3c1.9,0.2,3.8,0.4,5.4,0.7     C205.4,206.5,208.2,207.1,210.2,207.7z"/><path d="M108.8,583.3c-7.2-9.2-16.8-17.1-23.8-28c-0.3,2.7-0.3,5.7-0.1,8.7c0.3,5.4,0.5,11.2,1.4,17.2c0.4,3,0.7,6.1,1.2,9.2     c0.6,3.1,1.3,6.3,1.9,9.6c0.5,3.3,1.7,6.4,2.7,9.8c0.5,1.6,1,3.3,1.6,4.9l0.4,1.2c0.1,0.1,0.1,0.2,0.1,0.2l0.4,0.5l1.6,2.2     c4.2,5.9,8.5,12.1,12.9,18.5c2.2,3.1,4.5,6.3,6.8,9.6c2.1,3.4,4.2,6.8,6.3,10.3c2.6,4.3,5.3,8.6,8.1,13c0-0.2-0.1-0.4-0.1-0.6     c-0.1-2-0.3-4-0.4-6c-0.4-4-0.4-8.1-0.6-12.2c-0.1-4.1-0.3-8.2-0.3-12.2c0-2,0-4-0.1-5.9c-0.1-2-0.1-3.9-0.2-5.8     c-0.1-3.8-0.2-7.5-0.3-11.1c-0.1-3.5-0.1-6.9,0-10c0.1-2,0.3-3.8,0.5-5.5c-1.8-1-3.5-2.1-5.2-3.4c-2.5-2.2-5.5-4-7.7-6.5     C113.4,588.4,111,585.9,108.8,583.3z M591.7,254.3c0.7,1.6,1.4,3.3,2.1,5c3.8,8.9,8.9,19.7,13.9,32.3c1.3,3.1,2.5,6.5,3.6,10     c0.6,1.7,1.2,3.5,1.8,5.2c0.5,1.8,1,3.7,1.4,5.5c0.5,1.9,1,3.8,1.5,5.7c0.1,0.5,0.1,0.9,0.2,1.4c2.2-1,4.5-2,6.9-3     c1.4-0.6,2.9-1.2,4.4-1.8c1.5-0.6,3-1.1,4.5-1.7c3-1.2,6.2-2,9.4-2.9c3.2-0.8,6.4-1.6,9.7-2c1.6-0.2,3-0.5,4.6-0.6     c-0.6-3.9-1.5-7.5-3.5-10.6c-2.2-3.8-5.4-7.1-8.6-10.5c-3.2-3.4-6.7-6.4-10.1-9.6c-3.5-3.1-6.8-6.6-10-10.2     c-2.9-3.8-5.8-7.8-7.5-12.3c-0.2-0.4-0.2-0.5-0.3-0.6l-0.3-0.1l-0.8-0.2c-1.2,0.2-2.4,0.3-3.8,0.5c-3,0.3-6.3,0.3-9.9,0.4     C598.2,254.2,595,254.3,591.7,254.3z M668.9,430.1c-1.8-0.2-3.7-0.3-5.5-0.4c-3.7-0.3-7.5-0.4-11.2-0.9c-3.8-0.5-7.5-1-11.2-1.5     c-1.8-0.3-3.7-0.5-5.4-0.8c-1.8-0.4-3.6-0.7-5.4-1.1c-3.5-0.6-6.9-1.4-10-2.3c-0.6-0.2-1.1-0.3-1.6-0.5     c-0.9,4.3-2.2,8.6-4.2,12.7c-0.8,1.8-1.6,3.6-2.6,5.3c1.6,2.5,3.5,5.3,5.4,8.2c2.2,3.5,4.6,7.3,7.1,11.3c2.4,4,5.3,8.1,8.1,12.4     c1.4,2.2,2.8,4.4,4.3,6.6c1.4,2.2,3,4.4,4.5,6.6c3.1,4.4,6.3,8.9,9.4,13.4c3.3,4.3,6.6,8.7,9.9,12.9c1.6,2.1,3.2,4.3,5,6.2     c1.7,2,3.4,4,5,6c2.1,2.4,4,4.8,5.9,7.1c-0.1-5,0-10.1,0.3-15.2c0.8-16.7,2.4-34.2,2.8-52.2c0.1-4.5,0-9,0-13.6     c-0.3-4.6-0.4-9.1-0.9-13.7c-0.2-2.1-0.5-4.2-0.8-6.2c-1.2,0-2.4,0-3.6,0C672.5,430.3,670.7,430.2,668.9,430.1z M663.8,424.6     c1.8,0.2,3.6,0.4,5.4,0.5c1.8,0.2,3.6,0.4,5.3,0.6c0.9,0.1,1.7,0.1,2.6,0.1c-1-5.5-2.2-11.1-3.3-16.8     c-3.8-18.6-8.2-37.5-11.9-56.6c-1.9-9.5-3-19.3-4.5-28.9c-0.6-3.8-0.7-7.7-1.1-11.4c-1.4,0.2-2.8,0.5-4.3,0.8     c-3,0.5-6.1,1.4-9.2,2.1c-3,0.9-6.1,1.8-9,2.8c-1.5,0.5-3,1-4.4,1.6c-1.5,0.5-2.9,1.1-4.3,1.6c-2.8,1.1-5.5,2.2-8,3.2l0,0.1     c0.5,4,1.1,8.1,1,12.2c0.4,8.4,0,17.2,0.1,26.1c0,8.9,0.5,18.1,1.4,27.7c0.7,8.8,1.3,18.3-0.1,27.8c0.6,0.1,1.3,0.3,1.9,0.4     c3.1,0.8,6.5,1.4,9.9,1.9c1.7,0.3,3.4,0.6,5.2,0.9c1.7,0.3,3.6,0.5,5.4,0.7c3.7,0.5,7.4,0.9,11,1.4     C656.4,424.1,660.1,424.2,663.8,424.6z M563.5,239.8l-0.4-1c-0.7-2-1.4-3.9-2-5.8c-1.3-3.9-2.6-7.7-3.9-11.4     c-1.4-3.7-2.4-7.5-3.2-11.1c-0.9-3.7-1.8-7.3-2.7-10.8c-0.9-3.6-1.7-7-2.5-10.4c-0.7-3.4-1.4-6.8-2-10     c-1.3-6.5-2.5-12.6-3.7-18.4c-0.4-1.9-0.7-3.8-1.1-5.6c-0.2,3.6-0.4,7.2-0.8,10.8c-0.8,8.3-1.6,16.6-2.4,24.7     c-1.1,8.1-2.1,16.1-3.2,24c-1.1,7.9-2.2,15.5-3.3,23.1c-0.3,1.9-0.6,3.8-0.8,5.6l-0.2,1.1c1.5-0.5,3-0.8,4.6-1.2     c1-0.3,1.9-0.5,2.9-0.7c1-0.2,1.9-0.4,2.9-0.6c2-0.3,4.1-0.6,6.1-0.9c2-0.2,4.1-0.4,6-0.6c1-0.1,2-0.2,3-0.3     c1-0.1,1.9-0.2,2.9-0.2C561.1,240,562.3,239.9,563.5,239.8z M563.3,245c0-0.3,0.1-0.5,0.2-0.7c-1,0.1-2.1,0.3-3.1,0.4     c-0.9,0.2-1.9,0.3-2.8,0.4c-1,0.1-1.9,0.3-2.9,0.4c-1.9,0.3-4,0.5-5.9,0.8c-2,0.3-3.9,0.6-5.9,0.9c-1,0.2-1.9,0.3-2.8,0.5     c-1,0.2-1.9,0.4-2.8,0.5c-1.2,0.3-2.3,0.4-3.4,0.7c1.8,2.2,3.6,4.4,5.3,6.5c2.4,2.8,4.5,5.7,6.4,8.7c2,2.9,4,5.8,6,8.7     c3.3,5.4,6.4,10.8,9.3,16c0-0.2,0-0.4,0-0.5c0.1-1.2,0.1-2.4,0.2-3.7c0-1.2,0.1-2.4,0.2-3.7c0.2-2.5,0.3-5.1,0.4-7.6     c0.2-2.5,0.3-5.1,0.5-7.6c0-1.3,0.1-2.5,0.2-3.7c0-1.3,0-2.5,0.1-3.7c0.1-2.4,0.2-4.8,0.4-7C562.6,249.1,562.9,247,563.3,245z      M565.7,285c-0.1,1.2-0.2,2.4-0.4,3.7c-0.2,2.4-0.6,4.7-0.9,6.9c0,0.3-0.1,0.6-0.1,0.9c0.8,1.6,1.5,3.3,2.2,4.8     c0.6-1,1.2-2.1,1.8-3.1l1.7-4.7c0.1-0.3,0.1-0.5,0.3-0.9l0.6-1.3l1.2-2.6c0.8-1.8,1.6-3.6,2.4-5.4c1.7-3.6,3.1-7.4,4.5-11.1     c1.5-3.7,3-7.5,4.2-11.2c0.6-1.9,1.2-3.8,1.8-5.6l1-3l0.9-2.7c0-0.7,0.7-0.4,1.1-0.5h0.3h1.1c0,0,0.1,0,0.2,0     c3.7,0,7.3,0,10.7,0.1c-2.4-0.6-4.8-1.1-7.2-1.6c-1.5-0.3-2.9-0.5-4.4-0.8c-0.5,0-0.9-0.1-1.3-0.2c-2.3-0.4-4.7-0.7-7-1     c-2.1-0.4-4.2-0.3-6.2-0.5c-2.2-0.2-4.4-0.3-6.6-0.4h-0.3c0,0.2,0,0.5,0,0.7c-0.1,1.9-0.3,3.9-0.3,6c0,2.2,0,4.5,0,6.9     c0,1.2,0,2.4,0,3.7c0,1.3,0,2.5-0.1,3.8c0,2.5-0.3,5.1-0.4,7.7c-0.2,2.6-0.4,5.1-0.6,7.7C565.9,282.6,565.8,283.8,565.7,285z      M313,676.2c2.1,1.7,4.2,3.3,6.1,5c2.1,1.6,4.3,2.9,6.3,4.4c0.9,0.6,1.8,1.2,2.6,1.8c3.8,0,7.5,0.1,11.3,0.3     c8.4,0.7,16.7,1.4,24.8,2c8.1,1,15.9,1.9,23.6,2.8c15.3,2.1,29.7,4.2,43.1,6c13.3,2,25.5,3.4,36.3,4.9     c10.9,1.1,20.3,2.1,28.1,2.7c0.5,0,0.9,0,1.4,0c0.2-0.1,0.3-0.1,0.5-0.2c0.3-2.7,0.5-5.7,0.5-8.8c0.3-3.6,0-7.3-0.1-11.1     c0-1.9-0.4-3.8-0.6-5.8c-0.2-1.9-0.4-3.9-0.9-5.8c-0.5-1.9-0.7-3.9-1.3-5.8l-1.9-5.6l-1.9-6.1l-1-3.1c-0.3-1-0.4-2.1-0.6-3.1     c-0.3-2.1-0.8-4.2-0.9-6.3c-0.1-2.1-0.2-4.2-0.2-6.1c0.1-4.1,0.4-7.9,0.9-11.5c0.3-2,0.6-4,0.9-5.9c-2.4,0.8-4.9,1.6-7.4,2.3     c-2.6,0.6-5.3,1.3-7.9,1.9c-5.2,1.5-10.5,2-15.7,2.9c-21,2.8-41.6,1.7-60.7-0.8c-19.1-2.5-36.9-6.3-53.2-10.2     c-32.6-7.8-59.6-14.2-78.9-17c-0.3,0-0.5-0.1-0.8-0.1c0.5,1.8,1.1,3.7,1.7,5.7c1,4,2.6,8.3,4.2,12.7c0.7,2.3,1.8,4.5,2.8,6.8     c1.1,2.2,2,4.6,3.2,6.9c1.3,2.3,2.5,4.6,3.9,6.9c1.2,2.4,2.9,4.6,4.3,6.9c2.9,4.7,6.5,8.9,9.8,13.3c3.7,4.1,7.3,8.4,11.4,12     C309,672.6,310.9,674.6,313,676.2z M688.3,624.1c-1.8-0.6-3.7-1.1-5.6-1.7c-4.7-1.5-9.8-3-14.8-4.7c-2.5-1-5.1-1.9-7.7-2.8     c-2.6-1-5.2-1.9-7.9-2.9c-5.3-1.9-10.7-4-16-6.1c-5.3-2.1-10.6-4.3-15.9-6.4c-2.6-1-5.2-2.1-7.8-3.3c-2.5-1.2-5-2.4-7.5-3.6     c-4.7-2.5-9.3-4.9-13.7-7.2c-4.4-2.3-8.5-4.3-12.3-6.1c-1.1-0.6-2.2-1.1-3.4-1.6c-1.9,4.3-5,7.9-8.4,10.8     c-4.5,3.9-9.6,6.7-14.7,9.2c-10.3,4.9-21,8.2-31.3,11.8c-8.8,3-17.6,6.7-26.5,9.7c-0.3,2.5-0.7,5.1-0.9,7.9     c-0.4,3.5-0.5,7.2-0.5,11c0.1,1.9,0.2,3.8,0.3,5.7c0.2,1.9,0.7,3.8,0.9,5.7c0.2,1,0.3,1.9,0.6,2.9l0.9,2.8l1.8,5.7l2,6.2     c0.6,2.1,0.8,4.2,1.2,6.3c0.5,2.1,0.7,4.2,0.8,6.2c0.2,2.1,0.4,4.1,0.4,6.1c-0.1,4,0,7.9-0.4,11.5c-0.2,2.1-0.3,4.2-0.6,6.2     c2.5-1.5,5.1-3,7.8-4.6c6.8-4.1,14.6-7.5,22.6-11.6c4.8-2.5,9.9-4.9,15.1-7.3c0.1-0.3,0.1-0.6,0.3-0.9c0.2-0.6,0.3-1.2,0.5-1.8     c0.3-1.1,0.7-2.1,1-3.2c0.9-2.7,2-5.4,3.2-8.3c1.8-4.6,5.1-9.8,10.4-12.7c5.4-2.9,11.5-3.1,17-4c5.6-0.9,11.4-2.1,17.4-3.5     c11.9-2.8,24.6-6.7,38.4-7.6c3.5-0.4,7-0.1,10.6,0.1c3.6,0.2,7.3,1,10.7,2.3c2.4,0.9,4.7,1.9,6.9,3.1c1.4-1,2.7-2,4.1-2.9     C675,635.3,681.6,629.4,688.3,624.1z M697.6,675c-3-2-6.1-4-9-6.1c-5.8-4.4-11.2-9.1-16.7-13.3c-2.8-2.2-5.7-4.3-8.7-6.1     c-1.5-1-3.1-1.8-4.7-2.6c-1.3-0.7-2.6-1.2-3.9-1.7c-3-1.2-6.1-1.9-9.3-2.1c-3.3-0.2-6.6-0.5-9.8-0.1c-13.1,0.8-25.6,4.3-37.6,7.1     c-6.1,1.4-12,2.5-17.9,3.5c-5.9,0.8-11.4,1-15.6,3.2c-4.3,2.3-7.1,6.1-9,10.6c-1.6,3.6-3.1,7.1-4.3,10.5c0,0,0,0.1,0.1,0.2     c0.8,1.4,1.6,2.8,2.6,4.3c1.9,3,4.1,6.2,7,9.2c3.1,3.1,8.1,4.9,13.4,6.8c5.3,1.7,11.1,3,17.2,4.3c2.5,0.5,5.1,1,7.7,1.3     c0.5,0.1,1.1,0.2,1.6,0.3c0.5,0,1.1,0.1,1.6,0.2c2.6,0.4,5.2,0.9,7.9,0.8c6.1,0.1,12.6-0.9,19.3-1.9c3.4-0.6,7.1-0.8,10.6-1.2     c3.3-0.3,6.5-0.7,9.5-0.6c1.1,0,2.2-0.1,3.3-0.1c0.9,0,1.7,0,2.5-0.1c1.3,0,2.5-0.1,3.8-0.3c1.5-0.2,3-0.4,4.5-0.6     c1.4-0.4,2.8-0.9,4.3-1.4c1.4-0.5,2.9-0.8,4.2-1.4c1.3-0.7,2.6-1.3,4-1.9c2.6-1.2,5.1-2.8,7.4-4.3c2.4-1.5,4.7-3.1,6.8-4.7     c2.1-1.6,4.2-3.1,6.2-4.6c2-1.5,3.9-2.9,5.7-4.3C700.6,676.9,699,676,697.6,675z M692,621c-1.3-5.7-2.6-12-4-19     c-1.8-11.6-4.9-24.5-7.7-38.8c-1.6-7.9-2.8-16.3-3.5-25.1c-3.4-3.2-6.5-7-10-10.8c-1.7-1.9-3.5-3.9-5.2-5.9     c-1.8-2-3.5-4.1-5.2-6.2c-3.4-4.3-6.8-8.6-10.2-13c-3.1-4.5-6.3-9.1-9.4-13.5c-1.6-2.3-3.1-4.5-4.6-6.7c-1.4-2.3-2.8-4.5-4.2-6.7     c-2.7-4.4-5.5-8.5-7.9-12.7c-2.4-4.1-4.6-8-6.7-11.5c-1.3-2.4-2.5-4.7-3.7-6.8c-0.9,1.6-1.8,3.3-2.7,5c-2.4,4.6-4.9,9.2-7.4,13.9     c-2.5,4.7-4.9,9.4-7.2,14.3c-2.2,4.8-4.8,9.5-6.7,14.6l-2.9,7.5c-1.1,2.5-2.1,5-2.5,7.5c-2.6,10.7-1.9,22.1-1.4,33.8     c0,1.5,0.1,2.9,0.2,4.5c0.3,9.2,0.1,18.6-2.2,27.9c0,0.2-0.1,0.4-0.2,0.6c1.2,0.4,2.5,0.9,3.8,1.4c4.1,1.6,8.3,3.6,12.7,5.8     c4.4,2.2,9.1,4.5,13.9,6.9c2.4,1.2,4.8,2.3,7.3,3.4c2.5,1.1,5,2.1,7.7,3.2c5.2,2.1,10.6,4.2,15.9,6.3c5.3,2.2,10.6,4.2,15.9,6.2     c2.6,1.1,5.2,2.1,7.8,3.1c2.5,1,5.1,2,7.6,3c5,1.9,10,3.5,14.6,5.1C686.8,619.2,689.4,620.2,692,621C692,621.1,692,621,692,621z      M704.6,732c-0.8-0.1-1.7-0.2-2.5-0.3c-1.6-0.3-3.1-0.6-4.7-0.9c-3.1-0.5-6.3-1.4-9.4-2.2c-3.1-1-6.2-1.9-9.2-3.2     c-1.5-0.7-2.9-1.3-4.4-1.9c-1.4-0.7-2.8-1.5-4.1-2.2c-2.8-1.4-5.1-3.3-7.5-4.9c-2.1-1.9-4.2-3.7-5.7-5.7c-1.1-1.4-2-2.8-2.7-4.3     h-0.1c-1.7,0.1-3.4,0.1-4.9,0.2c-3.1,0-6.1,0.4-9.1,0.7h-0.1h-0.1c-3.4,0.5-6.7,0.7-10.2,1.3c-6.5,1-13.3,2.1-20.3,1.9     c-2.8,0-5.4-0.5-8.1-0.9c-0.1,0.8-0.4,1.7-0.7,2.5c-0.5,1.4-0.9,2.9-1.6,4.5c-0.3,0.8-0.6,1.5-0.9,2.3c-0.4,0.8-0.7,1.6-1,2.3     c-0.8,1.5-1.5,3.1-2.3,4.6c-0.8,1.5-1.6,3-2.5,4.5l-1.3,2.1c-0.2,0.3-0.4,0.6-0.6,0.8c0.8,0.5,1.7,0.9,2.5,1.2     c4.4,1.7,9.2,3.3,14.4,4.5c5.2,1.3,10.7,2.4,16.4,3.6c2.8,0.6,5.7,1.2,8.7,1.8c1.5,0.4,2.9,0.5,4.3,0.8c1.4,0.3,2.8,0.4,4.3,0.4     c11.8,0.5,24.3-4.1,37.7-6.3c3.3-0.7,6.6-1.1,9.9-2c3.2-0.9,6.6-1.8,9.8-2.7C700.6,733.6,702.8,732.9,704.6,732z M707.6,727.6     c0.1-1.6,0-3.5-0.2-5.4c-0.5-7.1-0.5-14.2-0.7-21.4l-0.3-10.8c-0.3-3.3-0.3-7.2-1.6-9.3c-0.1-0.2-0.3-0.5-0.5-0.7     c-1.8,1.6-3.8,3.3-5.9,5.1c-1.9,1.6-4,3.2-6.1,4.9c-2.1,1.7-4.4,3.5-6.9,5c-2.4,1.6-4.9,3.4-7.7,4.7c-1.4,0.7-2.7,1.4-4.2,2.2     c-1.4,0.7-3,1.1-4.6,1.7c-1.5,0.5-3.1,1.1-4.7,1.6c-1.7,0.3-3.4,0.6-5,0.8c-0.3,0-0.5,0-0.8,0.1c0.5,0.6,1,1.2,1.6,1.8     c1.5,1.6,3.5,3.1,5.5,4.8c2.2,1.4,4.4,3,7,4.3c1.3,0.6,2.5,1.4,3.9,1.9c1.4,0.6,2.8,1.2,4.2,1.7c2.8,1.1,5.8,2.1,8.7,3     c2.9,0.8,5.9,1.7,8.9,2.3c1.5,0.3,3,0.7,4.5,0.9c1.5,0.3,2.9,0.5,4.4,0.8C707.4,727.5,707.5,727.6,707.6,727.6z M218.2,627.2     c1.4,2.7,2.5,5.9,3.8,9.2c1.2,3.3,2.3,6.9,3.3,10.5c0.5,1.9,1,3.8,1.5,5.7c0.5,1.9,0.8,3.9,1.3,5.8c0.9,4,1.4,8,2,12     c0.4,4.1,1,8.1,1.2,12.1c0.1,2,0.3,4,0.4,5.9c0,1.9,0.1,3.9,0.2,5.8c0,2.1,0,4.1-0.1,6.1l3.1-0.4c17.6-2.1,34.9-6.9,52.5-10     c8.7-1.6,17.6-2.7,26.4-3.1c2,0,4,0,5.9,0.1c-1.1-0.7-2.1-1.3-3.1-2.1c-2.1-1.6-4.3-3.3-6.5-5c-2.3-1.6-4.2-3.6-6.3-5.5     c-4.3-3.7-8-8.1-11.9-12.3c-3.5-4.5-7.3-8.9-10.2-13.8c-1.5-2.4-3.1-4.6-4.4-7.1c-1.3-2.5-2.6-4.9-3.9-7.3     c-1.3-2.4-2.2-4.9-3.3-7.3c-1-2.4-2.1-4.7-2.7-7.1c-1.6-4.7-3.1-9.1-3.9-13.4c-0.4-1.9-0.8-3.8-1.2-5.6c-0.7,0.5-1.5,1-2.2,1.6     c-6.6,4.7-13.6,10.3-21.8,15.1c-2,1.3-4.3,2.2-6.5,3.4c-2.3,1-4.7,1.9-7.2,2.7c-2.4,0.5-4.9,1-7.4,1.2     C217.4,625.4,217.8,626.3,218.2,627.2z M212.9,624.7c-1.5,0-3-0.1-4.5-0.4c-10.9-1.3-21.3-5.7-32.5-8.2     c-11.2-2.8-23.2-5-35.2-9.6c-2.8-1.1-5.7-2.3-8.5-3.8c0,1.1,0,2.3,0.1,3.5c0.2,3.1,0.3,6.3,0.5,9.8c0.3,3.5,0.5,7.2,0.7,11     c0.1,1.9,0.2,3.9,0.3,5.8c0.2,2,0.2,4,0.3,6c0.1,4.1,0.2,8.1,0.4,12.2c0.1,4.1,0.1,8.2,0.3,12.2c0.1,2,0.2,4,0.3,5.9     c0,2,0.2,3.9,0.2,5.8c0,0.8,0,1.5,0.1,2.3l4.5,1.2c2,0.5,4,1.1,6.1,1.5c4.2,0.8,8.3,1.7,12.6,2.4c8.5,1.4,17.2,2.9,25.8,4.4     c8.7,1.6,17.6,3.5,26.3,6.2c4.3,1.5,8.7,2.6,12.8,4.8l3.7,1.7c-0.1-1.6-0.2-3.3-0.3-5c-0.1-1.9-0.2-3.8-0.4-5.7     c-0.1-1.9-0.3-3.9-0.5-5.8c-0.3-4-0.9-7.9-1.3-11.8c-0.7-4-1.2-7.9-1.9-11.7c-0.4-1.9-0.7-3.9-1.2-5.7c-0.4-1.9-0.9-3.8-1.3-5.5     c-1-3.6-1.8-7.1-2.9-10.4c-1.1-3.2-2.1-6.3-3.1-9C213.8,627.4,213.3,626,212.9,624.7z M221.3,702.7c-3.9-2-8.1-3.1-12.2-4.6     c-8.4-2.6-17-4.5-25.6-6.1c-8.7-1.5-17.3-3-25.9-4.5c-4.3-0.8-8.5-1.7-12.7-2.5c-2.1-0.4-4.2-1.1-6.2-1.6l-2.8-0.8l-4.1-1.1     c-0.2-0.1-0.5,0-0.6-0.3h0l-0.4-0.7l-0.8-1.2l-0.8-1.4l-1.6-2.6l-3.2-5.3c-2.2-3.5-4.3-7-6.3-10.5c-2.1-3.4-4.2-6.8-6.2-10.2     c-2.2-3.3-4.4-6.5-6.6-9.6c-4.4-6.3-8.6-12.5-12.7-18.5l-1.5-2.2l-0.4-0.6c-0.3-0.4-0.5-0.7-0.6-1.1l-0.4-1.3     c-0.5-1.8-1.1-3.5-1.6-5.2c-1-3.5-2.2-6.8-2.6-10.2c-0.6-3.4-1.2-6.6-1.8-9.9c-0.5-3.2-0.7-6.3-1-9.4c-0.8-6.1-0.7-12-0.8-17.6     c-0.1-4.4,0.3-8.6,1-12.4c0,0-0.1-0.2-0.2-0.2l-1.2-2.6c-0.2-0.4-0.5-1-0.5-1.6l-0.2-1.4l-0.4-2.8l0-2.8c0-3.8,0.6-7.4,1.2-11     c1.4-7.2,3.6-14,4.7-21c1.9-14.4,3.8-28.9,5.7-43.8c0.5-3.7,1-7.4,1.5-11.1c0.4-3.8,0.6-7.5,1-11.3c0.6-7.5,1.2-15,1.8-22.6     c0.6-7.6,1.2-15.2,1.8-22.9c0.3-7.6,0.6-15.3,0.9-23c0.5-15.4,1.5-30.9,1.5-46.4c0.2-15.4,0.3-30.9,0.5-46.4     c0.2-15.6,2.5-31.4,7.4-46.1c0.5-1.4,0.9-2.8,1.4-4.2c0.6-1.7,1.2-3.5,1.9-5.2c4.3-11.3,9.7-22,15-32.6     c3.5-6.7,6.9-13.3,10.3-19.8c3.1-7,8.6-12.9,14.4-17.7c11.9-9.3,25.1-14.8,35.8-23.5c5.3-4.2,9.8-9.1,13.1-14.8     c3.4-5.6,6-11.7,8.4-17.9l0.5-1.2c0.3-0.6,0.4-1.5,1-2l3.1-1.4l4.4-2c2.9-1.2,5.6-3,8.4-4.5c5.4-3.2,10.7-6.8,15.7-10.4     c10.3-7.2,20.2-14.4,31-19.5c10.8-5.2,22-7.6,32.6-9c10.6-1.6,20.6-2.3,29.9-3.5c4.7-0.5,9.1-1.2,13.5-1.9     c2.1-0.5,4.2-0.9,6.3-1.3l2.3-0.5l1.1-0.2c0.3,0.1,0.3,0.7,0.4,1c0.4,1.3,0.8,2.5,1.2,3.8c2,7.8,5.3,14.5,8.3,20.5     c6.7,11.4,14.2,18.8,19.6,23.5c4.1-4.1,7.9-8.6,11.7-13.4c2.2-2.8,4.4-5.7,6.7-8.7l1.7-2.3l1.6-2.2l0.4-0.6l0.2-0.3     c0,0,0.2,0,0.3,0.1l1.3,0.5c2.1,0.8,4.2,1.6,6.3,2.3c3.6,1.4,7.3,2.7,11,4.1c3.6,1.5,7.2,3.3,10.8,4.9     c7.3,3.3,14.4,6.9,21.7,10.5c7.3,3.7,14.8,6.9,22.3,10.8c15.2,8.1,27.9,19.4,42.5,27.3c3.7,1.7,7.3,3.7,11.2,4.7l4.1,1.3l1.5,0.5     c0.3,0.3,0,1,0.1,1.4l-0.1,2.8l-0.3,6.3c0,1.1-0.1,2.1-0.1,3.1c0,0,0,0,0,0.1c1.1,5,2.4,10.4,3.7,16.1c1.3,5.7,2.7,11.9,4.2,18.3     c0.8,3.2,1.5,6.6,2.3,9.9c0.9,3.4,1.8,6.8,2.8,10.3c0.9,3.5,1.9,7.1,2.8,10.7c0.9,3.7,1.9,7.4,3.4,11c1.3,3.7,2.6,7.4,3.9,11.2     c0.5,1.4,1,2.8,1.5,4.2c0.2,0.5,0.4,1,0.5,1.5l0.6,1.6l0.3,0.8l0.2,0.5c0.1,0.2,0.2,0.4,0.2,0.3c2,0,4,0.2,5.9,0.3     c1.3,0.1,2.7,0.2,4,0.2c0.8,0.1,1.6,0.1,2.4,0.3c1.6,0.3,3.2,0.5,4.8,0.7c0.3,0,0.6,0.1,0.9,0.2c2.4,0.3,4.9,0.7,7.3,1.1     c4.3,1,8.7,1.8,13.1,2.9c2.1,0.6,4.3,1.2,6.5,1.8l3.3,0.9l1.4,0.4l0.8,0.2l0.4,0.1l0,0.2l0.1,0.2l1.1,2.5c0,0.1,0,0.1,0,0.2     c1.5,4,4.1,7.4,6.7,10.8c2.9,3.4,6.1,6.6,9.6,9.6c3.4,3.1,7,6.3,10.3,9.8c3.3,3.5,6.8,7,9.4,11.4c2.4,4,3.7,8.5,4.3,12.9     c0.1,0.6,0.2,1.2,0.3,1.7c0.1,1,0.2,2,0.3,3c0.3,3.8,0.4,7.6,1.1,11.4c1.5,9.4,2.5,19,4.4,28.4c3.6,18.9,7.9,37.8,11.6,56.5     c1.2,6,2.4,11.9,3.5,17.9c0.3,1.5,0.5,2.9,0.7,4.4c0.3,1.9,0.5,3.9,0.7,5.8c0.5,4.7,0.6,9.4,0.8,14.1c0,4.7,0.1,9.3,0,13.8     c-0.6,18.3-2.4,35.8-3.3,52.3c-0.5,6.8-0.5,13.4-0.1,19.8c0,2.2,0.2,4.4,0.4,6.5c0.6,6.9,1.5,13.6,2.7,20     c2.5,14.2,5.4,27.3,6.8,39.1c1,6.4,2,12.4,3,17.9c0.2,0.8,0.3,1.6,0.4,2.3c0.2,0.9,0.3,1.7,0.5,2.4c-0.5,0.4-1,0.9-1.6,1.3     c0,0-0.1,0-0.1,0.1c-0.3,0.2-0.6,0.5-0.9,0.7c-7,5.7-14,12.2-22,17.8c-0.9,0.6-1.7,1.3-2.5,1.9c2.5,1.6,5,3.4,7.4,5.2     c5.7,4.3,11.1,9,16.7,13.3c2.8,2.1,5.7,4,8.7,5.9c1.5,1,3,1.9,4.6,3c0.5,0.3,0.9,0.7,1.4,1.1c0.7,0.5,1.4,1.2,2.1,2     c0.4,0.5,0.8,1,1.1,1.6c0.6,1,0.8,2.1,1.2,3.2l0.6,2.9c0.2,1.9,0.4,3.9,0.4,5.6l0.3,10.7c0.2,7.1,0.1,14.3,0.6,21.3     c0.1,1.8,0.3,3.5,0.2,5.5c0,0.2,0,0.6,0,0.9c0,1.4-0.5,3-1.4,4.4c-0.2,0.4-0.5,0.8-0.8,1.2c-3.5,3.5-7.1,4-10.5,5.2     c-3.4,0.9-6.8,1.8-10.2,2.7c-3.4,0.9-6.8,1.3-10.1,1.9c-13.1,2-25.7,6.6-38.8,6c-3.2,0-6.5-0.8-9.4-1.3c-2.9-0.7-5.8-1.3-8.6-1.9     c-5.6-1.2-11.2-2.4-16.4-3.9c-5.3-1.4-10.3-3.1-14.9-5.1c-1-0.4-2-1-2.9-1.5c-0.1-0.1-0.3-0.2-0.4-0.3l-1.6-0.9     c0,0-0.7-0.3-1.2-0.4c-0.3-0.1-0.7-0.2-1-0.3c-1.9-0.6-3.8-1.1-5.5-1.6c-8.4-2.4-15.7-4.5-21.8-6.3c-6-1.8-10.8-3.2-14-4.2     c-3.2-1-4.9-1.6-4.9-1.6s1.7,0.4,5,1.1c3.3,0.8,8.1,1.8,14.3,3.1c6.1,1.4,13.6,3.1,22,5.1c2,0.5,4.2,1,6.3,1.5     c0.3-0.5,0.5-1,0.8-1.5c0.4-0.7,0.8-1.4,1.1-2.2c0.8-1.4,1.5-2.9,2.3-4.4c0.8-1.5,1.5-2.9,2.3-4.4l1.1-2.2c0.4-0.7,0.7-1.4,1-2.1     c0.7-1.4,1.2-2.7,1.7-4.1c0.3-0.6,0.5-1.1,0.7-1.6c-2.3-0.4-4.6-0.9-6.9-1.3c-6.2-1.3-12.1-2.8-17.7-4.8     c-5.4-2.1-11-4.1-14.8-8.3c-3.2-3.7-5.4-7.4-7-10.8c-0.2-0.4-0.4-0.8-0.6-1.2c-0.1-0.3-0.3-0.6-0.4-0.9c-0.4,1-0.7,2-1,2.9     c-2.1,6.3-4,12-5.4,17c-0.9,3-1.6,5.7-2.3,8c-0.5,2.4-1,4.4-1.4,6c-0.6,2.5-1,4.4-1.2,5c0-0.7,0.3-2.6,0.6-5.1     c0.3-1.7,0.5-3.8,0.9-6.2c0.5-2.4,1.1-5.1,1.7-8.2c0.9-4.4,2.2-9.4,3.7-14.9c-3.9,1.7-7.7,3.5-11.3,5.3c-8,4-15.8,7.3-22.7,11.1     c-2.6,1.3-5.1,2.6-7.5,3.8c-0.8,0.4-1.5,0.8-2.2,1.2c-0.2,0-0.5,0-0.7,0c-1.2,0-2.5,0-3.8,0c-0.6,0-1.1,0-1.7,0     c-0.4,0-0.8,0-1.2,0c-7.6-0.2-16.8-0.8-27.2-1.4c-10.9-1.1-23.2-2.1-36.6-3.9c-13.4-1.7-27.8-3.6-43.1-5.5     c-7.6-0.8-15.5-1.7-23.5-2.6c-8-0.6-16.3-1.2-24.6-1.7c-0.7,0-1.4,0-2.1,0c-3.1-0.1-6.2-0.1-9.4-0.2c-4.6,0-9.2-0.1-13.9-0.2     c-8.4,0.5-17,1.5-25.6,3.2c-17.2,3.2-34.6,7.9-52.7,10.2l-3.4,0.4l-0.5,0.1l-1.2,0.1l-1.5,0.2c-0.5-0.2-1.2-0.6-1.6-0.7     L221.3,702.7z M214.7,98.9l-1.4,0.6l-0.5,1.3c-2.3,6.3-5,12.6-8.6,18.7c-3.6,6.1-8.5,11.6-14.2,16.1     c-11.2,9.1-24.7,14.9-35.6,23.6c-5.3,4.5-10.1,9.5-13,16.1c-3.4,6.6-6.8,13.2-10.3,19.8c-4.8,9.5-9.6,19.2-13.6,29.3     c0.2,0,0.3-0.1,0.4-0.1c1.8-0.3,3.7-0.5,5.5-0.8c1.8-0.3,3.8-0.5,5.6-0.8c3.8-0.5,7.7-1,11.5-1.5c3.9-0.3,7.8-0.6,11.6-0.9     c1.9-0.1,3.8-0.3,5.7-0.4c1.9-0.1,3.8-0.2,5.6-0.4c3.7-0.2,7.2-0.6,10.5-0.5c3.4,0,6.6,0,9.4,0c5.9,0,10.8,0.4,14.2,0.7     c1.7,0.2,3,0.4,4,0.5c0.9,0.1,1.4,0.2,1.4,0.2s-0.5,0.1-1.4,0.3c-0.9,0.2-2.2,0.4-4,0.7c-3.4,0.5-8.2,1.1-14,1.5     c-2.9,0.2-6,0.4-9.3,0.6c-3.4,0.1-6.8,0.6-10.5,1c-1.8,0.2-3.6,0.4-5.5,0.6c-1.9,0.2-3.8,0.4-5.6,0.5c-3.8,0.4-7.6,0.7-11.5,1.1     c-3.9,0.5-7.7,1-11.5,1.5c-1.9,0.2-3.8,0.5-5.6,0.7c-1.8,0.3-3.7,0.5-5.5,0.7c-1.1,0.2-2.1,0.3-3.1,0.4c-0.8,2.1-1.5,4.3-2.2,6.5     c-4.6,14.3-6.9,29.3-7.1,44.5c-0.1,15.5-0.3,31-0.5,46.5c0,15.5-1.1,31-1.6,46.5c-0.4,7.7-0.7,15.4-1,23.1     c-0.6,7.7-1.2,15.3-1.9,23c-0.6,7.6-1.3,15.2-1.9,22.8c-0.3,3.8-0.6,7.6-1,11.3c-0.5,3.8-1,7.5-1.5,11.2c-2,14.9-4,29.6-6,44     c-1.2,7.4-3.5,14.3-4.8,21.1c-0.7,3.4-1.2,6.8-1.2,10.1v2.5v0.2l0.3,2.2l0.2,1.2c0,0.3,0.2,0.5,0.4,0.9l0.3,0.7l0.7,1.5     c2.9,5.8,7.6,11,12,16c4.5,5.1,9.3,9.8,13.5,15.3c4.9,6.2,10.7,11.5,17,15.5c1,0.6,1.9,1.2,2.8,1.7c3.2,1.9,6.6,3.5,10.1,4.8     c11.5,4.5,23.4,6.7,34.7,9.8c11.4,2.6,21.8,7.2,31.9,8.5c0.9,0.2,1.8,0.3,2.7,0.4c1.3,0.1,2.5,0.2,3.8,0.1c2.8-0.1,5.6-0.5,8.3-1     c2.3-0.7,4.5-1.5,6.8-2.4c2.1-1.1,4.3-1.9,6.3-3.1c8.1-4.5,15.2-9.8,21.9-14.5c0.8-0.6,1.6-1.1,2.4-1.6c0.3-0.2,0.6-0.4,0.8-0.6     c0.4-0.3,0.7-0.5,1-0.7c0.8,0.1,1.7,0.2,2.6,0.3c0.3,0,0.5,0,0.8,0.1c0.2,0,0.4,0,0.5,0c19.5,2,46.9,7.6,79.5,14.9     c16.3,3.5,34,7.2,52.9,9.6c18.9,2.3,39,3.2,59.5,0.4c5.1-0.9,10.3-1.5,15.3-2.9c2.5-0.6,5.1-1.3,7.7-1.9c2.5-0.7,5-1.6,7.6-2.4     c0.8-0.2,1.5-0.5,2.2-0.7c1.4-0.5,2.8-0.9,4.2-1.4c7.9-2.8,15.8-6.1,24.1-9c10.4-3.6,20.9-7,30.7-11.7c4.8-2.4,9.5-5.1,13.5-8.4     c3-2.6,5.5-5.6,7.1-9c0.5-1,0.8-2.1,1.1-3.2c0,0,0-0.1,0-0.2c2.3-8.8,2.3-18,2-27.3c-2.1-0.2-4.2-0.3-6.2-0.6     c-2.3-0.2-4.7-0.5-7.1-0.7c-2.4-0.3-4.8-0.5-7.2-0.7c-4.9-0.5-9.8-1-14.7-1.5c-4.9-0.3-9.9-0.5-14.8-0.8     c-2.4-0.1-4.8-0.3-7.2-0.4c-2.4-0.2-4.7-0.3-7.1-0.4c-4.6-0.2-9.1-0.7-13.4-0.7c-4.3,0-8.3,0-12-0.2c-7.5-0.2-13.7-0.7-18-1.1     c-4.3-0.5-6.9-0.9-6.9-0.9s2.5-0.5,6.9-0.9c4.3-0.5,10.6-1.1,18-1.4c3.8-0.1,7.8-0.2,12.1-0.3c4.3-0.2,8.8,0.2,13.5,0.3     c2.3,0.1,4.7,0.2,7.2,0.3c2.4,0.1,4.8,0.2,7.3,0.3c4.9,0.2,9.9,0.5,14.9,0.7c5,0.6,10,1.2,14.8,1.7c2.4,0.3,4.9,0.6,7.3,0.9     c2.4,0.3,4.7,0.6,7.1,0.9c1.8,0.3,3.7,0.5,5.5,0.7c-0.5-11.3-1.1-22.8,1.7-34.3c0.5-2.9,1.6-5.4,2.6-8l3.1-7.7     c1.9-5.2,4.5-10,6.8-14.9c2.3-4.9,4.8-9.7,7.3-14.4c2.5-4.7,5-9.3,7.5-13.9c1.5-2.7,3-5.4,4.4-8.1c0.5-1,1-2,1.5-2.9     c2.3-4.7,4.2-9.5,5.2-14.5c0.2-0.7,0.3-1.3,0.4-2c0.2-0.8,0.3-1.5,0.4-2.3c1.3-8.8,0.8-17.7,0.1-26.5c-0.8-9.5-1.2-18.9-1.2-28.1     c0-9,0.5-17.7,0.3-26c0.1-3.7-0.3-7.3-0.7-10.7c-0.1-0.4-0.1-0.9-0.2-1.3c-0.2-1.2-0.3-2.3-0.4-3.5c-0.1-0.8-0.2-1.5-0.3-2.3     c-0.5-1.9-0.9-3.7-1.3-5.5c-0.5-1.8-0.9-3.7-1.3-5.4c-0.6-1.7-1.1-3.5-1.6-5.2c-1-3.5-2.1-6.8-3.3-9.9     c-4.6-12.7-9.2-23.6-12.6-32.8c-0.6-1.6-1.2-3.1-1.7-4.6L590,257c-0.6,1.9-1.2,3.8-1.8,5.7c-1.1,3.9-2.6,7.7-4.2,11.5     c-1.6,3.8-3,7.7-4.8,11.2c-0.9,1.8-1.8,3.7-2.6,5.4l-1.3,2.6l-0.6,1.3l-1,1.9c-1.7,3.1-3.4,6.3-5.1,9.5c-0.3,0.4-0.5,0.9-0.7,1.3     c0,0-0.1,0.1-0.3,0.3c-0.1,0.2-0.3,0.4-0.4,0.5v-0.2l0,0.2c0,1.2-0.2,2.2-0.3,3.2c0,0.4,0,0.8-0.1,1.2     c-0.9,6.2-2.6,11.2-4.1,14.5c-0.8,1.6-1.5,2.8-1.9,3.7c-0.5,0.9-0.7,1.3-0.7,1.3s0-0.5,0.3-1.5c0.2-1,0.5-2.3,0.8-4.1     c0.7-3.5,1.5-8.4,1.8-14.3c0-1.7,0-3.4,0.1-5.4l1.2-2c-0.3-0.8-0.7-1.6-1.1-2.4c-1-2.1-2.1-4.2-3.1-6.4c-0.7-1.5-1.4-2.9-2.1-4.4     c-3.1-5.5-6.4-11.1-10-16.8c-2-2.8-4-5.6-6-8.4c-2-2.9-4.1-5.8-6.4-8.5c-2.2-2.7-4.4-5.4-6.6-8.1c-0.1-0.1-0.2-0.3-0.3-0.4     l-1-1.2c-0.5-0.7-1.4-1.3-1-2.2V246l0.5-3.3c0.3-1.9,0.6-3.8,0.8-5.6c1-7.6,2.1-15.3,3.1-23.1c1-7.9,1.9-15.8,2.9-23.9     c0.7-8.1,1.5-16.3,2.2-24.5c0.9-8.3,0.7-16.6,1.2-24.9l0.2-5.5v-0.1v-0.7c0-0.3,0-0.4,0-0.4l-0.4-0.2l-0.8-0.2l-0.8-0.3     c-4.3-1.1-8.2-3.2-12.1-5c-15.2-8.3-28.1-19.7-42.4-27.2c-7.3-3.8-15-7.2-22.2-10.9c-7.3-3.7-14.5-7.4-21.6-10.6     c-3.6-1.6-7.1-3.4-10.6-4.9c-3.6-1.4-7.2-2.7-10.7-4.1l-4.4-1.7c-0.2-0.1-0.2,0-0.2,0.1l-1.6,2.2c-2.3,3-4.5,5.9-6.9,8.7     c-3.9,4.7-7.7,9.2-11.8,13.4c-0.1,0.1-0.2,0.2-0.3,0.3c-0.8,0.8-1.5,1.5-2.3,2.3c-1.3,1.2-2.7,2.3-4,3.4c-1.4,1.2-3.1,1.9-4.8,3     c-2,0.4-3.7,0.7-5.4,1c-1.7,0-3.4,0.1-5,0.1c-13-0.7-24.3-4.5-34-2.7c-0.8,0.1-1.5,0.3-2.2,0.4c-0.5,1.4-1,2.9-1.6,4.4     c-0.3,0.9-0.7,1.7-1,2.6c-0.4,0.9-0.7,1.7-1.1,2.6c-0.7,1.7-1.4,3.5-2.1,5.3c-0.7,1.7-1.4,3.5-2.1,5.2c-0.4,0.9-0.7,1.7-1,2.5     c-0.3,0.9-0.6,1.7-0.9,2.5c-0.5,1.7-1.2,3.2-1.5,4.8c-0.4,1.5-0.7,3-1.1,4.4c-0.9,2.7-1.2,5-1.8,6.7c-0.3,0.8-0.5,1.5-0.7,1.9     c-0.2,0.4-0.3,0.7-0.3,0.7s0-0.3-0.2-0.7c-0.1-0.5-0.3-1.1-0.4-2c-0.2-1.7-0.8-4.2-0.4-7.2c0.2-1.5,0.4-3,0.7-4.7     c0.1-1.7,0.7-3.4,1.2-5.2c0.2-0.9,0.5-1.8,0.7-2.7c0.2-0.9,0.5-1.8,0.9-2.7c0.6-1.8,1.3-3.7,1.9-5.5c0.7-1.8,1.5-3.6,2.2-5.3     c0.4-0.9,0.8-1.7,1.1-2.6c0.4-0.8,0.8-1.7,1.1-2.5c0.2-0.4,0.4-0.8,0.5-1.1c-6.6,1.8-12.2,4.1-17,6.4c-6.7,3.1-11.3,6.6-14.5,8.9     c-2.3,2-3.7,3.4-4.3,3.9c0.5-0.6,1.9-2,3.9-4.3c3-2.6,7.4-6.6,14-10.1c5.2-2.9,11.7-6,19.3-8.2c1.7-0.5,3.6-1,5.5-1.4     c0.1,0,0.2-0.1,0.3-0.1c10.9-2.3,22.5,1.2,34.8,1.6c1.5-0.1,3-0.1,4.5-0.2c1.4-0.3,2.8-0.6,4.2-0.9c1.1-0.7,2.5-1.4,3.7-2.3     c1.2-1.1,2.4-2.1,3.7-3.2c0.6-0.6,1.2-1.2,1.8-1.8c-5.7-4.4-13.6-11.7-20.7-23c-3.4-5.9-6.9-12.7-9.2-20.7l-0.7-2.2     c0-0.1,0-0.3-0.1-0.3l-0.4,0.1l-0.8,0.2c-2.1,0.5-4.2,1-6.4,1.5c-4.4,0.8-8.9,1.7-13.6,2.3c-9.4,1.3-19.4,2.3-29.8,4.1     c-10.4,1.6-21.1,4.1-31.3,9.1c-10.3,5-20,12.1-30.2,19.4c-5.1,3.6-10.4,7.3-16,10.7c-2.9,1.6-5.6,3.5-8.7,4.8L214.7,98.9z"/></g></g><g><path d="M306.8,264.8c0,10.2-5.5,18.5-12.3,18.5c-6.8,0-12.3-8.3-12.3-18.5c0-10.2,5.5-18.5,12.3-18.5    C301.3,246.2,306.8,254.5,306.8,264.8z" opacity="0.4"/><g><path d="M307.1,259c0,10.6-5.2,19.2-11.6,19.2c-6.4,0-11.6-8.6-11.6-19.2c0-10.6,5.2-19.2,11.6-19.2     C301.9,239.8,307.1,248.4,307.1,259z"/><path d="M303.4,252.7c0,3.9-1.9,7-4.3,7c-2.4,0-4.3-3.2-4.3-7c0-3.9,1.9-7,4.3-7     C301.5,245.6,303.4,248.8,303.4,252.7z" fill="#FFFFFF"/></g></g><g><path d="M362.2,264.8c0,10.2-5.5,18.5-12.3,18.5c-6.8,0-12.3-8.3-12.3-18.5c0-10.2,5.5-18.5,12.3-18.5    C356.7,246.2,362.2,254.5,362.2,264.8z" opacity="0.4"/><g><path d="M362.5,259c0,10.6-5.2,19.2-11.6,19.2c-6.4,0-11.6-8.6-11.6-19.2c0-10.6,5.2-19.2,11.6-19.2     C357.3,239.8,362.5,248.4,362.5,259z"/><path d="M358.8,252.7c0,3.9-1.9,7-4.3,7c-2.4,0-4.3-3.2-4.3-7c0-3.9,1.9-7,4.3-7     C356.9,245.6,358.8,248.8,358.8,252.7z" fill="#FFFFFF"/></g></g><path d="M441.7,172.3c6.9,7.1,13.1,14.8,16.9,23.5c0-0.5-0.1-1-0.2-1.5c-0.2-0.8-0.4-1.7-0.7-2.7   c-0.4-1.9-0.8-4-1.6-6.1c-0.4-1.1-0.7-2.3-1.1-3.5c-0.5-1.2-1-2.4-1.5-3.6c-1-2.4-2.6-4.8-4.1-7.3c-0.9-1.2-1.7-2.4-2.6-3.6   c-0.8-1.3-2-2.3-2.9-3.5c-2-2.4-4.4-4.4-6.7-6.6c-2.4-1.9-4.8-4-7.4-5.7c-1.3-0.9-2.5-1.8-3.9-2.5c-1.3-0.8-2.5-1.6-3.8-2.3   c-2.6-1.4-5.1-2.8-7.6-3.9c-2.5-1.1-4.8-2.2-7.1-3c-2.2-1-4.2-1.8-6-2.4c-0.6-0.2-1.2-0.5-1.7-0.7   C411.2,150.8,429.3,159.4,441.7,172.3z" fill="#FFFFFF" opacity="0.6"/><path d="M455.3,393.8c-2.4,4.2-5.1,8.7-7.8,13.5c-1.4,2.4-2.9,4.8-4.2,7.3c-1.3,2.6-2.6,5.2-3.9,7.9   c-5.2,10.2-10.5,21.5-16,33.4c-0.2,0.5-0.5,1-0.7,1.5c0,0.1-0.1,0.3-0.2,0.4c-5.8,12.6-11.7,25.9-15.8,40.3   c-0.9,3.6-2.1,7.2-2.6,10.9l-1,5.6l-0.4,2.4l-0.3,1.4c0,0.2,0,0.5-0.1,0.7h-0.7l-4.5,0.3c-7.8,0.3-15.7,0.7-23.7,1   c-8,0.3-16,0.6-24.1,0.7c-8.1,0.2-16.2,0.2-24.3,0.2c-16.2-0.1-32.5-0.8-48.4-2c-8-0.6-15.9-1.7-23.7-2.5   c-3.9-0.7-7.7-1.3-11.6-1.9l-5.7-0.9l-3.8-0.6c-0.4-0.1-0.9-0.2-1.3-0.3l-0.4-1.4l-0.6-2.3c-2.7-11.1-5.4-21.9-8-32.4   c-0.3-1.3-0.6-2.6-0.9-3.9c-0.5-2.1-1-4.1-1.5-6.1c-3.3-13.5-6.6-26.2-9.2-38.1c-2.6-11.9-4.9-22.8-7.3-32.2   c-1.2-4.8-2-9.3-3.3-13.4c-1.3-4-2.5-7.7-3.9-11c-0.7-1.7-1.2-3.3-1.8-4.9c0.9,29.5,8,58.7,12.2,87.9c3.2,22.3,6.1,44.6,7.7,67   c17,6.1,35,7.5,53.1,8.4c16.6,0.8,33.1,1.9,49.7,1.7c30.9-0.3,61.5,0.4,91.9-3.9c4.2-23.4,13.8-45.4,23.1-67.3   c11.1-26,18.2-54.4,31.8-79.3C460.8,385.6,458.2,389.5,455.3,393.8z" fill="#FFFFFF" opacity="0.6"/><path d="M351.9,553.6c-2.8,0.2-5.9,0.4-9.2,0.6c-3.2,0.3-6.7,0.1-10.3,0.1c-1.8,0-3.6,0-5.5-0.1   c-1.8,0.1-3.7-0.1-5.5-0.3c-3.8-0.3-7.5-0.5-11.3-0.8c-3.8-0.5-7.6-0.9-11.3-1.3c-1.8-0.3-3.7-0.5-5.5-0.7   c-1.8-0.3-3.6-0.5-5.3-0.8c-3.5-0.5-6.9-1-10.1-1.5c-3.2-0.5-6.2-0.9-9-1.5c-5.5-1-10.2-2-13.4-2.9c-0.5-0.1-0.9-0.2-1.3-0.4   c16.7,13.5,40.6,24.5,62.4,22.7c16.1-1.3,30.5-8.2,45-14.8C358.7,552.7,355.6,553.4,351.9,553.6z" opacity="0.4"/><path d="M614.8,390.7c-0.8-9.5-1.2-18.9-1.2-28.1c0-9,0.5-17.7,0.3-26c0.1-3.7-0.3-7.3-0.7-10.7   c-0.1-0.4-0.1-0.9-0.2-1.3c-0.2-1.2-0.3-2.3-0.4-3.5c-0.1-0.8-0.2-1.5-0.3-2.3c-0.5-1.9-0.9-3.7-1.3-5.5c-0.5-1.8-0.9-3.7-1.3-5.4   c-0.6-1.7-1.1-3.5-1.6-5.2c-1-3.5-2.1-6.8-3.3-9.9c-4.6-12.7-9.2-23.6-12.6-32.8c-0.6-1.6-1.2-3.1-1.7-4.6L590,257   c-0.6,1.9-1.2,3.8-1.8,5.7c-1.1,3.9-2.6,7.7-4.2,11.5c-1.6,3.8-3,7.7-4.8,11.2c-0.9,1.8-1.8,3.7-2.6,5.4l-1.3,2.6l-0.6,1.3l-1,1.9   c-1.2,2.2-2.3,4.4-3.5,6.6c6.2-5.6,12.6-11,18.7-16.9c1.1-1.1,3.3-1,4,0.5c11.5,25,10.7,50.5,12,77.2c0.6,13.7,4.1,27.1,3.6,40.9   c-0.3,9.8-5.8,20.2-10.8,28.4c-6.5,10.6-14.5,20.7-19.4,32.2c-5.9,13.8-7.6,29.1-7.5,44.1c0.1,10.1,0.9,20.2,1.9,30.3   c0.4,0,0.8,0.1,1.2,0.1c-0.5-11.3-1.1-22.8,1.7-34.3c0.5-2.9,1.6-5.4,2.6-8l3.1-7.7c1.9-5.2,4.5-10,6.8-14.9   c2.3-4.9,4.8-9.7,7.3-14.4c2.5-4.7,5-9.3,7.5-13.9c1.5-2.7,3-5.4,4.4-8.1c0.5-1,1-2,1.5-2.9c2.3-4.7,4.2-9.5,5.2-14.5   c0.2-0.7,0.3-1.3,0.4-2c0.2-0.8,0.3-1.5,0.4-2.3C616,408.3,615.5,399.4,614.8,390.7z" fill="#FFFFFF" opacity="0.6"/><path d="M383.2,100.4c15.6,6.6,24.8-3.3,34.7-14.5c1-1.1,2.6-0.8,3.6,0   c22.4,18.9,51.7,23.2,76.5,37.5c18.3,10.6,31.7,17.6,28.8,40.7c-1.5,12.5-6.6,24.4-7.3,37c-0.7,13.4-2.2,26.7-2.1,40.1   c0.1,16.9,2.4,29.4,15.5,41.1c11,9.8,20.8,21.1,30,32.7c0.1-0.8,0.1-1.6,0.2-2.5c0-1.7,0-3.4,0.1-5.4l1.2-2   c-0.3-0.8-0.7-1.6-1.1-2.4c-1-2.1-2.1-4.2-3.1-6.4c-0.7-1.5-1.4-2.9-2.1-4.4c-3.1-5.5-6.4-11.1-10-16.8c-2-2.8-4-5.6-6-8.4   c-2-2.9-4.1-5.8-6.4-8.5c-2.2-2.7-4.4-5.4-6.6-8.1c-0.1-0.1-0.2-0.3-0.3-0.4l-1-1.2c-0.5-0.7-1.4-1.3-1-2.2V246l0.5-3.3   c0.3-1.9,0.6-3.8,0.8-5.6c1-7.6,2.1-15.3,3.1-23.1c1-7.9,1.9-15.8,2.9-23.9c0.7-8.1,1.5-16.3,2.2-24.5c0.9-8.3,0.7-16.6,1.2-24.9   l0.2-5.5v-0.8c0-0.3,0-0.4,0-0.4l-0.4-0.2l-0.8-0.2l-0.8-0.3c-4.3-1.1-8.2-3.2-12.1-5c-15.2-8.3-28.1-19.7-42.4-27.2   c-7.3-3.8-15-7.2-22.2-10.9c-7.3-3.7-14.5-7.4-21.6-10.6c-3.6-1.6-7.1-3.4-10.6-4.9c-3.6-1.4-7.2-2.7-10.7-4.1l-4.4-1.7   c-0.2-0.1-0.2,0-0.2,0.1l-1.6,2.2c-2.3,3-4.5,5.9-6.9,8.7c-3.9,4.7-7.7,9.2-11.8,13.4c-0.1,0.1-0.2,0.2-0.3,0.3   c-0.8,0.8-1.5,1.5-2.3,2.3c-1.3,1.2-2.7,2.3-4,3.4C384.2,99.8,383.7,100.1,383.2,100.4z" fill="#FFFFFF" opacity="0.6"/><path d="M123.4,223.7c1.8-0.3,3.8-0.5,5.6-0.8c1.8-0.2,3.6-0.5,5.5-0.7c3.1-8.5,7.1-16.8,12.4-24.7   c11.9-18.1,24.2-31.4,42.3-43.2c11.2-7.3,20.3-14.9,26-27.2c3.7-8.1,7.3-15.7,14.2-21.5c7.2-6,16.6-9.1,25.1-12.5   c12.3-4.9,23.8-11.2,35.7-16.9c9.2-4.4,17.5-9,27.7-9.9c11.6-1.1,23.1-0.9,34.8,0.4c1,0.1,2.3,0.7,2.4,1.9   c2.2,13.8,11.3,23.5,23.2,29.7c1-0.7,2.3-1.3,3.4-2.2l3.7-3.2c0.6-0.6,1.2-1.2,1.8-1.8c-5.7-4.4-13.6-11.7-20.7-23   c-3.4-5.9-6.9-12.7-9.2-20.7l-0.7-2.2c0-0.1,0-0.3-0.1-0.3l-0.4,0.1l-0.8,0.2c-2.1,0.5-4.2,1-6.4,1.5c-4.4,0.8-8.9,1.7-13.6,2.3   c-9.4,1.3-19.4,2.3-29.8,4.1c-10.4,1.6-21.1,4.1-31.3,9.1c-10.3,5-20,12.1-30.2,19.4c-5.1,3.6-10.4,7.3-16,10.7   c-2.9,1.6-5.6,3.5-8.7,4.8l-4.7,2.1l-1.4,0.6l-0.5,1.3c-2.3,6.3-5,12.6-8.6,18.7c-3.6,6.1-8.5,11.6-14.2,16.1   c-11.2,9.1-24.7,14.9-35.6,23.6c-5.3,4.5-10.1,9.5-13,16.1c-3.4,6.6-6.8,13.2-10.3,19.8c-4.8,9.5-9.6,19.2-13.6,29.3   c0.2,0,0.3-0.1,0.4-0.1C119.7,224.2,121.5,224,123.4,223.7z" fill="#FFFFFF" opacity="0.6"/><path d="M110.9,405.6c3.1-24,8.2-48.1,10-72.2c2.6-35,1-72,11.7-105.5c-0.9,0.1-1.9,0.2-2.9,0.4   c-1.9,0.2-3.8,0.5-5.6,0.7c-1.8,0.3-3.7,0.5-5.5,0.7c-1.1,0.2-2.1,0.3-3.1,0.4c-0.8,2.1-1.5,4.3-2.2,6.5   c-4.6,14.3-6.9,29.3-7.1,44.5c-0.1,15.5-0.3,31-0.5,46.5c0,15.5-1.1,31-1.6,46.5c-0.4,7.7-0.7,15.4-1,23.1   c-0.6,7.7-1.2,15.3-1.9,23c-0.6,7.6-1.3,15.2-1.9,22.8c-0.3,3.8-0.6,7.6-1,11.3c-0.5,3.8-1,7.5-1.5,11.2c-0.2,1.8-0.5,3.6-0.7,5.4   C104.4,449.8,108,427.6,110.9,405.6z" fill="#FFFFFF" opacity="0.6"/><path d="M448.6,366.7c-9.8,3.8-19.5,7.8-29,12.4c-8.9,4.3-19,12.3-28.4,14.9c-5.3,1.5-12.9,0.2-18.4,0.5   c-6.5,0.4-13,0.7-19.6,0.8c-13.1,0.4-26.2,0.5-39.2,1.7c-21.1,2-45.3,7.7-64.1-5.4c-8.6-6-16.4-13.1-25.2-18.7   c-6.3-4-12.6-7.9-18.5-12.5c1.1,1,2.2,2.1,3.4,3.1c5.1,4.7,10.6,10.1,16.9,15.8c6.2,5.8,13,11.9,19.9,18.9c1.7,1.7,3.5,3.5,5.2,5.2   l2.7,2.6l1.4,1.4c0.3,0.3,0,0.1,0.2,0.2c5-0.1,10-0.2,15.1-0.2c5.3,0,10.7-0.2,16.1-0.2c5.4,0,11-0.1,16.5-0.2   c11.1-0.2,22.4-0.3,33.7-0.4c11.3-0.2,22.6-0.3,33.7-0.5c5.6-0.1,11.1-0.1,16.6-0.2l4.1-0.1h1.9c0,0,0,0,0,0l0.4-0.3   c2.1-1.7,4.2-3.3,6.3-4.9c8.4-6.4,16.5-12.7,24.5-18.4c8-5.6,16.1-10.3,22.9-15C447.8,367.2,448.2,366.9,448.6,366.7z" opacity="0.4"/><path d="M265,339.1c-5.9-1.8-11.3-5.1-15.9-9.1c-4.8-4.1-8.5-9.2-11.8-14.5c-3.4-5.3-5.8-11.2-8-17.2   c-4.1-12.1-6-25-6-37.9c0-2.1,0.2-4.2,0.3-6.2c-6,27.9-2.4,66.2,18.8,85.6c25.7,23.6,63.8,14.2,77.2-17.8c0.9-2.3,4.1-2.6,4.9,0   c5.4,16.7,19.6,31.5,38.4,31.2c18.4-0.4,34.5-12.1,43.6-27.7c8.4-14.4,12.3-30.4,13.6-46.7c-1.3,10.9-4.3,26.8-15.3,42.5   c-2.9,3.9-6.3,7.8-10.6,11c-4.2,3.4-9.2,6.1-14.9,7.4c-5.6,1.3-11.8,1.4-17.7-0.5c-5.9-1.8-11.3-5.1-15.9-9.1   c-4.8-4.1-8.5-9.2-11.8-14.5c-3.4-5.3-5.8-11.2-8-17.2c-1.3-3.9-2.4-8-3.3-12c-1.8,10.1-5.5,22.6-14.2,35c-2.9,3.9-6.3,7.8-10.6,11   c-4.2,3.4-9.2,6.1-14.9,7.4C277,340.9,270.8,341,265,339.1z" opacity="0.4"/><path d="M265.1,133.2c-2.3,0.8-5.4,2-9.1,3.4c-1.9,0.8-4,1.6-6,2.7c-2.1,0.9-4.2,2.2-6.3,3.6   c-1.1,0.7-2.1,1.5-3.1,2.2c-1.1,0.7-2.1,1.5-3.1,2.4c-2.1,1.7-4.1,3.5-6,5.4c-1.8,2-3.7,3.9-5.3,6c-0.8,1.1-1.7,2-2.4,3.1   c-0.8,1.1-1.5,2.1-2.3,3.1c-1.4,2.2-2.8,4.2-3.9,6.2c-1.2,2-2.2,4-3.2,5.8c-0.4,0.8-0.9,1.6-1.3,2.3   C227.2,161.1,247.5,148.7,265.1,133.2z" fill="#FFFFFF" opacity="0.6"/><path d="M697.6,675c-3-2-6.1-4-9-6.1c-5.8-4.4-11.2-9.1-16.7-13.3c-2.8-2.2-5.7-4.3-8.7-6.1   c-1.5-1-3.1-1.8-4.7-2.6c-1.3-0.7-2.6-1.2-3.9-1.7c-3-1.2-6.1-1.9-9.3-2.1c-3.3-0.2-6.6-0.5-9.8-0.1c-13.1,0.8-25.6,4.3-37.6,7.1   c-6.1,1.4-12,2.5-17.9,3.5c-5.9,0.8-11.4,1-15.6,3.2c-4.3,2.3-7.1,6.1-9,10.6c-1.6,3.6-3.1,7.1-4.3,10.5c0,0,0,0.1,0.1,0.2   c0.2,0.4,0.5,0.8,0.7,1.2c3.9-6.8,9.5-13.1,17.1-14c15.3-1.7,30.8-2.7,46.1-4.8c8.8-1.2,17.8-2.4,26.4-4.5c6.2-1.5,4.4-1.7,9.2,1.3   c10.6,6.5,22.7,9.5,33.5,15.6c0.9,0.5,1.6,1.8,1.2,2.9c-3,7.9-7.3,14.8-12.3,21.3c0.9-0.4,1.8-0.9,2.7-1.3c2.6-1.2,5.1-2.8,7.4-4.3   c2.4-1.5,4.7-3.1,6.8-4.7c2.1-1.6,4.2-3.1,6.2-4.6c2-1.5,3.9-2.9,5.7-4.3C700.6,676.9,699,676,697.6,675z" fill="#FFFFFF" opacity="0.6"/><g opacity="0.2"><path d="M153.6,334.6c0,2.4-6.3,4.3-14.1,4.3c-7.8,0-14.1-1.9-14.1-4.3c0-2.4,6.3-4.3,14.1-4.3    C147.3,330.2,153.6,332.2,153.6,334.6z"/><ellipse cx="151.8" cy="347.9" rx="11.5" ry="3.5"/><path d="M188.7,335c0,1.5-3.9,2.7-8.7,2.7c-4.8,0-8.7-1.2-8.7-2.7c0-1.5,3.9-2.7,8.7-2.7C184.8,332.3,188.7,333.5,188.7,335z"/></g><g opacity="0.2"><path d="M502.8,348.5c0,2.4,6.3,4.3,14.1,4.3c7.8,0,14.1-1.9,14.1-4.3c0-2.4-6.3-4.3-14.1-4.3    C509.2,344.2,502.8,346.1,502.8,348.5z"/><ellipse cx="504.7" cy="361.9" rx="11.5" ry="3.5"/><path d="M467.8,349c0,1.5,3.9,2.7,8.7,2.7c4.8,0,8.7-1.2,8.7-2.7c0-1.5-3.9-2.7-8.7-2.7C471.7,346.3,467.8,347.5,467.8,349z"/></g><path d="M257.6,512c15.7-28.5,59.6-44.7,87.6-50.1c23.6-4.5,47.7-4.8,71.1-1.1c0.7-1.6,1.4-3.2,2.2-4.7   c-6-1.8-13.8-3.8-22.5-5.9c-2.9-0.6-5.9-1.3-9-1.9c-3.1-0.7-6.3-1.4-9.7-1.8c-6.7-0.9-13.7-2.2-21.1-2.4c-3.7-0.2-7.4-0.6-11.2-0.7   c-3.8,0-7.6,0.2-11.4,0.2c-1.9,0-3.9,0-5.8,0.2l-5.8,0.6c-3.9,0.4-7.7,0.8-11.6,1.2c-7.7,1.6-15.4,2.8-22.9,4.7   c-3.8,1-7.5,2-11.1,3c-3.7,1.1-7.2,2.2-10.7,3.5c-7,2.3-13.6,5-19.8,7.6c-6.2,2.7-11.8,5.6-17,8.4c-1,0.6-2,1.1-2.9,1.6   c2.7,10.9,5.6,22.1,8.6,33.8l0.1,0.4c0,0,0,0,0,0l1.9,0.3l5.6,0.9c3.8,0.6,7.6,1.2,11.4,1.8C254.9,511.7,256.3,511.9,257.6,512z" opacity="0.4"/><path d="M334.4,412.1c-10.2,0.2-20.5,0.3-30.7,0.3c-17.1,5.6-28.9,20.2-34.7,37.9c1.9-0.7,3.8-1.3,5.8-2   c3.7-1.1,7.5-2.2,11.3-3.1c7.6-2,15.6-3.2,23.5-4.9c4-0.4,8-0.8,12-1.2l5.9-0.6c2-0.1,4,0,5.9,0c4-0.1,7.9-0.1,11.7-0.1   c3.9,0.1,7.7,0.6,11.4,0.8c2.7,0.1,5.4,0.5,8,0.8C358.5,427.1,348.3,416.5,334.4,412.1z" opacity="0.4"/></g></svg>