<?xml version="1.0" ?><svg enable-background="new 0 0 792 792" id="Layer_1" version="1.1" viewBox="0 0 792 792" xml:space="preserve" xmlns="http://www.w3.org/2000/svg" xmlns:xlink="http://www.w3.org/1999/xlink"><g><g><path d="M607.3,122.1c-1.6,0-3-1.1-3.5-2.6c-0.2-0.6-0.7-2.4-0.7-2.4c-0.2-0.4-0.5-1.5-0.5-1.6c-1.4-3.9-3-8.5-5.7-13.5    c-0.4-0.9-0.8-1.6-1.2-2.4l-2-3.3c-0.7-1.2-1.5-2.4-2.3-3.4c-2.5-3.5-5.2-6.4-7.9-8.9c-0.4-0.3-1-0.8-1.6-1.3c-1-0.9-2-1.7-3-2.3    l-2.7-1.9c-0.9-0.4-1.8-0.9-2.7-1.3c-3.2-1.6-7-2.6-12-3.3c-2.6-0.3-5.4-0.4-8.1-0.4c-1.7,0-3.3,0.1-5,0.2    c-1.5,0.1-2.9,0.2-4.3,0.3c-0.9,0.1-1.7,0.2-2.5,0.2c0,0-5.4,0.6-6.5,0.7c0,0-4.9,0.8-6.2,1c-1.5,0.3-3.1,0.7-4.7,1.1l-1.1,0.3    c-3.2,0.9-7,2-10.1,3.4c-2.3,0.9-4.2,1.8-6.1,2.8c-0.8,0.4-1.7,0.9-2.4,1.2c-0.5,0.3-2.5,1.6-2.5,1.6c-0.6,0.3-1,0.6-1.4,0.9    c-0.6,0.4-1.3,0.6-2.1,0.6c-0.8,0-1.5-0.2-2.2-0.7c-1.2-0.9-1.8-2.6-1.3-4c0.2-0.5,0.4-1.1,0.7-1.7c0.2-0.4,0.4-0.8,0.5-1.3    c0-0.1,0.1-0.2,0.1-0.3c2.5-5.8,7.2-12.2,13.1-17.4c3.7-3.4,8.1-6.3,11.6-8.4c3.9-2.2,8.9-4.9,14.6-6.8c3-1.1,5.7-1.8,8.2-2.4    c1.4-0.3,2.8-0.6,4.3-0.8l4.4-0.5c1.3-0.1,2.3-0.1,3.4-0.1c2.4,0,4.4,0.2,6.3,0.5c1.1,0.1,2.4,0.4,3.5,0.7l2.5,0.7    c1,0.3,2,0.5,3,0.9c6.6,2.5,11.8,5.4,16,8.9c1,0.7,1.8,1.5,2.5,2.2c0.3,0.3,1.7,1.6,1.7,1.6c0.8,0.8,1.8,1.6,2.6,2.7l2.5,3.1    c0.7,0.9,1.3,1.8,2,2.7l0.6,0.9c1.3,1.7,2.2,3.6,3.2,5.4c0.3,0.6,0.6,1.2,0.9,1.7l0.5,1.2c0.9,2,1.9,4.1,2.6,6.3    c1.8,5.3,3,9.9,3.6,14c1.3,7.9,1.4,14.3,1.3,18.2c0,1-0.1,2-0.2,2.9c0,0.2,0,0.7-0.1,1.2c-0.2,1.7-1.5,3.1-3.3,3.3    C607.5,122.1,607.4,122.1,607.3,122.1z"/><path d="M455.9,755.7c-1.5,0-2.8-0.9-3.4-2.3l-5.5-14.5l-0.1-0.3l-8.1-21.4c-2.6-6.9-5.4-14.4-8-22c0,0-6.1-17.4-7.6-22    c-1.8-4.9-3.4-9.9-5-14.8c-0.7-2.3-1.5-4.6-2.2-6.8c-4.5-13.7-9.2-27.8-13.3-41l-2.4-7.8c-3.2-10.2-6.3-19.9-9-29.1    c-5.5-18.2-10.9-36.9-16-55.5c0,0-1.1-3.8-1.2-4.5c-1.1-0.1-2.2-0.2-3.3-0.3c-0.7,1.8-1.4,3.8-2.3,6    c-4.5,11.7-11.1,28.2-21.4,53.3c-3.7,9.3-8,19.2-12.5,29.6l-21.7,49.9c-2.2,5.2-4.5,10.5-7.1,15.8l-19.9,42.2    c-3,6.4-16.8,35.5-16.8,35.5c-0.3,0.7-0.6,1.2-1.1,1.8c-0.7,0.7-1.6,1.1-2.6,1.1c-0.6,0-1.2-0.2-1.8-0.5c-1.4-0.8-2.1-2.4-1.7-4    l1.1-4.3c3.2-13,6.4-26,9.6-39l11.5-45.2c1.2-4.7,5.6-21.9,5.6-21.9c3.8-14.3,7.6-28.2,11.1-41.3c3.6-13.1,6.9-25.5,10-37l2.3-8.4    l2.5-8l4.6-14.7c2.2-6.9,4.2-13.2,5.9-18.7l1.6-5.1c0,0,0.9-2.8,1-3c-1.3-0.9-2.6-1.9-3.9-3c-6.9-5.6-12.9-11.8-18-18.6l-7.5-9.4    c-1.7-2.1-3.2-4.2-4.7-6.4c-0.8-1.1-1.6-2.2-2.4-3.3l-1.8-2.4c-4-5.5-8.1-11.1-11.4-17.1c-7.1-12.3-12.4-25.9-15.7-40.3    c-0.8-3.5-1.5-6.7-1.9-9.7c-0.7-3.7-1.1-6.6-1.3-9.4c-0.4-5.8-0.5-12.6,2-18.7c1.5-3.6,4-6.4,7-8c1.6-0.9,3.6-1.4,5.8-1.4    c1.6,0,3.2,0.3,4.6,0.8c1.5,0.6,2.9,1.2,4.2,2c0-1.5,0.1-2.8,0.2-3.9c0.1-1.8,1.6-3.2,3.4-3.3c0.1,0,0.1,0,0.2,0    c1.6,0,3,1.1,3.5,2.6c0.2,0.4,0.4,0.9,0.6,1.3c0.2,0.5,0.4,1,0.7,1.4c0.1,0.1,0.2,0.3,0.2,0.4c0,0,0.3,0.4,0.4,0.5    c0.3,0.6,0.7,1.2,1.1,1.8c0.4,0.5,0.9,1.1,1.4,1.6c0.1,0.1,0.2,0.2,0.2,0.3c0.4,0.6,1.1,1.2,1.9,1.9c0.4,0.3,0.8,0.7,1.1,1    l0.9,0.7c1,0.7,2,1.4,3,2c1.7,0.9,3.1,1.7,4.6,2.1c0.1,0,0.3,0.1,0.4,0.1c1,0.5,2.1,0.8,3.4,1.2c0.5,0.2,1.1,0.3,1.6,0.5    c4,0.9,7.5,1.4,10.6,1.4c0.7,0,1.2,0,1.6,0c1.3,0,2.7-0.1,4-0.2c1.3,0,2.4-0.3,3.6-0.5c0.6-0.1,1.2-0.3,1.9-0.4    c0.3-0.1,0.5-0.1,0.8-0.2c-0.4-2-0.8-4.2-1.2-6.5c-0.7-3.7-1.5-7.8-2.4-12.2c-0.3-1.4-0.6-2.9-0.9-4.4c-0.5-2.6-1-5.2-1.7-7.9    c-0.8-3-1.6-6.1-2.4-9.3l-1.1-4.3l-0.5-1.4c-2.9-9.1-5.8-18.5-10.1-27.8c-2.7-5.7-5.3-10.1-8.3-13.8c-3.4-4.4-7.4-7.3-12.2-9    c-1.5-0.6-2.9-1.1-4.4-1.7l-4.2-1.2c-2.1-0.7-4.3-1.2-6.4-1.7l-2.6-0.7c-2.9-0.6-5.9-1.3-9-2.1c-3.3-0.7-6.5-1.4-9.8-2.1    c-5.1-1.2-12.6-3.3-19.7-7.1c-5.6-2.9-11-7-16.9-13.1c-5-5.1-9.4-10.5-13.2-16c-4-5.7-7.3-12-9.7-18.4c-1.1-2.7-2-5.6-2.7-8.3    l-0.4-1.4c-0.5-2.2-0.9-4.3-1.2-6.3c-0.2-1.2-0.4-2.4-0.7-3.6c-0.1-0.6-0.2-1.2-0.3-1.7c-0.2-1.2-0.4-2.3-0.5-3.5l-0.4-4.8    c-0.1-1.2-0.1-2.3-0.2-3.4c-0.2-2.1-0.4-4.2-0.3-6.5l0.1-3.4c0.1-5.1,0.3-10.5,1.4-15.7c0.7-6.3,2.6-12.5,4.3-17.6l3.4-8.2    c0.1-0.1,0.1-0.3,0.2-0.4c1.4-2.4,2.8-4.9,4.2-7.2c1-1.7,2.2-3.3,3.3-4.8c0.5-0.7,1-1.3,1.5-2l0.8-1c0.6-0.8,1.2-1.6,1.9-2.4l1-1    c0.7-0.7,1.3-1.4,2.1-2c3.7-3.3,8.1-5.8,14-7.9c2.7-1,5.6-1.8,8.6-2.3c1.6-0.3,3.3-0.6,4.9-0.8c2.9-0.3,5.8-0.5,8.6-0.5    c3,0,5.9,0.2,8.8,0.5c3.3,0.7,6.3,1.5,9.3,2.4c0.8,0.3,1.7,0.5,2.5,0.8c0,0,0.1,0.1,0.2,0.1c6.4,2.3,12.1,5.4,17,9.3    c0.5,0.4,0.9,0.8,1.4,1.1c1.1,0.8,2.1,1.7,3.1,2.6c0,0,0.2,0.2,0.3,0.3c1.2,1.2,2.5,2.5,3.8,3.8c0.1,0.1,0.3,0.3,0.3,0.3    c2.4,2.8,5,5.8,7.2,9.1c4.1,5.9,8,12.8,11.6,20.4c1.8,3.9,3.3,7.3,4.6,10.8c1.5,3.5,2.7,7.2,3.8,11c0.6,1.6,1,3.5,1.5,5.9l1.2,5.5    c0,0.1,0,0.3,0.1,0.4l0.1,1.2c0.3,3.4,0.7,6.8,0.8,10.1c0,1.3,0,2.5,0.1,3.7c0.1,2.4,0.1,4.7,0.1,7.1c0,1.3-0.1,2.6-0.3,4    l-0.1,1.4l-0.7,5.1c-1.1,8.1-2.4,14-4.4,19c-2.2,5.7-5.3,10.8-8.9,14.8c-0.7,0.7-1.4,1.5-2.1,2.1c3.4,2.2,7.6,5.5,11.9,10.3    c2.7,3,5.5,6.8,8.5,11.6c2.7,4.3,5.1,9,7.3,14c1,2.3,2.2,5,3.2,7.8l2.7,7.7c1.8,5.2,3.7,10.5,5.5,15.7l0.6,1.7    c0.7,2.2,1.5,4.4,2.1,6.7c0.7,2.7,1.4,5.4,2.1,8c0.6,2.2,1.3,4.5,2.4,6.5c0,0,0.4,0.7,0.4,0.8c0.3,0.6,0.7,1.3,1,1.6l1.1,1.4    c0.4,0.4,0.7,0.7,1,0.9c0.8,0.7,1.5,1.3,2.2,2c1.1,1,2.2,2,3.3,2.8l5.8,4.1c1.2,0.8,2.5,1.5,3.8,2.3c0.6,0.4,1.3,0.7,1.9,1.1    l2.7,1.6l0.7,0.3c1.3-1,2.7-2.1,4.2-3.3c1.9-1.5,4-3.1,6.3-4.8c2.2-1.6,4.5-3,6.9-4.5c1.2-0.7,2.4-1.5,3.6-2.3l2.3,2.8l-2-3    c0.8-0.5,1.4-1,2.1-1.5c2.6-1.9,4.5-3.9,6-6.1c0.1-0.1,0.1-0.2,0.2-0.3c0.2-0.3,0.5-0.8,0.7-1.3c0.2-0.3,0.4-0.7,0.5-1    c0.6-1,0.9-1.8,1.2-2.7c1-2.4,1.9-4.7,2.9-7l0.6-1.6c0.7-1.8,1.5-3.7,2.3-5.5l6.6-13.8c1.3-2.4,2.6-4.7,3.8-6.8    c1.2-2.2,2.4-4.3,3.6-6.5c0.9-1.5,1.8-2.9,2.7-4.2l1.4-2.1c0.8-1.2,1.5-2.3,2.2-3.4c1.9-2.9,3.6-5.7,5.7-8.3    c0.7-1,1.6-2.1,2.4-3.1c0.5-0.7,1.1-1.3,1.6-1.9c0.1-0.1,0.2-0.2,0.2-0.3l0.8-0.9c1.2-1.3,2.4-2.5,3.5-3.6l1.2-1    c1.2-1,2.3-1.9,3.4-2.7c0.4-0.4,0.9-0.7,1.4-1.1c0.7-0.5,1.4-1,2-1.6c1.2-1,2.1-1.9,3-2.8c-2.5-3-4.8-6.3-6.6-9.8    c-2.9-5.6-4.8-11.6-5.6-17.7c-0.5-3.4-0.6-6.9-0.5-10.1c0-0.8,0.1-1.6,0.1-2.4c0.1-2.5,0.1-5.1,0.6-7.7c0.1-1.1,0.3-2.5,0.5-3.9    l0.1-1c0.2-1.2,0.4-2.4,0.7-3.6c0.1-0.6,0.7-3,0.8-3.6c0.2-1.1,0.5-2.3,0.8-3.4l1.5-5.1c0.6-2.4,1.5-4.7,2.4-6.9    c0.4-1.1,0.8-2.1,1.2-3.2c1.5-3.5,3-6.8,4.5-9.9c3.6-6.9,6.8-12.9,10.8-18.7l2.9-4.3c0.7-1,1.4-1.8,2.1-2.7c0.4-0.5,0.9-1,1.3-1.6    c0.5-0.6,0.9-1.1,1.3-1.6c0.7-0.9,1.4-1.8,2.2-2.6c0.9-0.9,1.7-1.7,2.5-2.6l1.1-1.1c2.1-2.3,4.6-4.3,7-6.1l0.8-0.6    c1.8-1.7,4-3,6.1-4.3c0.7-0.4,1.3-0.8,2-1.2c1.1-0.8,2.6-1.6,4.2-2.4c0.8-0.4,1.6-0.8,2.4-1.1l1.7-0.8c0.4-0.2,0.9-0.4,1.5-0.6    c5.8-1.3,11.6-2,17.4-2l2,0c11.5,0.5,20.8,3.2,28.8,8.4c5.1,3.4,9.3,7.5,12.7,12.2c3.2,4.5,5.9,9.7,8.4,16    c2.3,5.8,4.1,11.7,5.6,17.7c1.4,5.6,2.2,11.8,2.3,19.6c0.1,6.3-0.7,12.9-2.2,20.3c-1.4,6.9-4,13.5-6.6,19.7    c-6.4,15.2-14,26.7-23.3,35.3c-5.2,4.8-11.4,8.8-18.6,11.7c-6.3,2.6-13.2,4.6-20.5,5.8c-6.4,1.1-12.8,1.5-18.9,1.9l-1.2,0.1    c-5.9,0.4-12.1,1-17.9,2.7c-5.4,1.6-10.5,4.2-14.5,7.5c-3.9,3.2-7.3,7.1-10.5,12.1c-5.3,8.6-8.5,17.8-11.6,26.8l-0.7,2.1    l-17.8,45.8l-0.5,1.1c2,0.5,4,0.9,5.9,1.3c1.9,0.3,4.1,0.6,6.1,0.6c1.5,0,2.7-0.2,3.7-0.5c1.7-0.5,3.4-1.2,5-1.9    c1.3-0.6,2.5-1.3,3.8-2l1-0.6c2.7-1.7,5.4-3.8,7.9-6.2c2.1-2.1,4.1-4.4,5.7-6.8c0.8-1.2,1.4-2.4,2-3.7c0.5-1.1,1-2.2,1.3-3.5    c0.4-1.6,1.9-2.6,3.5-2.6c0.1,0,0.1,0,0.2,0c1.7,0.1,3.1,1.3,3.4,3c0.3,1.6,0.5,3.3,0.6,5l0,0.9c0.1,2.2,0,4.3-0.2,6.5    c3.3-2.1,6.8-4.2,10.8-6.3c4.4-2.2,9.6-4.5,15.9-4.8l0.9,0c2.5,0,6.2,0.5,9.7,2.6c2.8,1.7,5.2,4.2,7.5,7.7    c3.5,5.6,4.9,12.9,4.1,21.2c-1.6,14.7-8.5,29-15.1,41.1c-3.7,6.8-8,13.8-11.7,20c-4.6,7.8-8.9,14.4-13.1,20.4    c-5.3,7.5-10.6,14-16,19.8c-6.5,6.8-13.2,12.6-20.1,17.3c-7.8,5.3-16.1,9.2-24.7,11.6c-1.2,0.3-2.3,0.6-3.5,0.9    c0.6,2.5,1.1,5.2,1.7,8.1l1,5.8c0.4,2.5,0.9,5,1.4,7.7c0.5,2.7,1,5.5,1.5,8.4c1.3,7.2,2.8,15.3,4,23.8l5.8,38.1    c1.9,13.6,3.9,27.8,6,42.6l3,22.5c0.9,7.1,1.9,14.4,2.8,21.6l6.1,49.2l0.1,0.6l1.8,15.2c0.2,1.8-1,3.5-2.7,3.9    C456.5,755.7,456.2,755.7,455.9,755.7z"/><path d="M187.4,102.3c-1.8-0.1-3.2-1.4-3.4-3.2c0-0.6,0-1.2,0-1.8c0-2.5,0.1-5.2,0.4-8.1c0.4-4.1,1.2-8.1,2.1-11.9    c0.8-3.2,2.2-7.9,4.5-12.8c1.8-4.3,4.5-8.8,7.9-13.1l2.7-3.1c0.7-0.8,1.4-1.4,2.2-2.1l0.9-0.8c1-0.9,2.2-1.9,3.6-2.8    c0.4-0.3,0.8-0.5,1.1-0.7c0.7-0.5,1.6-1.2,2.8-1.6c4.5-2.5,10.1-4,17.1-4.5c1-0.1,1.9-0.1,2.8-0.1c4.4,0,9,0.5,14.1,1.6l0.8,0.2    c2.4,0.6,4.9,1.2,7.3,2.2c1.8,0.5,3.7,1.4,5.5,2.2l1.7,0.8c5.7,3,9.8,5.6,13.1,8.3c3.2,2.4,6.3,5.4,9.8,9.2c1.7,2,3.2,4.1,4.6,6.1    c1.3,1.9,2.3,3.7,3,5c0.8,1.5,0.5,3.3-0.8,4.4c-0.7,0.6-1.6,0.9-2.4,0.9c-0.7,0-1.4-0.2-2.1-0.6c-1.5-1-2.8-1.9-4.2-2.8    c-1.2-0.8-2.5-1.6-3.9-2.3c-3.5-1.9-6.7-3.5-9.7-4.6c-3.2-1.2-7-2.3-11.5-3.2l-1.8-0.2c-1.4-0.2-2.8-0.4-4.3-0.5    c-0.1,0-0.1,0-0.2,0c-0.6,0-1.4,0-2.2-0.1c-0.8,0-1.5-0.1-2.3-0.1c-0.5,0-1,0-1.5,0.1c-2.9,0.1-4.8,0.3-6.6,0.6    c-2.2,0.2-4.3,0.7-6.4,1.2c-1.5,0.3-2.8,0.7-4.1,1.1c-0.8,0.3-1.7,0.5-2.5,0.8c-1.2,0.4-2.5,0.9-3.8,1.4c-0.8,0.3-1.6,0.6-2.4,0.9    c-1.9,0.9-3.9,1.9-5.8,2.8c-0.8,0.5-5.1,3.2-5.1,3.2c-0.8,0.7-1.6,1.3-2.4,2c-0.8,0.6-1.5,1.3-2.3,1.9c-0.7,0.7-1.5,1.6-2.3,2.5    c-0.5,0.5-1,1.1-1.4,1.6c-2.4,3.1-4.2,5.8-5.4,8.4l-1.2,2.4c-0.1,0.3-0.2,0.6-0.4,1c-0.1,0.2-0.3,1-0.4,1.1    c-0.4,1-1.5,3.8-1.5,3.8c0,0.2-0.1,0.3-0.1,0.5c-0.4,1.7-1.9,3-3.6,3C187.5,102.3,187.4,102.3,187.4,102.3z"/><g><path d="M511.9,150c0.7-0.1,1.4-0.3,2-0.4c0.3,0,0.7-0.1,0.9-0.1h6.3c0.3,0.1,1,0.4,2.1,0.8     c0.7,0.3,1.7,0.5,2.7,1c1,0.5,2.1,1.2,3.3,1.9c5,2.9,9.8,10.2,10,20.1c0.1,4.9-0.5,10.2-1.8,15.7c-1.4,5.5-3.5,11.1-6.3,16.5     c-1.5,2.7-3.1,5.4-4.9,8c-0.9,1.3-1.9,2.5-2.8,3.8c-1.1,1.1-2.1,2.4-3.3,3.3c-4.6,4-11,6.1-17.1,5.2c-6.2-0.5-11-5.3-13.6-10.8     c-1.3-2.9-2.2-5.9-2.8-8.9c-0.5-3.1-0.9-6.2-0.8-9.2c-0.1-6.2,0.8-12.1,2.2-17.6c1.5-5.4,3.6-10.4,6.1-14.6     C499.1,156,506.2,151.1,511.9,150z M519,186.1c0.4-2,0.6-3.9,0.4-5.7c-0.3-3.7-2.6-6.6-4.6-7.3c-1.7-0.7-2.8-0.5-3.1-0.5h-0.3     c0.1,0,0.2,0,0.2,0s-0.3-0.1-0.8-0.3c-0.5-0.1-1.3-0.4-2.4-0.3c-2.1,0-5.1,1.7-7,4.8c-1,1.5-1.7,3.3-2.3,5.2     c-0.5,2-0.9,4.1-0.9,6.3c0,1.1,0,2.2,0.2,3.4c0.2,1.2,0.5,2.4,0.9,3.5c0.5,1.2,1.2,2.4,2.2,3.3c1.1,1,2.5,1.7,3.9,1.9     c2.8,0.4,5.7-0.7,7.6-2.5c0.9-0.9,1.7-1.9,2.2-2.9c0.6-1,1.1-1.9,1.6-3C518,190.1,518.6,188.1,519,186.1z" fill="#5D9DC1"/><path d="M502.8,193.8c-0.4-0.8-0.7-1.7-0.8-2.6c-0.1-0.9-0.3-1.9-0.3-2.8c0-1.9,0.1-3.8,0.5-5.5c0.4-1.7,1-3.3,1.7-4.7     c1.3-2.7,3.2-4.5,4.9-5.1c0.8-0.3,1.6-0.5,2.1-0.5c0.3,0,0.5,0,0.6,0h0.3c0.3,0.2,1.3,0.6,2.4,1.6c1.3,1.2,2.4,3.4,2.3,6.4     c0,1.5-0.2,3.1-0.7,4.9c-0.4,1.7-1.1,3.5-2,5.2c-0.4,0.8-1,1.7-1.5,2.5c-0.5,0.8-1.1,1.5-1.7,2.1c-1.2,1.1-2.9,1.7-4.4,1.5     C504.7,196.5,503.6,195.4,502.8,193.8z"/><path d="M510.2,74.7c-2.9,1.2-5.3,2.8-7.5,4.2c2.5-3.5,6.2-7.6,11.1-11.6c3.1-2.6,6.8-5,10.8-7.4c4.1-2.2,8.5-4.4,13.4-6     c2.4-0.8,4.9-1.5,7.4-2c1.3-0.3,2.6-0.5,3.9-0.7c1.3-0.1,2.6-0.3,3.9-0.4c2.6-0.1,5.2-0.1,7.8,0.4c1.3,0.1,2.6,0.5,3.9,0.9     c1.3,0.4,2.6,0.7,3.8,1.1c5,1.9,9.9,4.3,13.9,7.6c1.1,0.7,2,1.7,3,2.5c0.9,0.9,2,1.7,2.8,2.8c0.8,1,1.7,2,2.5,2.9     c0.8,1,1.5,2.1,2.2,3.1c1.6,2,2.6,4.3,3.9,6.4c1,2.2,2.1,4.4,2.9,6.6c1.6,4.4,2.9,8.7,3.7,12.7c0.6,2.6,1,5.2,1.4,7.6     c-0.7-2-1.5-4-2.5-6.1c-0.4-0.8-0.8-1.7-1.2-2.5c-0.5-0.8-0.9-1.7-1.4-2.5c-1-1.7-1.9-3.5-3.2-5.2c-2.4-3.4-5.2-6.9-8.5-10     c-1.7-1.5-3.4-3.2-5.4-4.5c-1-0.7-2-1.4-3-2.1c-1-0.6-2.2-1.1-3.3-1.7c-4.4-2.2-9.3-3.4-14.1-4.1c-4.9-0.5-9.8-0.7-14.6-0.3     c-2.4,0.1-4.7,0.5-7,0.7c-2.3,0.3-4.6,0.5-6.8,0.8c-2.2,0.4-4.4,0.8-6.6,1.2c-2.1,0.5-4.2,1.1-6.2,1.6     C517.3,71.8,513.5,73,510.2,74.7z"/><path d="M482.3,196.6c-0.1,3.2,0.3,6.6,0.8,9.8c0.6,3.3,1.6,6.7,2.9,9.9c1.5,3.2,3.6,6.2,6.4,8.6     c2.8,2.5,6.4,4,10,4.5c7.2,1.1,14.8-1.4,20.1-6.1c1.4-1.1,2.5-2.5,3.7-3.7c1-1.4,2.1-2.7,3-4.1c1.8-2.8,3.5-5.5,5-8.4     c3-5.8,5.1-11.7,6.4-17.4c1.3-5.8,2-11.4,1.6-16.6c-0.5-10.6-6.8-18.6-12.3-21c-1.4-0.6-2.6-1.1-3.7-1.5     c-1.1-0.3-2.1-0.5-2.9-0.6c-1.2-0.3-1.9-0.4-2.2-0.4h-6.3c0.3,0,0.6-0.1,0.9-0.1c1.1-0.1,2.1-0.2,2.9-0.1     c1.6,0.1,2.4,0.1,2.4,0.1s-0.8-0.1-2.4-0.5c-0.8-0.2-1.7-0.3-2.9-0.3c-0.6,0-1.2,0-1.9,0c-0.7,0.1-1.4,0.1-2.1,0.3     c-6,0.5-14.3,5.4-19.9,14.2c-2.8,4.3-5.1,9.5-6.8,15.2C483.3,183.9,482.4,190.2,482.3,196.6z M485.3,231.5     c-3-2.5-5.4-5.5-7.2-8.8c-1.9-3.3-3.2-6.9-3.9-10.6c-0.8-3.7-1-7.4-0.9-11.1c0.2-7.4,2-14.5,3.5-21.3c1.6-6.8,3.4-13.1,5.3-18.8     c1-2.9,2.1-5.7,3.1-8.3c1-1.2,2.1-2.3,3.3-3.5c3-2.8,6.4-5.8,10.4-8.4c3.9-2.7,8.4-5.1,13.1-7.1c2.4-1,4.9-1.8,7.4-2.6     c2.5-0.6,5.1-1.3,7.7-1.6c5.2-0.6,10.5-0.4,15.5,1.2c5,1.4,9.6,4.1,13.6,7.5c2,1.7,3.8,3.6,5.4,5.6c1.6,2,3,4.2,4.3,6.4     c2.5,4.5,4.2,9.1,5.4,13.8c1.2,4.7,2.1,9.2,2.8,13.4c0.5,3.3,1,6.4,1.3,9.3c-1.6,6-4.3,13.3-8.4,20.9c-1.5,2.6-3.1,5.3-4.8,8.1     c-0.9,1.3-1.9,2.6-2.9,4c-0.9,1.4-2,2.7-3.2,3.9c-4.4,5.1-10.2,9.8-16.6,13.5c-1.7,0.8-3.2,1.9-5,2.5c-1.8,0.6-3.5,1.3-5.3,1.9     c-1.8,0.4-3.7,0.8-5.6,1.2c-1.9,0.3-3.8,0.3-5.7,0.4c-1.9,0.2-3.9-0.2-5.8-0.3l-2.9-0.3l-2.9-0.7c-3.8-0.8-7.6-2-11.2-3.7     C491.5,236.1,488.2,234,485.3,231.5z" fill="#FFFFFF"/><path d="M484.2,144.9c-2.2,2.6-4.1,5.3-5.5,7.9l-1.3-0.7c2.2-4.2,4.6-8.3,7.2-12.1c0.9-1.4,1.8-2.8,2.8-4.2     c1-1.3,2.1-2.6,3.1-3.9c1.1-1.3,2-2.6,3.1-3.8c1.1-1.2,2.3-2.3,3.4-3.4c2.1-2.4,4.6-4.3,7-6.3c2.3-2.1,4.9-3.5,7.4-5.2     c2.4-1.7,5.1-2.8,7.5-4c2.4-1.3,5-2,7.4-2.9c0.3-0.1,0.6-0.2,0.9-0.3c3-0.2,6.3-0.3,9.7-0.1c8,0.6,17.2,2.6,25.4,8.1     c4,2.8,7.8,6.3,10.8,10.6c3,4.4,5.5,9.4,7.5,14.7c4,10.7,7.3,22.6,7.1,35c0,6.2-0.8,12.5-2.2,18.7c-0.5,2.2-1.1,4.5-1.8,6.6     l-5.7-1.7c1.3-5.1,1.9-12.6,1.2-21.4c-0.3-4.4-1.1-9.2-2.1-14.2c-1.1-5-2.8-10.4-5.4-15.5c-1.3-2.6-2.9-5.1-4.6-7.5     c-1.8-2.4-3.8-4.7-6.1-6.8c-4.5-4.2-10.2-7.5-16.3-9.3c-6.1-1.8-12.6-2.2-18.6-1.3c-3,0.3-6,1.1-8.8,1.9c-2.8,0.9-5.5,2-8.1,3.1     c-5.2,2.3-10,5.1-14.2,8.1h0c0,0-0.1,0.1-0.1,0.1c-1.7,1.2-3.4,2.5-4.9,3.9C487.8,141,485.9,142.9,484.2,144.9z" fill="#BCBEC0"/><path d="M478.8,161.3c-2,5.4-3.7,11.3-5.2,17.5c-1.6,6.8-3.6,14.1-3.9,22c-0.2,3.9,0,8,0.9,12     c0.7,4.1,2.1,8,4.2,11.7c2,3.7,4.7,7.1,8,9.8c3.2,2.8,6.8,5.1,10.6,6.9c3.8,1.9,7.9,3.1,12,3.9l3.1,0.7l3.1,0.3     c2.1,0.1,4.2,0.6,6.3,0.3c2.1-0.1,4.2-0.1,6.2-0.5c2-0.4,4-0.9,6-1.3c1.9-0.7,3.8-1.4,5.7-2.2c1.9-0.7,3.5-1.8,5.3-2.8     c6.7-4.1,12.6-8.8,17.2-14.4c1.2-1.3,2.4-2.7,3.3-4.1c1-1.4,2-2.8,2.9-4.2c1.7-2.9,3.3-5.7,4.7-8.4c3-6.1,5.1-11.9,6.4-17.1     c0.1,2.3,0.2,4.3,0.1,6.1c0.1,2.5-0.2,4.4-0.4,5.8c-0.1,1.4-0.2,2.1-0.2,2.1s0.3-0.7,0.9-1.9c0.5-1.3,1.4-3.2,1.9-5.7l5.7,1.7     c0,0,0,0,0,0.1c-1.3,3.9-2.8,7.7-4.5,11.6c-5.2,12.1-11.9,23.8-21.6,32.7c-4.7,4.5-10.4,7.9-16.5,10.4c-6,2.5-12.4,4.3-18.8,5.4     c-6.4,1-12.9,1.5-19.5,2c-6.5,0.5-13.1,1.2-19.4,3c-6.3,1.8-12.2,4.9-17,8.9c-4.9,4-8.8,8.9-11.9,13.9     c-6.2,10.2-9.6,20.9-12.7,30.5c-6.8,19-12.5,34.9-16.1,46.2c-0.6,1.8-1.2,3.6-1.7,5.1c-0.3-0.1-0.5-0.1-0.8-0.2     c-1-0.3-2-0.5-3-0.8c0,0,0,0,0,0c-0.1-0.4-0.2-0.8-0.3-1.1c-0.2-0.8-0.4-1.7-0.6-2.6c-0.3-0.9-0.5-1.7-0.7-2.6     c-0.5-1.8-0.9-3.6-1.4-5.4c-0.5-1.8-1-3.6-1.5-5.4c-0.3-0.9-0.5-1.8-0.8-2.6c-0.3-0.9-0.7-1.7-1-2.5c-0.6-1.7-1.3-3.2-1.9-4.7     c-0.5-1.1-0.9-2.1-1.3-3.1c3-2.1,6-4.7,8.3-8.1c0.8-1,1.3-2.1,2-3.3c0.7-1.2,1.2-2.3,1.6-3.4c0.9-2.2,1.9-4.5,2.9-6.8     c1-2.3,2-4.6,2.9-6.9l3.2-6.8l3.2-6.8c1.2-2.2,2.4-4.4,3.5-6.6c1.2-2.2,2.4-4.3,3.5-6.4c1.2-2.1,2.5-4.1,3.7-6.1     c2.5-4,4.8-8,7.3-11.4c1.2-1.8,2.6-3.3,3.8-5c1.3-1.5,2.6-2.9,3.9-4.3c1.4-1.2,2.7-2.4,3.9-3.5c1.3-1.2,2.6-2.2,3.7-3.4     c2.1-2.2,3.7-4.3,4.9-6c2.9,2.7,5.8,4.7,8.3,6.1c1.3,0.8,2.6,1.4,3.7,1.8c1.1,0.5,2.1,0.8,2.9,1.1c1.6,0.5,2.4,0.7,2.4,0.7     s-0.8-0.4-2.3-1.1c-0.8-0.3-1.6-0.8-2.6-1.4c-1.1-0.5-2.2-1.3-3.4-2.1c-2.4-1.6-5.1-3.9-7.7-6.8c-0.2-0.2-0.4-0.4-0.6-0.7     c-2.6-3.1-5.3-6.8-7.4-11.3c-2.2-4.6-3.9-9.9-4.6-15.7c-0.3-2.9-0.5-5.9-0.3-9c0.2-3.1,0.2-6.3,0.7-9.5c0.3-1.6,0.5-3.2,0.7-4.8     c0.3-1.6,0.7-3.2,1-4.8c0.4-1.6,0.7-3.3,1.1-4.9c0.5-1.6,1-3.2,1.5-4.8c0.9-3.3,2.4-6.4,3.5-9.6c1.4-3.2,2.9-6.3,4.4-9.3     c1-1.9,2-3.8,3.1-5.7l1.3,0.7c-2.4,4.3-3.8,8.4-4.3,11.6c-0.4,2.6-0.6,4.6-0.5,6c0.1,1.4,0.1,2.1,0.1,2.1s0.3-0.7,0.7-2     c0.4-1.3,1.1-3.1,2.1-5.4C477.3,163.9,478,162.6,478.8,161.3z" fill="#BCBEC0"/><path d="M401.3,509.1c6-0.9,11.8-2.1,17.7-3.5v0c0.6,3.4,1.2,7.2,2,11.4c0.6,4.2,1.3,8.7,2,13.4     c1.4,9.6,3.2,20.4,4.8,32.2c1.7,11.8,3.5,24.6,5.4,38.1c1.8,13.6,3.7,27.8,5.6,42.6c0.9,7.4,1.9,14.9,2.9,22.6     c1,7.6,1.9,15.3,2.9,23.1c1.3,10.8,2.6,21.7,3.9,32.6c-0.9-2.4-1.8-4.8-2.7-7.1c-2.8-7.2-5.5-14.4-8-21.7     c-2.6-7.3-5.1-14.7-7.7-21.9c-2.6-7.2-4.9-14.4-7.3-21.5c-4.7-14.2-9.3-27.8-13.4-40.8c-4.2-13-8.1-25.3-11.8-36.7     c-7.3-22.7-13.4-41.6-17.7-54.9c-0.8-2.4-1.5-4.6-2.2-6.6C385.6,510.7,393.5,510.2,401.3,509.1z" fill="#BCBEC0"/><path d="M390.7,364.4c-0.1-0.7-0.3-1.3-0.5-2.1c-0.2-1.7-0.5-3.6-0.7-5.6c0.1-1-0.8-1.2-1.6-1.5l-1.4-0.7     c-0.3-0.1-0.6-0.3-0.9-0.4c3.5-2,7.6-4.7,12.1-7.8c3.1-1.9,6.5-3.9,10-6.1c0.3,0.8,0.6,1.7,0.9,2.5c0.5,1.5,1.1,3,1.7,4.7     c0.3,0.8,0.5,1.6,0.8,2.5c0.3,0.8,0.5,1.7,0.8,2.6c0.5,1.7,1,3.5,1.5,5.3c0.5,1.8,1,3.6,1.6,5.3c0.3,0.9,0.5,1.7,0.8,2.6     c0.2,0.6,0.4,1.2,0.5,1.8c-1.7-0.4-3.3-0.8-4.9-1.2c-3.9-0.9-7.6-1.7-11.3-2C396.9,363.9,393.7,363.9,390.7,364.4z" fill="#BCBEC0"/><path d="M389.9,367.5c0.1,0,0.2-0.1,0.3-0.1c0.4-0.1,0.8-0.1,1.3-0.1c2.6-0.3,5.4-0.1,8.4,0.2c3.4,0.4,7.1,1.2,10.8,2.2     c1.9,0.5,3.8,1,5.7,1.6c0.5,0.1,0.9,0.3,1.4,0.4c1.2,0.3,2.4,0.7,3.5,1c0.3,0.1,0.7,0.2,1,0.3c0.2,0.1,0.4,0.1,0.7,0.2     c0.2,0,0.4,0.1,0.6,0.1c3.6,1,7.2,1.9,11,2.5c2.1,0.4,4.3,0.6,6.5,0.7c2.1,0,4.6-0.1,6.7-0.9c2.1-0.7,4.1-1.5,5.9-2.5     c1.8-0.9,3.6-2,5.3-3.1c3.4-2.2,6.3-4.7,9-7.4c2.4-2.5,4.5-5.1,6-7.7c-0.5,3.8-1.5,7.8-3.4,11.7c0,0,0,0,0,0.1     c-0.1,0.3-0.3,0.7-0.5,1c-2.7,5.4-7.1,10.6-12.9,14.4c-6.2,4.2-13.8,6.5-21.9,8.3c-4.1,0.9-8.2,1.6-12.4,2.1     c-4.2,0.6-8.5,0.9-12.9,1c-4.3,0.1-8.7,0-13-0.5c-4.3-0.5-8.6-1.4-12.1-3.5c-1.1-0.7-2.2-1.4-2.9-2.4c-0.3-0.3-0.3-0.3-0.7-1.1     l-0.5-1c-0.1-0.4-0.3-1-0.4-1.4l-1.2-4.4l-0.4-1.2l0.3-4.2c0.3-0.4,0.6-0.8,0.9-1.1c0.8-0.9,1.7-1.8,2.8-2.6     C384.7,368.9,387.1,367.9,389.9,367.5z"/><path d="M346.6,365.9c-0.8,0.2-1.7,0.3-2.5,0.5c0.7-1,1.5-2.3,2.3-3.8c0.5-1,1.1-2.1,1.6-3.2     c0.6-1.2,1.2-2.4,1.8-3.6c0.3-0.6,0.6-1.3,0.9-1.9c0.3-0.7,0.7-1.3,1-2c0.6-1.3,1.3-2.6,1.9-4c0.6-1.3,1.2-2.7,1.8-4.1     c0.3-0.7,0.6-1.3,0.9-2c0.3-0.7,0.5-1.3,0.8-2c0.1-0.1,0.1-0.3,0.2-0.4c0.3,0.3,0.6,0.5,0.9,0.8c2.1,1.7,4,3.5,6.1,5.1     c2.1,1.4,4.2,2.8,6.2,4.2c2,1.3,4.2,2.4,6.2,3.5c1,0.5,2,1.1,3,1.6c0.4,0.2,0.9,0.4,1.3,0.5c0.5,0.2,1,0.4,1.5,0.7     c0.1,0,0.1,0,0.2,0.1c1,0.4,2,0.8,2.9,1.2l1.3,0.5c0.1,0,0.3,0,0.3,0.2c0.2,0.8,0.3,1.7,0.5,2.5c0.2,0.9,0.3,1.8,0.5,2.6     c0.2,0.7,0.4,1.3,0.6,1.9c-3,0.7-5.6,2.1-7.5,3.7c-0.9,0.8-1.6,1.7-2.2,2.5c-0.6-1.2-1.5-2.4-2.8-3.4c-2.2-1.7-5.1-2.8-8.4-3.2     c-3.2-0.5-6.7-0.4-10.3-0.1C354.2,364.5,350.4,365.1,346.6,365.9z" fill="#BCBEC0"/><path d="M327.7,435.5c-2.4-2.2-4.7-4.5-7-6.6c0.1,0,0.2,0.1,0.3,0.1c4.3,1.2,9.1,2.3,14.2,3.1     c5.1,0.8,10.5,1.3,16,1.8c2.8,0.2,5.6,0.4,8.4,0.5c2.9,0.2,5.8,0.4,8.7,0.5c5.8,0.4,11.8,0.6,17.7,0.9c5.9,0.4,11.9,0.1,17.8,0     c2.9-0.1,5.8-0.1,8.7-0.2c2.9-0.3,5.7-0.5,8.5-0.8c2.8-0.3,5.5-0.5,8.2-0.8c1.3-0.1,2.7-0.2,4-0.4c1.3-0.2,2.6-0.5,3.8-0.7     c5-0.9,9.8-1.8,14.2-2.6c7.6-2,14-4.1,18.7-5.9c-1.5,1.8-3.2,3.7-4.9,5.4c-5.3,5.4-11.3,10.7-18.4,15c-3.5,2-7.2,4.1-11.2,5.6     l-2.9,1.3l-3,1c-2,0.7-4.1,1.4-6.2,1.8c-2.1,0.5-4.2,1-6.3,1.4c-2.1,0.3-4.3,0.7-6.5,0.9c-4.4,0.5-8.8,0.9-13.2,1     c-8.8,0.4-17.7,0-26.3-1.3c-2.1-0.3-4.3-0.7-6.3-1.2c-2.1-0.4-4.2-1-6.2-1.6c-4.1-1.2-7.9-2.7-11.7-4.4c-1.8-0.9-3.6-1.9-5.3-2.9     c-1.6-1.2-3.4-2.1-4.9-3.4C333.5,440.7,330.6,438,327.7,435.5z" fill="#FFFFFF"/><path d="M295.2,140.7c1.7,3.1,3.2,6.5,4.8,10c0.8,1.7,1.6,3.5,2.4,5.3c0.7,1.9,1.3,3.8,2,5.6     c2.4,7.7,4.2,16.2,4,24.8c-0.1,2.2-0.3,4.4-0.5,6.6c-0.4,2.2-0.8,4.4-1.2,6.6c-1.1,4.4-2.1,8.9-3.8,13.1c-3.3,8.4-9,16.2-17,20.7     c-7.9,4.6-17.5,5.4-26.3,3.3c-2.2-0.7-4.4-1.1-6.5-1.8c-2-0.9-4.1-1.8-6.1-2.8c-1.8-1.2-3.7-2.4-5.5-3.6c-1.8-1.3-3.3-2.9-5-4.2     c-6.3-6-11-13.2-14.8-20.3c-3.6-7.2-6.2-14.4-8.2-21.3c-1.3-4.6-2.2-8.9-3-13.1c0-1.2,0.1-2.3,0.3-3.5c0.4-3.9,0.9-8.1,1.8-12.4     c0.9-4.3,2.4-8.7,4.5-12.9c1.1-2.1,2.3-4.1,3.7-6.1c1.4-2,2.9-3.9,4.6-5.5c3.3-3.3,7.5-5.9,12.1-7.5c4.6-1.7,9.6-2.5,14.5-2.8     c2.5,0,5,0,7.4,0.3c2.4,0.2,4.9,0.6,7.1,1.1c1.2,0.2,2.3,0.5,3.4,0.8c1.1,0.3,2.2,0.7,3.2,1.1c2.1,0.9,4.2,1.6,6.1,2.8     c0.9,0.5,1.9,1.1,2.8,1.6c0.9,0.5,1.7,1.2,2.6,1.8c0.8,0.6,1.7,1.1,2.5,1.7c0.7,0.7,1.5,1.3,2.2,1.9c0.8,0.7,1.5,1.4,2.2,2.1     C292.7,136.3,294,138.5,295.2,140.7z M288.3,144.3c-3.2-2.4-6.6-3.5-9.4-4c-1.4-0.2-2.6-0.3-3.7-0.2c-1.1,0-2,0.1-2.7,0.3     c-1.4,0.3-2.2,0.5-2.2,0.5l-0.1,0c-0.3,0-1,0.2-2.1,0.4c-0.7,0.2-1.6,0.3-2.7,0.6c-1,0.4-2.1,0.9-3.4,1.5     c-1.2,0.8-2.5,1.6-3.8,2.8c-1.2,1.3-2.5,2.6-3.5,4.4c-2.1,3.4-3.5,7.9-3.7,12.7c-0.4,4.9,0.2,10.1,1.4,15.5     c1.2,5.4,3,10.9,5.7,16.4c1.3,2.8,2.8,5.3,4.5,8c1.6,2.6,3.6,5.2,6,7.5c4.8,4.6,11.9,7.2,18.8,6.1c3.4-0.5,6.8-2,9.3-4.4     c2.5-2.4,4.3-5.3,5.7-8.3c1.3-3,2.1-6.1,2.6-9.2c0.4-3.1,0.7-6.2,0.7-9.2c0-6-0.9-11.8-2.4-17.2c-1.4-5.3-3.5-10.2-6-14.3     C294.5,150,291.5,146.6,288.3,144.3z" fill="#FFFFFF"/><path d="M293.9,394.2c-1-1.6-1.7-3.1-2.2-4.5c0.1,0,0.1,0.1,0.2,0.1c2.8,1.9,6,4.2,10,6.8c2,1.2,3.9,2.8,6.3,3.9     c2.4,1.2,4.9,2.5,7.5,3.8c5.5,1.9,11.4,3.9,18,5.2c3.2,0.8,6.6,1.4,10,1.9c3.4,0.6,6.9,1.1,10.5,1.6c1.8,0.2,3.6,0.5,5.4,0.7     c1.8,0.1,3.7,0.2,5.5,0.3c3.7,0.2,7.5,0.4,11.3,0.6c3.8,0.4,7.6,0,11.4-0.1c3.8-0.1,7.6-0.3,11.5-0.5c7.6-0.7,15.2-1.7,22.7-2.7     c3.7-0.7,7.4-1.4,11-2c3.6-0.8,7.2-1.2,10.7-2.2c3.5-1,7-1.8,10.2-3c3.3-1.1,6.5-2.1,9.6-3.4c6.2-2.3,11.9-4.9,17.1-7.5     c5.3-2.6,10-5.4,13.9-8c-3.5,7-8.5,16.9-15.9,27.8c-2.1,3.1-4.4,6.3-7,9.5c-5,1.4-12.2,3.2-20.7,5.1c-4.4,0.7-9.1,1.5-14.1,2.2     c-1.2,0.2-2.5,0.4-3.8,0.6c-1.3,0.1-2.6,0.2-3.9,0.3c-2.6,0.2-5.3,0.4-8.1,0.6c-2.8,0.2-5.5,0.4-8.4,0.7c-2.8,0-5.7,0-8.6,0     c-5.8,0-11.7,0.3-17.6-0.1c-5.9-0.3-11.7-0.5-17.6-0.8c-2.9-0.1-5.8-0.3-8.7-0.5c-2.8-0.1-5.6-0.3-8.4-0.5     c-5.5-0.3-10.8-0.8-15.8-1.5c-5-0.6-9.6-1.6-13.9-2.6c-1.9-0.5-3.7-1-5.4-1.6c-1.4-1.4-2.7-2.8-3.9-4.2     C303.7,410.3,297.3,401.1,293.9,394.2z" fill="#FFFFFF"/><path d="M298.7,375.6c-3.6-3.7-6-8-7.4-12.2c-0.2-0.5-0.4-1.1-0.5-1.6c-0.1-0.5-0.3-1-0.4-1.4c-0.1-0.5-0.2-1-0.3-1.4     c0.1,0.1,0.2,0.3,0.3,0.4c1.1,1.6,2.6,2.7,4,4.1c1.5,1.2,3.1,2.4,4.8,3.4c1.7,1,3.5,2,5.5,2.7c1.9,0.9,3.9,1.4,5.9,2.1     c4.1,1,8.3,1.7,12.5,1.8c2.1,0.1,4.2,0,6.4-0.2c2.1,0,4.3-0.7,6.3-1.1c1.5-0.4,3-0.7,4.4-1c0.3-0.1,0.6-0.1,0.8-0.2     c0.2-0.1,0.4-0.1,0.6-0.1c2-0.5,3.8-0.9,5.7-1.3c3.7-0.8,7.4-1.5,10.8-1.9c3.4-0.4,6.7-0.5,9.6-0.3c2.9,0.3,5.5,0.9,7.4,2.1     c1.4,0.8,2.4,2,3.1,3.1c0.3,0.4,0.5,0.9,0.8,1.3c0,0,0,0.1,0.1,0.1l-0.3,4.2c-0.5,1.7-1,3.3-1.7,5l-1,2.6     c-0.1,0.5-0.4,0.8-0.6,1.1l-0.3,0.4c-0.7,1-1.7,1.8-2.8,2.5c-2.2,1.4-4.9,2.2-7.6,2.7c-4.1,0.8-8.4,0.9-12.6,0.7     c-4.2-0.2-8.4-0.7-12.5-1.3c-8.1-1.3-16-3.3-23.1-5.6C309.4,383.7,303.2,380.1,298.7,375.6z"/><path d="M276.4,164.2c1-0.9,2-1.4,2.2-1.6c0,0,0,0,0,0h0.5c0.1,0,0.2,0,0.3,0c0.5,0,1.2,0.2,1.9,0.5c1.5,0.7,3.2,2.3,4.3,4.9     c0.6,1.3,1.1,2.8,1.4,4.4c0.3,1.6,0.5,3.3,0.4,5.1c0,0.9-0.1,1.8-0.3,2.7c-0.2,0.9-0.4,1.7-0.7,2.5c-0.7,1.6-1.7,2.6-2.9,2.8     c-1.4,0.2-2.8-0.4-3.9-1.4c-0.5-0.6-1.1-1.3-1.5-2.1c-0.5-0.8-1-1.6-1.3-2.4c-0.8-1.6-1.3-3.3-1.7-4.9c-0.4-1.6-0.5-3.1-0.6-4.5     C274.4,167.5,275.2,165.4,276.4,164.2z"/><path d="M289.3,685.8c-3.7,7.8-7.4,15.7-11.2,23.6l0.3-1.2l1.4-5.7c1.9-7.6,3.8-15.2,5.7-22.8     c1.9-7.5,3.8-15,5.6-22.4c1.8-7.4,3.7-14.7,5.5-21.9c3.7-14.3,7.4-28.2,10.8-41.3c3.4-13.1,6.7-25.6,9.7-37     c0.8-2.9,1.5-5.7,2.2-8.4c0.8-2.7,1.6-5.4,2.3-8c1.4-5.2,2.9-10.1,4.2-14.7c2.6-9.3,4.9-17.4,6.7-24c0.5-1.9,1-3.8,1.5-5.4     c4.9,3.2,10.1,5.9,15.6,8c5.8,2.2,11.9,4,18.1,5c-1.1,2.4-2.4,5.2-3.7,8.3c-5.6,12.6-13.6,30.7-23,52.5     c-4.6,10.9-9.8,22.7-15.3,35.1c-5.5,12.4-11.3,25.5-17.2,39.1c-3,6.8-5.9,13.7-9.3,20.6C295.9,671.8,292.6,678.8,289.3,685.8z" fill="#BCBEC0"/><path d="M278.7,162.6c0,0,0.1,0,0.4,0L278.7,162.6C278.6,162.7,278.6,162.7,278.7,162.6c-0.3,0-1.3-0.1-2.9,0.5     c-1.9,0.8-4,3.5-4.2,7c-0.2,1.7,0,3.5,0.3,5.4c0.4,1.8,0.9,3.8,1.8,5.7c0.4,1,0.8,1.8,1.4,2.8c0.5,0.9,1.2,1.8,2,2.8     c1.7,1.8,4.5,3,7.2,2.5c1.4-0.2,2.8-0.9,3.7-1.9c0.9-1,1.6-2.1,2-3.2c0.4-1.1,0.7-2.2,0.8-3.3c0.1-1.1,0.2-2.2,0.2-3.2     c-0.1-2.1-0.4-4.1-0.9-5.9c-0.5-1.8-1.2-3.5-2-4.9c-1.7-2.9-4.4-4.6-6.4-4.7c-1-0.1-1.7,0.1-2.2,0.3     C278.9,162.6,278.7,162.6,278.7,162.6z M268.1,141.6c1-0.4,1.7-0.7,2-0.8l0.1,0c0,0,0.8,0,2.2-0.1c0.7-0.1,1.6,0,2.7,0.1     c1,0,2.2,0.3,3.5,0.6c2.5,0.7,5.6,2,8.3,4.5c2.8,2.4,5.5,5.7,7.7,9.7c2.2,4,4.1,8.7,5.4,13.8c1.3,5.1,2,10.6,2,16.4     c0,2.9-0.3,5.8-0.8,8.6c-0.5,2.9-1.3,5.7-2.5,8.4c-2.4,5.2-6.6,9.8-12.3,10.4c-5.6,0.8-11.5-1.3-15.6-5.1c-2.1-2-3.9-4.3-5.4-6.8     c-1.6-2.5-3.1-5-4.4-7.6c-2.5-5.1-4.4-10.4-5.6-15.5c-1.2-5.1-1.7-10.1-1.6-14.6c0-9.2,4.2-16.1,8.7-19c1.2-0.7,2.2-1.3,3.1-1.8     C266.6,142.1,267.5,141.9,268.1,141.6z" fill="#5D9DC1"/><path d="M210.6,183.6c1.8,7,4.4,14.5,8.1,22c3.8,7.4,8.7,15,15.3,21.4c1.8,1.5,3.4,3.2,5.3,4.6     c2,1.3,3.9,2.6,5.9,3.9c2.2,1,4.4,2,6.6,3c2.2,0.8,4.6,1.3,7,2c9.5,2.3,20.2,1.4,29-3.7c8.8-5,15.1-13.6,18.5-22.6     c1.8-4.6,2.8-9.2,3.8-13.7c0.4-2.3,0.8-4.6,1.2-6.9c0.2-2.3,0.3-4.6,0.5-7c0.1-9.3-2-17.9-4.5-25.9c-0.7-2-1.4-3.9-2.1-5.8     c-0.8-1.8-1.7-3.6-2.5-5.4c-1-2.2-2-4.3-3.1-6.3c0.9,1.1,1.7,2.1,2.4,3c1.4,1.9,2.5,3.4,3.3,4.4c0.8,1,1.2,1.5,1.2,1.5     s-0.2-0.7-0.6-1.8c-0.4-1.2-1-3-2-5.2c-0.4-0.8-0.8-1.7-1.2-2.6l8.1-1.4c1.6,3.4,3.1,6.8,4.4,10.4c1.5,3.4,2.6,7,3.7,10.5     c0.6,1.7,1.1,3.5,1.4,5.3c0.4,1.8,0.8,3.5,1.2,5.3c0.4,3.6,0.8,6.9,0.9,10.5c0.1,3.6,0.3,7.1,0.3,10.4c0,1.7-0.2,3.3-0.3,4.9     c-0.2,1.7-0.4,3.3-0.6,4.9c-0.8,6.4-1.9,12.4-3.7,17.6c-1.8,5.2-4.3,9.7-7.1,13.2c-1.9,2.4-4,4.3-5.9,5.8c-0.3,0.3-0.7,0.5-1,0.8     c-0.6,0.4-1.2,0.8-1.7,1.2c-2.8,1.7-5.1,2.9-6.8,3.5c-1.6,0.7-2.5,1.1-2.5,1.1s0.9-0.2,2.6-0.7c1.8-0.4,4.2-1.3,7.3-2.8     c0.8-0.4,1.7-0.9,2.6-1.5c4.1,2.6,9.4,7,14.6,13.4c2.6,3.2,5.1,6.8,7.6,10.9c2.4,4.1,4.6,8.5,6.7,13.3c1,2.4,2,4.8,2.9,7.4     c0.9,2.5,1.8,5.1,2.6,7.7c1.8,5.2,3.7,10.5,5.5,15.8c0.9,2.7,1.8,5.1,2.5,7.8c0.7,2.7,1.4,5.4,2.2,8c0.8,2.7,1.7,5.4,3,7.9     c0.6,1,1.1,2.1,1.8,3c-0.3,0.6-0.7,1.2-0.9,1.9c-0.3,0.7-0.6,1.3-0.9,1.9c-0.3,0.7-0.6,1.3-0.9,2c-0.6,1.3-1.2,2.7-1.8,4.1     c-0.6,1.3-1.2,2.7-1.8,4.1c-0.3,0.7-0.6,1.4-0.9,2c-0.3,0.7-0.5,1.3-0.8,2c-0.5,1.3-1.1,2.6-1.5,3.8c-0.5,1.2-0.9,2.4-1.3,3.4     c-0.8,2.1-1.2,3.9-1.4,5.3c-0.5,0.1-1.1,0.2-1.7,0.4c-0.1,0-0.3,0-0.4,0.1c-0.1-0.5-0.2-1.1-0.3-1.7c-0.8-5.7-1.7-12.7-3.1-20.6     c-0.7-4-1.3-8.3-2.2-12.7c-1.1-4.4-2.1-9.1-3.3-13.9c-2.8-9.5-5.9-19.8-10.6-30.4c-2.4-5.2-5.2-10.5-9.1-15.3     c-3.7-4.9-9.1-9.1-15.1-11.2c-1.5-0.6-2.9-1.2-4.4-1.7c-1.5-0.5-3-0.9-4.6-1.4c-3-1-6.2-1.7-9.3-2.5c-3.1-0.8-6.2-1.5-9.4-2.2     c-3.2-0.7-6.3-1.3-9.4-2.1c-6.2-1.5-12.4-3.4-18-6.5c-5.7-2.9-10.5-7.1-15-11.8c-4.6-4.6-8.7-9.7-12.3-15c-3.7-5.3-6.7-11-9-16.9     c-1.2-2.9-2.1-6-2.9-9c-0.7-3.1-1.2-6.2-1.8-9.3c-0.2-1.5-0.6-3-0.8-4.6l-0.3-3.9l5.5-0.4c0.5,4.7,1.4,8.7,2.1,11.7     c0.6,2.3,1.2,4.1,1.6,5.3c0.4,1.2,0.7,1.8,0.7,1.8s0-0.7,0.1-2c0-1.3,0.1-3.2,0.2-5.5c0-1.3,0.1-2.8,0.1-4.4     C210.2,181.9,210.4,182.7,210.6,183.6z" fill="#BCBEC0"/><path d="M220,124c-2.1,2.2-3.8,4.4-5.4,6.7c-1.6,2.3-2.9,4.7-4,7.2c-0.9,1.9-1.7,3.8-2.3,5.8     c-0.4,1.2-0.8,2.5-1.1,3.7c0,0,0,0.1,0,0.1c-0.5,1.7-0.9,3.4-1.2,5.1c-0.9,4.8-1.3,9.3-1.3,13.5c0,2.1,0.1,4.1,0.3,5.9     c0.1,0.7,0.1,1.4,0.2,2.1l-5.5,0.4l-0.1-0.8c0-0.4-0.1-0.8-0.1-1.2c-0.2-2.7-0.5-5.3-0.5-8c0.2-6.1,0.1-12.1,1.3-17.9     c0.6-5.8,2.2-11.3,3.9-16.6c3.5-10.5,9.8-19.5,16.1-26.5c3.5-3.2,7.6-5.3,11.7-6.9c4.1-1.6,8.2-2.5,12.1-3.1     c2.6-0.4,5.1-0.7,7.6-0.8c5.2,0.7,10.8,1.8,16.4,3.7c6,2.1,12.2,5,17.5,9.4c1.3,1.1,2.7,2.1,4,3.4c1.2,1.3,2.5,2.5,3.7,3.8     c2.3,2.8,4.6,5.5,6.6,8.6c3.1,4.6,5.9,9.4,8.4,14.4c0.8,1.7,1.7,3.3,2.4,5l-8.1,1.4c-0.4-0.9-0.9-2-1.5-3     c-1.9-3.4-4.5-7.3-8.1-11.2c-0.8-0.7-1.5-1.5-2.3-2.3c-0.8-0.7-1.7-1.4-2.6-2.1c-0.9-0.7-1.8-1.4-2.8-2.1c-0.8-0.5-1.6-1-2.5-1.5     c-0.2-0.1-0.4-0.3-0.6-0.4c-1.8-1.2-3.9-2.1-6-3c0,0,0,0,0,0c-0.2-0.1-0.5-0.2-0.7-0.3c-1.2-0.6-2.4-1.1-3.6-1.4     c-1.3-0.4-2.5-0.8-3.8-1.1c-2.5-0.7-5.2-1.2-7.9-1.6c-2.7-0.4-5.5-0.5-8.3-0.5c-5.6,0-11.4,1-16.9,2.9     C229.4,116.7,224.1,119.7,220,124z" fill="#BCBEC0"/><path d="M210.4,64.6c-2,1.3-4,2.5-5.9,3.8c-1.8,1.4-3.5,3-5.2,4.4c-1.6,1.6-2.9,3.3-4.3,4.9c-0.9,1.3-1.8,2.5-2.7,3.8     c0.2-0.7,0.4-1.5,0.7-2.3c1.2-3.7,2.5-7.7,4.4-11.6c1.8-4,4.3-7.9,7.2-11.6c0.8-0.9,1.6-1.8,2.4-2.6c0.8-0.9,1.8-1.6,2.7-2.4     c0.9-0.8,1.8-1.5,2.9-2.2c1.1-0.6,2-1.4,3.1-1.9c4.3-2.4,9.2-3.3,14.2-3.7c5.1-0.3,10.2,0.3,15.1,1.2c2.5,0.6,4.9,1.1,7.2,2     c2.4,0.7,4.6,1.7,6.8,2.7c4.3,2.1,8.4,4.4,11.8,7.1c3.4,2.4,6.2,5.2,8.8,7.8c-2.4-1.4-5-2.7-7.9-3.8c-3.9-1.6-8.1-2.8-12.6-3.8     c-2.2-0.3-4.5-0.7-6.9-0.9c-2.4-0.1-4.7-0.4-7.1-0.2c-2.4,0-4.9,0.2-7.2,0.5c-2.4,0.2-4.8,0.8-7.2,1.3c-2.4,0.4-4.7,1.3-7,2     c-2.3,0.8-4.5,1.7-6.8,2.6C214.6,62.6,212.5,63.6,210.4,64.6z"/><path d="M357.4,457.3c2.1,0.7,4.2,1.2,6.4,1.7c2.2,0.5,4.4,0.9,6.6,1.3c8.9,1.4,18,1.8,27,1.4     c4.5-0.2,9.1-0.6,13.5-1.2c2.2-0.2,4.5-0.7,6.7-0.9c2.2-0.5,4.4-1,6.6-1.5c2.2-0.4,4.3-1.3,6.4-2l3.2-1.1l3-1.3     c4.1-1.7,7.9-3.8,11.6-6c7.2-4.6,13.5-10.1,18.8-15.8c3-3.2,5.7-6.5,8.1-9.7c0.2-0.3,0.4-0.5,0.6-0.8c1.7-2.3,3.2-4.6,4.7-6.8     c7.2-11.5,11.8-21.8,14.7-29.1c0.2-0.4,0.4-0.9,0.5-1.3c3-2.1,5.7-4.1,7.8-5.8c2.6-2.1,4.4-4.1,5.7-5.2c1-0.9,1.6-1.6,1.8-1.8     c-0.3,0.2-1,0.8-2.1,1.6c-1.4,1-3.5,2.7-6.2,4.6c-1.8,1.2-3.8,2.4-6,3.8c-0.4,0.2-0.8,0.5-1.2,0.7c-4.6,2.8-10.2,5.9-16.7,8.8     c-5.2,2.4-10.8,4.9-16.9,7c-3,1.2-6.2,2.2-9.5,3.2c-3.2,1.1-6.6,1.9-10,2.8c-3.4,0.9-7,1.3-10.6,2c-3.6,0.6-7.2,1.3-10.9,1.9     c-7.4,0.8-14.9,1.9-22.5,2.5c-3.8,0.2-7.5,0.3-11.3,0.5c-3.8,0.1-7.5,0.5-11.2,0.1c-3.7-0.2-7.4-0.3-11-0.5     c-1.8-0.1-3.7-0.2-5.4-0.3c-1.8-0.2-3.6-0.4-5.4-0.7c-3.5-0.4-7-0.9-10.4-1.4c-3.4-0.5-6.7-1-9.8-1.7c-6.4-1.2-12.1-3.2-17.6-4.7     c-2.5-1.2-5-2.3-7.3-3.4c-2.4-1-4.4-2.5-6.4-3.5c-4.1-2.3-7.6-4.3-10.5-5.9c-0.5-0.3-1.1-0.5-1.6-0.8c-0.3-0.1-0.5-0.3-0.7-0.4     c-1.9-0.9-3.5-1.6-4.7-2.1c-1.4-0.6-2.3-1-2.5-1c0.4,0.2,3.1,1.8,7.6,4.7c0.5,1.6,1.1,3.5,2.2,5.6c2.9,7.3,8.8,17.1,17.5,27.4     c0,0,0,0,0.1,0.1c1.1,1.4,2.4,2.8,3.6,4.1c1.1,1.2,2.3,2.5,3.4,3.7c2.6,2.6,5.3,5.3,8.1,7.9c2.9,2.6,5.7,5.3,9,7.9     c1.6,1.3,3.4,2.4,5.1,3.6c1.8,1.1,3.7,2.1,5.6,3.1C349.1,454.4,353.2,456.1,357.4,457.3z M271.8,355.9c1.9-1.1,4.1-1.1,6.2-0.5     c4,1.3,7.3,3.8,10.3,5.9c0.9,5.4,3.6,11.3,8.2,16.4c4.8,5.2,11.5,9,18.9,11.6c7.4,2.6,15.3,4.6,23.7,6c4.2,0.7,8.5,1.2,12.9,1.5     c4.4,0.2,8.9,0.1,13.5-0.7c3-0.6,6.1-1.5,9-3.3c1.4-0.9,2.8-2,3.8-3.4l0.3-0.4c0.1,0-0.2-0.2,0.6,0.8c1.1,1.4,2.5,2.4,3.9,3.2     c4.3,2.5,9,3.4,13.5,4c4.6,0.5,9.1,0.6,13.5,0.4c4.5-0.2,8.9-0.6,13.2-1.2c4.3-0.6,8.5-1.4,12.7-2.4c8.2-1.9,16.3-4.4,22.9-9     c6.6-4.4,11.5-10.6,14.2-17c0.3-0.8,0.6-1.5,0.9-2.2c2.4-1.4,5.1-3,8-4.7c3.3-1.9,6.9-3.9,11-5.9c4.1-1.8,8.7-3.7,13.7-3.8     c2.5,0,5,0.5,7.1,1.9c2.1,1.3,3.9,3.5,5.4,5.9c2,3.4,3,7.6,3,11.9c0.1,1.7,0,3.5-0.2,5.3c-1.6,12.6-7.5,25.5-14.6,38.4     c-3.6,6.5-7.6,12.9-11.7,19.6c-4,6.7-8.3,13.4-13,19.9c-4.7,6.6-9.7,13-15.5,18.9c-5.7,6-11.9,11.5-18.9,16.1     c-7,4.6-14.6,8.4-22.7,10.7c-2.2,0.6-4.3,1.2-6.6,1.7c-0.3,0.1-0.6,0.1-0.9,0.2c-5.8,1.4-11.7,2.6-17.6,3.5     c-8,1.2-16.2,1.7-24.2,1.2c-0.2,0-0.5,0-0.7,0c-2.1-0.1-4.1-0.3-6.2-0.6c-0.2,0-0.4,0-0.5-0.1c-6.3-0.9-12.5-2.4-18.4-4.8     c-5.6-2.1-11-4.9-15.9-8.3c-0.2-0.1-0.4-0.2-0.5-0.4c-1.7-1.1-3.3-2.3-4.9-3.6c-6.4-5.1-12.1-11-16.9-17.4     c-2.5-3.1-5.1-6.2-7.5-9.3c-2.5-3.1-4.7-6.3-7-9.5c-4.6-6.3-9.2-12.4-12.8-18.8c-7.5-12.7-12.3-25.9-15.4-38.4     c-0.8-3.1-1.5-6.2-2-9.2c-0.6-3-1.1-6-1.4-8.9c-0.6-5.8-0.6-11.4,1.2-16.1C268.4,358.9,269.9,357,271.8,355.9z" fill="#AA6A6A"/><path d="M502.7,78.9c2.2-1.4,4.6-3,7.5-4.2c3.3-1.7,7-2.9,11-4.1c2-0.5,4.1-1.1,6.2-1.6c2.1-0.4,4.3-0.8,6.6-1.2     c2.2-0.3,4.5-0.5,6.8-0.8c2.3-0.2,4.6-0.6,7-0.7c4.7-0.4,9.7-0.3,14.6,0.3c4.9,0.7,9.7,1.8,14.1,4.1c1.1,0.5,2.2,1,3.3,1.7     c1,0.7,2,1.4,3,2.1c2,1.3,3.7,3,5.4,4.5c3.3,3.1,6.2,6.6,8.5,10c1.3,1.7,2.2,3.5,3.2,5.2c0.5,0.8,1,1.7,1.4,2.5     c0.4,0.9,0.8,1.7,1.2,2.5c1,2.1,1.8,4.2,2.5,6.1c-0.4-2.4-0.8-4.9-1.4-7.6c-0.8-4-2.1-8.3-3.7-12.7c-0.8-2.2-1.9-4.3-2.9-6.6     c-1.3-2.1-2.3-4.4-3.9-6.4c-0.7-1-1.4-2.1-2.2-3.1c-0.8-0.9-1.7-1.9-2.5-2.9c-0.8-1-1.8-1.8-2.8-2.8c-1-0.8-1.8-1.8-3-2.5     c-4.1-3.3-8.9-5.7-13.9-7.6c-1.3-0.4-2.6-0.7-3.8-1.1c-1.3-0.3-2.6-0.8-3.9-0.9c-2.5-0.5-5.2-0.4-7.8-0.4     c-1.3,0.1-2.6,0.3-3.9,0.4c-1.3,0.2-2.6,0.5-3.9,0.7c-2.5,0.5-5,1.2-7.4,2c-4.8,1.6-9.3,3.8-13.4,6c-4,2.4-7.7,4.8-10.8,7.4     C508.9,71.3,505.2,75.4,502.7,78.9z M499.7,81.1c1.9-4.5,5.9-10.5,12.2-16.1c3.1-2.9,7-5.5,11.1-8.1c4.2-2.4,8.8-4.7,13.9-6.5     c2.5-0.9,5.1-1.7,7.8-2.2c1.3-0.3,2.7-0.6,4.1-0.8c1.4-0.1,2.8-0.3,4.2-0.5c2.9-0.1,5.7-0.1,8.7,0.4c1.5,0.1,2.8,0.6,4.2,1     c1.4,0.4,2.8,0.7,4.1,1.2c5.4,2.1,10.6,4.7,15,8.3c1.2,0.8,2.1,1.8,3.2,2.8c1,1,2.1,1.9,2.9,3c0.9,1.1,1.8,2.1,2.6,3.2     c0.9,1.1,1.6,2.2,2.3,3.3c1.6,2.2,2.7,4.6,3.9,6.8c1,2.4,2.1,4.6,2.9,6.9c1.6,4.6,2.8,9.1,3.4,13.3c1.2,6.9,1.4,12.9,1.2,17.5     c0,1-0.1,1.9-0.1,2.7c0,0.4,0,0.8-0.1,1.2c-0.2-0.8-0.4-1.6-0.7-2.5c-0.2-0.5-0.4-1-0.5-1.6c0,0,0,0,0-0.1     c-1.3-3.8-3-8.7-5.9-14.1c-0.4-0.8-0.8-1.6-1.2-2.4c-0.5-0.8-0.9-1.6-1.4-2.4c-1-1.6-2-3.3-3.2-4.9c-2.4-3.2-5.1-6.4-8.3-9.3     c-1.7-1.3-3.3-2.9-5.1-4.1l-2.8-1.9c-1-0.5-2-1-3-1.4c-4-2-8.5-3-13-3.6c-4.6-0.5-9.2-0.6-13.8-0.3c-2.3,0.1-4.6,0.4-6.9,0.6     c-2.2,0.3-4.5,0.5-6.7,0.7c-2.2,0.4-4.3,0.7-6.4,1.1c-2.1,0.4-4.1,0.9-6,1.4c-3.8,1.1-7.5,2.2-10.7,3.6c-3.3,1.2-6,2.8-8.6,4.1     c-1,0.6-2,1.2-2.9,1.8c-0.5,0.3-1.1,0.7-1.5,1c0.3-0.9,0.8-1.8,1.2-2.9C499.6,81.3,499.7,81.2,499.7,81.1z"/><path d="M498.3,188.3c0-2.2,0.4-4.3,0.9-6.3c0.5-1.9,1.3-3.7,2.3-5.2c1.9-3.1,4.9-4.8,7-4.8c1-0.1,1.8,0.1,2.4,0.3     c0.5,0.2,0.8,0.3,0.8,0.3s-0.1,0-0.2,0c-0.1,0-0.3,0-0.6,0c-0.5,0-1.3,0.2-2.1,0.5c-1.7,0.6-3.6,2.4-4.9,5.1     c-0.7,1.4-1.3,2.9-1.7,4.7c-0.4,1.7-0.6,3.6-0.5,5.5c0,0.9,0.1,1.9,0.3,2.8c0.2,0.9,0.4,1.8,0.8,2.6c0.8,1.6,1.9,2.8,3.4,2.9     c1.6,0.3,3.2-0.4,4.4-1.5c0.6-0.6,1.2-1.3,1.7-2.1c0.5-0.8,1.1-1.7,1.5-2.5c0.9-1.7,1.5-3.5,2-5.2c0.4-1.7,0.6-3.4,0.7-4.9     c0.1-3-0.9-5.2-2.3-6.4c-1.1-1-2.1-1.4-2.4-1.6c0.3,0,1.4-0.1,3.1,0.5c2,0.7,4.3,3.6,4.6,7.3c0.2,1.8,0,3.7-0.4,5.7     c-0.4,2-1,4-2,6c-0.5,1.1-1,2-1.6,3c-0.6,1-1.3,2-2.2,2.9c-1.9,1.9-4.8,3-7.6,2.5c-1.4-0.2-2.9-0.9-3.9-1.9c-1-1-1.7-2.1-2.2-3.3     c-0.5-1.2-0.8-2.4-0.9-3.5C498.4,190.5,498.3,189.4,498.3,188.3z"/><path d="M486.6,205.9c0.6,3.1,1.5,6.1,2.8,8.9c2.6,5.5,7.4,10.3,13.6,10.8c6.1,0.9,12.5-1.2,17.1-5.2c1.2-0.9,2.2-2.2,3.3-3.3     c0.9-1.3,2-2.4,2.8-3.8c1.8-2.6,3.4-5.3,4.9-8c2.9-5.4,5-11.1,6.3-16.5c1.4-5.5,2-10.8,1.8-15.7c-0.1-9.8-5-17.1-10-20.1     c-1.2-0.7-2.4-1.3-3.3-1.9c-1-0.4-2-0.7-2.7-1c-1.1-0.4-1.8-0.7-2.1-0.8c0.3,0,1.1,0.2,2.2,0.4c0.8,0.1,1.7,0.3,2.9,0.6     c1.1,0.4,2.4,0.9,3.7,1.5c5.5,2.4,11.8,10.4,12.3,21c0.4,5.2-0.3,10.9-1.6,16.6c-1.3,5.8-3.4,11.7-6.4,17.4     c-1.5,2.9-3.2,5.7-5,8.4c-0.9,1.4-2,2.7-3,4.1c-1.2,1.2-2.3,2.6-3.7,3.7c-5.3,4.7-12.9,7.2-20.1,6.1c-3.7-0.4-7.3-2-10-4.5     c-2.8-2.4-4.9-5.4-6.4-8.6c-1.4-3.2-2.4-6.5-2.9-9.9c-0.5-3.3-0.8-6.6-0.8-9.8c0.1-6.5,1-12.7,2.7-18.4c1.7-5.7,4-10.9,6.8-15.2     c5.6-8.8,13.8-13.6,19.9-14.2c0.8-0.1,1.4-0.2,2.1-0.3c0.7,0,1.3,0,1.9,0c1.2,0,2.1,0.1,2.9,0.3c1.6,0.3,2.4,0.5,2.4,0.5     s-0.8,0-2.4-0.1c-0.8-0.1-1.7-0.1-2.9,0.1c-0.3,0-0.6,0-0.9,0.1c-0.3,0-0.6,0-0.9,0.1c-0.6,0.1-1.3,0.3-2,0.4     c-5.7,1.1-12.8,6-17.8,14.5c-2.5,4.2-4.6,9.2-6.1,14.6c-1.5,5.5-2.3,11.4-2.2,17.6C485.7,199.7,486,202.8,486.6,205.9z"/><path d="M482.2,160.8c-1.9,5.8-3.7,12.1-5.3,18.8c-1.6,6.8-3.4,13.9-3.5,21.3c-0.1,3.7,0.1,7.5,0.9,11.1c0.7,3.7,2,7.3,3.9,10.6     c1.8,3.3,4.3,6.3,7.2,8.8c2.9,2.6,6.2,4.7,9.8,6.3c3.5,1.8,7.3,2.9,11.2,3.7l2.9,0.7l2.9,0.3c1.9,0.1,3.9,0.5,5.8,0.3     c1.9-0.1,3.8-0.1,5.7-0.4c1.9-0.4,3.7-0.8,5.6-1.2c1.8-0.7,3.5-1.3,5.3-1.9c1.7-0.7,3.3-1.7,5-2.5c6.3-3.7,12.2-8.3,16.6-13.5     c1.2-1.2,2.3-2.5,3.2-3.9c1-1.3,2-2.7,2.9-4c1.7-2.8,3.3-5.5,4.8-8.1c4.1-7.6,6.7-14.9,8.4-20.9c-0.3-2.9-0.8-6-1.3-9.3     c-0.7-4.2-1.6-8.7-2.8-13.4c-1.2-4.7-2.9-9.3-5.4-13.8c-1.2-2.2-2.7-4.3-4.3-6.4c-1.6-2-3.4-3.9-5.4-5.6c-3.9-3.4-8.5-6-13.6-7.5     c-5-1.5-10.3-1.8-15.5-1.2c-2.6,0.3-5.2,0.9-7.7,1.6c-2.5,0.7-5,1.6-7.4,2.6c-4.7,2-9.2,4.4-13.1,7.1c-3.9,2.6-7.4,5.6-10.4,8.4     c-1.2,1.2-2.3,2.3-3.3,3.5C484.2,155.1,483.2,157.8,482.2,160.8z M478.7,152.8c1.5-2.6,3.3-5.2,5.5-7.9c1.7-2,3.7-3.9,5.8-5.8     c1.6-1.4,3.2-2.7,4.9-3.9c0,0,0-0.1,0.1-0.1h0c4.2-3.1,8.9-5.9,14.2-8.1c2.6-1.2,5.3-2.2,8.1-3.1c2.9-0.8,5.8-1.6,8.8-1.9     c6.1-0.9,12.6-0.5,18.6,1.3c6.1,1.8,11.7,5.1,16.3,9.3c2.3,2.1,4.3,4.4,6.1,6.8c1.8,2.4,3.3,4.9,4.6,7.5     c2.6,5.1,4.3,10.5,5.4,15.5c1,5,1.8,9.7,2.1,14.2c0.7,8.8,0.1,16.3-1.2,21.4c-0.5,2.5-1.4,4.4-1.9,5.7c-0.6,1.3-0.9,1.9-0.9,1.9     s0.1-0.7,0.2-2.1c0.2-1.4,0.5-3.3,0.4-5.8c0-1.8,0-3.8-0.1-6.1c-1.3,5.2-3.4,11-6.4,17.1c-1.4,2.8-3,5.6-4.7,8.4     c-1,1.4-2,2.8-2.9,4.2c-0.9,1.4-2.1,2.8-3.3,4.1c-4.6,5.5-10.5,10.3-17.2,14.4c-1.7,0.9-3.4,2-5.3,2.8c-1.9,0.7-3.8,1.4-5.7,2.2     c-2,0.4-4,0.9-6,1.3c-2,0.4-4.1,0.3-6.2,0.5c-2.1,0.3-4.2-0.1-6.3-0.3l-3.1-0.3l-3.1-0.7c-4.1-0.9-8.1-2.1-12-3.9     c-3.8-1.7-7.5-4.1-10.6-6.9c-3.3-2.8-6-6.1-8-9.8c-2.1-3.7-3.5-7.6-4.2-11.7c-0.8-4-1-8.1-0.9-12c0.3-7.9,2.3-15.2,3.9-22     c1.6-6.2,3.3-12.1,5.2-17.5c-0.8,1.3-1.5,2.6-2,3.8c-1,2.3-1.8,4.1-2.1,5.4c-0.5,1.3-0.7,2-0.7,2s0-0.7-0.1-2.1     c-0.1-1.4,0.1-3.4,0.5-6C474.9,161.1,476.3,157.1,478.7,152.8z"/><path d="M320.8,428.8c2.2,2.2,4.5,4.4,7,6.6c2.9,2.5,5.8,5.3,8.8,7.6c1.5,1.3,3.3,2.2,4.9,3.4c1.7,1,3.5,2,5.3,2.9     c3.7,1.7,7.6,3.3,11.7,4.4c2,0.6,4.1,1.2,6.2,1.6c2.1,0.5,4.2,0.9,6.3,1.2c8.6,1.3,17.5,1.7,26.3,1.3c4.4-0.2,8.8-0.5,13.2-1     c2.2-0.2,4.4-0.6,6.5-0.9c2.1-0.4,4.2-0.9,6.3-1.4c2.1-0.4,4.2-1.2,6.2-1.8l3-1l2.9-1.3c3.9-1.5,7.6-3.6,11.2-5.6     c7.1-4.3,13.1-9.6,18.4-15c1.7-1.8,3.4-3.6,4.9-5.4c-4.7,1.8-11.1,3.9-18.7,5.9c-4.4,0.8-9.2,1.7-14.2,2.6     c-1.3,0.2-2.6,0.5-3.8,0.7c-1.3,0.2-2.6,0.3-4,0.4c-2.7,0.3-5.4,0.5-8.2,0.8c-2.8,0.3-5.6,0.5-8.5,0.8c-2.9,0.1-5.8,0.1-8.7,0.2     c-5.9,0.1-11.8,0.4-17.8,0c-5.9-0.3-11.9-0.5-17.7-0.9c-2.9-0.2-5.8-0.4-8.7-0.5c-2.9-0.2-5.7-0.4-8.4-0.5c-5.6-0.4-11-1-16-1.8     c-5.1-0.7-9.9-1.8-14.2-3.1C321,428.9,320.9,428.9,320.8,428.8z M291.6,389.7c0.5,1.3,1.3,2.9,2.2,4.5c3.4,7,9.9,16.2,18.7,26.1     c1.2,1.4,2.5,2.8,3.9,4.2c1.7,0.6,3.5,1.1,5.4,1.6c4.2,1,8.9,2,13.9,2.6c5,0.7,10.3,1.2,15.8,1.5c2.8,0.1,5.6,0.3,8.4,0.5     c2.9,0.1,5.8,0.3,8.7,0.5c5.9,0.4,11.7,0.5,17.6,0.8c5.9,0.4,11.8,0.1,17.6,0.1c2.9,0,5.8,0,8.6,0c2.9-0.2,5.7-0.4,8.4-0.7     c2.8-0.2,5.4-0.4,8.1-0.6c1.3-0.1,2.6-0.2,3.9-0.3c1.3-0.2,2.5-0.4,3.8-0.6c5-0.8,9.7-1.6,14.1-2.2c8.6-1.9,15.8-3.6,20.7-5.1     c2.6-3.2,4.9-6.4,7-9.5c7.4-11,12.4-20.9,15.9-27.8c-4,2.6-8.6,5.4-13.9,8c-5.2,2.6-10.9,5.1-17.1,7.5c-3,1.3-6.3,2.3-9.6,3.4     c-3.3,1.2-6.7,2-10.2,3c-3.5,1-7.1,1.4-10.7,2.2c-3.7,0.7-7.3,1.3-11,2c-7.5,0.9-15.1,2-22.7,2.7c-3.8,0.1-7.6,0.3-11.5,0.5     c-3.8,0.1-7.6,0.5-11.4,0.1c-3.8-0.2-7.6-0.4-11.3-0.6c-1.8-0.1-3.7-0.2-5.5-0.3c-1.8-0.2-3.6-0.5-5.4-0.7     c-3.5-0.4-7.1-0.9-10.5-1.6c-3.4-0.5-6.8-1.1-10-1.9c-6.5-1.3-12.5-3.3-18-5.2c-2.6-1.3-5.1-2.6-7.5-3.8     c-2.4-1.2-4.3-2.7-6.3-3.9c-3.9-2.6-7.2-4.9-10-6.8C291.8,389.8,291.7,389.7,291.6,389.7z M290.6,389c-4.5-2.8-7.2-4.4-7.6-4.7     c0.2,0.1,1.1,0.4,2.5,1c1.2,0.5,2.8,1.2,4.7,2.1c0.3,0.1,0.5,0.2,0.7,0.4c0.5,0.3,1,0.5,1.6,0.8c2.9,1.6,6.4,3.7,10.5,5.9     c2,1,4.1,2.5,6.4,3.5c2.3,1,4.7,2.2,7.3,3.4c5.4,1.6,11.2,3.6,17.6,4.7c3.2,0.8,6.5,1.2,9.8,1.7c3.4,0.5,6.8,1,10.4,1.4     c1.8,0.2,3.6,0.4,5.4,0.7c1.8,0.1,3.6,0.2,5.4,0.3c3.6,0.2,7.3,0.3,11,0.5c3.7,0.3,7.5,0,11.2-0.1c3.8-0.1,7.5-0.3,11.3-0.5     c7.6-0.6,15.1-1.6,22.5-2.5c3.7-0.7,7.3-1.3,10.9-1.9c3.6-0.7,7.2-1.1,10.6-2c3.4-0.9,6.8-1.7,10-2.8c3.3-1,6.4-2,9.5-3.2     c6.1-2.1,11.8-4.6,16.9-7c6.5-2.9,12.1-6,16.7-8.8c0.4-0.3,0.8-0.5,1.2-0.7c2.2-1.4,4.2-2.7,6-3.8c2.7-1.9,4.7-3.6,6.2-4.6     c1-0.8,1.8-1.3,2.1-1.6c-0.3,0.2-0.9,0.9-1.8,1.8c-1.3,1.2-3.2,3.1-5.7,5.2c-2.2,1.7-4.8,3.7-7.8,5.8c-0.2,0.4-0.4,0.9-0.5,1.3     c-2.9,7.3-7.5,17.6-14.7,29.1c-1.5,2.2-3,4.5-4.7,6.8c-0.2,0.2-0.4,0.5-0.6,0.8c-2.4,3.3-5.1,6.6-8.1,9.7     c-5.4,5.7-11.6,11.2-18.8,15.8c-3.7,2.2-7.5,4.3-11.6,6l-3,1.3l-3.2,1.1c-2.1,0.7-4.2,1.5-6.4,2c-2.2,0.5-4.4,1-6.6,1.5     c-2.2,0.3-4.5,0.7-6.7,0.9c-4.5,0.6-9,0.9-13.5,1.2c-9,0.4-18.1,0-27-1.4c-2.2-0.3-4.4-0.7-6.6-1.3c-2.2-0.4-4.3-1-6.4-1.7     c-4.2-1.2-8.3-2.9-12.2-4.7c-1.9-1-3.8-2-5.6-3.1c-1.7-1.2-3.5-2.3-5.1-3.6c-3.3-2.6-6.2-5.3-9-7.9c-2.8-2.6-5.5-5.3-8.1-7.9     c-1.2-1.3-2.3-2.5-3.4-3.7c-1.3-1.4-2.5-2.7-3.6-4.1c0,0,0,0-0.1-0.1c-8.7-10.3-14.7-20.1-17.5-27.4     C291.7,392.6,291,390.7,290.6,389z"/><path d="M271.5,170.1c0.2-3.4,2.3-6.2,4.2-7c1.6-0.7,2.6-0.5,2.9-0.5c-0.2,0.2-1.1,0.6-2.2,1.6c-1.2,1.2-2,3.3-1.9,6     c0.1,1.4,0.3,2.9,0.6,4.5c0.4,1.6,1,3.3,1.7,4.9c0.4,0.8,0.8,1.6,1.3,2.4c0.4,0.8,1,1.4,1.5,2.1c1.1,1.1,2.5,1.6,3.9,1.4     c1.3-0.1,2.2-1.2,2.9-2.8c0.3-0.8,0.5-1.6,0.7-2.5c0.1-0.9,0.3-1.8,0.3-2.7c0.1-1.8-0.1-3.5-0.4-5.1c-0.3-1.6-0.8-3.1-1.4-4.4     c-1.1-2.6-2.8-4.3-4.3-4.9c-0.8-0.3-1.4-0.5-1.9-0.5c-0.1,0-0.3,0-0.3,0c-0.3,0-0.4,0-0.4,0s0.3-0.1,0.7-0.3     c0.5-0.1,1.2-0.3,2.2-0.3c2,0.1,4.8,1.8,6.4,4.7c0.9,1.4,1.6,3.1,2,4.9c0.5,1.8,0.8,3.8,0.9,5.9c0,1,0,2.1-0.2,3.2     c-0.2,1.1-0.4,2.2-0.8,3.3c-0.4,1.1-1.1,2.2-2,3.2c-0.9,1-2.4,1.7-3.7,1.9c-2.7,0.5-5.5-0.7-7.2-2.5c-0.8-0.9-1.5-1.8-2-2.8     c-0.6-1-1-1.8-1.4-2.8c-0.9-1.9-1.4-3.8-1.8-5.7C271.5,173.7,271.3,171.8,271.5,170.1z"/><path d="M266.5,740.7c3.2-13,6.4-26.1,9.6-39.1c2-7.6,3.9-15.2,5.8-22.8c1.9-7.6,3.8-15,5.7-22.4c1.9-7.4,3.8-14.7,5.6-21.9     c3.8-14.3,7.6-28.1,11.1-41.3c3.5-13.1,6.9-25.5,10-37c0.8-2.9,1.6-5.7,2.3-8.4c0.8-2.7,1.7-5.4,2.5-7.9     c1.6-5.2,3.2-10.1,4.6-14.7c2.9-9.2,5.5-17.2,7.6-23.8c0.6-1.9,1.2-3.7,1.7-5.4l0.8,0.3c-0.5,1.7-0.9,3.5-1.5,5.4     c-1.8,6.7-4.1,14.7-6.7,24c-1.3,4.6-2.8,9.5-4.2,14.7c-0.8,2.6-1.5,5.3-2.3,8c-0.7,2.8-1.4,5.5-2.2,8.4c-3,11.5-6.2,23.9-9.7,37     c-3.4,13.1-7.1,27-10.8,41.3c-1.8,7.2-3.6,14.5-5.5,21.9c-1.8,7.4-3.7,14.9-5.6,22.4c-1.9,7.6-3.8,15.2-5.7,22.8l-1.4,5.7     l-0.3,1.2c3.7-7.9,7.5-15.8,11.2-23.6c3.3-7,6.7-14,9.9-20.9c3.4-6.8,6.3-13.8,9.3-20.6c6-13.5,11.8-26.6,17.2-39.1     c5.5-12.5,10.7-24.2,15.3-35.1c9.3-21.8,17.4-39.9,23-52.5c1.4-3.1,2.6-5.9,3.7-8.3l0.7,0.1c-0.9,2.5-2,5.4-3.3,8.7     c-5,12.9-12.3,31.2-21.3,53.2c-4.4,11-9.6,22.8-15,35.2c-5.4,12.5-11.1,25.6-17,39.2c-3,6.8-5.8,13.8-9.2,20.6     c-3.3,6.9-6.6,13.9-9.9,20.9c-3.3,7.1-6.7,14.2-10,21.3c-3,6.3-6,12.7-9,19.1l-5.1,10.7l-2.5,5.4c-0.2,0.4-0.5,1-0.6,1.2l0.4-1.4     L266.5,740.7z"/><path d="M262.4,203.1c-1.7-2.6-3.2-5.2-4.5-8c-2.6-5.5-4.5-11-5.7-16.4c-1.2-5.4-1.7-10.6-1.4-15.5c0.3-4.9,1.7-9.3,3.7-12.7     c0.9-1.8,2.3-3.1,3.5-4.4c1.3-1.1,2.6-2,3.8-2.8c1.3-0.5,2.5-1.1,3.4-1.5c1.1-0.3,2-0.4,2.7-0.6c1.1-0.2,1.8-0.4,2.1-0.4     c-0.3,0.1-1,0.4-2,0.8c-0.7,0.3-1.6,0.5-2.5,1c-0.9,0.5-2,1.2-3.1,1.8c-4.5,2.9-8.7,9.8-8.7,19c-0.1,4.5,0.4,9.5,1.6,14.6     c1.2,5.1,3.1,10.4,5.6,15.5c1.3,2.6,2.8,5.1,4.4,7.6c1.6,2.5,3.4,4.7,5.4,6.8c4.1,3.8,10,5.9,15.6,5.1c5.7-0.6,9.9-5.2,12.3-10.4     c1.2-2.7,1.9-5.5,2.5-8.4c0.5-2.9,0.8-5.8,0.8-8.6c0-5.7-0.7-11.3-2-16.4c-1.3-5.1-3.2-9.8-5.4-13.8c-2.2-4-4.9-7.3-7.7-9.7     c-2.8-2.4-5.8-3.7-8.3-4.5c-1.3-0.4-2.5-0.6-3.5-0.6c-1.1-0.1-2-0.2-2.7-0.1c-1.5,0.1-2.2,0.1-2.2,0.1s0.8-0.2,2.2-0.5     c0.7-0.2,1.6-0.3,2.7-0.3c1.1-0.1,2.4,0,3.7,0.2c2.8,0.4,6.2,1.6,9.4,4c3.2,2.3,6.2,5.7,8.7,9.8c2.5,4.1,4.6,9,6,14.3     c1.4,5.3,2.3,11.1,2.4,17.2c0.1,3-0.2,6.1-0.7,9.2c-0.5,3.1-1.3,6.2-2.6,9.2c-1.3,3-3.2,5.9-5.7,8.3c-2.5,2.4-5.9,3.9-9.3,4.4     c-6.8,1.1-13.9-1.5-18.8-6.1C266,208.3,264,205.8,262.4,203.1z"/><path d="M218.7,205.6c-3.7-7.5-6.3-15-8.1-22c-0.2-0.9-0.4-1.7-0.6-2.6c0,1.6-0.1,3.1-0.1,4.4c-0.1,2.4-0.1,4.2-0.2,5.5     c-0.1,1.3-0.1,2-0.1,2s-0.2-0.7-0.7-1.8c-0.4-1.2-1-3-1.6-5.3c-0.8-3-1.6-7-2.1-11.7c-0.1-0.7-0.1-1.3-0.2-2.1     c-0.1-1.9-0.3-3.8-0.3-5.9c0-4.2,0.4-8.7,1.3-13.5c0.3-1.7,0.7-3.4,1.2-5.1c0,0,0-0.1,0-0.1c0.3-1.2,0.7-2.5,1.1-3.7     c0.7-1.9,1.4-3.8,2.3-5.8c1.2-2.4,2.5-4.9,4-7.2c1.6-2.3,3.3-4.5,5.4-6.7c4.1-4.3,9.4-7.3,14.8-9.3c5.5-1.9,11.3-2.9,16.9-2.9     c2.8,0,5.6,0.2,8.3,0.5c2.7,0.4,5.4,0.9,7.9,1.6c1.3,0.3,2.6,0.7,3.8,1.1c1.3,0.4,2.5,0.9,3.6,1.4c0.2,0.1,0.5,0.2,0.7,0.3     c0,0,0,0,0,0c2.1,0.9,4.2,1.8,6,3c0.2,0.1,0.4,0.3,0.6,0.4c0.8,0.5,1.7,1,2.5,1.5c1,0.7,1.9,1.4,2.8,2.1c0.9,0.7,1.8,1.4,2.6,2.1     c0.8,0.8,1.5,1.6,2.3,2.3c3.7,3.9,6.2,7.8,8.1,11.2c0.6,1,1.1,2,1.5,3c0.5,0.9,0.9,1.8,1.2,2.6c0.9,2.2,1.5,4,2,5.2     c0.4,1.2,0.6,1.8,0.6,1.8s-0.4-0.5-1.2-1.5c-0.8-1-1.9-2.5-3.3-4.4c-0.7-0.9-1.5-2-2.4-3c1.1,2,2.1,4.2,3.1,6.3     c0.8,1.8,1.7,3.6,2.5,5.4c0.7,1.9,1.4,3.8,2.1,5.8c2.5,7.9,4.6,16.6,4.5,25.9c-0.1,2.3-0.3,4.6-0.5,7c-0.4,2.3-0.8,4.6-1.2,6.9     c-1.1,4.5-2.1,9.2-3.8,13.7c-3.4,9.1-9.7,17.6-18.5,22.6c-8.8,5.1-19.5,6-29,3.7c-2.4-0.7-4.7-1.2-7-2c-2.2-1-4.4-2-6.6-3     c-2-1.3-3.9-2.6-5.9-3.9c-1.9-1.4-3.5-3.1-5.3-4.6C227.4,220.6,222.5,213,218.7,205.6z M220.8,134.9c-1.4,2-2.6,4-3.7,6.1     c-2.1,4.2-3.5,8.6-4.5,12.9c-0.9,4.3-1.5,8.5-1.8,12.4c-0.1,1.2-0.2,2.4-0.3,3.5c0.7,4.1,1.7,8.5,3,13.1c2,6.8,4.6,14,8.2,21.3     c3.8,7.1,8.5,14.3,14.8,20.3c1.7,1.4,3.2,2.9,5,4.2c1.8,1.2,3.7,2.4,5.5,3.6c2,0.9,4.1,1.8,6.1,2.8c2.1,0.7,4.3,1.2,6.5,1.8     c8.8,2,18.4,1.2,26.3-3.3c8-4.5,13.7-12.3,17-20.7c1.7-4.2,2.7-8.7,3.8-13.1c0.4-2.2,0.8-4.5,1.2-6.6c0.2-2.2,0.4-4.4,0.5-6.6     c0.2-8.7-1.6-17.1-4-24.8c-0.7-1.9-1.3-3.8-2-5.6c-0.8-1.8-1.6-3.6-2.4-5.3c-1.6-3.5-3.1-6.9-4.8-10c-1.2-2.3-2.5-4.5-3.7-6.5     c-0.7-0.7-1.4-1.4-2.2-2.1c-0.7-0.6-1.4-1.3-2.2-1.9c-0.8-0.6-1.7-1.2-2.5-1.7c-0.9-0.6-1.7-1.2-2.6-1.8c-0.9-0.5-1.9-1-2.8-1.6     c-1.9-1.1-4-1.9-6.1-2.8c-1.1-0.4-2.1-0.8-3.2-1.1c-1.1-0.3-2.2-0.6-3.4-0.8c-2.3-0.5-4.7-0.9-7.1-1.1c-2.4-0.3-4.9-0.3-7.4-0.3     c-4.9,0.2-9.9,1.1-14.5,2.8c-4.6,1.7-8.8,4.2-12.1,7.5C223.7,131,222.1,132.9,220.8,134.9z"/><path d="M389.6,356.8c0.2,2,0.5,3.8,0.7,5.6c0.2,0.7,0.3,1.4,0.5,2.1c3-0.5,6.2-0.5,9.4-0.1c3.7,0.4,7.5,1.1,11.3,2     c1.6,0.4,3.2,0.8,4.9,1.2c-0.2-0.6-0.4-1.2-0.5-1.8c-0.3-0.9-0.5-1.7-0.8-2.6c-0.5-1.7-1.1-3.5-1.6-5.3c-0.5-1.8-1-3.6-1.5-5.3     c-0.3-0.9-0.4-1.8-0.8-2.6c-0.3-0.8-0.5-1.7-0.8-2.5c-0.6-1.6-1.2-3.2-1.7-4.7c-0.3-0.9-0.7-1.7-0.9-2.5c-3.5,2.1-6.9,4.2-10,6.1     c-4.6,3-8.6,5.8-12.1,7.8c0.3,0.1,0.6,0.3,0.9,0.4l1.4,0.7C388.8,355.6,389.7,355.7,389.6,356.8z M401.3,509.1     c-7.8,1.1-15.7,1.6-23.5,1.2c0.7,2,1.4,4.2,2.2,6.6c4.3,13.3,10.4,32.2,17.7,54.9c3.7,11.4,7.6,23.7,11.8,36.7     c4.1,13,8.7,26.7,13.4,40.8c2.4,7.1,4.7,14.3,7.3,21.5c2.5,7.2,5.1,14.6,7.7,21.9c2.5,7.3,5.2,14.5,8,21.7     c0.9,2.4,1.8,4.7,2.7,7.1c-1.3-10.9-2.6-21.8-3.9-32.6c-1-7.8-1.9-15.5-2.9-23.1c-0.9-7.6-1.9-15.2-2.9-22.6     c-2-14.8-3.8-29-5.6-42.6c-1.9-13.5-3.7-26.3-5.4-38.1c-1.6-11.8-3.4-22.6-4.8-32.2c-0.7-4.8-1.4-9.3-2-13.4     c-0.7-4.1-1.3-7.9-2-11.4v0C413.2,507,407.3,508.2,401.3,509.1z M346.4,362.6c-0.8,1.6-1.6,2.8-2.3,3.8c0.8-0.2,1.7-0.4,2.5-0.5     c3.8-0.8,7.6-1.4,11.2-1.7c3.6-0.3,7.1-0.4,10.3,0.1c3.2,0.4,6.2,1.6,8.4,3.2c1.3,1,2.2,2.2,2.8,3.4c0.6-0.8,1.3-1.7,2.2-2.5     c1.9-1.7,4.5-3,7.5-3.7c-0.2-0.6-0.4-1.2-0.6-1.9c-0.2-0.8-0.4-1.7-0.5-2.6c-0.1-0.8-0.3-1.6-0.5-2.5c0-0.2-0.2-0.2-0.3-0.2     l-1.3-0.5c-0.9-0.4-1.9-0.8-2.9-1.2c-0.1,0-0.1-0.1-0.2-0.1c-0.5-0.2-1-0.4-1.5-0.7c-0.4-0.2-0.9-0.4-1.3-0.5c-1-0.5-2-1.1-3-1.6     c-2-1.1-4.1-2.1-6.2-3.5c-2-1.4-4.1-2.8-6.2-4.2c-2.1-1.5-4-3.3-6.1-5.1c-0.3-0.3-0.6-0.5-0.9-0.8c-0.1,0.1-0.1,0.3-0.2,0.4     c-0.3,0.7-0.5,1.3-0.8,2c-0.3,0.7-0.6,1.3-0.9,2c-0.6,1.4-1.2,2.8-1.8,4.1c-0.7,1.4-1.3,2.7-1.9,4c-0.3,0.7-0.7,1.3-1,2     c-0.3,0.6-0.7,1.3-0.9,1.9c-0.7,1.3-1.3,2.5-1.8,3.6C347.5,360.6,347,361.6,346.4,362.6z M484.6,139.9c-2.6,3.8-5,8-7.2,12.1     c-1,1.9-2.1,3.8-3.1,5.7c-1.5,3.1-3,6.2-4.4,9.3c-1.2,3.2-2.6,6.3-3.5,9.6c-0.5,1.6-1,3.2-1.5,4.8c-0.5,1.6-0.8,3.3-1.1,4.9     c-0.4,1.6-0.8,3.2-1,4.8c-0.2,1.6-0.4,3.2-0.7,4.8c-0.5,3.2-0.5,6.4-0.7,9.5c-0.2,3.1-0.1,6.1,0.3,9c0.7,5.8,2.5,11.1,4.6,15.7     c2.1,4.5,4.7,8.3,7.4,11.3c0.2,0.2,0.4,0.4,0.6,0.7c2.6,2.9,5.3,5.2,7.7,6.8c1.2,0.9,2.4,1.6,3.4,2.1c1,0.6,1.9,1.1,2.6,1.4     c1.5,0.7,2.3,1.1,2.3,1.1s-0.8-0.3-2.4-0.7c-0.8-0.3-1.8-0.6-2.9-1.1c-1.1-0.4-2.4-1-3.7-1.8c-2.5-1.3-5.4-3.4-8.3-6.1     c-1.3,1.7-2.8,3.8-4.9,6c-1,1.2-2.4,2.2-3.7,3.4c-1.3,1.1-2.6,2.3-3.9,3.5c-1.3,1.3-2.5,2.8-3.9,4.3c-1.2,1.6-2.6,3.2-3.8,5     c-2.5,3.4-4.8,7.4-7.3,11.4c-1.2,2-2.6,4-3.7,6.1c-1.2,2.1-2.3,4.3-3.5,6.4c-1.2,2.2-2.4,4.4-3.5,6.6l-3.2,6.8l-3.2,6.8     c-1,2.3-2,4.6-2.9,6.9c-0.9,2.3-1.9,4.6-2.9,6.8c-0.4,1.1-1,2.2-1.6,3.4c-0.6,1.1-1.2,2.3-2,3.3c-2.3,3.3-5.3,6-8.3,8.1     c0.4,1,0.9,2,1.3,3.1c0.6,1.4,1.3,3,1.9,4.7c0.3,0.8,0.7,1.7,1,2.5c0.4,0.9,0.5,1.7,0.8,2.6c0.5,1.7,1,3.5,1.5,5.4     c0.5,1.8,0.9,3.6,1.4,5.4c0.2,0.9,0.4,1.8,0.7,2.6c0.2,0.9,0.4,1.7,0.6,2.6c0.1,0.4,0.2,0.8,0.3,1.1c0,0,0,0,0,0     c1,0.3,2,0.5,3,0.8c0.3,0.1,0.5,0.1,0.8,0.2c0.5-1.6,1.1-3.3,1.7-5.1c3.7-11.3,9.3-27.2,16.1-46.2c3.1-9.6,6.6-20.2,12.7-30.5     c3.1-5,7-9.9,11.9-13.9c4.9-4.1,10.7-7.1,17-8.9c6.3-1.9,12.9-2.5,19.4-3c6.6-0.5,13-0.9,19.5-2c6.4-1.1,12.8-2.9,18.8-5.4     c6-2.5,11.8-5.9,16.5-10.4c9.7-8.9,16.4-20.7,21.6-32.7c1.6-3.9,3.2-7.7,4.5-11.6c0,0,0,0,0-0.1c0.7-2.2,1.3-4.4,1.8-6.6     c1.3-6.2,2.2-12.5,2.2-18.7c0.2-12.4-3-24.3-7.1-35c-2.1-5.3-4.5-10.3-7.5-14.7c-3-4.3-6.8-7.9-10.8-10.6     c-8.2-5.5-17.4-7.5-25.4-8.1c-3.4-0.2-6.6-0.1-9.7,0.1c-0.3,0.1-0.6,0.2-0.9,0.3c-2.4,0.8-5,1.5-7.4,2.9c-2.5,1.2-5.1,2.2-7.5,4     c-2.5,1.6-5.1,3.1-7.4,5.2c-2.4,2-4.9,3.9-7,6.3c-1.1,1.2-2.3,2.3-3.4,3.4c-1.1,1.2-2.1,2.5-3.1,3.8c-1,1.3-2.1,2.5-3.1,3.9     C486.4,137.2,485.5,138.5,484.6,139.9z M294.5,363.4c-1.4-1.4-2.9-2.5-4-4.1c-0.1-0.1-0.2-0.3-0.3-0.4c0.1,0.5,0.2,0.9,0.3,1.4     c0.1,0.5,0.2,1,0.4,1.4c0.1,0.5,0.3,1.1,0.5,1.6c1.4,4.2,3.8,8.5,7.4,12.2c4.5,4.6,10.8,8.1,17.9,10.5c7.2,2.4,15,4.3,23.1,5.6     c4.1,0.7,8.3,1.1,12.5,1.3c4.2,0.2,8.5,0.1,12.6-0.7c2.7-0.5,5.4-1.3,7.6-2.7c1.1-0.7,2.1-1.5,2.8-2.5l0.3-0.4     c0.2-0.4,0.5-0.7,0.6-1.1l1-2.6c0.7-1.7,1.2-3.3,1.7-5l0.4,1.2l1.2,4.4c0.1,0.5,0.3,1.1,0.4,1.4l0.5,1c0.5,0.9,0.5,0.8,0.7,1.1     c0.7,0.9,1.8,1.7,2.9,2.4c3.5,2.1,7.8,3,12.1,3.5c4.3,0.5,8.7,0.7,13,0.5c4.3-0.1,8.6-0.5,12.9-1c4.2-0.5,8.4-1.2,12.4-2.1     c8.1-1.8,15.8-4.1,21.9-8.3c5.8-3.8,10.2-9,12.9-14.4c0.2-0.3,0.4-0.7,0.5-1c0,0,0,0,0-0.1c1.9-3.9,2.9-7.9,3.4-11.7     c-1.6,2.6-3.6,5.2-6,7.7c-2.6,2.6-5.6,5.1-9,7.4c-1.7,1.1-3.5,2.2-5.3,3.1c-1.9,0.9-3.8,1.8-5.9,2.5c-2.1,0.8-4.5,0.9-6.7,0.9     c-2.2,0-4.4-0.3-6.5-0.7c-3.8-0.7-7.5-1.6-11-2.5c-0.2,0-0.4-0.1-0.6-0.1c-0.2-0.1-0.4-0.1-0.7-0.2c-0.3-0.1-0.7-0.2-1-0.3     c-1.2-0.3-2.4-0.7-3.5-1c-0.5-0.1-0.9-0.3-1.4-0.4c-1.9-0.5-3.8-1.1-5.7-1.6c-3.8-0.9-7.4-1.7-10.8-2.2c-3-0.4-5.8-0.5-8.4-0.2     c-0.4,0-0.9,0-1.3,0.1c-0.1,0-0.2,0-0.3,0.1c-2.8,0.4-5.2,1.3-7.1,2.6c-1.1,0.8-2.1,1.7-2.8,2.6c-0.4,0.4-0.7,0.8-0.9,1.1     c0,0,0-0.1-0.1-0.1c-0.2-0.4-0.4-0.9-0.8-1.3c-0.7-1.1-1.7-2.2-3.1-3.1c-2-1.2-4.5-1.8-7.4-2.1c-2.9-0.2-6.2-0.1-9.6,0.3     c-3.4,0.4-7.1,1.1-10.8,1.9c-1.8,0.4-3.7,0.9-5.7,1.3c-0.2,0-0.4,0.1-0.6,0.1c-0.3,0-0.5,0.1-0.8,0.2c-1.4,0.3-2.9,0.7-4.4,1     c-2,0.4-4.1,1-6.3,1.1c-2.1,0.2-4.2,0.3-6.4,0.2c-4.3-0.1-8.5-0.8-12.5-1.8c-2-0.7-4-1.2-5.9-2.1c-2-0.7-3.7-1.7-5.5-2.7     C297.6,365.8,296,364.5,294.5,363.4z M266.3,377.3c0.3,2.9,0.8,5.8,1.4,8.9c0.5,3,1.2,6.1,2,9.2c3.1,12.5,8,25.7,15.4,38.4     c3.6,6.4,8.2,12.5,12.8,18.8c2.3,3.1,4.5,6.4,7,9.5c2.5,3.1,5,6.2,7.5,9.3c4.9,6.4,10.6,12.3,16.9,17.4c1.6,1.3,3.2,2.5,4.9,3.6     c0.2,0.1,0.4,0.3,0.5,0.4c5,3.3,10.3,6.1,15.9,8.3c5.9,2.4,12.1,3.9,18.4,4.8c0.2,0,0.4,0.1,0.5,0.1c2,0.3,4.1,0.5,6.2,0.6     c0.2,0,0.5,0,0.7,0c8,0.5,16.2,0,24.2-1.2c5.9-0.9,11.8-2.1,17.6-3.5c0.3-0.1,0.6-0.1,0.9-0.2c2.2-0.5,4.4-1.1,6.6-1.7     c8.1-2.3,15.7-6,22.7-10.7c7-4.6,13.2-10.2,18.9-16.1c5.7-6,10.8-12.4,15.5-18.9c4.7-6.6,8.9-13.2,13-19.9     c4.1-6.7,8.1-13.1,11.7-19.6c7.1-12.9,13-25.8,14.6-38.4c0.2-1.8,0.3-3.5,0.2-5.3c-0.1-4.3-1-8.5-3-11.9     c-1.4-2.4-3.3-4.5-5.4-5.9c-2.1-1.4-4.7-1.9-7.1-1.9c-5,0.1-9.6,2-13.7,3.8c-4.1,1.9-7.7,4-11,5.9c-3,1.7-5.7,3.3-8,4.7     c-0.3,0.8-0.6,1.5-0.9,2.2c-2.8,6.3-7.6,12.5-14.2,17c-6.6,4.6-14.7,7.1-22.9,9c-4.1,1-8.4,1.7-12.7,2.4c-4.3,0.6-8.7,1-13.2,1.2     c-4.5,0.2-9,0.1-13.5-0.4c-4.5-0.6-9.2-1.5-13.5-4c-1.4-0.9-2.8-1.8-3.9-3.2c-0.8-0.9-0.5-0.8-0.6-0.8l-0.3,0.4     c-1,1.4-2.4,2.5-3.8,3.4c-2.9,1.7-5.9,2.7-9,3.3c-4.6,0.8-9.1,0.9-13.5,0.7c-4.4-0.2-8.7-0.7-12.9-1.5c-8.4-1.4-16.3-3.5-23.7-6     c-7.4-2.6-14.1-6.4-18.9-11.6c-4.6-5-7.2-11-8.2-16.4c-3-2.1-6.3-4.6-10.3-5.9c-2.1-0.6-4.3-0.6-6.2,0.5c-2,1.1-3.4,3-4.3,5.3     C265.7,365.9,265.7,371.6,266.3,377.3z M220.3,103.4c-6.3,7-12.6,16-16.1,26.5c-1.7,5.3-3.3,10.8-3.9,16.6     c-1.2,5.8-1.1,11.8-1.3,17.9c-0.1,2.6,0.3,5.3,0.5,8c0,0.4,0.1,0.8,0.1,1.2l0.1,0.8l0.3,3.9c0.1,1.6,0.5,3.1,0.8,4.6     c0.6,3.1,1.1,6.2,1.8,9.3c0.9,3,1.7,6,2.9,9c2.3,5.9,5.4,11.6,9,16.9c3.6,5.4,7.8,10.4,12.3,15c4.5,4.7,9.3,8.9,15,11.8     c5.6,3,11.7,5,18,6.5c3.1,0.8,6.3,1.4,9.4,2.1c3.2,0.8,6.3,1.5,9.4,2.2c3.1,0.8,6.2,1.5,9.3,2.5c1.5,0.5,3,0.9,4.6,1.4     c1.5,0.6,2.9,1.2,4.4,1.7c6,2.1,11.4,6.4,15.1,11.2c3.8,4.9,6.7,10.1,9.1,15.3c4.7,10.5,7.8,20.9,10.6,30.4     c1.2,4.9,2.2,9.5,3.3,13.9c0.9,4.4,1.5,8.7,2.2,12.7c1.4,7.9,2.3,14.9,3.1,20.6c0.1,0.6,0.2,1.2,0.3,1.7c0.1,0,0.3,0,0.4-0.1     c0.6-0.1,1.2-0.3,1.7-0.4c0.3-1.3,0.7-3.1,1.4-5.3c0.4-1,0.8-2.2,1.3-3.4c0.5-1.2,1-2.5,1.5-3.8c0.3-0.7,0.6-1.3,0.8-2     c0.3-0.7,0.6-1.3,0.9-2c0.6-1.3,1.2-2.7,1.8-4.1c0.6-1.4,1.2-2.7,1.8-4.1c0.3-0.7,0.6-1.3,0.9-2c0.3-0.7,0.6-1.3,0.9-1.9     c0.3-0.7,0.6-1.3,0.9-1.9c-0.7-0.9-1.2-2-1.8-3c-1.3-2.5-2.2-5.2-3-7.9c-0.7-2.7-1.4-5.4-2.2-8c-0.7-2.7-1.6-5.1-2.5-7.8     c-1.8-5.3-3.7-10.6-5.5-15.8c-0.9-2.6-1.8-5.1-2.6-7.7c-0.8-2.6-1.8-5-2.9-7.4c-2-4.7-4.3-9.2-6.7-13.3c-2.4-4.1-5-7.7-7.6-10.9     c-5.2-6.4-10.5-10.8-14.6-13.4c-0.9,0.5-1.7,1.1-2.6,1.5c-3,1.4-5.5,2.4-7.3,2.8c-1.7,0.5-2.6,0.7-2.6,0.7s0.9-0.4,2.5-1.1     c1.7-0.6,4-1.8,6.8-3.5c0.5-0.4,1.1-0.8,1.7-1.2c0.3-0.3,0.7-0.5,1-0.8c2-1.5,4.1-3.4,5.9-5.8c2.8-3.5,5.3-8,7.1-13.2     c1.8-5.3,2.9-11.2,3.7-17.6c0.2-1.6,0.4-3.3,0.6-4.9c0.1-1.6,0.3-3.2,0.3-4.9c0.1-3.3-0.1-6.8-0.3-10.4c-0.1-3.6-0.5-7-0.9-10.5     c-0.4-1.7-0.8-3.5-1.2-5.3c-0.4-1.8-0.8-3.5-1.4-5.3c-1.1-3.5-2.2-7-3.7-10.5c-1.3-3.5-2.9-7-4.4-10.4c-0.8-1.7-1.6-3.4-2.4-5     c-2.5-5-5.4-9.9-8.4-14.4c-2-3.1-4.3-5.9-6.6-8.6c-1.2-1.3-2.5-2.5-3.7-3.8c-1.3-1.2-2.7-2.2-4-3.4c-5.4-4.3-11.5-7.3-17.5-9.4     c-5.6-1.9-11.2-3-16.4-3.7c-2.4,0.1-5,0.4-7.6,0.8c-3.9,0.6-8,1.5-12.1,3.1C227.9,98.2,223.8,100.3,220.3,103.4z M218.3,101.2     c3.9-3.5,8.4-5.6,12.8-7.2c2.7-1,5.4-1.7,8-2.1c1.6-0.3,3.2-0.5,4.7-0.7c6.2-0.7,11.8-0.5,16.6,0c2.8,0.6,5.7,1.3,8.7,2.3     c0.8,0.3,1.6,0.5,2.4,0.8c0,0,0,0,0.1,0c5.5,2,11.1,4.8,16.1,8.8c1.4,1.2,2.9,2.2,4.3,3.5c1.3,1.3,2.6,2.6,3.9,4     c2.4,2.8,4.9,5.7,7,8.9c4.3,6.2,8.1,13,11.3,19.9c1.6,3.5,3.2,7,4.5,10.5c1.5,3.5,2.6,7.2,3.8,10.8c0.6,1.8,1.1,3.7,1.4,5.5     c0.4,1.8,0.8,3.7,1.2,5.5c0.4,3.7,0.8,7.5,0.9,11c0,3.5,0.3,7.1,0.1,10.6c0,1.7-0.3,3.5-0.4,5.2c-0.2,1.7-0.4,3.3-0.7,4.9     c-0.9,6.5-2.1,12.7-4.2,18.2c-2.1,5.5-5,10.1-8.2,13.6c-1.9,2.1-4,3.8-5.9,5.1c4.4,2.1,10.2,6.1,15.6,12.2     c2.9,3.2,5.6,7,8.1,11.1c2.6,4.1,5,8.7,7.1,13.5c1.1,2.4,2.2,4.9,3,7.5c0.9,2.6,1.8,5.1,2.7,7.7c1.8,5.2,3.7,10.5,5.5,15.7     c0.9,2.6,1.9,5.4,2.6,8.1c0.7,2.7,1.4,5.4,2.1,8c0.7,2.6,1.5,5.1,2.7,7.3c0.1,0.3,0.3,0.5,0.4,0.7c0.4,0.9,0.9,1.7,1.5,2.4     l0.7,0.9l0.4,0.5c0.5,0.4,0.9,0.9,1.4,1.3c2,1.7,3.7,3.4,5.7,4.9c2,1.4,4,2.8,5.9,4.2c2,1.4,4,2.4,5.9,3.5c1,0.6,1.9,1.1,2.8,1.7     c0.9,0.4,1.9,0.9,2.8,1.3c3.3-2.4,7.3-5.7,12.3-9.4c3.2-2.2,6.7-4.3,10.3-6.7c0.1-0.1,0.3-0.2,0.4-0.3c0.8-0.5,1.5-1,2.2-1.6     c2.6-1.9,4.9-4.2,6.7-6.9c0.7-0.9,1.1-1.9,1.7-2.9c0.5-1,1-2,1.5-3.2c0.9-2.2,1.8-4.5,2.8-6.8c0.9-2.3,1.8-4.7,2.9-7l3.3-6.9     l3.3-6.8c1.2-2.2,2.5-4.5,3.7-6.6c1.2-2.2,2.4-4.3,3.6-6.5c1.3-2.1,2.6-4.1,3.9-6.1c2.6-4,5-7.9,7.7-11.4c1.3-1.8,2.8-3.4,4-5     c1.4-1.5,2.8-3,4.2-4.3c1.5-1.2,3-2.5,4.3-3.5c1.3-1.1,2.7-1.9,3.8-3c2.2-1.9,4-3.8,5.5-5.3c-3-3-5.9-6.9-8.4-11.6     c-2.5-4.8-4.4-10.4-5.3-16.5c-0.4-3-0.6-6.3-0.4-9.5c0.1-3.2,0.1-6.5,0.6-9.8c0.2-1.6,0.4-3.3,0.6-5c0.2-1.7,0.7-3.3,1-5     c0.4-1.7,0.7-3.4,1.2-5c0.5-1.7,1-3.3,1.5-5c0.9-3.4,2.4-6.6,3.6-9.9c1.4-3.3,2.9-6.4,4.4-9.6c3.3-6.3,6.6-12.4,10.5-18.2     c1-1.4,2-2.9,2.9-4.3c1-1.4,2.2-2.7,3.2-4c1.1-1.3,2.1-2.7,3.3-3.9c1.2-1.2,2.4-2.4,3.6-3.6c2.2-2.5,4.9-4.5,7.4-6.4     c2.4-2.2,5.2-3.7,7.8-5.3c1.2-0.8,2.5-1.5,3.8-2.1c1.4-0.7,2.8-1.3,4.2-2c0.3-0.1,0.5-0.3,0.8-0.4c5-1.2,10.9-2,17.7-1.9     c0.3,0,0.5,0,0.8,0c8.3,0.4,18,2.1,26.8,7.8c4.3,2.9,8.4,6.6,11.7,11.2c3.3,4.6,5.8,9.8,8,15.2c2.2,5.5,4,11.2,5.4,17.2     c1.6,6,2.1,12.4,2.2,18.9c0.1,6.4-0.8,13-2.1,19.5c-1.3,6.6-3.8,12.9-6.4,19c-5.2,12.3-12.1,24.6-22.4,34.1     c-5.1,4.8-11.2,8.4-17.6,11c-6.4,2.7-13,4.5-19.7,5.6c-6.7,1.1-13.4,1.5-19.8,2c-6.5,0.5-12.8,1.1-18.6,2.8     c-5.9,1.7-11.3,4.5-15.8,8.2c-4.6,3.7-8.2,8.2-11.2,13c-6,9.7-9.4,20.1-12.7,29.7c-7.4,18.9-13.5,34.6-17.8,45.7     c-0.7,1.8-1.4,3.4-2,5c3.4,0.9,6.8,1.7,10.2,2.3c3.9,0.7,8.1,1.1,11.5,0c1.8-0.5,3.7-1.3,5.4-2.1c1.8-0.8,3.4-1.8,5.1-2.8     c3.2-2,6.1-4.3,8.6-6.7c2.5-2.4,4.6-5,6.2-7.5c0.9-1.4,1.7-2.8,2.3-4.2c0.7-1.4,1.1-2.7,1.5-4c0.3,1.4,0.4,3,0.5,4.6     c0,0.2,0,0.4,0,0.6c0.1,4.4-0.4,9.3-2,14.3c2.1-1.4,4.4-2.9,7-4.6c3.2-2,6.8-4.3,10.9-6.4c4.1-2,8.8-4.1,14.4-4.4     c2.8-0.1,5.8,0.4,8.4,2.1c2.7,1.6,4.7,3.9,6.4,6.6c3.4,5.4,4.2,12.2,3.5,18.9c-1.5,13.4-7.5,26.6-14.6,39.7     c-3.6,6.6-7.6,13.1-11.6,19.8c-4,6.7-8.3,13.5-13,20.2c-4.7,6.7-9.9,13.2-15.7,19.4c-5.8,6.1-12.3,11.9-19.5,16.7     c-7.2,4.9-15.2,8.7-23.7,11.2c-2.2,0.6-4.5,1.2-6.8,1.8c0,0,0,0.1,0,0.1c0.7,3.4,1.6,7.2,2.4,11.3c0.7,4.1,1.6,8.6,2.4,13.4     c1.7,9.6,3.8,20.3,5.5,32.1c1.8,11.8,3.7,24.6,5.8,38.1c1.9,13.5,3.9,27.8,6,42.6c1,7.4,2,14.9,3,22.5c1,7.6,2,15.3,3,23.1     c1.9,15.6,3.9,31.4,5.8,47.1l0.1,0.6l0,0.5l1.8,15.4l-5.5-14.5l-0.2-0.4l-8-21.3c-2.8-7.2-5.5-14.5-8-21.9     c-2.6-7.4-5.1-14.7-7.6-22c-2.6-7.2-4.8-14.5-7.2-21.6c-4.7-14.2-9.2-27.9-13.3-40.9c-4.1-13.1-8-25.4-11.4-36.8     c-6.9-22.8-12.3-42-16-55.4c-0.7-2.5-1.3-4.9-1.9-7c-0.6,0-1.2-0.1-1.8-0.1c-2.2-0.1-4.5-0.4-6.7-0.7l-0.7-0.1     c-6.2-1-12.3-2.7-18.1-5c-5.5-2.1-10.8-4.8-15.6-8l-0.8-0.3c0-0.1,0-0.1,0.1-0.2c-2.1-1.3-4.1-2.8-5.9-4.3     c-6.6-5.4-12.5-11.5-17.4-18c-2.5-3.2-5.1-6.4-7.6-9.5c-2.5-3.1-4.7-6.4-7-9.6c-4.6-6.3-9.2-12.5-12.9-19.1     c-7.5-13-12.4-26.5-15.4-39.3c-0.8-3.2-1.4-6.3-1.9-9.4c-0.6-3.1-1.1-6.1-1.3-9.1c-0.4-6-0.4-11.9,1.7-17.1     c1-2.6,2.9-4.9,5.3-6.1c2.4-1.3,5.3-1.2,7.5-0.4c3.9,1.4,6.9,3.7,9.6,5.8c-0.3-1.6-0.4-3-0.5-4.5c-0.1-2.3,0-4.5,0.1-6.4     c0,0.2,0.1,0.3,0.2,0.5c0.5,1,0.8,2,1.4,3c0,0,0,0,0,0c0.2,0.4,0.4,0.7,0.6,1c0.4,0.7,0.8,1.3,1.3,2c0.5,0.6,1.1,1.3,1.6,1.9     c1,1.4,2.4,2.4,3.7,3.6c1.4,1,2.9,2.1,4.5,3c1.6,0.9,3.3,1.8,5.1,2.4c1.7,0.8,3.6,1.2,5.5,1.8c3.8,0.9,7.7,1.5,11.7,1.5     c2,0.1,4,0,5.9-0.2c2,0,3.8-0.6,5.8-0.9c1.5-0.4,3-0.7,4.5-1c-0.1-0.6-0.3-1.2-0.4-1.8c-1.2-5.7-2.4-12.6-4-20.5     c-0.8-3.9-1.6-8.1-2.6-12.5c-1.2-4.3-2.3-8.9-3.6-13.6c-3-9.4-6.1-19.7-10.8-29.9c-2.4-5.1-5.2-10.1-8.8-14.6     c-3.6-4.6-8.1-8.1-13.8-10.1c-1.4-0.5-2.8-1.1-4.3-1.6l-4.4-1.3c-3-0.9-6-1.6-9.1-2.4c-3.1-0.7-6.2-1.4-9.3-2.1     c-3.2-0.7-6.3-1.3-9.5-2.1c-6.4-1.5-12.9-3.5-18.9-6.7c-6.1-3.1-11.3-7.7-16-12.5c-4.7-4.8-9-10-12.7-15.5     c-3.8-5.5-7-11.5-9.4-17.7c-1.3-3.1-2.1-6.3-3-9.4c-0.7-3.2-1.2-6.4-1.8-9.6c-0.3-1.6-0.6-3.2-0.8-4.8l-0.4-4.8     c-0.1-3.2-0.6-6.3-0.5-9.5c0.2-6.3,0.1-12.5,1.4-18.4c0.7-6,2.4-11.8,4.2-17.2c1.1-2.7,2.2-5.3,3.3-7.9c1.4-2.4,2.8-4.9,4.1-7.2     c1.3-2.4,3.1-4.4,4.6-6.5c0.8-1,1.5-2.1,2.4-3.1C216.4,103.1,217.3,102.1,218.3,101.2z"/><path d="M213.8,43.5c4.7-2.8,10.4-3.8,15.8-4.1c5.4-0.3,10.8,0.4,16,1.4c2.6,0.7,5.1,1.3,7.5,2.2c2.5,0.8,4.8,1.9,7.1,2.9     c4.5,2.3,8.7,4.8,12.2,7.7c3.7,2.8,6.7,5.9,9.4,8.9c1.6,1.9,3,3.8,4.2,5.7c1.1,1.7,2.1,3.3,2.9,4.8c-1.3-0.9-2.8-1.9-4.3-2.9     c-1.3-0.8-2.6-1.6-4.1-2.4c-3-1.7-6.4-3.4-10.2-4.8c-3.7-1.4-7.8-2.5-12.1-3.3c-2.1-0.3-4.3-0.6-6.6-0.8c-2.2,0-4.5-0.3-6.7-0.1     c-2.3,0.1-4.6,0.2-6.8,0.6c-2.3,0.3-4.6,0.8-6.8,1.3c-2.3,0.4-4.5,1.3-6.7,1.9c-2.2,0.7-4.3,1.6-6.4,2.4c-2.1,1-4.1,2-6.1,2.9     c-1.9,1.2-3.8,2.3-5.6,3.4c-1.7,1.3-3.3,2.7-4.9,4c-1.5,1.4-2.8,3-4.1,4.4c-2.4,3.1-4.5,6.2-6,9.3c-0.4,0.8-0.8,1.5-1.2,2.3     c-0.4,0.7-0.6,1.5-0.9,2.2c0,0,0,0.1,0,0.1c-0.6,1.4-1.1,2.8-1.6,4.1c-0.1,0.4-0.2,0.7-0.3,1.1c0-0.5,0-1,0-1.5     c0-2.1,0.1-4.7,0.4-7.7c0.4-3.4,1-7.2,2-11.3c1-3.8,2.3-8,4.3-12.2c1.8-4.2,4.4-8.4,7.5-12.5c0.9-1,1.7-2,2.6-2.9     c0.9-0.9,1.9-1.8,2.9-2.7c0.9-0.9,2-1.7,3.2-2.4C211.5,44.9,212.5,44,213.8,43.5z M216.7,61.5c2.2-0.9,4.5-1.8,6.8-2.6     c2.3-0.7,4.6-1.6,7-2c2.4-0.5,4.8-1.1,7.2-1.3c2.4-0.4,4.8-0.5,7.2-0.5c2.4-0.2,4.8,0.1,7.1,0.2c2.4,0.2,4.6,0.6,6.9,0.9     c4.5,1,8.7,2.2,12.6,3.8c2.8,1.2,5.5,2.5,7.9,3.8c-2.6-2.6-5.4-5.4-8.8-7.8c-3.4-2.7-7.5-5-11.8-7.1c-2.2-0.9-4.4-2-6.8-2.7     c-2.3-0.9-4.7-1.4-7.2-2c-4.9-0.9-10-1.5-15.1-1.2c-5,0.4-9.9,1.3-14.2,3.7c-1.2,0.4-2.1,1.3-3.1,1.9c-1,0.7-2,1.3-2.9,2.2     c-0.9,0.8-1.8,1.6-2.7,2.4c-0.8,0.9-1.6,1.8-2.4,2.6c-2.9,3.7-5.4,7.6-7.2,11.6c-1.9,3.9-3.2,7.9-4.4,11.6     c-0.3,0.8-0.5,1.6-0.7,2.3c0.8-1.3,1.7-2.5,2.7-3.8c1.4-1.6,2.8-3.3,4.3-4.9c1.7-1.4,3.4-2.9,5.2-4.4c2-1.2,3.9-2.5,5.9-3.8     C212.5,63.6,214.6,62.6,216.7,61.5z"/></g></g><path d="M387.5,540.2c12.3-0.9,24.3-3.3,35.9-7c-0.1-0.9-0.3-1.9-0.4-2.8c-0.7-4.8-1.4-9.3-2-13.4   c-0.7-4.1-1.3-7.9-2-11.4v0c-5.8,1.4-11.7,2.6-17.7,3.5c-7.8,1.1-15.7,1.6-23.5,1.2c0.7,2,1.4,4.2,2.2,6.6   C382.1,523.4,384.6,531.3,387.5,540.2z" opacity="0.4"/><path d="M354.7,538.5c3.5-8,6.6-15,9.2-20.8c1.4-3.1,2.6-5.9,3.7-8.3c-6.2-1-12.3-2.7-18.1-5   c-5.5-2.1-10.8-4.8-15.6-8c-0.5,1.7-0.9,3.5-1.5,5.4c-1.8,6.5-4,14.4-6.5,23.5C333.3,532.2,343.9,536.3,354.7,538.5z" opacity="0.4"/><path d="M323,399c8.6,2.7,17.6,4.2,26.7,4.6c10.4,0.5,20.4-3.7,30.8-2.6c4.7,0.5,9,2.7,13.7,3.5   c6.1,1.1,12.3,1.3,18.4,0.8c11.3-1,23.9-3,34-8.4c6.6-3.6,11.2-8.4,14.8-14c-0.8,0.7-1.6,1.4-2.5,2c-6.6,4.6-14.7,7.1-22.9,9   c-4.1,1-8.4,1.7-12.7,2.4c-4.3,0.6-8.7,1-13.2,1.2c-4.5,0.2-9,0.1-13.5-0.4c-4.5-0.6-9.2-1.5-13.5-4c-1.4-0.9-2.8-1.8-3.9-3.2   c-0.8-0.9-0.5-0.8-0.6-0.8l-0.3,0.4c-1,1.4-2.4,2.5-3.8,3.4c-2.9,1.7-5.9,2.7-9,3.3c-4.6,0.8-9.1,0.9-13.5,0.7   c-4.4-0.2-8.7-0.7-12.9-1.5c-8.4-1.4-16.3-3.5-23.7-6c-7.4-2.6-14.1-6.4-18.9-11.6c-0.2-0.3-0.4-0.5-0.6-0.8   C300.8,387.5,310.4,395.1,323,399z" opacity="0.4"/><path d="M314,426.3c-1.3-1.4-2.5-2.7-3.6-4.1c0,0,0,0-0.1-0.1c-8.7-10.3-14.7-20.1-17.5-27.4c-1.1-2.1-1.7-4-2.2-5.6   c-2.8-1.8-5-3.1-6.2-3.8c4.2,19.5,13.1,35.5,30.1,47.8c5.1,3.7,10.4,6.7,15.9,9.3c-1.7-1.5-3.3-2.9-4.9-4.4   c-2.8-2.6-5.5-5.3-8.1-7.9C316.2,428.8,315.1,427.5,314,426.3z" opacity="0.4"/><path d="M410.3,492.5c-20.4,1.8-41.9,1.2-61.7-4.1c-11.4-3-22.2-7.1-31.6-14.2c-2.3-1.7-4.4-3.5-6.5-5.3   c0.7,0.8,1.4,1.7,2,2.5c4.9,6.4,10.6,12.3,16.9,17.4c1.6,1.3,3.2,2.5,4.9,3.6c0.2,0.1,0.4,0.3,0.5,0.4c5,3.3,10.3,6.1,15.9,8.3   c5.9,2.4,12.1,3.9,18.4,4.8c0.2,0,0.4,0.1,0.5,0.1c2,0.3,4.1,0.5,6.2,0.6c0.2,0,0.5,0,0.7,0c8,0.5,16.2,0,24.2-1.2   c5.9-0.9,11.8-2.1,17.6-3.5c0.3-0.1,0.6-0.1,0.9-0.2c2.2-0.5,4.4-1.1,6.6-1.7c8.1-2.3,15.7-6,22.7-10.7c4.1-2.8,8-5.9,11.7-9.2   C444.5,486.8,427.5,490.9,410.3,492.5z" opacity="0.4"/><path d="M511.1,371.6c-0.3,0.3-0.8,0.8-1.6,1.6c-1.3,1.2-3.2,3.1-5.7,5.2c-2.2,1.7-4.8,3.7-7.8,5.8   c-0.2,0.4-0.4,0.9-0.5,1.3c-2.9,7.3-7.5,17.6-14.7,29.1c-1.5,2.2-3,4.5-4.7,6.8c-0.2,0.2-0.4,0.5-0.6,0.8c-2.4,3.3-5.1,6.6-8.1,9.7   c-5.4,5.7-11.6,11.2-18.8,15.8c-3.7,2.2-7.5,4.3-11.6,6l-0.1,0c13.8-3,25.3-10.2,36.1-19.4C490.4,419.4,511.4,396.5,511.1,371.6z" opacity="0.4"/><path d="M339.3,432.5c-1.3-0.2-2.7-0.3-3.9-0.5c-5.1-0.7-9.9-1.8-14.2-3.1c-0.1,0-0.2-0.1-0.3-0.1   c2.2,2.2,4.5,4.4,7,6.6c2.9,2.5,5.8,5.3,8.8,7.6c1.5,1.3,3.3,2.2,4.9,3.4c1.7,1,3.5,2,5.3,2.9c0.9,0.4,1.8,0.8,2.8,1.2   C345.6,445.3,340.9,438.4,339.3,432.5z" opacity="0.4"/><path d="M451.3,430.3c-0.9,0.2-1.8,0.3-2.7,0.5c0.1,1.6,0,3.2-0.4,5.2c-0.7,3.3-1.8,6.5-3.1,9.7   c0.5-0.3,1.1-0.6,1.6-0.9c7.1-4.3,13.1-9.6,18.4-15c1.7-1.8,3.4-3.6,4.9-5.4C465.3,426.2,458.9,428.3,451.3,430.3z" opacity="0.4"/><path d="M480.4,393.3c-5.2,2.6-10.9,5.1-17.1,7.5c-3,1.3-6.3,2.3-9.6,3.4c-3.3,1.2-6.7,2-10.2,3   c-3.5,1-7.1,1.4-10.7,2.2c-3.7,0.7-7.3,1.3-11,2c-7.5,0.9-15.1,2-22.7,2.7c-3.8,0.1-7.6,0.3-11.5,0.5c-3.8,0.1-7.6,0.5-11.4,0.1   c-3.8-0.2-7.6-0.4-11.3-0.6c-1.8-0.1-3.7-0.2-5.5-0.3c-1.8-0.2-3.6-0.5-5.4-0.7c-3.5-0.4-7.1-0.9-10.5-1.6c-3.4-0.5-6.8-1.1-10-1.9   c-6.5-1.3-12.5-3.3-18-5.2c-2.6-1.3-5.1-2.6-7.5-3.8c-2.4-1.2-4.3-2.7-6.3-3.9c-3.9-2.6-7.2-4.9-10-6.8c-0.1,0-0.1-0.1-0.2-0.1   c0.5,1.3,1.3,2.9,2.2,4.5c3.4,7,9.9,16.2,18.7,26.1c1.2,1.4,2.5,2.8,3.9,4.2c1.7,0.6,3.5,1.1,5.4,1.6c4.2,1,8.9,2,13.9,2.6   c0.9,0.1,1.9,0.2,2.9,0.3c-0.2-4,1.8-7.2,7.4-8.6c8.8-2.2,18.1-1.2,27-0.6c13.2,0.8,26.4,1.4,39.6,1.1c10.3-0.2,32-4.9,35.5,7.2   c0.9-0.1,1.8-0.3,2.6-0.4c8.6-1.9,15.8-3.6,20.7-5.1c2.6-3.2,4.9-6.4,7-9.5c7.4-11,12.4-20.9,15.9-27.8   C490.3,387.9,485.7,390.7,480.4,393.3z" opacity="0.4"/><linearGradient gradientUnits="userSpaceOnUse" id="SVGID_1_" x1="381.7024" x2="382.1162" y1="464.0954" y2="492.0392"><stop offset="0" style="stop-color:#FFFFFF"/><stop offset="1" style="stop-color:#FFFFFF;stop-opacity:0"/></linearGradient><path d="M334.5,471.3c-2-11.8,25.7-4.1,31.5-4.1c18.2,0,37.3-2.6,55.4-0.6   c5.2,0.6,10.1,2.1,6.6,7.4c-3,4.4-13.1,7.5-17.9,9.1c-14.6,5-29.6,3.2-44.4,0.5C357.4,482.1,336.5,483.1,334.5,471.3z" fill="url(#SVGID_1_)" opacity="0.5"/><linearGradient gradientUnits="userSpaceOnUse" id="SVGID_2_" x1="397.4141" x2="432.1182" y1="580.2231" y2="580.2231"><stop offset="0" style="stop-color:#FFFFFF"/><stop offset="1" style="stop-color:#FFFFFF;stop-opacity:0"/></linearGradient><path d="M407.8,603.6c8.1-3.3,16.2-6.6,24.3-9.9c-1.6-10.9-3-21.4-4.4-31.1   c-0.3-2-0.5-3.8-0.8-5.8c-9.9,4.7-19.7,9.4-29.5,14.3c0.1,0.2,0.1,0.4,0.2,0.7C400.8,581.7,404.2,592.4,407.8,603.6z" fill="url(#SVGID_2_)" opacity="0.5"/><linearGradient gradientUnits="userSpaceOnUse" id="SVGID_3_" x1="289.1382" x2="323.8643" y1="637.2852" y2="637.2852"><stop offset="0" style="stop-color:#FFFFFF"/><stop offset="1" style="stop-color:#FFFFFF;stop-opacity:0"/></linearGradient><path d="M302.2,658.4c2.1-4.7,4.2-9.4,6.2-14c5.3-12.1,10.5-23.7,15.4-34.9   c-2.5,1.3-4.9,2.6-7.4,3.9c-5.3,2.8-10.8,5.4-16.3,8.1c-1.2,4.6-2.4,9.2-3.6,13.9c-1.8,7.2-3.6,14.5-5.5,21.9   c-0.6,2.6-1.3,5.2-2,7.8C293.5,663,297.9,660.7,302.2,658.4z" fill="url(#SVGID_3_)" opacity="0.5"/><path d="M527.3,245.3c-1.1,0.2-2.2,0.5-3.3,0.7c-2,0.4-4.1,0.3-6.2,0.5c-2.1,0.3-4.2-0.1-6.3-0.3l-3.1-0.3l-3.1-0.7   c-4.1-0.9-8.1-2.1-12-3.9c-3.8-1.7-7.5-4.1-10.6-6.9c-1.2-1-2.2-2.1-3.2-3.2c-7.1-1-12.8-4.8-16.8-10.3c0.9,3.3,2,6.5,3.4,9.3   c2.1,4.5,4.7,8.3,7.4,11.3c0.2,0.2,0.4,0.4,0.6,0.7c2.6,2.9,5.3,5.2,7.7,6.8c1.2,0.9,2.4,1.6,3.4,2.1c1,0.6,1.9,1.1,2.6,1.4   c1.5,0.7,2.3,1.1,2.3,1.1s-0.8-0.3-2.4-0.7c-0.8-0.3-1.8-0.6-2.9-1.1c-1.1-0.4-2.4-1-3.7-1.8c-2.5-1.3-5.4-3.4-8.3-6.1   c-1.1,1.5-2.4,3.2-4.1,5.1c0.2,0.6,0.1,1.2-0.3,1.7c-11.1,13.6-15.6,29.7-18.7,46.2c1.4-3,3-6.1,4.8-9.1c3.1-5,7-9.9,11.9-13.9   c4.9-4.1,10.7-7.1,17-8.9c6.3-1.9,12.9-2.5,19.4-3c6.6-0.5,13-0.9,19.5-2c6.4-1.1,12.8-2.9,18.8-5.4c6-2.5,11.8-5.9,16.5-10.4   c2.2-2,4.3-4.2,6.2-6.6C552.7,243,539.9,245.5,527.3,245.3z" opacity="0.4"/><path d="M326.3,296.3c-1-17.6-4.6-32.9-12.5-48.3c-3-2.9-5.9-5.1-8.3-6.7c-0.9,0.5-1.7,1.1-2.6,1.5   c-3,1.4-5.5,2.4-7.3,2.8c-1.7,0.5-2.6,0.7-2.6,0.7s0.9-0.4,2.5-1.1c1.7-0.6,4-1.8,6.8-3.5c0.5-0.4,1.1-0.8,1.7-1.2   c0.3-0.3,0.7-0.5,1-0.8c2-1.5,4.1-3.4,5.9-5.8c2.8-3.5,5.3-8,7.1-13.2c1.4-4,2.3-8.3,3.1-13c-6.1,11-15.8,19.9-27.6,24.9   c-1.8,1.5-3.7,2.9-5.8,4.1c-8.8,5.1-19.5,6-29,3.7c-2.4-0.7-4.7-1.2-7-2c-2.2-1-4.4-2-6.6-3c-1.9-1.3-3.8-2.6-5.8-3.8   c-8.4-2.1-16.3-5.7-23.2-11.1c3.2,4.4,6.7,8.6,10.6,12.5c4.5,4.7,9.3,8.9,15,11.8c5.6,3,11.7,5,18,6.5c3.1,0.8,6.3,1.4,9.4,2.1   c3.2,0.8,6.3,1.5,9.4,2.2c3.1,0.8,6.2,1.5,9.3,2.5c1.5,0.5,3,0.9,4.6,1.4c1.5,0.6,2.9,1.2,4.4,1.7c6,2.1,11.4,6.4,15.1,11.2   c3.8,4.9,6.7,10.1,9.1,15.3c2.2,5,4.1,10,5.7,14.8C326.6,300.6,326.4,298.5,326.3,296.3z" opacity="0.4"/><path d="M512.5,230.6c-2-0.2-3.9-0.6-5.8-1c-1.4,0-2.8,0-4.2-0.2c-3.7-0.4-7.3-2-10-4.5c-1.4-1.2-2.7-2.6-3.7-4.1   c-2.9-2.5-5.4-5.6-7.3-9.3c-3.7-7.1-6-14.9-6.5-22.8c-0.8,4-1.4,8-1.5,12.1c-0.1,3.7,0.1,7.5,0.9,11.1c0.7,3.7,2,7.3,3.9,10.6   c1.8,3.3,4.3,6.3,7.2,8.8c2.9,2.6,6.2,4.7,9.8,6.3c3.5,1.8,7.3,2.9,11.2,3.7l2.9,0.7l2.9,0.3c1.9,0.1,3.9,0.5,5.8,0.3   c1.9-0.1,3.8-0.1,5.7-0.4c1.9-0.4,3.7-0.8,5.6-1.2c1.8-0.7,3.5-1.3,5.3-1.9c1.7-0.7,3.3-1.7,5-2.5c6.3-3.7,12.2-8.3,16.6-13.5   c1.2-1.2,2.3-2.5,3.2-3.9c1-1.3,2-2.7,2.9-4c1.3-2.1,2.5-4.1,3.7-6.1C552.7,224.3,534,233,512.5,230.6z" opacity="0.4"/><path d="M306.4,169.6c0.7,9,0.6,18-1.8,25.8c-0.5,2.9-1.3,5.9-2.5,8.7c-1.3,3-3.2,5.9-5.7,8.3   c-2.5,2.4-5.9,3.9-9.3,4.4c-2,0.3-4.1,0.3-6.1,0c-0.8,0.2-1.4,0.4-2.2,0.5c-22.1,4-41.7-1.3-57.6-14.2c0.2,0.3,0.3,0.7,0.5,1   c3.8,7.1,8.5,14.3,14.8,20.3c1.7,1.4,3.2,2.9,5,4.2c1.8,1.2,3.7,2.4,5.5,3.6c2,0.9,4.1,1.8,6.1,2.8c2.1,0.7,4.3,1.2,6.5,1.8   c8.8,2,18.4,1.2,26.3-3.3c8-4.5,13.7-12.3,17-20.7c1.7-4.2,2.7-8.7,3.8-13.1c0.4-2.2,0.8-4.5,1.2-6.6c0.2-2.2,0.4-4.4,0.5-6.6   C308.4,180.7,307.6,175,306.4,169.6z" opacity="0.4"/><path d="M521,162.5c7.7,3.9,14.6,11,17.8,19.2c0.4-2.9,0.6-5.8,0.5-8.5c-0.1-9.8-5-17.1-10-20.1   c-1.2-0.7-2.4-1.3-3.3-1.9c-1-0.4-2-0.7-2.7-1c-1.1-0.4-1.8-0.7-2.1-0.8h-6.3c-0.3,0-0.6,0-0.9,0.1c-0.6,0.1-1.3,0.3-2,0.4   c-5.7,1.1-12.8,6-17.8,14.5c-0.3,0.5-0.5,0.9-0.8,1.4C501.2,160.3,512.8,158.4,521,162.5z" opacity="0.4"/><path d="M273.6,151.9c7.1-1,14.6-0.5,20.5,2.7c-2.1-3.6-4.5-6.5-7.1-8.7c-2.8-2.4-5.8-3.7-8.3-4.5   c-1.3-0.4-2.5-0.6-3.5-0.6c-1.1-0.1-2-0.2-2.7-0.1c-1.5,0.1-2.2,0.1-2.2,0.1l-0.1,0c-0.3,0.1-1,0.4-2,0.8c-0.7,0.3-1.6,0.5-2.5,1   c-0.9,0.5-2,1.2-3.1,1.8c-4.5,2.9-8.7,9.8-8.7,19c0,0.9,0,1.9,0,2.8C256.7,158.4,263.7,153.2,273.6,151.9z" opacity="0.4"/><path d="M526.8,173.8c-5.8,5.8-11.9,9.1-13.7,7.3c-1.8-1.8,1.5-7.9,7.3-13.7c5.8-5.8,11.9-9.1,13.7-7.3   C535.9,161.9,532.6,168,526.8,173.8z" fill="#FFFFFF"/><circle cx="498.8" cy="194.2" fill="#FFFFFF" r="5"/><path d="M292,165.3c-2.5,6-6.3,10.1-8.6,9.2c-2.3-0.9-2.1-6.6,0.4-12.6c2.5-6,6.3-10.1,8.6-9.2   C294.7,153.7,294.5,159.3,292,165.3z" fill="#FFFFFF"/><ellipse cx="276.1" cy="185.7" fill="#FFFFFF" rx="4.5" ry="4.4"/><path d="M544.8,144.5c15.4,6.8,24.7,19.5,29.3,34.2c-0.1-0.5-0.1-1-0.2-1.5c-0.7-4.2-1.6-8.7-2.8-13.4   c-1.2-4.7-2.9-9.3-5.4-13.8c-1.2-2.2-2.7-4.3-4.3-6.4c-1.6-2-3.4-3.9-5.4-5.6c-3.9-3.4-8.5-6-13.6-7.5c-5-1.5-10.3-1.8-15.5-1.2   c-2.6,0.3-5.2,0.9-7.7,1.6c-2.5,0.7-5,1.6-7.4,2.6c-4.7,2-9.2,4.4-13.1,7.1c-1.5,1-2.8,2.1-4.2,3.1   C510.2,137.2,531.9,138.8,544.8,144.5z" opacity="0.4"/><path d="M288.2,131.2c-0.4-0.3-0.7-0.6-1.1-0.9c-0.8-0.6-1.7-1.2-2.5-1.7c-0.9-0.6-1.7-1.2-2.6-1.8   c-0.9-0.5-1.9-1-2.8-1.6c-1.9-1.1-4-1.9-6.1-2.8c-1.1-0.4-2.1-0.8-3.2-1.1c-1.1-0.3-2.2-0.6-3.4-0.8c-2.3-0.5-4.7-0.9-7.1-1.1   c-2.4-0.3-4.9-0.3-7.4-0.3c-4.9,0.2-9.9,1.1-14.5,2.8c-4.6,1.7-8.8,4.2-12.1,7.5c-1.6,1.7-3.2,3.6-4.6,5.5c-1.4,2-2.6,4-3.7,6.1   c-2.1,4.2-3.5,8.6-4.5,12.9c-0.6,2.7-1,5.4-1.3,8C220.7,131.6,257.4,122.6,288.2,131.2z" opacity="0.4"/></g></svg>